<?xml version="1.0" encoding="utf-8"?>
<!-- Generator: Adobe Illustrator 24.2.3, SVG Export Plug-In . SVG Version: 6.00 Build 0)  -->
<svg version="1.1" id="レイヤー_1" xmlns="http://www.w3.org/2000/svg" xmlns:xlink="http://www.w3.org/1999/xlink" x="0px"
	 y="0px" viewBox="0 0 467 299.8" style="enable-background:new 0 0 467 299.8;" xml:space="preserve">
<style type="text/css">
	.st0{fill:#85DDC1;stroke:#404040;stroke-width:1.5;stroke-linecap:round;stroke-linejoin:round;}
	.st1{clip-path:url(#SVGID_2_);}
	.st2{fill:#FFFFFF;}
	.st3{fill:#404040;}
	.st4{fill:none;stroke:#404040;stroke-width:1.5;stroke-linecap:round;stroke-miterlimit:10;}
</style>
<g>
	<path class="st0" d="M348.2,0.8c-65.2,0-118.1,52.8-118.1,118c0,16.8,3.6,33.5,10.6,48.8l-32.2,29.6l52.2,0.8
		c43.7,48.4,118.4,52.1,166.8,8.4S479.5,88,435.8,39.6C413.4,14.9,381.6,0.7,348.2,0.8z"/>
	<g>
		<defs>
			<path id="SVGID_1_" d="M348.2,0.8c-65.2,0-118.1,52.8-118.1,118c0,16.8,3.6,33.5,10.6,48.8l-32.2,29.6l52.2,0.8
				c43.7,48.4,118.4,52.1,166.8,8.4S479.5,88,435.8,39.6C413.4,14.9,381.6,0.7,348.2,0.8z"/>
		</defs>
		<clipPath id="SVGID_2_">
			<use xlink:href="#SVGID_1_"  style="overflow:visible;"/>
		</clipPath>
		<g class="st1">
			<path class="st2" d="M315.1,118.8c0,0-2.2-23.1,0.3-32.9c1.6-6.4,6.2-14.1,12.6-20.2c2.3,4.9,8.2,10.5,23.2,12.4
				c21.2,2.7,29.8,6.4,34.3,12.2c1.2,9.9,0,22.9,0,22.9c2.4-2.7,4.4-7.8,5.9-13.6c1.1-0.3,2.2-0.2,3.2,0.2c1.5,0.9,2.2,3.1,2.5,4.9
				c1.2,7.6-1.8,15.8-5.4,18.5c-1.8,1.4-5.1,1.4-6.6,0.2l-0.4,2.2c-0.6,2.1-1.2,4.2-2,6.2c-6.1,16.4-18.1,26.4-32.3,26.4
				c-8.1,0-20.7-4.1-26.7-9.8c5.6,1,11.3,1.7,17,2.1c0.6,1.2,1.8,1.9,3.1,1.9h12.3c1.9,0,3.5-1.6,3.5-3.5c0,0,0,0,0,0V147
				c0-1.9-1.6-3.5-3.5-3.5c0,0,0,0,0,0h-12.3c-1.4,0-2.7,0.9-3.3,2.2c-1.8-0.1-10.7,2.2-10.7,2.2c-9.8,0.9-9.6-10.9-12.9-15.6
				L315.1,118.8z"/>
			<path class="st2" d="M429.8,234.3c0,0-3.3-31.7-6.2-40.5c-2.5-7.4-14.1-17.1-26.9-20.8c-9.6-2.8-16.5-4.3-21.4-5.5l-9.2,2.9
				l-15.6,3.5l-15.4-3.5l-8.5-2.7l-0.6-0.2l-3.9,0.9c-4.5,1.1-10.2,2.5-17.5,4.6c-12.9,3.7-24.5,13.5-27,20.8
				c-2.9,8.8-6.2,40.5-6.2,40.5c3.3,1.4,6.7,2.6,10.2,3.5c0,0,0,0.1,0,0.1c4.7,1.2,10,2.3,15.7,3.2c16.4,2.5,33,3.7,49.5,3.7h7.7
				c16.6,0,33.1-1.2,49.5-3.6c5.8-1,11.1-2.1,15.8-3.3c0,0,0-0.1,0-0.1C423,236.9,426.4,235.7,429.8,234.3z"/>
			<path class="st3" d="M429.8,234.3c0,0-3.3-31.7-6.2-40.5c-2.5-7.4-14.1-17.1-26.9-20.8c-9.6-2.8-16.5-4.3-21.4-5.5l-9.2,2.9
				l15.1,4.1c1.1,0.3-1.9,9.7-8.3,21l-0.1,0.1c-1.6-2.3-22.3-21.7-22.3-21.7s-19.5,18.3-22,21.4c-6.3-11.3-9.1-20.6-8-20.9l6.1-1.6
				l8.6-2.3l-8.6-2.6l-0.6-0.2l-3.9,0.9c-4.5,1.1-10.2,2.5-17.5,4.6c-12.9,3.7-24.5,13.5-27,20.8c-2.9,8.8-6.2,40.5-6.2,40.5
				c3.3,1.4,6.7,2.6,10.2,3.5c0,0,0,0.1,0,0.1c4.7,1.2,10,2.3,15.7,3.2c16.4,2.5,33,3.7,49.5,3.7h7.7c16.6,0,33.1-1.2,49.5-3.6
				c5.8-1,11.1-2.1,15.8-3.3c0,0,0-0.1,0-0.1C423,236.9,426.4,235.7,429.8,234.3z M293.2,227.2c0.3,2.7,0.9,5.4,1.8,8
				c-3.5-0.6-6.7-1.2-9.7-2l-2.6-0.8c-2.1-0.6-4-1.1-5.7-1.7c1.2-10.5,3.6-29.3,5.5-35.1c1.6-4.8,10.8-13.4,22.4-17
				C301.4,192,293.2,222.8,293.2,227.2z M350.4,223.3c-7.4-6.5-13.8-14-18.9-22.4l0.2-0.4c0.4-0.6,1-1.5,1.7-2.6
				c1-1.4,16.5-16.6,16.5-16.6s18,18.4,19.3,19.8C364.1,209.5,357.7,216.9,350.4,223.3L350.4,223.3z M415.5,233.2
				c-3,0.7-6.2,1.4-9.7,2c0.9-2.6,1.5-5.3,1.8-8c0-4.5-8.1-35.1-11.7-48.5c11.6,3.6,20.8,12.2,22.4,17c1.9,5.8,4.3,24.6,5.5,35.1
				c-1.7,0.6-3.6,1.2-5.7,1.7L415.5,233.2z"/>
			<path class="st3" d="M320.2,137c-1.8-3.6-3.2-7.4-4.1-11.4l-0.4-2.2c-0.7,0.5-1.6,0.8-2.5,0.9c0.7,2.4,0.9,4.8,0.8,7.3
				C315.8,133.7,317.9,135.5,320.2,137z"/>
			<path class="st3" d="M294.5,123.5c0.7,4.1,5,7.3,8.7,7.8c1,1.8,2.1,3.5,3.4,5.1c3.3,4.2,7.6,7.5,12.4,9.8
				c0.2,0.1,0.5,0.2,0.8,0.3c0.7,0.9,1.4,1.9,2.1,2.8c1.4,1.7,2.9,3.3,4.5,4.8c6.5,6.1,15.1,9.6,24.1,9.7
				c17.7,0,32.3-12.9,38.7-33.7h0.2c2.2,0,4.3-0.8,5.9-2.2c5.6-4.4,9-14.9,7.5-24c-0.7-4.4-2.5-7.5-5.4-9.1
				c-0.6-0.3-1.3-0.6-1.9-0.8V83.2c0-0.4,0-0.8,0-1.2c-2.6-16-9.9-32.3-27.8-38.7c-0.6-0.2-1.2-0.4-1.9-0.6
				c-5.2-1.5-10.6-2.2-16-2.2c-4.4,0-8.8,0.4-13.2,1.3c-0.2,0.1-0.5,0.1-0.8,0.2c-0.6,0.1-1.1,0.3-1.7,0.4
				c-7.1,2-13.5,5.9-18.4,11.4c-5.3,5.9-8.6,13.2-10.6,20.4c-0.5,3-0.8,6-0.8,9.1v5.6c2,1.1,3.1,6,3.1,6c1.5,7.6,3.9,14.9,7,18.4
				c0,0-1.6-17.6,0.8-27.4c1.6-6.4,6.2-14.1,12.6-20.2c2.3,4.9,8.2,10.5,23.2,12.4c21.2,2.7,29.8,6.4,34.3,12.2
				c1.2,9.9,0,22.9,0,22.9c2.4-2.7,4.4-7.8,5.9-13.6c1.1-0.3,2.2-0.2,3.2,0.2c1.5,0.9,2.2,3.1,2.5,4.9c1.2,7.6-1.8,15.8-5.4,18.5
				c-1.8,1.4-5.1,1.4-6.6,0.2l-0.4,2.2c-0.6,2.1-1.2,4.2-2,6.2c-6.1,16.4-18.1,26.4-32.3,26.4c-8.1,0-15.8-3.3-21.4-9
				c3.9,0.7,7.8,1.2,11.7,1.3c0.6,1.2,1.8,1.9,3.1,1.9h12.3c1.9,0,3.5-1.6,3.5-3.5c0,0,0,0,0,0V147c0-1.9-1.6-3.5-3.5-3.5
				c0,0,0,0,0,0h-12.3c-1.4,0-2.7,0.9-3.3,2.2c-1.8-0.1-3.6-0.2-5.4-0.4c-3.9-0.4-7.8-1.2-11.5-2.4c-0.9-0.3-1.7-0.6-2.6-1
				c-2.3-1.1-4.4-2.5-6.4-4.1c-2.7-2.2-5-4.9-6.7-7.9c1.1-1.3,1.8-2.9,2-4.6c0.1-0.7,0.1-1.3,0.1-1.3l-4.1-22.9
				c-1.4-6.6-5.6-8.1-6.6-8.3c0.9-20,8.5-55.5,50.4-55.4c40.1,0.2,48.5,33.2,49.8,53.4c1.5,0.6,2.8,1.6,3.8,2.8
				c-0.5-40.2-19.6-54.4-35.1-59.4c-2.3-10-12.3-16.3-22.3-14.1c-6.9,1.6-12.3,6.9-14,13.7c-15.8,4.6-36,18.6-36.3,60.2
				c-3.4,2-5.2,5.8-4.6,9.7L294.5,123.5z"/>
			<circle class="st3" cx="330.1" cy="106.2" r="6.1"/>
			<circle class="st3" cx="371.7" cy="106.2" r="6.1"/>
		</g>
	</g>
	<path class="st3" d="M76,141.2c4.5,0,8.1-3.6,8.1-8.1c0-4.5-3.6-8.1-8.1-8.1c-4.5,0-8.1,3.6-8.1,8.1c0,0,0,0,0,0
		C67.9,137.6,71.5,141.2,76,141.2C76,141.2,76,141.2,76,141.2z"/>
	<circle class="st3" cx="132.1" cy="133.3" r="8.1"/>
	<path class="st3" d="M39.5,153.9c2.4,2,5.4,3.1,8.5,3.2h0.4c9,30,30,48.5,55.4,48.6s46.6-18.8,55.7-48.3h0.4c3.1,0,6.1-1.1,8.6-3.1
		c8.1-6.3,12.9-21.4,10.9-34.4c-1-6.4-3.6-10.8-7.8-13.1c-1.7-0.9-3.5-1.4-5.4-1.6c0.4-1.6,0.8-3.2,1.1-5
		c3.6-19.5-1.1-55.7-42.8-68.3C85.1,19.9,62.9,47.1,62.9,47.1s-23,6.8-22.6,43.3c0.1,4.7,0.6,9.5,1.6,14.1c-1.9,0.3-3.7,0.9-5.4,1.8
		c-4.1,2.3-6.8,6.7-7.8,13C26.7,132.4,31.4,147.5,39.5,153.9z M36.9,120.7c0.2-2.7,1.5-5.3,3.7-7c1.1-0.5,2.3-0.7,3.4-0.6v0.3
		c2.9,8.4,5.8,17.6,7.6,18.9c0.2-6.2,0.5-11.8,0.9-16.7c1.4-16.6,4.2-26.5,7-32.4c0.4-0.8,0.7-1.4,1.1-2l0.4-0.6
		c0.4-0.6,0.8-1.2,1.2-1.7l0.2-0.2c3.8-4.7,7-3.9,7-3.9s8.4-15.4,22.2-4.7s28.9,29.8,61.8,29.9c2.3,9.7,3.5,19.7,3.4,29.7
		c2.9-5.1,5.2-10.6,7-16.2c1.3-0.2,2.6-0.1,3.8,0.5c2.1,1.7,3.4,4.3,3.6,7c1.7,11-2.6,22.6-7.8,26.5c-2.8,1.9-6.5,2-9.4,0.2
		l-0.6,3.2c-7.6,28.8-26.6,46.7-49.5,46.7S62.4,180.1,55,151.6l-0.8-3.8c-3,1.7-6.7,1.5-9.5-0.6c-5-4.1-9.4-15.6-7.6-26.6
		L36.9,120.7z"/>
	<path class="st3" d="M208.1,286c0,0-2.7-44.3-8.1-55.1c-4.8-9.6-15.8-17.2-35.7-25c0-0.1,0-0.1,0-0.2c-5.8-2.2-12.1-4.5-18.9-6.6
		c-7.6,17.7-73.4,17.1-82.9,0c-6.8,2.2-13.1,4.4-18.9,6.6c0,0.1,0,0.1,0,0.2c-19.8,7.6-30.8,15.2-35.5,24.8C2.7,241.6,0,286,0,286
		c4.3,1.8,8.8,3.3,13.3,4.5v0.3c21.8,5.8,53.5,8.8,85.8,9h10.1c32.2-0.3,64-3.3,85.8-9v-0.2C199.4,289.4,203.8,287.8,208.1,286z"/>
	<path class="st4" d="M85.2,164.8c3.4,4.6,10.5,7.7,18.9,7.7s15.5-3.2,18.9-7.7"/>
</g>
</svg>
