<svg id="kouji_man" xmlns="http://www.w3.org/2000/svg" width="107.001" height="144" viewBox="0 0 107.001 144">
  <path id="パス_4" data-name="パス 4" d="M352,119.619s-1.39-22.761-4.168-28.319c-2.473-4.947-8.134-8.857-18.342-12.853v-.085c-1.835-.709-3.806-1.39-5.863-2.126L320.034,75a21.076,21.076,0,0,1-.889,4.432,29.856,29.856,0,0,1-3.779,7.739,37.417,37.417,0,0,1-3.073,4.016c-.987-1.583-8.546-11.658-8.546-11.658l-5.225,1.932-5.309-1.932s-7.559,10.122-8.546,11.644A36.42,36.42,0,0,1,281.8,87.5a31.362,31.362,0,0,1-3.987-8.059A22.942,22.942,0,0,1,276.956,75l-3.584,1.209c-2.057.709-4.029,1.39-5.863,2.126v.083C257.24,82.4,251.585,86.323,249.166,91.27,246.39,96.831,245,119.591,245,119.591a54.7,54.7,0,0,0,6.868,2.335v.1c11.186,2.961,27.513,4.5,44.091,4.642h5.169c16.578-.139,32.9-1.681,44.091-4.642v-.1A51.543,51.543,0,0,0,352,119.619Zm-62.084,3.237a237.745,237.745,0,0,1-23.775-1.862,83.406,83.406,0,0,1,.6-8.934,1.39,1.39,0,0,0,0-.765l-2.78-9.325a1.835,1.835,0,0,0-3.515,1.043l2.626,8.934c-.389,3.085-.528,6.489-.584,8.546-3.266-.528-6.266-1.126-8.922-1.807a2.5,2.5,0,0,0-.777-.291c-1.39-.389-2.78-.792-3.933-1.209.64-9.037,2.028-21.134,3.543-24.178,2-4,7.049-7.411,16.356-11.116a3.807,3.807,0,0,0,.584-.291c1.459-.557,3.044-1.126,4.725-1.71a33.714,33.714,0,0,0,4.642,9.728,36.283,36.283,0,0,0,5.03,5.975l1.751,1.639,1.126-2.084.083-.181c0-.1.154-.264.278-.459.237-.418.584-1,1.043-1.737.625-.972,1.459-2.209,2.46-3.543l4.363,5.558Zm53.484-4.168c-2.668.681-5.67,1.278-8.934,1.807a73.138,73.138,0,0,0-.584-8.546L336.524,103a1.835,1.835,0,0,0-3.516-1.043l-2.78,9.325a1.777,1.777,0,0,0,0,.765,84.679,84.679,0,0,1,.6,8.99,230.827,230.827,0,0,1-23.79,1.862l-4.864-28.138,4.363-5.558a54.323,54.323,0,0,1,3.779,5.851l1.139,2.126,1.751-1.6a37.176,37.176,0,0,0,5.03-5.919,33.713,33.713,0,0,0,4.642-9.728c1.654.569,3.253,1.139,4.7,1.7a3.585,3.585,0,0,0,.611.305c9.31,3.64,14.355,7.058,16.356,11.116,1.529,3.044,2.9,15.132,3.543,24.178-1.18.418-2.5.821-3.933,1.209a2.96,2.96,0,0,0-.765.278Z" transform="translate(-245 17.335)" fill="#333"/>
  <path id="パス_5" data-name="パス 5" d="M106.262,35.742l2.758-14.174L119.8,9.549l7.087-3.391,1.542-4,8-.916,10.483,2.154L150,7.091l9.24,6.476,6.462,9.852,2.169,8.934,1.542,3.7h2.46l.916,7.7-70.532.618V36.659Z" transform="translate(-83.876 0.483)" fill="#f4e153"/>
  <path id="パス_6" data-name="パス 6" d="M256.043,67.314c1.1,9.379,6.391,13.688,11.729,14.118a38.6,38.6,0,0,0,8.338,14.409,25.373,25.373,0,0,0,35.878.557l.555-.557a38.016,38.016,0,0,0,8.338-14.409c5.336-.43,10.63-4.739,11.729-14.118.833-7.28-2.084-10.463-3.9-11.714a7.5,7.5,0,0,0-2.042-.987H330.7V43.5h-3.474a34.043,34.043,0,0,0-21.3-29.977V10.356l-1.39-.389a38,38,0,0,0-20.565,0l-1.39.389V13.58a33.9,33.9,0,0,0-21.252,29.944H257.9V54.64h4.058a7.5,7.5,0,0,0-2.042.987C258.1,56.851,255.186,60.034,256.043,67.314Zm49.886-49.661A30.347,30.347,0,0,1,323.45,43.524H305.928Zm-19.454-4.4a33.933,33.933,0,0,1,15.757,0V43.524H286.4Zm-3.835,4.4V43.524H265.118a30.154,30.154,0,0,1,17.521-25.874Zm-20.946,33.21V47.291h65.225v3.572Zm.9,8.643a3.154,3.154,0,0,1,1.918-.542,84.747,84.747,0,0,0,3.543,9.435l1.32-13.771h49.857L320.552,68.4a82.352,82.352,0,0,0,3.584-9.449,3.154,3.154,0,0,1,1.918.542c1.612,1.1,2.306,3.752,1.891,7.28-.75,6.476-4.085,10.395-8.546,9.963V76.8l-1.048-.564a37.366,37.366,0,0,1-8.629,16.869,21.413,21.413,0,0,1-30.278.486l-.486-.486a37.517,37.517,0,0,1-8.614-16.827l-1.043.569h0c-4.446.418-7.8-3.488-8.546-9.963-.472-3.64.222-6.3,1.835-7.392Z" transform="translate(-240.757 -8.55)" fill="#333"/>
  <path id="パス_7" data-name="パス 7" d="M274.328,56.107a4.168,4.168,0,1,0-4.168-4.168,4.168,4.168,0,0,0,4.168,4.168Z" transform="translate(-235.199 6.729)" fill="#333"/>
  <circle id="楕円形_3" data-name="楕円形 3" cx="4.141" cy="4.141" r="4.141" transform="translate(63.779 54.555)" fill="#333"/>
</svg>
