<svg xmlns="http://www.w3.org/2000/svg" width="152.32" height="111.1" viewBox="0 0 152.32 111.1"><defs><style>.cls-1{fill:#ab8c36;}.cls-2{fill:#545454;}.cls-3{fill:#ed1c24;}</style></defs><g id="レイヤー_2" data-name="レイヤー 2"><g id="レイヤー_1-2" data-name="レイヤー 1"><path class="cls-1" d="M25.12,99.91a1.54,1.54,0,0,0-.94-.63c-.67-.47-1.33-1-2-1.49l.14-.13c3.26-5-.69-10.5-.88-10.54a20,20,0,0,1-.75,5.07,7.85,7.85,0,0,0-.1,4.23c-.36-.33-.7-.67-1.05-1a1.66,1.66,0,0,0-.53-.53c-.56-.59-1.11-1.2-1.64-1.83,0,0,.05,0,.07-.06.85-1.37.69-5,.69-5A13.11,13.11,0,0,1,18,92.72c-.25.84.26.26.26.26,3.17-5-.74-10.28-.92-10.31a19,19,0,0,1-.71,5,7.33,7.33,0,0,0,.1,4.63c-.46-.57-.91-1.15-1.35-1.76.11-.31-.28-.93-.93-1.36-.51-.76-1-1.53-1.47-2.34,1-1.12,1.49-4.39,1.49-4.39a12.33,12.33,0,0,1-1,4.46c-.39.7.19.34.19.34,3.85-3.41,1.27-10,1.11-10.13a17.32,17.32,0,0,1-1.6,4.42,7.36,7.36,0,0,0-.84,4.1,52.56,52.56,0,0,1-2.61-5.56c1.08-.83,2-4.15,2-4.15a11.33,11.33,0,0,1-1.43,4.25c-.45.62.15.38.15.38,4.11-2.63,2.21-9.75,2.06-9.88a15.6,15.6,0,0,1-2,4.08,7.07,7.07,0,0,0-1.22,4.1,59.07,59.07,0,0,1-2-6.29c1.1-.66,2.19-3.65,2.19-3.65a10.19,10.19,0,0,1-1.72,3.85c-.48.52.12.41.12.41,4.14-1.82,2.92-9.05,2.79-9.21a13.47,13.47,0,0,1-2.24,3.6,6.28,6.28,0,0,0-1.49,3.51A66.17,66.17,0,0,1,5.8,64.29h0c1.14-.24,2.62-3.07,2.62-3.07a8.6,8.6,0,0,1-2.09,3.34c-.52.4.06.43.06.43,4.18-.78,3.82-8.14,3.72-8.32a11.2,11.2,0,0,1-2.55,3,5.53,5.53,0,0,0-1.91,3.49,68.62,68.62,0,0,1-.15-11.49c.11-1.58.28-3.13.49-4.66,1.1-.06,2.75-2.16,2.75-2.16a6.62,6.62,0,0,1-2.42,2.58c-.54.23,0,.43,0,.43,4,.5,4.72-6.65,4.65-6.85A8.4,8.4,0,0,1,8.2,43.08a3.81,3.81,0,0,0-1.83,1.76,64.29,64.29,0,0,1,1.49-6.68c1,.46,3.07-1,3.07-1a4.93,4.93,0,0,1-2.79,1.54c-.55,0-.08.41-.08.41,3.71,2.12,5.73-4.58,5.71-4.81a6.39,6.39,0,0,1-3.06.9,3,3,0,0,0-2.38,1.34,62.22,62.22,0,0,1,2.3-6.24c1,.54,2.92-.34,2.92-.34a4.18,4.18,0,0,1-2.81.88c-.53-.12-.12.38-.12.38,3.31,2.86,5.93-3.18,5.92-3.41a5.7,5.7,0,0,1-3,.21,2.43,2.43,0,0,0-2.13.54,57.84,57.84,0,0,1,2.87-5.35c1,.55,2.86-.17,2.86-.17a4,4,0,0,1-2.83.69c-.52-.16-.13.38-.13.38,3.2,3.09,6-2.77,6-3a5.36,5.36,0,0,1-3,0,2.19,2.19,0,0,0-1.62.09c.84-1.24,1.73-2.44,2.65-3.57,2.38,4,6-.39,6-.6a5.7,5.7,0,0,1-2.75-1.16,2.18,2.18,0,0,0-1.26-.52,38.67,38.67,0,0,1,2.92-2.82.84.84,0,0,0,.06.32c2.2,4.23,5.89.06,5.94-.15a5.77,5.77,0,0,1-2.66-1.3,2.21,2.21,0,0,0-1.24-.6,32.41,32.41,0,0,1,3-2,.85.85,0,0,0,0,.35c1.79,4.4,5.59,1,5.66.77a6,6,0,0,1-2.43-1.66,2.47,2.47,0,0,0-1-.73c.68-.34,1.37-.65,2.07-.94C35.43,7.51,37,2.42,37,2.23A5.39,5.39,0,0,1,34.33,3c-1.67-.07-2.91,2.26-2.5,2.48.87.48,2.69-.8,2.69-.8A4.29,4.29,0,0,1,32.12,6c-.47,0-.07.35-.07.35l.17.08a23.75,23.75,0,0,0-2.19,1c-.92-.1-1.7.4-1.54.77l0,0a35.93,35.93,0,0,0-3.91,2.61c-.83.13-1.44.7-1.27,1h0a40,40,0,0,0-3.73,3.55c-.88.18-1.52.81-1.33,1.13a1.43,1.43,0,0,0,.14.2,50.32,50.32,0,0,0-4,5.32,2.28,2.28,0,0,0-.4.62,58.51,58.51,0,0,0-4.86,9.73,6.78,6.78,0,0,0-.22-4,15.3,15.3,0,0,1-.89-4.22c-.16.07-3.35,5.79-.27,9.38,0,0,.49.39.23-.29A11.08,11.08,0,0,1,7.66,29s.08,3.35.91,4.34c.08.1.19,0,.3-.13A64.18,64.18,0,0,0,6.76,40a5.94,5.94,0,0,0-1-3.54,12.89,12.89,0,0,1-1.65-3.66c-.14.13-2.21,6.79,1.46,9,0,0,.54.18.16-.37a9.48,9.48,0,0,1-1.13-3.84s.69,3.15,1.68,3.77a.08.08,0,0,0,.1,0,70,70,0,0,0-1.37,7.86A4.94,4.94,0,0,0,3.9,46.77a11.44,11.44,0,0,1-2-3.38c-.13.16-1.68,7.24,2.26,8.8,0,0,.57.08.13-.4a8.72,8.72,0,0,1-1.48-3.66s.95,3,2,3.47c0,.31-.06.63-.08.94-.11,1.54-.16,3.06-.18,4.57A3.34,3.34,0,0,0,2.8,55.43a7.56,7.56,0,0,1-2.79-2c-.09.22.23,7.58,4.41,6.89a.54.54,0,0,0,.17-.09c.07,1.87.22,3.71.43,5.52A2.64,2.64,0,0,0,3.67,65c-2-.35-2.93-1.81-3-1.61s.79,7.47,4.91,6.26c.29,1.64.64,3.24,1,4.8a2.53,2.53,0,0,0-1.5-.6C3,73.76,2,72.39,1.94,72.6s1.33,7.65,5.58,5.67a1,1,0,0,0,.19-.19c.44,1.35.93,2.66,1.45,3.93A2.29,2.29,0,0,0,8,82c-2.12.44-3.29-.65-3.32-.43s2.18,7.11,6.17,4.23c.52,1,1.06,2,1.63,3a2.51,2.51,0,0,0-.73.27c-2.08,1.11-3.44.41-3.43.64s3,5.89,6.5,2.62c.57.79,1.17,1.54,1.79,2.27a3.25,3.25,0,0,0-.9.47c-2,1.55-3.46,1.12-3.44,1.35s3.81,5.48,7.05,1.08c.79.76,1.61,1.47,2.44,2.14a3.69,3.69,0,0,0-.82.62c-2,2-3.58,1.82-3.53,2s4.63,5.15,7.69-.37c3.45,2.07,12.55,9.22,12.55,9.22l.65-1.44C36.64,107,28.58,102.12,25.12,99.91Zm3.5-90.38a4.76,4.76,0,0,0,2.29,1.35,3.67,3.67,0,0,1-2.47-1c-.09-.09-.14-.13-.18-.13ZM23.5,13.19a4.61,4.61,0,0,0,2.49,1,3.62,3.62,0,0,1-2.65-.6c-.08-.07-.13-.1-.18-.1ZM18.68,18A4.94,4.94,0,0,0,21,18.7a3.62,3.62,0,0,1-2.6-.36ZM4.38,60.85A6.06,6.06,0,0,1,2,58.28S3.4,60.1,4.51,60.36c0,.19,0,.37,0,.55ZM3,68a7,7,0,0,0,2.33,1.64l.09.51A5.7,5.7,0,0,1,3,68Zm4.4,10.87a5.1,5.1,0,0,1-2.83-1.9,5.8,5.8,0,0,0,2.8,1.37l.18.56A.33.33,0,0,0,7.42,78.82Zm.3,6.29a6.1,6.1,0,0,0,2.62.72c.07.16.15.31.23.46A4.61,4.61,0,0,1,7.72,85.11Zm4.08,7.11a6.37,6.37,0,0,0,2.25,0l.25.36A4.32,4.32,0,0,1,11.8,92.22Zm4.18,6a7,7,0,0,0,2.53-.52l.3.29A4.55,4.55,0,0,1,16,98.22Zm5.65.16a15.65,15.65,0,0,0,.54-4.86A13.26,13.26,0,0,1,22,98.39a1.76,1.76,0,0,0-.06.25Zm-.22,5.07a8.22,8.22,0,0,0,2.71-1.14l.45.29A5.17,5.17,0,0,1,21.41,103.45Zm7.11-2A8.42,8.42,0,0,0,25.4,91.33a19.45,19.45,0,0,1,.29,5.4c-.37,3.43,1.63,6.11,1.92,5.27.61-1.77-.27-5.61-.27-5.61a12.74,12.74,0,0,1,.85,4.94C28.11,102.3,28.52,101.48,28.52,101.48ZM6.19,57.25c-.53.36,0,.42,0,.42,4.13-.48,4-7.77,3.93-8a10.62,10.62,0,0,1-2.61,2.76C5.69,53.65,5.15,57,5.68,56.94c1.12-.16,2.67-2.86,2.67-2.86A8.25,8.25,0,0,1,6.19,57.25ZM10.89,27s.43.47.23-.24a11.35,11.35,0,0,1,0-4.15s-.2,3.27.51,4.38c.34.53,1.55-2.31.8-4.79A16.64,16.64,0,0,1,11.91,18C11.75,18,8.23,23,10.89,27ZM15,20.6a11.46,11.46,0,0,1,.59-4.1s-.66,3.17-.14,4.49c.25.62,1.83-1.8,1.48-4.49A16.3,16.3,0,0,1,17,12.13c-.16,0-4.3,3.83-2.32,8.64C14.7,20.77,15.05,21.36,15,20.6Zm5.29-6.28a10.76,10.76,0,0,1,.66-4s-.71,3-.24,4.35c.23.61,1.81-1.67,1.52-4.29a16.66,16.66,0,0,1,.22-4.24c-.15,0-4.23,3.53-2.42,8.28C20,14.47,20.32,15.06,20.25,14.32Zm5.12-4.14a10.5,10.5,0,0,1,.76-3.84s-.78,2.95-.35,4.26c.2.62,1.81-1.53,1.6-4.12a16.06,16.06,0,0,1,.33-4.15,7.2,7.2,0,0,0-2.59,8S25.42,10.92,25.37,10.18Zm3.94-3.3A9.28,9.28,0,0,1,30.5,3.41s-1.1,2.61-.86,4c.11.64,1.89-1,2-3.52A15.16,15.16,0,0,1,32.47,0a6.09,6.09,0,0,0-3.41,7S29.26,7.59,29.31,6.88Z"/><path class="cls-1" d="M114,109.66l.65,1.44s9.1-7.15,12.56-9.22c3,5.52,7.63.64,7.69.37s-1.54,0-3.54-2a3.28,3.28,0,0,0-.82-.62c.84-.67,1.65-1.38,2.44-2.14,3.24,4.4,7-.82,7.05-1.08s-1.43.2-3.44-1.35a3.2,3.2,0,0,0-.89-.47c.61-.73,1.21-1.48,1.79-2.27,3.45,3.27,6.49-2.37,6.5-2.62s-1.36.47-3.44-.64a2.51,2.51,0,0,0-.73-.27c.58-1,1.12-2,1.63-3,4,2.88,6.2-4,6.17-4.23s-1.2.87-3.32.43a2.3,2.3,0,0,0-1.14.06c.52-1.27,1-2.58,1.45-3.93a1,1,0,0,0,.19.19c4.26,2,5.64-5.43,5.58-5.67s-1.07,1.16-3.19,1.23a2.53,2.53,0,0,0-1.5.6c.4-1.56.75-3.16,1-4.8,4.13,1.21,5-6,4.91-6.26a6.93,6.93,0,0,1-3,1.61,2.63,2.63,0,0,0-1.36.73c.21-1.81.36-3.65.43-5.52a.68.68,0,0,0,.17.09c4.18.69,4.5-6.67,4.41-6.89a7.35,7.35,0,0,1-2.78,2,3.35,3.35,0,0,0-1.76,1.68c0-1.51-.06-3-.17-4.57l-.09-.94c1.06-.5,2-3.47,2-3.47A8.87,8.87,0,0,1,148,51.79c-.43.48.13.4.13.4,3.94-1.56,2.39-8.64,2.26-8.8a11.17,11.17,0,0,1-2,3.38,4.92,4.92,0,0,0-1.14,2.44,70,70,0,0,0-1.38-7.86.08.08,0,0,0,.1,0c1-.62,1.69-3.77,1.69-3.77a9.65,9.65,0,0,1-1.14,3.84c-.38.55.16.37.16.37,3.68-2.22,1.6-8.88,1.46-9a12.55,12.55,0,0,1-1.65,3.66,5.93,5.93,0,0,0-1,3.54,66.64,66.64,0,0,0-2.11-6.72c.11.17.21.23.29.13.83-1,.91-4.34.91-4.34a11.27,11.27,0,0,1-.37,4.2c-.27.68.22.29.22.29,3.08-3.59-.1-9.31-.26-9.38a16.08,16.08,0,0,1-.9,4.22,6.86,6.86,0,0,0-.22,4,58.51,58.51,0,0,0-4.86-9.73,2.28,2.28,0,0,0-.4-.62,49,49,0,0,0-4-5.32,1.43,1.43,0,0,0,.14-.2c.19-.32-.45-.95-1.33-1.13A38.81,38.81,0,0,0,129,11.86h0c.17-.32-.44-.89-1.28-1a35.93,35.93,0,0,0-3.91-2.61l0,0c.15-.37-.62-.87-1.54-.77-.73-.37-1.46-.7-2.2-1l.17-.08s.4-.35-.07-.35a4.26,4.26,0,0,1-2.39-1.32s1.81,1.28,2.69.8c.41-.22-.84-2.55-2.51-2.48a5.44,5.44,0,0,1-2.62-.77c0,.19,1.52,5.28,4.35,4.36.7.29,1.4.6,2.08.94a2.49,2.49,0,0,0-1,.73,6.13,6.13,0,0,1-2.42,1.66c.06.19,3.87,3.63,5.65-.77a.85.85,0,0,0,0-.35,32.41,32.41,0,0,1,3,2,2.28,2.28,0,0,0-1.24.6,5.81,5.81,0,0,1-2.65,1.3c0,.21,3.73,4.38,5.94.15a1.11,1.11,0,0,0,.06-.32c1,.87,2,1.82,2.91,2.82a2.21,2.21,0,0,0-1.26.52,5.66,5.66,0,0,1-2.75,1.16c.05.21,3.64,4.62,6,.6.92,1.13,1.81,2.33,2.66,3.57a2.2,2.2,0,0,0-1.62-.09,5.41,5.41,0,0,1-3,0c0,.24,2.81,6.1,6,3,0,0,.39-.54-.13-.38a4,4,0,0,1-2.83-.69s1.88.72,2.86.17a53.42,53.42,0,0,1,2.87,5.35,2.41,2.41,0,0,0-2.13-.54,5.7,5.7,0,0,1-3-.21c0,.23,2.61,6.27,5.92,3.41,0,0,.41-.5-.12-.38a4.18,4.18,0,0,1-2.81-.88s1.94.88,2.92.34a59.86,59.86,0,0,1,2.3,6.24,3,3,0,0,0-2.38-1.34,6.26,6.26,0,0,1-3.05-.9c0,.23,2,6.93,5.7,4.81,0,0,.47-.41-.08-.41a4.93,4.93,0,0,1-2.79-1.54s2,1.43,3.07,1a64.3,64.3,0,0,1,1.5,6.68,3.83,3.83,0,0,0-1.84-1.76A8.68,8.68,0,0,1,141.31,41c-.07.2.64,7.35,4.65,6.85,0,0,.54-.2,0-.43a6.57,6.57,0,0,1-2.43-2.58s1.65,2.1,2.75,2.16c.21,1.53.38,3.08.49,4.66a67.58,67.58,0,0,1-.15,11.49,5.51,5.51,0,0,0-1.9-3.49,11.14,11.14,0,0,1-2.56-3c-.1.18-.46,7.54,3.72,8.32,0,0,.58,0,.07-.43a8.6,8.6,0,0,1-2.09-3.34s1.48,2.83,2.61,3.07h0a63.53,63.53,0,0,1-1.14,6.76,6.21,6.21,0,0,0-1.49-3.51,13.47,13.47,0,0,1-2.24-3.6c-.13.16-1.35,7.39,2.8,9.21,0,0,.59.11.11-.41a10.35,10.35,0,0,1-1.72-3.85s1.09,3,2.19,3.65a59.07,59.07,0,0,1-2,6.29,7.07,7.07,0,0,0-1.22-4.1,15.6,15.6,0,0,1-2-4.08c-.14.13-2.05,7.25,2.06,9.88,0,0,.6.24.15-.38a11.69,11.69,0,0,1-1.43-4.25s.88,3.32,2,4.15A52.56,52.56,0,0,1,140,85.61a7.36,7.36,0,0,0-.84-4.1,17.32,17.32,0,0,1-1.6-4.42c-.15.11-2.74,6.72,1.11,10.13,0,0,.58.36.2-.34a12.14,12.14,0,0,1-1-4.46s.53,3.27,1.49,4.39c-.47.81-1,1.58-1.46,2.34-.66.43-1.05,1-.94,1.36-.43.61-.89,1.19-1.34,1.76a7.47,7.47,0,0,0,.1-4.63,20,20,0,0,1-.72-5c-.18,0-4.09,5.35-.91,10.31,0,0,.5.58.26-.26a12.9,12.9,0,0,1-.14-4.77s-.15,3.67.7,5a.34.34,0,0,0,.06.06c-.53.63-1.07,1.24-1.63,1.83a1.71,1.71,0,0,0-.54.53l-1,1a8,8,0,0,0-.1-4.23,19.82,19.82,0,0,1-.76-5.07c-.18,0-4.14,5.51-.88,10.54l.14.13c-.64.53-1.31,1-2,1.49a1.54,1.54,0,0,0-.94.63C123.75,102.12,115.68,107,114,109.66Zm10.06-99.9s-.09,0-.18.13a3.67,3.67,0,0,1-2.47,1,4.76,4.76,0,0,0,2.29-1.35Zm5.1,3.72s-.09,0-.17.1a3.62,3.62,0,0,1-2.65.6,4.59,4.59,0,0,0,2.48-1Zm4.75,4.86a3.65,3.65,0,0,1-2.61.36,4.92,4.92,0,0,0,2.34-.66ZM147.8,60.91c0-.18,0-.36,0-.55,1.11-.26,2.49-2.08,2.49-2.08a6.06,6.06,0,0,1-2.36,2.57Zm-.91,9.19c0-.17.05-.34.08-.51A7,7,0,0,0,149.31,68,5.76,5.76,0,0,1,146.89,70.1Zm-2.13,8.75c.06-.19.12-.37.17-.56a5.8,5.8,0,0,0,2.8-1.37,5.11,5.11,0,0,1-2.82,1.9A.28.28,0,0,0,144.76,78.85Zm-3,7.44.23-.46a6,6,0,0,0,2.61-.72A4.58,4.58,0,0,1,141.76,86.29ZM138,92.61l.24-.36a6.42,6.42,0,0,0,2.26,0A4.32,4.32,0,0,1,138,92.61ZM133.51,98l.3-.29a7,7,0,0,0,2.54.52A4.58,4.58,0,0,1,133.51,98Zm-3.13.65a1.76,1.76,0,0,0-.06-.25,13.24,13.24,0,0,1-.16-4.87,15.54,15.54,0,0,0,.53,4.86Zm-2.63,4,.45-.29a8.22,8.22,0,0,0,2.71,1.14A5.17,5.17,0,0,1,127.75,102.6Zm-3.62-1.27a12.74,12.74,0,0,1,.85-4.94s-.88,3.84-.26,5.61c.29.84,2.29-1.84,1.92-5.27a20.27,20.27,0,0,1,.28-5.4,8.43,8.43,0,0,0-3.12,10.15S124.21,102.3,124.13,101.33ZM144,54.08s1.55,2.7,2.68,2.86c.52.07,0-3.29-1.89-4.47a10.62,10.62,0,0,1-2.61-2.76c-.09.19-.2,7.48,3.94,8,0,0,.57-.06,0-.42A8.17,8.17,0,0,1,144,54.08ZM140.41,18a16.64,16.64,0,0,1-.51,4.26c-.75,2.48.46,5.32.8,4.79.71-1.11.51-4.38.51-4.38a11.14,11.14,0,0,1,0,4.15c-.19.71.24.24.24.24C144.09,23,140.57,18,140.41,18Zm-2.79,2.79c2-4.81-2.16-8.64-2.32-8.64a16.3,16.3,0,0,1,.13,4.37c-.35,2.69,1.23,5.11,1.48,4.49.52-1.32-.14-4.49-.14-4.49a11.24,11.24,0,0,1,.59,4.1C137.27,21.36,137.62,20.77,137.62,20.77Zm-5.29-6.3c1.81-4.75-2.26-8.29-2.41-8.28a17,17,0,0,1,.21,4.24c-.29,2.62,1.29,4.9,1.52,4.29.48-1.31-.24-4.35-.24-4.35a10.76,10.76,0,0,1,.66,4C132,15.06,132.33,14.47,132.33,14.47Zm-5.13-4.15a7.2,7.2,0,0,0-2.59-8,16.06,16.06,0,0,1,.33,4.15c-.21,2.59,1.4,4.74,1.6,4.12.44-1.31-.35-4.26-.35-4.26a10.5,10.5,0,0,1,.76,3.84C126.91,10.92,127.2,10.32,127.2,10.32ZM123.27,7A6.1,6.1,0,0,0,119.85,0a15.16,15.16,0,0,1,.82,3.87c.13,2.53,1.9,4.16,2,3.52.24-1.37-.85-4-.85-4A9.27,9.27,0,0,1,123,6.88C123.06,7.59,123.27,7,123.27,7Z"/><path class="cls-2" d="M46.06,24.79c0,.08.06.12.15.12h.23c.25,0,.28.09.28.45v.5c0,.33,0,.43-.24.43h-.57a.22.22,0,0,0-.22.22v.06a.22.22,0,0,0,.24.2l.33,0c.22,0,.24.11.24.36v.42c0,.3,0,.38-.26.38l-.36,0a.19.19,0,0,0-.19.18v.12a.19.19,0,0,0,.21.18h.34c.24,0,.26.09.26.37v.41c0,.27,0,.36-.24.36l-.39,0a.18.18,0,0,0-.18.17v.13c0,.11.09.18.22.18h.78l.09,0a1.71,1.71,0,0,0,.78-.66c0-.14-.13-.17-.19-.18-.27-.09-.33-.42-.33-.66,0-.47,0-.93,0-1.4V23.52c0-.48,0-.95,0-1.43s.24-.7.76-.7h.12c.48,0,.51-.53.51-.54s-.13-.18-.24-.18c-.34,0-.69,0-1,0s-.32-.15-.32-.57v-.82c0-.41,0-.57.32-.57s.87,0,1.36,0h2.64c.5,0,1,0,1.35,0s.33.13.33.67v.77c0,.33,0,.52-.33.52s-.85,0-1.35,0H51a.56.56,0,0,0-.54.54.21.21,0,0,0,.23.22c.36,0,.7,0,1.06,0,.51,0,.77.15.77.7s0,.95,0,1.43v3.55c0,.47,0,.95,0,1.41,0,.65-.36.71-.78.71-.09,0-.15,0-.15.12s.15.18.42.39a7.78,7.78,0,0,0,1.06.7c.09.06.15.11.15.21,0,.33-.84,1.35-1.2,1.35s-.88-.52-1.09-.69a7.37,7.37,0,0,1-1.14-1c0-.18.54-.69.67-.83a.17.17,0,0,0,.06-.12c0-.13-.15-.13-.33-.13h-1c-.3,0-.48,0-.48.18s.12.19.39.43.44.41.44.51-.06.15-.21.15h-.06a.31.31,0,0,0-.27.14A10.52,10.52,0,0,1,47.13,32c-.26,0-.62-.38-.78-.54s-.35-.2-.78-.2H44.05a.31.31,0,0,0-.3.3v.14c0,.25-.15.28-.42.28h-.61c-.51,0-.6,0-.6-.31s0-.59,0-1.08v-2.7a.5.5,0,0,0-.29-.45.19.19,0,0,0-.1-.05c-.15,0-.15.17-.15.27a22.3,22.3,0,0,1-.33,2.4,10,10,0,0,1-.36,1.46c-.06.16-.12.27-.3.27s-1.47-.5-1.47-.84c0,0,.09-.32.1-.39a18.12,18.12,0,0,0,.6-4.92V22.05c0-.33,0-.63,0-.89,0-.46.21-.55.64-.55s.77,0,1.14,0h2.87c.34,0,.7,0,1,0s.75.06.75.57c0,.28,0,.58,0,.87v.1c0,.3,0,.59,0,.89,0,.51-.33.55-.77.55l-1,0h-.75c-.05,0-.18,0-.18.09s.48.26.57.29.24.12.24.21a.2.2,0,0,1-.18.18c-.08,0-.12,0-.15,0a2,2,0,0,0-.12.29.27.27,0,0,0,0,.12.16.16,0,0,0,.18.16c.22,0,.27-.21.58-1.17.05-.1.06-.18.18-.18a14.45,14.45,0,0,1,1.47.47c.11,0,.23.1.23.22s-.06.14-.15.15-.17.06-.23.14A.79.79,0,0,0,46.06,24.79Zm-1.14-6c.44,0,.87,0,1.32,0s.35.13.35.48v.51c0,.33,0,.48-.33.48l-1.34,0H41.19l-1.34,0c-.3,0-.33-.15-.33-.48v-.51c0-.33,0-.48.33-.48s.9,0,1.34,0Zm-3.19,3.33a.18.18,0,0,0,.19.19H44.2a.2.2,0,0,0,.2-.19v-.05a.2.2,0,0,0-.2-.19H41.92a.2.2,0,0,0-.19.19Zm.36,1.45a.36.36,0,0,0-.36.36v1.16c0,.07,0,.16.07.16s.48-1,.54-1.15a.65.65,0,0,0,.09-.29c0-.16-.1-.22-.24-.24Zm2.17,2.9a.18.18,0,0,0-.19-.18h-.15a.18.18,0,0,0-.2.18v.12a.2.2,0,0,0,.2.19h.15a.18.18,0,0,0,.19-.19Zm0,1.6a.18.18,0,0,0-.19-.19h-.15a.2.2,0,0,0-.2.19v.12a.18.18,0,0,0,.2.18h.15a.18.18,0,0,0,.19-.18Zm-.34,1.4a.2.2,0,0,0-.2.19v.12a.18.18,0,0,0,.2.18h.15a.18.18,0,0,0,.19-.18v-.12c0-.12-.07-.18-.19-.19Zm6.52-6.08a.2.2,0,0,0-.19-.19h-1a.2.2,0,0,0-.19.19v0a.2.2,0,0,0,.19.2h1a.2.2,0,0,0,.19-.2Zm0,1.92a.2.2,0,0,0-.19-.19h-1a.2.2,0,0,0-.19.19v.05a.2.2,0,0,0,.19.19h1a.2.2,0,0,0,.19-.19Zm0,1.88a.2.2,0,0,0-.19-.2h-1a.2.2,0,0,0-.19.2v0a.2.2,0,0,0,.19.2h1a.2.2,0,0,0,.19-.2Z"/><path class="cls-2" d="M65,30.72c0,.37,0,.84,0,1s-.15.28-.61.28h-.93c-.41,0-.51-.06-.51-.31a.19.19,0,0,0-.2-.2H59.52c-.18,0-.24.08-.24.24s-.18.27-.57.27h-.89c-.51,0-.67,0-.67-.28s0-.59,0-1V29c0-.3,0-.55-.33-.55a11.28,11.28,0,0,0-1.18.33,1,1,0,0,1-.3.07c-.41,0-1-1.21-1-1.57s.24-.24.58-.33a24.17,24.17,0,0,0,3.51-1.19c.17-.06.84-.31.84-.49s-.09-.17-.27-.33l-.33-.32a.58.58,0,0,0-.4-.25.44.44,0,0,0-.26.1,11.85,11.85,0,0,1-2.25,1.29c-.33,0-1.11-1.18-1.11-1.42s.21-.27.35-.33a12.68,12.68,0,0,0,3.3-2.18.46.46,0,0,0,.16-.25c0-.17-.16-.2-.36-.2h-.79c-.38,0-.5.24-.5.42s.05.5.05.63c0,.32-.21.35-.81.35h-.86c-.28,0-.55,0-.55-.33s0-.53,0-.75v-.86c0-.33,0-.64,0-.9,0-.48.65-.49,1-.49.58,0,1.15,0,1.72,0h2.07c.41,0,.51-.26.51-.41s0-.37,0-.52.17-.2.3-.2c.41,0,1.29.08,1.71.11s.59,0,.59.22-.09.14-.17.21a.51.51,0,0,0-.13.3c0,.23.16.29.34.29h2.31l1.71,0c.35,0,1,0,1,.48,0,.27,0,.46,0,.75v1.06c0,.23,0,.56,0,.74s-.24.34-.81.34H66c-.31,0-.58,0-.58-.33s0-.49,0-.69a.43.43,0,0,0-.49-.42H61.78c-.15,0-.16,0-.18.12s-.18.2-.3.2-.25,0-.25.16.16.15.31.15h2.13a1.05,1.05,0,0,1,.89.49c.13.17.43.51.43.72s-1.45,1.62-1.74,1.85a.34.34,0,0,0-.16.25c0,.17.13.23.63.45A26.42,26.42,0,0,0,67.24,27c.17,0,.51.1.51.34s-.57,1.5-1,1.5a5.76,5.76,0,0,1-1-.3,1.28,1.28,0,0,0-.36-.07c-.31,0-.31.3-.31.54Zm-2.33-1a.36.36,0,0,0,.36-.36v-.08a.36.36,0,0,0-.36-.36H59.61a.36.36,0,0,0-.36.36v.08a.35.35,0,0,0,.36.36Zm-.51-2.36c.2,0,.29,0,.29-.09s-.11-.1-.17-.13l-.9-.48a.6.6,0,0,0-.3-.06,2,2,0,0,0-.72.31l-.45.24c-.06,0-.12.06-.12.11s.12.1.33.1Zm-1.56-3.79c-.13,0-.27,0-.27.13s.53.56.71.56.42-.21.67-.45c0,0,.09-.08.09-.12s-.3-.12-.57-.12Z"/><path class="cls-2" d="M70.53,21.84a7,7,0,0,1,1.26,1c.37.34.76.7.76.84,0,.37-1.09,1.36-1.33,1.36s-.3-.22-.38-.31a11.85,11.85,0,0,0-1.42-1.22c-.12-.09-.21-.13-.21-.27C69.21,22.83,70.3,21.84,70.53,21.84Zm-1.14,8.38A19.56,19.56,0,0,0,71,25.78c0-.12.09-.22.23-.22.33,0,1.62.63,1.62,1a3.29,3.29,0,0,1-.12.5,26.33,26.33,0,0,1-1.37,3.79,2,2,0,0,0-.15.47c0,.09,0,.21,0,.3a.2.2,0,0,1-.19.19,8.55,8.55,0,0,1-1.29-.76c-.14-.09-.23-.17-.29-.2s-.24-.15-.24-.31A.82.82,0,0,1,69.39,30.22Zm1.38-11.71a7.25,7.25,0,0,1,2.1,1.77,2.86,2.86,0,0,1-1.32,1.36c-.11,0-.24-.13-.3-.19a11.85,11.85,0,0,0-1.52-1.23c-.1-.08-.24-.17-.24-.3C69.49,19.59,70.45,18.51,70.77,18.51Zm6.37,7.72a.42.42,0,0,0-.42-.42H75.58a.42.42,0,0,0-.42.42V30c0,.52,0,1.05,0,1.57,0,.35-.15.38-.54.38H73.9c-.4,0-.52,0-.52-.41s0-1,0-1.54V26.1c0-.48,0-1,0-1.38s.33-.62.76-.62,1,0,1.43,0h.93a.24.24,0,0,0,.24-.24v-.09a.24.24,0,0,0-.24-.24H74.74c-.54,0-1.08,0-1.62,0-.36,0-.39-.18-.39-.6v-.3c0-.72,0-.87.42-.87s1.07,0,1.59,0H75a.18.18,0,0,0,.17-.17v-.3c0-.21-.12-.24-.3-.24-.41,0-.8,0-1.19,0s-.37-.13-.37-.51V20c0-.38,0-.54.36-.54h1c.28,0,.46-.12.46-.42s0-.39,0-.42v-.13c0-.18.15-.2.29-.2s1.5.08,1.83.11.27,0,.27.13-.09.14-.15.21a.43.43,0,0,0-.14.32.39.39,0,0,0,.41.42h.52c.29,0,.36-.24.36-.5a2.38,2.38,0,0,0,0-.36s0-.07,0-.12.16-.19.3-.19,1.45.07,1.77.1c.16,0,.31,0,.31.15s-.06.14-.15.21a.47.47,0,0,0-.12.35c0,.27.21.36.45.36s.69,0,1,0,.37.16.37.54v.28c0,.75,0,.87-.39.87H81c-.26,0-.48,0-.48.33v.12c0,.22.19.24.37.24.53,0,1,0,1.56,0,.33,0,.42.1.42.46v.77c0,.51-.12.54-.54.54s-.75,0-1.47,0H79.17a.23.23,0,0,0-.24.24v.09a.24.24,0,0,0,.24.24h.94c.47,0,.93,0,1.38,0s.81.08.81.62,0,.9,0,1.38v3.13c0,.3,0,.6,0,.9a1.61,1.61,0,0,1-.51,1.4,3.54,3.54,0,0,1-1.92.42c-.29,0-.63,0-.72-.33A3.68,3.68,0,0,1,79,30.7c0-.27.09-.51.39-.51s.54,0,.82,0,.29-.07.29-.6V26.23a.41.41,0,0,0-.42-.42H78.93a.42.42,0,0,0-.42.42V28a.16.16,0,0,0,.18.16h0a.16.16,0,0,0,.16-.16v-1.1c0-.16,0-.33,0-.45s0,0,0-.07.09-.11.18-.11.8,0,1,0,.33,0,.33.18a.23.23,0,0,1-.07.15c-.14.12-.15.21-.15.64v1.37c0,.39,0,.78,0,1.09s-.11.23-.36.23h-.47c-.36,0-.4,0-.45-.12a.19.19,0,0,0-.19-.13H77a.15.15,0,0,0-.15.15V30c0,.23-.11.24-.42.24H75.9c-.29,0-.41,0-.41-.24s0-.7,0-1.08V27a3,3,0,0,0,0-.54v-.08c0-.1.09-.1.18-.1s.78,0,1,0,.34,0,.34.18,0,.1-.09.15-.13.27-.13.66V28a.16.16,0,0,0,.16.16h0a.18.18,0,0,0,.18-.16Zm.3-5.07a.3.3,0,0,0-.28.29v.13a.28.28,0,0,0,.28.29h.75a.28.28,0,0,0,.29-.29v-.13a.29.29,0,0,0-.29-.29Z"/><path class="cls-2" d="M88.75,24.37c-.39,0-.37,0-.51.2s-.27.18-1,.18h-.45c-.61,0-.82,0-.82-.38,0-.13,0-.7,0-1.17V20.38c0-.33,0-.66,0-1,0-.6.54-.66,1.13-.66s.94,0,1.41,0h5.17c.47,0,1,0,1.41,0,.66,0,1.13.09,1.13.68,0,.33,0,.64,0,1V23.2c0,.44,0,1,0,1.16,0,.36-.18.39-.81.39H95c-.69,0-.88,0-1-.23s-.12-.15-.35-.15h-1a.43.43,0,0,0-.42.42v.57a.42.42,0,0,0,.42.42h1.74c.58,0,1.15,0,1.74,0,.36,0,.39.15.39.58v.84c0,.45,0,.59-.39.59-.59,0-1.16,0-1.74,0H92.7a.42.42,0,0,0-.42.42V29a.45.45,0,0,0,.51.5h1.36c.75,0,2.36,0,3.06-.12a2.38,2.38,0,0,1,.36,0c.32,0,.35.33.35.55a3.27,3.27,0,0,1-.2,1.17.74.74,0,0,1-.85.57h-.12l-.72,0H94.36c-1.59,0-4.29-.05-5.35-.6a4.67,4.67,0,0,1-1.17-.84.44.44,0,0,0-.27-.15c-.15,0-.26.21-.32.33a6.84,6.84,0,0,1-.61,1,.72.72,0,0,1-.53.36c-.37,0-1.74-.57-1.74-1a1.13,1.13,0,0,1,.26-.51l.12-.16a10.63,10.63,0,0,0,1.77-4.46c0-.31,0-.49.31-.49a12.84,12.84,0,0,1,2,.43c.18.05.44.14.44.32s-.12.15-.21.18c-.24.07-.27.16-.38.57,0,.18-.09.31-.15.54a1.54,1.54,0,0,0-.07.42c0,.81,1.12,1.48,1.33,1.48S90,29,90,28.8v-4a.45.45,0,0,0-.45-.42ZM88.23,22a.4.4,0,0,0,.42.42h5a.42.42,0,0,0,.42-.42v-.76a.42.42,0,0,0-.42-.42h-5a.42.42,0,0,0-.42.42Z"/><path class="cls-2" d="M103.17,23.68a.44.44,0,0,0-.5.45v.09a24.79,24.79,0,0,1-.3,4.23,10.25,10.25,0,0,1-1.23,3.33.37.37,0,0,1-.31.18c-.38,0-1.55-.63-1.55-1.05a1.33,1.33,0,0,1,.12-.37c1.1-2.46,1.11-4.62,1.11-7.26V21.64c0-.52,0-1,0-1.38,0-.57.37-.66.87-.66l1.57,0h1.71c.27,0,.5-.13.5-.43,0-.09,0-.41,0-.5a.3.3,0,0,1,0-.13c0-.2.15-.23.32-.23s1.65.09,1.92.12.51,0,.51.26-.09.15-.23.24a.32.32,0,0,0-.15.27.42.42,0,0,0,.48.4h2.48c.61,0,1.23,0,1.84,0,.38,0,.41.12.41.52v.77c0,.42,0,.54-.41.54s-1-.05-1.47-.05c-.12,0-.12.08-.12.12s-.12.14-.16.17a.29.29,0,0,0-.14.22.25.25,0,0,0,.27.23h.08c.61,0,1.21,0,1.83,0,.31,0,.34.13.34.52v.6c0,.38,0,.53-.33.53-.55,0-1.11-.05-1.66-.05-.32,0-.56.11-.56.47v.33c0,.3,0,.58,0,.88s-.31.47-.66.47l-1.48,0h-1.65c-.56,0-1.11,0-1.67,0-.34,0-.61-.08-.61-.48s0-.57,0-.87v-.32a.44.44,0,0,0-.46-.48ZM109,26.22l1.3,0a1.14,1.14,0,0,1,.87.25c.15.14.45.41.45.6,0,.48-1.54,1.86-2,2.18a.33.33,0,0,0-.15.24c0,.18.26.19.59.25a11.8,11.8,0,0,0,2.46.24c.24,0,.33,0,.33.42s-.33,1.55-.84,1.55c-.24,0-1.46-.21-1.76-.27a14.59,14.59,0,0,1-2.64-.8,1.07,1.07,0,0,0-.43-.09,1.23,1.23,0,0,0-.51.12,19.62,19.62,0,0,1-3.59,1c-.4,0-.52-.29-.7-.87a3.59,3.59,0,0,1-.21-.86c0-.27.28-.27.82-.33a15.69,15.69,0,0,0,1.86-.3c.11,0,.21-.07.21-.19a.22.22,0,0,0-.09-.17c-.19-.18-.93-.93-.93-1.17a.27.27,0,0,1,.12-.18.09.09,0,0,0,0-.07c0-.08-.08-.09-.21-.09s-.39,0-.71,0-.31-.15-.31-.47v-.57c0-.34,0-.46.31-.46.5,0,1,0,1.49,0Zm-6-4.85a.31.31,0,0,0-.3.29v.15a.31.31,0,0,0,.3.3h1a.31.31,0,0,0,.33-.32c0-.24-.08-.42-.35-.42Zm3.56,6.29c-.11,0-.18,0-.18.13s.1.15.19.24.6.56.8.56,1.09-.62,1.09-.83-.15-.1-.37-.1Zm.22-4a.32.32,0,0,0-.31.3v.11a.28.28,0,0,0,.3.28H108a.27.27,0,0,0,.28-.28V24a.29.29,0,0,0-.28-.3Zm.17-2.31c-.12,0-.14,0-.15.09s-.11.11-.17.15a.26.26,0,0,0-.12.21.29.29,0,0,0,.32.29H108a.31.31,0,0,0,.33-.3.58.58,0,0,0,0-.18c0-.18-.16-.26-.33-.26Z"/><path class="cls-3" d="M31.64,72.14l6-.67a4.41,4.41,0,0,0,1.16,2.74,3.43,3.43,0,0,0,2.48.89,4,4,0,0,0,3.29-1.78c.91-1.19,1.49-3.65,1.74-7.4a7.45,7.45,0,0,1-5.9,2.74,8.82,8.82,0,0,1-6.65-3A10.81,10.81,0,0,1,31,58a11.05,11.05,0,0,1,2.95-8,10,10,0,0,1,7.52-3,10.15,10.15,0,0,1,8.16,3.84q3.18,3.84,3.18,12.64c0,6-1.11,10.28-3.32,12.93a10.73,10.73,0,0,1-8.64,4,9.11,9.11,0,0,1-6.19-2A9.79,9.79,0,0,1,31.64,72.14ZM45.8,58.46a7.14,7.14,0,0,0-1.39-4.7,4.12,4.12,0,0,0-3.22-1.67,3.6,3.6,0,0,0-2.88,1.37c-.77.91-1.15,2.41-1.15,4.49a7.11,7.11,0,0,0,1.25,4.64,4,4,0,0,0,6.16.06A6.26,6.26,0,0,0,45.8,58.46Z"/><path class="cls-3" d="M78.08,55,72,55.7a4.36,4.36,0,0,0-1.16-2.76,3.33,3.33,0,0,0-2.42-.89,4.1,4.1,0,0,0-3.36,1.78c-.91,1.19-1.49,3.66-1.72,7.42a7.33,7.33,0,0,1,5.81-2.77,8.89,8.89,0,0,1,6.72,3,10.84,10.84,0,0,1,2.79,7.71,11.05,11.05,0,0,1-2.94,8,10.71,10.71,0,0,1-15.68-.81q-3.18-3.85-3.18-12.6,0-9,3.31-12.94a10.72,10.72,0,0,1,8.63-4A9.11,9.11,0,0,1,75,49,9.73,9.73,0,0,1,78.08,55ZM63.89,68.69A7.08,7.08,0,0,0,65.3,73.4a4.1,4.1,0,0,0,3.2,1.66,3.64,3.64,0,0,0,2.9-1.36,6.87,6.87,0,0,0,1.16-4.46,7.15,7.15,0,0,0-1.25-4.66,4,4,0,0,0-6.17-.07A6.16,6.16,0,0,0,63.89,68.69Z"/><path class="cls-3" d="M82.67,79.69V73.43h6.26v6.26Z"/><path class="cls-3" d="M89,53.29V47.48H110.4V52A33.86,33.86,0,0,0,105,59.51a43.58,43.58,0,0,0-4.18,10.37,38.09,38.09,0,0,0-1.41,9.81h-6a41.87,41.87,0,0,1,2.8-13.81,46.14,46.14,0,0,1,7-12.59Z"/><path class="cls-3" d="M107.53,64.94a4.93,4.93,0,0,1,1-3.4,3.53,3.53,0,0,1,2.73-1.1,3.59,3.59,0,0,1,2.78,1.1,4.87,4.87,0,0,1,1,3.4,4.88,4.88,0,0,1-1,3.4,3.49,3.49,0,0,1-2.72,1.11,3.6,3.6,0,0,1-2.79-1.1A4.94,4.94,0,0,1,107.53,64.94Zm2.55,0a4.46,4.46,0,0,0,.38,2.23,1,1,0,0,0,.81.42.92.92,0,0,0,.81-.42,4.49,4.49,0,0,0,.37-2.23,4.42,4.42,0,0,0-.37-2.22.91.91,0,0,0-.81-.43,1,1,0,0,0-.81.41A4.54,4.54,0,0,0,110.08,64.92Zm3.68,13.52h-2.42l9.08-18h2.36ZM119,74a4.93,4.93,0,0,1,1-3.4,4,4,0,0,1,5.51,0,4.93,4.93,0,0,1,1,3.4,4.94,4.94,0,0,1-1,3.41,3.5,3.5,0,0,1-2.73,1.11,3.56,3.56,0,0,1-2.78-1.11A4.94,4.94,0,0,1,119,74Zm2.55,0a4.39,4.39,0,0,0,.38,2.22,1,1,0,0,0,1.61,0A4.46,4.46,0,0,0,124,74a4.54,4.54,0,0,0-.37-2.24,1,1,0,0,0-.81-.41.94.94,0,0,0-.81.41A4.51,4.51,0,0,0,121.59,74Z"/></g></g></svg>