<?xml version="1.0" encoding="utf-8"?>
<!-- Generator: Adobe Illustrator 24.2.3, SVG Export Plug-In . SVG Version: 6.00 Build 0)  -->
<svg version="1.1" id="_x32_" xmlns="http://www.w3.org/2000/svg" xmlns:xlink="http://www.w3.org/1999/xlink" x="0px" y="0px"
	 viewBox="0 0 364.3 478" style="enable-background:new 0 0 364.3 478;" xml:space="preserve">
<style type="text/css">
	.st0{fill:#4B4B4B;}
</style>
<path class="st0" d="M87.1,41.2c-21.6,25.4-32.1,59-33.7,88.7c0,0-1.5,5.2-2.6,18.9c-1.6,19.4-3.7,37.7-6.1,54.9
	c-8.2,59.7-18.9,98.9-14.2,129.9c0.7,5.3,2.1,10.2,4,14.7c0.6-0.3,1.2-0.5,1.8-0.8c-4.6,3.1-9.1,6.6-13.2,10.8
	C9.6,371.6-0.1,391.4,0,418.4c0,3.4,0.2,7,0.5,10.7c0.2,2.3,1,4.2,2,5.8c1.9,3,4.4,5.4,7.6,7.8c5.6,4.1,13.3,8.2,23.3,12.2
	c30,11.9,80.9,23,148.8,23.1c55.2,0,99.1-7.4,129.7-16.5c15.3-4.6,27.3-9.6,35.9-14.5c4.3-2.5,7.8-5,10.5-7.6
	c1.4-1.3,2.6-2.8,3.6-4.4c1-1.6,1.8-3.5,2-5.8v0c0.3-3.7,0.5-7.2,0.5-10.7c0-18-4.2-32.8-11.1-44.6c-6.3-10.7-14.6-18.8-23.7-25.1
	c2.1-4,3.6-8.4,4.4-13.3c4.8-28.1-9.2-65.2-20.5-121.8c-6.1-30.8-11.5-57.2-12.6-95c0,1.4-0.1,2.8-0.3,0.2
	c-1.6-26.1-9.1-52.5-24.5-73.6l-16-17.3c-13-11.1-29.4-19.4-49.9-23.5l-15.8-3.5c-5.8-0.4-14.1-1.1-20.5-0.9l-19,1.7
	c-22.6,3.7-41.8,14.8-56.3,27.6L87.1,41.2z M92.8,172.8c61.3-27.3,117.5-37.8,143.1-73.6c17,40.9,13.6,64.2,36.7,78.7
	c3.9-4.6,7.4-9.7,10.5-15l3.1,11.5c-0.3,1.4-0.6,2.8-1.1,4.4c-4.1,14.6-7.8,23-11.2,27.7c-1.7,2.4-3.3,3.9-5,5.1
	c-1.7,1.2-3.7,2.2-6.3,3.1l-4.1,1.5l-0.7,4.3c-4.8,26.9-18.6,42-28.8,53.4l-1.9,2.1v2.9c0,13.6,0,16.7,0,24.7c0,0.5,0.1,1,0.1,1.5
	l-44.9,49.4l-44.9-49.5c0-0.5,0.1-1,0.1-1.5c0-8,0-11.1,0-24.7V276l-1.9-2.1c-10.2-11.4-24.1-26.5-28.9-53.4l-0.8-4.3l-4.1-1.5
	c-2.6-0.9-4.6-1.9-6.3-3.1c-2.6-1.8-4.9-4.3-7.6-9.3c-2.7-5-5.5-12.6-8.6-23.5c-0.5-1.7-0.8-3.3-1.1-4.7
	C82.8,174.4,88.4,172.5,92.8,172.8z M247,329.3c2.5,1.4,5.1,2.7,7.7,3.9c-0.4,7.2-3.9,15.9-10.3,22.7c-6.8,7.3-16.3,12.4-28.2,12.4
	c-7.8,0-16.7-2.2-26.7-7.8l41.1-45.2c0.3,0.4,0.5,0.8,0.8,1.2C235.4,321.9,241,325.8,247,329.3z M241.9,281.8L241.9,281.8
	C241.9,281.8,241.9,281.8,241.9,281.8L241.9,281.8z M174.7,360.5c-10,5.6-18.9,7.8-26.7,7.8c-11.9,0-21.5-5.2-28.2-12.4
	c-6.3-6.8-9.8-15.4-10.2-22.6c4.5-2.1,8.9-4.5,13-7.3c3.8-2.6,7.3-5.6,10-9.2c0.4-0.5,0.7-1,1-1.5L174.7,360.5z M348.9,427.4
	c-0.3,0.5-1.5,1.8-3.6,3.3c-3.9,2.9-10.7,6.6-19.9,10.3c-27.7,11-77,22.1-143.3,22c-53.8,0-96.5-7.2-125.4-15.9
	c-14.5-4.3-25.6-9-32.7-13.2c-3.6-2-6.1-4-7.5-5.3c-0.6-0.6-1-1.1-1.1-1.3c-0.2-3.1-0.4-6.1-0.4-8.9c0-15.8,3.5-27.7,9-37.1
	c8.2-14.1,21.3-23.2,35.3-29.6c14-6.5,28.4-10,39-13.7c0.7-0.2,1.4-0.5,2-0.8c1.3,8.8,5.6,17.8,12.5,25.3
	c8.2,8.9,20.4,15.5,35.2,15.5c10.4,0,21.9-3.3,34.1-10.7c12.2,7.4,23.7,10.7,34.1,10.7c14.8,0,27-6.6,35.2-15.5
	c6.9-7.5,11.2-16.5,12.5-25.3c0.6,0.2,1.3,0.5,1.9,0.8c7.1,2.6,15.8,5.1,25.1,8.4c13.9,4.9,28.6,11.7,39.6,22.7
	c11,11,18.7,25.9,18.8,49.5C349.3,421.3,349.2,424.3,348.9,427.4z"/>
<path class="st0" d="M300.9,118.2c0,0.1,0,0.2,0,0.3C300.9,117.1,300.9,115.6,300.9,118.2z"/>
<path class="st0" d="M182.2,398.7c-3.1,0-5.5,2.5-5.5,5.5s2.5,5.5,5.5,5.5s5.5-2.5,5.5-5.5S185.2,398.7,182.2,398.7z"/>
<path class="st0" d="M182.2,432.7c-3.1,0-5.5,2.5-5.5,5.5c0,3.1,2.5,5.5,5.5,5.5s5.5-2.5,5.5-5.5
	C187.7,435.2,185.2,432.7,182.2,432.7z"/>
</svg>
