<svg id="レイヤー_1" data-name="レイヤー 1" xmlns="http://www.w3.org/2000/svg" viewBox="0 0 162 100"><defs><style>.cls-1{fill:#d19a69;stroke:#404040;stroke-linecap:round;stroke-linejoin:round;stroke-width:1.5px;}.cls-2,.cls-5{fill:#e9cb21;}.cls-2,.cls-7{fill-rule:evenodd;}.cls-3{fill:#3e3a39;}.cls-4,.cls-7{fill:#666;}.cls-6{fill:#999;}.cls-8{fill:#b3b3b3;}.cls-9{fill:#e6e6e6;}.cls-10{fill:#f41435;}</style></defs><g id="g3"><path id="path5" class="cls-1" d="M86.82,43H80.41a.87.87,0,0,0-.86.86v6.41a.87.87,0,0,0,.86.86h6.41a.87.87,0,0,0,.86-.86V43.86A.87.87,0,0,0,86.82,43Z"/><path id="path7" class="cls-1" d="M141.14,52.06h-6.41a.86.86,0,0,0-.86.85v6.42a.87.87,0,0,0,.86.86h6.41a.87.87,0,0,0,.86-.86V52.91A.85.85,0,0,0,141.14,52.06Z"/><path id="path9" class="cls-1" d="M104.92,43H89.46a.87.87,0,0,0-.86.86v6.41a.87.87,0,0,0,.86.86h15.47a.87.87,0,0,0,.86-.86V43.86a.88.88,0,0,0-.87-.86Z"/><path id="path11" class="cls-1" d="M114,52.06H98.5a.86.86,0,0,0-.85.85v6.42a.86.86,0,0,0,.85.86H114a.87.87,0,0,0,.86-.86V52.91A.84.84,0,0,0,114,52.06Z"/><path id="path13" class="cls-1" d="M107.56,51.13H123a.87.87,0,0,0,.86-.86V43.86A.87.87,0,0,0,123,43H107.56a.87.87,0,0,0-.86.86v6.41A.87.87,0,0,0,107.56,51.13Z"/><path id="path15" class="cls-1" d="M116.62,52.06a.86.86,0,0,0-.86.85v6.42a.87.87,0,0,0,.86.86h15.47a.86.86,0,0,0,.85-.86V52.91a.86.86,0,0,0-.85-.85Z"/><path id="path17" class="cls-1" d="M141.14,43H125.67a.87.87,0,0,0-.86.86v6.41a.87.87,0,0,0,.86.86h15.47a.87.87,0,0,0,.86-.86V43.86A.87.87,0,0,0,141.14,43Z"/><path id="path19" class="cls-1" d="M80.41,52.06a.86.86,0,0,0-.86.85v6.42a.87.87,0,0,0,.86.86H95.88a.87.87,0,0,0,.86-.86V52.91a.87.87,0,0,0-.86-.85Z"/><path id="path21" class="cls-1" d="M86.82,61.11H80.41a.87.87,0,0,0-.86.86v6.41a.87.87,0,0,0,.86.86h6.41a.87.87,0,0,0,.86-.86V62a.86.86,0,0,0-.86-.86Z"/><path id="path23" class="cls-1" d="M141.14,70.17h-6.41a.87.87,0,0,0-.86.86v6.41a.87.87,0,0,0,.86.86h6.41a.87.87,0,0,0,.86-.86V71A.85.85,0,0,0,141.14,70.17Z"/><path id="path25" class="cls-1" d="M104.92,61.11H89.46a.87.87,0,0,0-.86.86v6.41a.87.87,0,0,0,.86.86h15.47a.87.87,0,0,0,.86-.86V62a.87.87,0,0,0-.87-.86Z"/><path id="path27" class="cls-1" d="M114,70.17H98.5a.86.86,0,0,0-.85.86v6.41a.86.86,0,0,0,.85.86H114a.87.87,0,0,0,.86-.86V71A.84.84,0,0,0,114,70.17Z"/><path id="path29" class="cls-1" d="M107.56,69.24H123a.87.87,0,0,0,.86-.86V62a.87.87,0,0,0-.86-.86H107.56a.87.87,0,0,0-.86.86v6.41A.87.87,0,0,0,107.56,69.24Z"/><path id="path31" class="cls-1" d="M116.62,70.17a.87.87,0,0,0-.86.86v6.41a.87.87,0,0,0,.86.86h15.47a.86.86,0,0,0,.85-.86V71a.86.86,0,0,0-.85-.86Z"/><path id="path33" class="cls-1" d="M141.14,61.11H125.67a.87.87,0,0,0-.86.86v6.41a.87.87,0,0,0,.86.86h15.47a.87.87,0,0,0,.86-.86V62a.86.86,0,0,0-.86-.86Z"/><path id="path35" class="cls-1" d="M86.82,79.21H80.41a.87.87,0,0,0-.86.86v6.41a.87.87,0,0,0,.86.86h6.41a.87.87,0,0,0,.86-.86V80.07A.87.87,0,0,0,86.82,79.21Z"/><path id="path37" class="cls-1" d="M104.92,79.21H89.46a.87.87,0,0,0-.86.86v6.41a.87.87,0,0,0,.86.86h15.47a.87.87,0,0,0,.86-.86V80.07a.88.88,0,0,0-.87-.86Z"/><path id="path39" class="cls-1" d="M107.56,87.34H123a.87.87,0,0,0,.86-.86V80.07a.87.87,0,0,0-.86-.86H107.56a.87.87,0,0,0-.86.86v6.41A.86.86,0,0,0,107.56,87.34Z"/><path id="path41" class="cls-1" d="M141.14,79.21H125.67a.87.87,0,0,0-.86.86v6.41a.87.87,0,0,0,.86.86h15.47a.87.87,0,0,0,.86-.86V80.07A.87.87,0,0,0,141.14,79.21Z"/><path id="path43" class="cls-1" d="M80.41,70.17a.87.87,0,0,0-.86.86v6.41a.87.87,0,0,0,.86.86H95.88a.87.87,0,0,0,.86-.86V71a.87.87,0,0,0-.86-.86Z"/></g><g id="Arm"><path class="cls-2" d="M50.49,58.89a.75.75,0,0,1-.64-.35L32.61,31.08,31.18,55.86a.76.76,0,0,1-.74.71l-5,0a.74.74,0,0,1-.75-.69L21.84,18.38a5.72,5.72,0,0,1,1.75-4,5.74,5.74,0,0,1,3.95-1.82,6.17,6.17,0,0,1,5.81,5.71l-.14,2.53L56,47.6a.75.75,0,0,1,.1.81L51.16,58.47a.73.73,0,0,1-.63.42Z"/><path class="cls-3" d="M27.58,13.27a5.38,5.38,0,0,1,5,5L32.44,21l23,27.06L50.49,58.14,32,28.69,30.43,55.82l-5,0L22.59,18.32a5.38,5.38,0,0,1,5-5.05h0m0-1.5h0a6.85,6.85,0,0,0-6.45,6.57v.1L23.93,56a1.5,1.5,0,0,0,1.5,1.39h0l5,0a1.5,1.5,0,0,0,1.48-1.42l1.3-22.44,16,25.48a1.48,1.48,0,0,0,1.27.7h.08a1.51,1.51,0,0,0,1.27-.84l4.91-10.06a1.47,1.47,0,0,0-.2-1.63L34,20.5l.13-2.18v-.1a6.87,6.87,0,0,0-6.52-6.45Z"/></g><g id="Bucket"><path class="cls-4" d="M23,66.9a6.35,6.35,0,0,1-6-6c0-1.64,1.48-5.14,2.87-7.71,2.12-3.89,4-5.87,5.52-5.88h.71c1.72,0,5.3,0,5.33,3.46.06,7,7.27,14.18,7.35,14.25a1,1,0,0,1-.7,1.72Z"/><path class="cls-3" d="M26.06,48.34c2.25,0,4.31.2,4.33,2.47.07,7.51,7.65,15,7.65,15L23,65.9h0a5.38,5.38,0,0,1-5-5c0-2.51,4.89-12.57,7.4-12.59h.7m0-2h-.72c-.8,0-2.92,0-6.39,6.41-1.39,2.56-3,6.24-3,8.19a7.4,7.4,0,0,0,7,7H23l15-.13a2,2,0,0,0,1.39-3.43c-.07-.07-7-7-7-13.55,0-4.45-4.61-4.45-6.33-4.45Z"/></g><g id="Body"><path class="cls-5" d="M53.06,68.89a3.26,3.26,0,0,1-3.25-3.23l-.07-7.51a.74.74,0,0,1,.21-.53l5-5.06a.75.75,0,0,1,.53-.22L95.52,52a.73.73,0,0,1,.66.41,27.91,27.91,0,0,1,2.7,12.83,3.26,3.26,0,0,1-3.22,3.29Z"/><path class="cls-3" d="M95.52,52.73a27.18,27.18,0,0,1,2.61,12.5,2.52,2.52,0,0,1-2.48,2.53l-42.57.38h0a2.51,2.51,0,0,1-2.5-2.49l-.07-7.51,5-5,20-.18,20-.18m0-1.5h0l-20,.18-20,.18a1.47,1.47,0,0,0-1.06.45l-5,5.05A1.46,1.46,0,0,0,49,58.15l.07,7.52a4,4,0,0,0,4,4l42.6-.38a4,4,0,0,0,4-4,28.69,28.69,0,0,0-2.78-13.17,1.49,1.49,0,0,0-1.33-.82Z"/></g><path class="cls-6" d="M50.49,58.89a.74.74,0,0,1-.59-.28.77.77,0,0,1-.14-.64l4.81-20,0-2.41a3.16,3.16,0,0,1,3.22-3.29l17.54-.15a.73.73,0,0,1,.52.21.8.8,0,0,1,.23.53l.12,14.27L86,47.06c2,0,7.43,0,10.15,5.33a.74.74,0,0,1-.66,1.09l-22.22.2-4.75,4.83a.8.8,0,0,1-.53.23Z"/><path class="cls-3" d="M75.31,32.88l.13,15,10-.09H86c2.63,0,7.12.29,9.49,4.92L73,52.93,68,58l-17.53.15,4.83-20.08,0-2.5A2.45,2.45,0,0,1,57.78,33l17.53-.15m0-1.5h0l-17.53.15a3.89,3.89,0,0,0-4,4l0,2.32L49,57.79a1.49,1.49,0,0,0,1.46,1.85h0L68,59.49A1.55,1.55,0,0,0,69.09,59l4.53-4.61,21.91-.2a1.49,1.49,0,0,0,1.32-2.18c-2.93-5.74-8.67-5.74-10.82-5.74h-.59l-8.51.08-.12-13.53a1.55,1.55,0,0,0-.45-1.05,1.48,1.48,0,0,0-1-.43Z"/><g id="Track"><path class="cls-7" d="M45.72,89l0-.75-.08.75a10.77,10.77,0,0,1-.11-21.53l42.67-.38a10.77,10.77,0,0,1,.09,21.53L45.75,89Z"/><path class="cls-3" d="M88.23,67.82a10,10,0,0,1,.09,20h0l-42.57.37h-.09a10,10,0,0,1-.09-20h0l42.52-.38h.12m0-1.5h-.16l-42.45.38h0a11.52,11.52,0,0,0,.09,23h.1l42.57-.37h.07a11.52,11.52,0,0,0-.17-23Z"/><g id="Track-2" data-name="Track"><rect class="cls-8" x="45.66" y="73.02" width="42.57" height="10.02" transform="translate(-0.69 0.6) rotate(-0.51)"/></g><g id="Wheels"><path class="cls-2" d="M45.61,73.21a5,5,0,1,0,5.06,5A5,5,0,0,0,45.61,73.21Zm42.57-.38a5,5,0,1,0,5.06,5A5,5,0,0,0,88.18,72.83Z"/></g></g><polygon class="cls-9" points="60.33 38.02 57.96 53.07 65.47 53 70.43 47.95 70.34 37.93 60.33 38.02"/><g id="Layer_2" data-name="Layer 2"><g id="PDF"><path class="cls-10" d="M105.48,82.21a.49.49,0,0,1-.42-.24l-3.8-7-5.87,6.19a.45.45,0,0,1-.34.15.51.51,0,0,1-.38-.18.49.49,0,0,1-.09-.35L95.73,72l-8.39,1.56h0a.5.5,0,0,1-.37-.12.45.45,0,0,1-.14-.33.43.43,0,0,1,.13-.34L92.39,67,85.2,63.55a.52.52,0,0,1-.26-.34.51.51,0,0,1,.08-.36.46.46,0,0,1,.3-.19l8.39-1.57-4.25-7.81a.5.5,0,0,1,0-.43.49.49,0,0,1,.43-.27.46.46,0,0,1,.2.05l7.71,3.67,1-7.89a.48.48,0,0,1,.47-.41.45.45,0,0,1,.41.25l3.8,7L109.38,49a.49.49,0,0,1,.34-.15.47.47,0,0,1,.37.19.48.48,0,0,1,.1.35L109,58.24l8.39-1.56h0a.48.48,0,0,1,.47.24.47.47,0,0,1-.07.55l-5.47,5.78,7.18,3.42a.47.47,0,0,1,.27.34.48.48,0,0,1-.08.35.52.52,0,0,1-.3.2l-8.39,1.56,4.24,7.81a.47.47,0,0,1,0,.43.49.49,0,0,1-.43.27.46.46,0,0,1-.2,0L107,73.92l-1,7.88a.5.5,0,0,1-.24.36A.64.64,0,0,1,105.48,82.21Z"/><path class="cls-3" d="M99.3,48.5h0m0,0,3.44,6.33.65,1.21,1-1,5.34-5.63-1.05,8-.18,1.36,1.35-.25,7.63-1.42-4.94,5.21-.95,1,1.25.59,6.48,3.09-7.63,1.42-1.35.25L111,70l3.87,7.14-7-3.34-1.25-.59-.18,1.36-.93,7.12L102,75.34l-.66-1.21-.94,1-5.34,5.64,1-8,.18-1.37L95,71.6,87.34,73l4.94-5.21.94-1L92,66.22,85.5,63.13l7.63-1.42,1.35-.25-.66-1.21-3.88-7.13,7,3.33,1.24.6.18-1.37.93-7.14m0-1a.93.93,0,0,0-.46.12,1,1,0,0,0-.5.73l-1,7.2L90.3,52.18a.92.92,0,0,0-.42-.1,1,1,0,0,0-.88.56,1,1,0,0,0,0,.88l3.92,7.21-7.71,1.43a1,1,0,0,0-.78,1.14A1,1,0,0,0,85,64l6.56,3.12-5,5.28a1,1,0,0,0,0,1.37,1,1,0,0,0,.67.27l.18,0,7.71-1.43-1.07,8.13a1,1,0,0,0,.84,1.09h.13a1,1,0,0,0,.7-.3l5.4-5.7,3.47,6.39a1,1,0,0,0,.86.5.92.92,0,0,0,.46-.11,1,1,0,0,0,.5-.73l1-7.21L114.47,78a1.06,1.06,0,0,0,.42.09,1,1,0,0,0,.88-.55,1,1,0,0,0,0-.89l-3.92-7.21,7.72-1.43a1,1,0,0,0,.24-1.83l-6.56-3.13,5-5.27a1,1,0,0,0,.14-1.14,1,1,0,0,0-.85-.51l-.18,0-7.71,1.44,1.06-8.14a1,1,0,0,0-.84-1.09h-.12a1,1,0,0,0-.71.31l-5.4,5.69L100.14,48a1,1,0,0,0-.85-.51Z"/></g></g></svg>