<svg xmlns="http://www.w3.org/2000/svg" viewBox="0 0 85 75"><defs><style>.cls-2{fill:#1c1c1c}.cls-3{fill:#f4e153}</style></defs><g id="レイヤー_2" data-name="レイヤー 2"><g id="レイヤー_1-2" data-name="レイヤー 1"><path fill="#fff" d="M0 0h85v75H0z"/><g id="工事会社アイコン"><path id="パス_29" data-name="パス 29" class="cls-2" d="M70.3 71.32s-.72-11.82-2.17-14.71C66.85 54 63.91 52 58.6 49.93c-1-.37-2-.72-3.05-1.1l-1.86-.63a11.3 11.3 0 01-.46 2.3 16 16 0 01-2 4 22.84 22.84 0 01-1.6 2.07c-.51-.82-4.44-6.06-4.44-6.06l-2.72 1-2.75-1s-3.93 5.27-4.44 6a17 17 0 01-1.49-1.89 15.65 15.65 0 01-2.07-4.2 11.28 11.28 0 01-.45-2.3l-1.86.63c-1.07.37-2.1.72-3.05 1.1-5.3 2.15-8.24 4.15-9.49 6.76-1.45 2.88-2.17 14.71-2.17 14.71a25 25 0 003.57 1.22C24 74.13 32.56 74.93 41.18 75h2.69c8.61-.07 17.1-.87 22.91-2.41a25.7 25.7 0 003.52-1.27zM38 73a118.76 118.76 0 01-12.35-1 40.54 40.54 0 01.35-4.63.9.9 0 000-.4l-1.45-4.85a1 1 0 00-1.82.55l1.36 4.64c-.2 1.6-.27 3.37-.3 4.44-1.7-.28-3.26-.59-4.64-.94a2.74 2.74 0 00-.4-.15c-.73-.2-1.45-.41-2-.63.33-4.7 1.06-11 1.84-12.57 1-2.08 3.66-3.84 8.5-5.77l.31-.15c.76-.29 1.58-.59 2.45-.89a17.71 17.71 0 002.41 5.06 19.37 19.37 0 002.62 3.1l.91.83.58-1.08v-.1c0-.05.08-.13.14-.23s.3-.52.54-.91.76-1.14 1.28-1.84l2.27 2.89zm27.8-2.17c-1.39.36-2.95.67-4.64.94a41.39 41.39 0 00-.3-4.45l1.37-4.65a1 1 0 00-1.83-.54L59 67a.68.68 0 000 .4c.18 1.55.28 3.11.31 4.67a121.76 121.76 0 01-12.36 1L44.41 58.4l2.27-2.88a29.43 29.43 0 012 3l.59 1.1.91-.83a18.63 18.63 0 002.59-3.08 17.53 17.53 0 002.41-5c.86.3 1.69.59 2.44.88a1.91 1.91 0 00.32.16c4.84 1.89 7.46 3.67 8.5 5.78.79 1.58 1.51 7.86 1.84 12.56-.61.22-1.3.43-2 .63a1.9 1.9 0 00-.4.14z"/><path id="パス_30" data-name="パス 30" class="cls-2" d="M22.64 30.69c.57 4.87 3.36 7.11 6.09 7.31a20 20 0 004.33 7.49 13.19 13.19 0 0018.65.29l.29-.29A19.92 19.92 0 0056.33 38c2.77-.22 5.53-2.46 6.1-7.33.43-3.79-1.08-5.44-2-6.09a3.87 3.87 0 00-1.06-.52h2.08v-5.75h-1.8A17.75 17.75 0 0048.56 2.75V1.08l-.72-.2a19.8 19.8 0 00-10.69 0l-.72.2v1.68a17.59 17.59 0 00-11 15.56H23.6v5.78h2.12a3.9 3.9 0 00-1.07.51c-.95.64-2.46 2.29-2.01 6.08zM48.56 4.87a15.79 15.79 0 019.11 13.45h-9.11zM38.45 2.58a17.71 17.71 0 018.19 0v15.74h-8.22zm-2 2.29v13.45h-9.1a15.66 15.66 0 019.11-13.45zM25.57 22.13v-1.85h33.9v1.85zm.43 4.49a1.64 1.64 0 011-.28 40.68 40.68 0 001.84 4.9l.68-7.16h25.95l.68 7.16a42.61 42.61 0 001.85-4.9 1.6 1.6 0 011 .28c.84.57 1.2 1.95 1 3.78-.39 3.37-2.12 5.41-4.44 5.18v.06l-.54-.3a19.47 19.47 0 01-4.48 8.75 11.14 11.14 0 01-15.74.25l-.25-.25a19.47 19.47 0 01-4.48-8.75l-.54.3v-.06c-2.31.22-4.05-1.81-4.44-5.18-.25-1.83.11-3.21.95-3.78z"/><path id="パス_31" data-name="パス 31" class="cls-2" d="M35 32.8a2.17 2.17 0 10-2.17-2.16A2.16 2.16 0 0035 32.8z"/><circle id="楕円形_1" data-name="楕円形 1" class="cls-2" cx="49.99" cy="30.65" r="2.15"/><path id="パス_32" data-name="パス 32" class="cls-3" d="M38.45 2.58a17.71 17.71 0 018.19 0v15.74h-8.22z"/><path id="パス_33" data-name="パス 33" class="cls-3" d="M48.56 4.87a15.79 15.79 0 019.11 13.45h-9.11z"/><path id="パス_34" data-name="パス 34" class="cls-3" d="M36.46 4.87v13.45h-9.11a15.66 15.66 0 019.11-13.45z"/><path id="長方形_19" data-name="長方形 19" class="cls-3" d="M25.57 20.28h33.9v1.85h-33.9z"/></g></g></g></svg>