<svg id="レイヤー_1" data-name="レイヤー 1" xmlns="http://www.w3.org/2000/svg" viewBox="0 0 162 100"><defs><style>.cls-1{fill:#63c184;}.cls-2{fill:#9ed9ef;opacity:0.37;}.cls-10,.cls-11,.cls-12,.cls-13,.cls-14,.cls-3,.cls-4,.cls-5,.cls-6,.cls-7,.cls-8,.cls-9{fill:none;stroke:#5e889e;stroke-linecap:round;stroke-linejoin:round;}.cls-4{stroke-dasharray:1.98 1.98;}.cls-5{stroke-dasharray:1.99 1.99;}.cls-6{stroke-dasharray:1.95 1.95;}.cls-7{stroke-dasharray:1.99 1.99;}.cls-8{stroke-dasharray:1.91 1.91;}.cls-9{stroke-dasharray:2.14 2.14;}.cls-10{stroke-dasharray:2.14 2.14;}.cls-11{stroke-dasharray:1.88 1.88;}.cls-12{stroke-dasharray:1.92 1.92;}.cls-13{stroke-dasharray:2.03 2.03;}.cls-14{stroke-dasharray:1.93 1.93;}.cls-15{fill:#e9cb21;}.cls-16{fill:#fff;}.cls-17{fill:#404040;}.cls-18{fill:#888;}</style></defs><polygon class="cls-1" points="155 89 40 89 62 51 131.47 51 155 89"/><polygon class="cls-2" points="124.99 33.6 117.34 23.4 114.79 20 79.08 20 63.78 40.4 63.78 78.65 68.88 78.65 76.53 78.65 94.39 78.65 130.09 78.65 130.09 40.4 124.99 33.6"/><g id="_027---Housing-" data-name="027---Housing-"><g id="Shape"><polyline class="cls-3" points="115.39 20.8 114.79 20 113.79 20"/><line class="cls-4" x1="111.8" y1="20" x2="81.07" y2="20"/><polyline class="cls-3" points="80.08 20 79.08 20 78.48 20.8"/><polyline class="cls-5" points="77.29 22.39 63.78 40.4 63.78 76.66"/><polyline class="cls-3" points="63.78 77.65 63.78 78.65 64.78 78.65"/><polyline class="cls-6" points="66.73 78.65 94.39 78.65 128.11 78.65"/><polyline class="cls-3" points="129.09 78.65 130.09 78.65 130.09 77.65"/><polyline class="cls-7" points="130.09 75.66 130.09 40.4 124.99 33.6 117.34 23.4 115.98 21.6"/></g><g id="Rectangle-path"><polyline class="cls-3" points="94.39 41.4 94.39 40.4 95.39 40.4"/><line class="cls-4" x1="97.37" y1="40.4" x2="128.1" y2="40.4"/><polyline class="cls-3" points="129.09 40.4 130.09 40.4 130.09 41.4"/><line class="cls-8" x1="130.09" y1="43.31" x2="130.09" y2="76.7"/><polyline class="cls-3" points="130.09 77.65 130.09 78.65 129.09 78.65"/><line class="cls-4" x1="127.1" y1="78.65" x2="96.38" y2="78.65"/><polyline class="cls-3" points="95.39 78.65 94.39 78.65 94.39 77.65"/><line class="cls-8" x1="94.38" y1="75.75" x2="94.38" y2="42.36"/></g><g id="Shape-2" data-name="Shape"><polyline class="cls-3" points="129.49 39.6 130.09 40.4 129.09 40.4"/><line class="cls-4" x1="127.1" y1="40.4" x2="96.38" y2="40.4"/><polyline class="cls-3" points="95.39 40.4 94.39 40.4 93.78 39.6"/><line class="cls-9" x1="92.5" y1="37.89" x2="80.32" y2="21.65"/><polyline class="cls-3" points="79.68 20.8 79.08 20 80.08 20"/><line class="cls-4" x1="82.07" y1="20" x2="112.79" y2="20"/><polyline class="cls-3" points="113.79 20 114.79 20 115.39 20.8"/><polyline class="cls-10" points="116.67 22.51 117.34 23.4 124.99 33.6 128.85 38.75"/></g><g id="Shape-3" data-name="Shape"><polyline class="cls-3" points="76.53 77.65 76.53 78.65 75.53 78.65"/><line class="cls-11" x1="73.65" y1="78.65" x2="70.82" y2="78.65"/><polyline class="cls-3" points="69.88 78.65 68.88 78.65 68.88 77.65"/><path class="cls-12" d="M68.88,75.74V65.9a1.27,1.27,0,0,1,1.28-1.27h5.1a1.27,1.27,0,0,1,1.27,1.27V76.69"/></g><g id="Rectangle-path-2" data-name="Rectangle-path"><rect class="cls-13" x="68.88" y="48.05" width="7.65" height="7.65" rx="1.28"/></g><g id="Rectangle-path-3" data-name="Rectangle-path"><rect class="cls-13" x="81.63" y="48.05" width="7.65" height="7.65" rx="1.28"/></g><g id="Rectangle-path-4" data-name="Rectangle-path"><rect class="cls-13" x="81.63" y="64.63" width="7.65" height="7.65" rx="1.28"/></g><g id="Rectangle-path-5" data-name="Rectangle-path"><rect class="cls-13" x="99.48" y="48.05" width="7.65" height="7.65" rx="1.28"/></g><g id="Rectangle-path-6" data-name="Rectangle-path"><rect class="cls-13" x="99.48" y="64.63" width="7.65" height="7.65" rx="1.28"/></g><g id="Rectangle-path-7" data-name="Rectangle-path"><rect class="cls-14" x="112.24" y="48.05" width="12.75" height="7.65" rx="1.28"/></g></g><path class="cls-15" d="M131.86,21.86a.82.82,0,0,0-.41-.32l-3.53-1.29A1.72,1.72,0,0,1,126.83,19l-1.45-6.86a.9.9,0,0,0-.11-.27.78.78,0,0,0-.31-.29.88.88,0,0,0-.38-.09.8.8,0,0,0-.7.38.9.9,0,0,0-.11.27L122.32,19a1.72,1.72,0,0,1-1.09,1.26l-3.54,1.29a.88.88,0,0,0-.41.32.81.81,0,0,0,0,.91.8.8,0,0,0,.4.32l3.52,1.34a1.72,1.72,0,0,1,1.07,1.24l1.5,6.85a1,1,0,0,0,.11.28.83.83,0,0,0,.31.28.86.86,0,0,0,.88-.07.82.82,0,0,0,.19-.22.72.72,0,0,0,.12-.27h0l1.45-6.88a1.72,1.72,0,0,1,1.09-1.26l3.53-1.29a.82.82,0,0,0,.41-.32.84.84,0,0,0,.13-.46A.84.84,0,0,0,131.86,21.86Z"/><path class="cls-15" d="M92,29.72a.74.74,0,0,0-.34-.26l-2.42-.89a1,1,0,0,1-.67-.77l-1-4.7a.64.64,0,0,0-.26-.4.64.64,0,0,0-.41-.14.66.66,0,0,0-.41.14.69.69,0,0,0-.26.4l-1,4.7a1,1,0,0,1-.67.77l-2.43.89a.72.72,0,0,0-.45.64.76.76,0,0,0,.11.38.77.77,0,0,0,.33.26l2.42.92a1,1,0,0,1,.65.76l1,4.7a.64.64,0,0,0,.26.4.69.69,0,0,0,.41.13.71.71,0,0,0,.41-.13.75.75,0,0,0,.26-.41L87.12,37l.46.09,1-4.71a1,1,0,0,1,.67-.77l2.42-.89h0a.74.74,0,0,0,.34-.26.71.71,0,0,0,0-.76Zm-5.33,7.2Z"/><polygon class="cls-15" points="67.94 8.11 67.94 8.11 67.94 8.11 67.94 8.11"/><path class="cls-15" d="M72.6,13a.68.68,0,0,0-.35-.27l-1.81-.66a.63.63,0,0,1-.38-.44l-.74-3.52a.69.69,0,0,0-.27-.42.75.75,0,0,0-.42-.14.78.78,0,0,0-.43.14.72.72,0,0,0-.26.42l-.74,3.52a.63.63,0,0,1-.38.44L65,12.73a.76.76,0,0,0-.35.28.69.69,0,0,0-.12.39.68.68,0,0,0,.12.38.73.73,0,0,0,.34.28l1.81.68a.61.61,0,0,1,.37.44l.77,3.51a.69.69,0,0,0,.26.42.72.72,0,0,0,.85,0,.79.79,0,0,0,.27-.42h0l.74-3.53a.63.63,0,0,1,.38-.44l1.81-.66a.7.7,0,0,0,.35-.28.69.69,0,0,0,.12-.39A.74.74,0,0,0,72.6,13Zm-4.34,5.46Z"/><path class="cls-16" d="M71.13,67.26l.6-.83a2.07,2.07,0,0,1,2.51-.82,1.62,1.62,0,0,1,.51,2,.28.28,0,0,0,.31.36c1.23-.23,4.42-.71,6.15.1,3.51,1.64,2.11,4.86-2.75,6.16l-5.15,1.07"/><path class="cls-17" d="M71.88,67.8l.63-.86,0,0a1,1,0,0,1,.4-.35,1.38,1.38,0,0,1,.61-.17.37.37,0,0,1,.23,0h0a.15.15,0,0,1,.09.1.88.88,0,0,1,.06.33,1.39,1.39,0,0,1-.07.44l.89.27-.88-.28a1.15,1.15,0,0,0-.06.37A1.19,1.19,0,0,0,75,68.85h.23a18.12,18.12,0,0,1,3.29-.33,5.83,5.83,0,0,1,2.3.36,3.31,3.31,0,0,1,1.14.82,1,1,0,0,1,.27.69A1.3,1.3,0,0,1,82,71a3.66,3.66,0,0,1-1.26,1.21,9.66,9.66,0,0,1-2.56,1.07l.24.89-.19-.91-5.15,1.07a.93.93,0,0,0,.37,1.82l5.18-1.07h0a10,10,0,0,0,3.84-1.85,4.74,4.74,0,0,0,1.12-1.31,3.12,3.12,0,0,0,.43-1.55,3,3,0,0,0-.68-1.85,4.87,4.87,0,0,0-1.81-1.34,7.26,7.26,0,0,0-3.08-.54,20.4,20.4,0,0,0-3.63.37l.17.91L74.92,67l.08.55V67h-.08l.08.55v.11l.49-.46A.71.71,0,0,0,75,67v.67l.49-.46-.47.45h.65a.67.67,0,0,0-.18-.45l-.47.45h0l.61.2a.64.64,0,0,0,0-.2H75l.61.2v0a3.19,3.19,0,0,0,.15-1,2.6,2.6,0,0,0-.23-1.11,2.07,2.07,0,0,0-.87-.94h0a2.3,2.3,0,0,0-1.14-.29,3.15,3.15,0,0,0-1.49.39A2.88,2.88,0,0,0,70.92,66l.81.45L71,65.89l-.6.82a.94.94,0,0,0,.2,1.3.93.93,0,0,0,1.3-.21Z"/><path class="cls-15" d="M48.92,25.38V22.17H47.56s.34-9.56-8.75-13.41h-.67V7.05s-.71-.65-4.49-.65-4.5.65-4.5.65V8.76h-.66c-9.09,3.85-8.76,13.41-8.76,13.41H18.38v3.21Z"/><path class="cls-17" d="M16.6,31.71c.49,4.18,2.85,6.1,5.23,6.29a17,17,0,0,0,3.71,6.42,11.3,11.3,0,0,0,16,.25l.25-.25A17,17,0,0,0,45.49,38c2.38-.19,4.74-2.11,5.23-6.29.37-3.24-.93-4.66-1.74-5.22a3.48,3.48,0,0,0-.91-.44h1.8V21.1H48.32A15.18,15.18,0,0,0,38.83,7.76V6.33l-.62-.17a17,17,0,0,0-9.16,0l-.62.17V7.77A15.09,15.09,0,0,0,19,21.11H17.43v5h1.81a3.19,3.19,0,0,0-.91.44C17.52,27.05,16.22,28.47,16.6,31.71ZM38.83,9.58a13.54,13.54,0,0,1,7.81,11.53H38.83Zm-8.67-2a15.14,15.14,0,0,1,7,0V21.11h-7Zm-1.71,2V21.11h-7.8A13.43,13.43,0,0,1,28.45,9.58ZM19.12,24.37V22.79H48.18v1.58Zm.4,3.86a1.44,1.44,0,0,1,.85-.25A36.71,36.71,0,0,0,22,32.19l.58-6.14H44.75l.59,6.14A36.83,36.83,0,0,0,46.94,28a1.45,1.45,0,0,1,.86.25c.72.49,1,1.67.84,3.24-.33,2.89-1.82,4.63-3.81,4.44V36l-.46-.25a16.75,16.75,0,0,1-3.84,7.5,9.55,9.55,0,0,1-13.71,0A16.75,16.75,0,0,1,23,35.71l-.46.25v-.05c-2,.19-3.48-1.55-3.81-4.44C18.49,29.9,18.8,28.72,19.52,28.23Z"/><path class="cls-17" d="M27.23,33.53a1.86,1.86,0,1,0-1.86-1.86A1.85,1.85,0,0,0,27.23,33.53Z"/><path class="cls-17" d="M40.06,29.84a1.85,1.85,0,1,1-1.85,1.84A1.84,1.84,0,0,1,40.06,29.84Z"/><polyline class="cls-18" points="24.68 119.32 20.05 91.72 21.32 84.15 46.81 84.15 48.08 91.72 43.45 119.32"/><path class="cls-17" d="M25.6,119.17,21,91.72l1.11-6.64H46l1.11,6.64-4.6,27.45a.93.93,0,1,0,1.83.3L49,91.72,47.6,83.23H20.53l-1.42,8.49,4.66,27.75a.93.93,0,1,0,1.83-.3Z"/><path class="cls-17" d="M33.14,93.66v25.66a.93.93,0,1,0,1.85,0V93.66a.93.93,0,1,0-1.85,0"/><path class="cls-16" d="M46.62,84.45l2-9.91.06,3.24a6.5,6.5,0,0,0,6,1.61L72.5,74.54l-1.6-7.3L56.57,69.32s-.09-13.19-2.26-16-9.44-4.82-9.44-4.82-1.91,5.29-4.4,7.19l-4.41-5.57-2,1.14-2-1.14-4.41,5.57c-2.49-1.9-4.4-7.19-4.4-7.19S16,50.6,13.82,53.36s-2.61,18.83-2.61,18.83L23.26,88.12l6.23-4Z"/><path class="cls-16" d="M23.55,88l1,1.58a3.48,3.48,0,0,0,5.81-3.82l-1-1.59"/><path class="cls-17" d="M22.77,88.53l1.05,1.58a4.4,4.4,0,0,0,7.36-4.84l-1.05-1.59a.93.93,0,0,0-1.55,1l1.05,1.59a2.55,2.55,0,0,1-2.13,3.95,2.53,2.53,0,0,1-2.13-1.15l-1-1.58a.93.93,0,1,0-1.56,1Z"/><polygon class="cls-17" points="48.08 82.02 47.81 86.89 30.73 86.89 28.37 82.02 48.08 82.02"/><polyline class="cls-17" points="29.45 53.47 32.44 57.23 30.25 69.75 34.07 74.71 37.88 69.77 35.71 57.23 38.52 53.47 36.06 50.16 34.08 51.3 32.07 50.16 29.45 53.47"/><path class="cls-17" d="M21.35,85.69l6.31-4.22a.93.93,0,1,0-1-1.54l-6.3,4.22a.93.93,0,1,0,1,1.54"/><path class="cls-17" d="M46.63,67.3,48,77a4,4,0,0,0,1.47,2.56,4.37,4.37,0,0,0,2.71.9,5.42,5.42,0,0,0,1.31-.17l-.24-.9.2.91L73.35,76l-2-9.46L56.87,67.66l.07.93.93,0s-.12-3.14-.51-6.64a48.93,48.93,0,0,0-.81-5.21,18.31,18.31,0,0,0-.63-2.21,6.05,6.05,0,0,0-.88-1.7,9.38,9.38,0,0,0-2.65-2.15,29.13,29.13,0,0,0-4.78-2.17c-1.43-.52-2.47-.82-2.48-.82l-.84-.24-.29.82,0,.05a27.89,27.89,0,0,1-1.35,3,17.55,17.55,0,0,1-1.28,2.12A7.27,7.27,0,0,1,39.91,55l.56.74.73-.58L36.29,49l-2.21,1.27L31.83,49l-4.9,6.18.73.58.56-.74a8,8,0,0,1-1.54-1.71,22.09,22.09,0,0,1-1.84-3.35c-.23-.5-.41-.93-.53-1.23s-.1-.27-.13-.35l0-.1v0l-.29-.82-.84.24a37.25,37.25,0,0,0-4,1.41,26.37,26.37,0,0,0-3.26,1.58,9.38,9.38,0,0,0-2.65,2.15,5.88,5.88,0,0,0-.89,1.9,30.47,30.47,0,0,0-1,4.92c-.75,5.61-.94,12.54-.94,12.55v.33L23,89.37l7.76-5-10-14.57.52-5.47a.93.93,0,1,0-1.85-.17l-.58,6.13,9.33,13.55-4.7,3L12,71.63l-.74.56.93,0s0-.24,0-.68c.06-1.55.23-5.46.62-9.27.19-1.9.45-3.78.76-5.3a17.56,17.56,0,0,1,.5-2,4,4,0,0,1,.51-1.08,7.93,7.93,0,0,1,2.13-1.69,29.36,29.36,0,0,1,4.48-2c.68-.25,1.27-.44,1.69-.57l.49-.16.13,0h0l-.25-.9-.88.32a30.5,30.5,0,0,0,1.32,3,19.72,19.72,0,0,0,1.46,2.5,9.68,9.68,0,0,0,1.94,2.13l.73.55,4.47-5.66,1.79,1,1.74-1L40.3,57l.73-.55A9.44,9.44,0,0,0,43,54.34a23.34,23.34,0,0,0,2-3.64c.48-1.06.76-1.83.77-1.84l-.88-.32-.25.9.07,0a38.68,38.68,0,0,1,4.12,1.47,22.38,22.38,0,0,1,2.81,1.42,7.32,7.32,0,0,1,2,1.58,4.52,4.52,0,0,1,.6,1.2,22.55,22.55,0,0,1,.9,3.77c.37,2.19.6,4.63.74,6.52.07.94.12,1.74.15,2.31,0,.28,0,.51,0,.66s0,.23,0,.23l0,1,13.78-1.11,1.32,6L53.07,78.46h0a3.59,3.59,0,0,1-.84.11,2.6,2.6,0,0,1-1.57-.5,2.09,2.09,0,0,1-.77-1.37L48.47,67a.94.94,0,0,0-1.06-.79.93.93,0,0,0-.78,1.06Z"/><path class="cls-17" d="M68.91,75.41l-1.45-7a.93.93,0,1,0-1.82.38l1.45,7a.93.93,0,0,0,1.1.72.94.94,0,0,0,.72-1.1"/><path class="cls-17" d="M47.72,74.33,45.48,84a.94.94,0,0,0,.7,1.12.93.93,0,0,0,1.11-.7l2.24-9.65a.93.93,0,0,0-1.81-.42"/></svg>