<svg xmlns="http://www.w3.org/2000/svg" width="354.734" height="54.31" viewBox="0 0 354.734 54.31">
  <g id="labelsp" transform="translate(-10.001 -618.785)">
    <path id="パス_3" data-name="パス 3" d="M254.793,239.213c.519,0,1.038-.038,1.557-.038.371,0,.371.185.371.7v.52c0,.433-.049.543-.384.543-.16,0-.321-.012-.469-.012-.074,0-.173.012-.173.1,0,.049.074.075.1.087.185.075.9.4.9.593,0,.111-.111.137-.2.137-.222.012-.2.024-.581.716a13.457,13.457,0,0,1-.8,1.261.416.416,0,0,0-.1.21c0,.136.161.136.358.136.482,0,.963-.025,1.434-.025.346,0,.383.136.383.556v.667c0,.433-.037.569-.383.569-.507,0-1.026-.037-1.545-.037h-2.2a.345.345,0,0,0-.346.346v1.483c0,.63.037,1.261.037,1.891,0,.321-.148.358-.581.358h-.9c-.42,0-.569-.037-.569-.358,0-.63.049-1.261.049-1.891v-1.483a.345.345,0,0,0-.346-.346h-2.188c-.507,0-1.026.037-1.545.037-.346,0-.371-.148-.371-.556v-.618c0-.532.012-.63.482-.63.272,0,.692.037,1.36.037.185,0,.371,0,.371-.185a14.238,14.238,0,0,0-1.15-2.163.561.561,0,0,1-.124-.26c0-.185.383-.358.544-.445.037-.025.1-.061.1-.11s-.062-.075-.136-.075c-.21,0-.408.012-.618.012-.346,0-.383-.136-.383-.555v-.668c0-.408.025-.544.371-.544.519,0,1.038.038,1.557.038Zm-5.575,1.706c-.111,0-.321.012-.321.172a.523.523,0,0,0,.1.223,19.71,19.71,0,0,1,1.125,2.212c0,.161-.185.272-.321.346-.074.037-.185.087-.185.2s.136.1.21.1h.581a.346.346,0,0,0,.346-.346v-2.559a.337.337,0,0,0-.346-.345Zm3.844,0a.345.345,0,0,0-.346.345v2.559a.345.345,0,0,0,.346.346h.618c.087,0,.247,0,.247-.111,0-.087-.1-.148-.26-.247l-.111-.074c-.087-.062-.185-.136-.185-.259,0-.087.136-.26.2-.347a10.6,10.6,0,0,0,1.1-2.026c0-.174-.173-.185-.309-.185Z" transform="translate(-106.301 380.043)" fill="#545454"/>
    <path id="パス_4" data-name="パス 4" d="M263.948,245.232c0,.148,0,.346.26.346a1.264,1.264,0,0,0,.358-.087.582.582,0,0,1,.21-.049c.26,0,.272.618.272.816,0,.655-.074.791-.383.9-.185.062-2.3.717-2.484.766-.161.049-.173.062-.235.2a.3.3,0,0,1-.247.185c-.136,0-.2-.222-.334-.63a8.594,8.594,0,0,1-.334-1.125c0-.173.161-.185.445-.235.68-.111.766-.124.766-.544v-2.3c0-.235-.062-.457-.346-.457-.111,0-.247.012-.371.012-.26,0-.284-.124-.284-.482V241.8c0-.358.025-.482.284-.482.1,0,.3.012.358.012a.364.364,0,0,0,.358-.408v-.878c0-.432-.037-.827-.037-.963s.1-.161.223-.161c.2,0,1.112.049,1.347.061.148.013.445,0,.445.21,0,.112-.074.148-.173.223s-.1.136-.1.272v1.261a.329.329,0,0,0,.358.371h.26c.235,0,.284.112.284.334v.309c0,.211.012.284.087.284s.173-.284.284-.569A14.332,14.332,0,0,0,266,239c.025-.124.037-.248.2-.248.124,0,1.075.2,1.384.26.185.038.482.112.482.3,0,.087-.087.148-.161.173-.185.049-.185.073-.247.283a6.243,6.243,0,0,0-.148.618c0,.161.21.185.334.185h2.2c.457,0,.9-.024,1.36-.024.606,0,.655.26.655.951v.47a34.232,34.232,0,0,1-.545,6.551,1.891,1.891,0,0,1-1.037,1.2,4.388,4.388,0,0,1-1.607.2c-.717,0-1.075-.037-1.075-1.088,0-.346.012-.717.4-.717.223,0,.63.037.939.037.692,0,.779-.494.853-1.051a37.266,37.266,0,0,0,.247-4.413c0-.469-.111-.518-.655-.518h-2.25c-.457,0-.457.209-.618.63a.381.381,0,0,0-.037.161c0,.161.185.185.346.185h.841c.371,0,.742-.025,1.112-.025s.42.124.42.507v.569c0,.383-.037.507-.42.507s-.742-.025-1.112-.025h-.7c-.371,0-.754.025-1.125.025-.346,0-.42-.111-.42-.433,0-.247-.012-.383-.26-.482-.2-.073-.8-.371-.8-.606,0-.025.012-.062.012-.074,0-.062,0-.087-.321-.087a.29.29,0,0,0-.284.321Zm5.649.742c0,.494-.037.667-.334.779a28.625,28.625,0,0,1-2.88.865c-.136.025-.173.037-.21.136a.242.242,0,0,1-.222.161c-.136,0-.185-.124-.383-.655a6.555,6.555,0,0,1-.309-.9c0-.124.1-.185.21-.2a33.3,33.3,0,0,0,3.683-.9.628.628,0,0,1,.111-.025C269.585,245.232,269.6,245.64,269.6,245.974Z" transform="translate(-108.893 380.117)" fill="#545454"/>
    <path id="パス_5" data-name="パス 5" d="M281.751,239.331a.3.3,0,0,0,.3-.26c0-.063-.025-.136-.025-.2,0-.16.111-.185.247-.185.173,0,1.088.063,1.3.087.235.026.4.026.4.136s-.111.185-.2.248a.061.061,0,0,0-.025.049.14.14,0,0,0,.148.124h.643c.42,0,.841-.026,1.261-.026.26,0,.581.026.581.421,0,.148-.025.382-.025.654v.137c0,.272.025.518.025.667,0,.358-.272.407-.569.407-.42,0-.841-.012-1.273-.012h-.68a.136.136,0,0,0-.136.135v.074a.137.137,0,0,0,.136.136h2c.272,0,.555-.012.828-.012.185,0,.371.012.371.247a4.44,4.44,0,0,1-.433,1.644.8.8,0,0,1-.569.4c-.482.124-.507.235-.507.717v2.052c0,.334.025.618.025.8,0,.346-.284.445-.7.445h-.124c-.037,0-.111.012-.111.062,0,.111.828.173.964.185.42.037.828.074,1.248.087.185,0,.223.012.223.136a2.974,2.974,0,0,1-.148.8c-.087.284-.21.42-.519.42a11.673,11.673,0,0,1-1.953-.222,10.862,10.862,0,0,1-1.632-.371c-.1-.037-.21-.087-.21-.21a1.435,1.435,0,0,1,.272-.593.245.245,0,0,0,.074-.161c0-.111-.111-.161-.21-.161h-2.077c-.111,0-.21.049-.21.161,0,.025.012.062.074.161.124.2.334.507.445.692a.263.263,0,0,1,.049.148.119.119,0,0,1-.111.1.56.56,0,0,1-.2-.037.521.521,0,0,0-.148-.037.361.361,0,0,0-.111.025,18.138,18.138,0,0,1-3.436.494c-.26,0-.309-.1-.4-.346a3.363,3.363,0,0,1-.2-.828c0-.2.124-.2.185-.2a15.064,15.064,0,0,0,2.089-.136c.346-.049.42-.087.42-.136,0-.025,0-.049-.111-.049s-.223.012-.334.012c-.321,0-.766-.012-.766-.445,0-.173.037-.457.037-.8v-2.052c0-.185-.037-.383-.272-.383a1.68,1.68,0,0,0-.433.087,1.342,1.342,0,0,1-.309.049c-.47,0-.7-.8-.7-1.063,0-.21.087-.235.519-.3.161-.025,1.125-.185,1.125-.346,0-.061-.087-.074-.136-.074h-.346c-.358,0-.754-.012-.754-.235a1.368,1.368,0,0,1,.087-.321c.136-.444.26-.926.346-1.347.049-.26.136-.321.4-.321h1.866a.17.17,0,0,0,.161-.185.154.154,0,0,0-.148-.162H278.13c-.4,0-.779.012-1.162.012-.223,0-.26-.062-.26-.3v-.4c0-.26.025-.335.26-.335.383,0,.766.026,1.162.026h1.063a.29.29,0,0,0,.284-.3v-.148c0-.186.087-.236.26-.236s1.347.063,1.508.087c.087.013.185.063.185.173s-.062.136-.124.173-.111.062-.111.124a.131.131,0,0,0,.148.124Zm-2.67,2.595a.188.188,0,0,0,.173-.2c0-.087-.074-.148-.185-.148H278.8c-.235,0-.358.012-.358.185a.164.164,0,0,0,.161.161Zm2.645,1.768a.346.346,0,0,0,.346-.347v-.111a.338.338,0,0,0-.346-.346H280.7a.765.765,0,0,0-.569.3c-.062.062-.161.148-.247.223s-.136.124-.136.173c0,.087.1.112.161.112Zm1.866,1.334a.137.137,0,0,0,.136-.136v-.074a.137.137,0,0,0-.136-.136h-3.708a.137.137,0,0,0-.136.136v.074c0,.074.049.124.136.136Zm-3.708.754a.14.14,0,0,0-.136.148v.062a.137.137,0,0,0,.136.136h3.708a.137.137,0,0,0,.136-.136v-.062a.133.133,0,0,0-.136-.148Zm0,1.075a.137.137,0,0,0-.136.136v.074a.137.137,0,0,0,.136.136h3.708a.137.137,0,0,0,.136-.136v-.074a.13.13,0,0,0-.136-.136Zm1.224-5.277a.168.168,0,0,0-.173.173.159.159,0,0,0,.161.172h.841a.137.137,0,0,0,.136-.136v-.074a.129.129,0,0,0-.136-.135Zm.8-.915a.164.164,0,0,0,.161-.161v-.037a.153.153,0,0,0-.161-.148h-.643c-.1,0-.148.087-.148.185s.062.149.161.161Zm2.559,0a.164.164,0,0,0,.161-.161v-.037a.153.153,0,0,0-.161-.148h-.593a.153.153,0,0,0-.161.148v.037a.172.172,0,0,0,.161.161Zm-.408,2.225a.345.345,0,0,0-.346.346v.3a.166.166,0,0,0,.173.162c.148,0,.173-.087.173-.236,0-.247.111-.26.284-.26.148,0,.284.012.433.012a.73.73,0,0,0,.321-.049.292.292,0,0,0,.161-.21c0-.062-.062-.062-.173-.062Z" transform="translate(-111.567 380.135)" fill="#545454"/>
    <path id="パス_6" data-name="パス 6" d="M294.271,246.331c-.42,0-.532.21-.593.581a7.5,7.5,0,0,1-.952,2.62c-.111.173-.272.42-.507.42-.272,0-1.248-.643-1.248-.976a.5.5,0,0,1,.124-.272,6.808,6.808,0,0,0,.7-1.693,15.9,15.9,0,0,0,.321-3.844V241.1c0-.445-.037-.878-.037-1.323,0-.482.185-.679.68-.679.408,0,.816.024,1.224.024h5.748c.4,0,.8-.024,1.2-.024.494,0,.692.173.692.679,0,.433-.025.878-.025,1.323v6.267c0,.334.012.68.012,1.014a1.321,1.321,0,0,1-.63,1.323,3.025,3.025,0,0,1-1.446.272.655.655,0,0,1-.754-.519,2.546,2.546,0,0,1-.148-.865c0-.222.037-.4.3-.4a1.2,1.2,0,0,1,.21.012,2.382,2.382,0,0,0,.3.012c.358,0,.383-.111.383-.445v-1.1a.345.345,0,0,0-.346-.346h-1.533a.346.346,0,0,0-.346.346v.742c0,.655.037,1.3.037,1.941,0,.309-.148.334-.569.334H296.3c-.433,0-.569-.025-.569-.346,0-.643.037-1.285.037-1.928v-.742a.331.331,0,0,0-.346-.346Zm.025-2.744c-.383,0-.433.2-.433.532v.272a.364.364,0,0,0,.408.346h1.15a.345.345,0,0,0,.346-.346v-.457a.338.338,0,0,0-.346-.346Zm1.125-1.632a.331.331,0,0,0,.346-.345v-.446a.337.337,0,0,0-.346-.345h-1.187a.345.345,0,0,0-.346.345v.446a.345.345,0,0,0,.346.345Zm4.054,0a.338.338,0,0,0,.346-.345v-.446a.337.337,0,0,0-.346-.345h-1.533a.337.337,0,0,0-.346.345v.446a.331.331,0,0,0,.346.345Zm-1.533,1.632a.338.338,0,0,0-.346.346v.457a.346.346,0,0,0,.346.346h1.533a.345.345,0,0,0,.346-.346v-.457a.345.345,0,0,0-.346-.346Z" transform="translate(-114.161 380.056)" fill="#545454"/>
    <path id="パス_7" data-name="パス 7" d="M307.589,239.088a6.057,6.057,0,0,1,.433.953,6.724,6.724,0,0,1,.371,1.1c0,.172-.223.246-.482.358a3.518,3.518,0,0,1-.791.26.211.211,0,0,1-.2-.186,8.825,8.825,0,0,0-.742-1.8.546.546,0,0,1-.074-.2c0-.173.4-.309.606-.4a4.075,4.075,0,0,1,.63-.234A.313.313,0,0,1,307.589,239.088Zm4.7,8.158c0,.334.012.667.012,1,0,1.372-.878,1.656-2.077,1.656-.457,0-.668-.087-.754-.556a4.6,4.6,0,0,1-.1-.828c0-.161.012-.408.247-.408a1.232,1.232,0,0,1,.2.025,2.5,2.5,0,0,0,.408.037c.42,0,.433-.124.433-.42v-.136c0-.272-.124-.433-.408-.433h-1.619a.345.345,0,0,0-.346.346v.643c0,.47.025.952.025,1.434,0,.284-.124.309-.494.309h-.7c-.346,0-.482-.025-.482-.3,0-.482.037-.964.037-1.446v-4.487c0-.383-.025-.754-.025-1.137,0-.532.26-.618.692-.618.284,0,.581.025.865.025.358,0,.4-.247.4-.445V239.9c0-.532-.037-.94-.037-1.039,0-.161.1-.173.235-.173.3,0,1.1.049,1.434.075.173.012.371.012.371.173,0,.1-.062.124-.173.2-.087.063-.087.21-.087.358v2.015c0,.272.087.445.383.445s.581-.025.878-.025c.433,0,.717.062.717.63,0,.371-.025.742-.025,1.125Zm-1.866-3.35a.227.227,0,0,0,.235-.235v-.037a.227.227,0,0,0-.235-.234h-1.9a.227.227,0,0,0-.235.234v.037a.227.227,0,0,0,.235.235Zm-1.9,1.384a.227.227,0,0,0-.235.235v.037a.227.227,0,0,0,.235.235h1.9a.227.227,0,0,0,.235-.235v-.037a.227.227,0,0,0-.235-.235Zm4.277-5.809c.173.061.284.124.284.246s-.136.136-.185.149c-.148.024-.173.037-.21.16a14.488,14.488,0,0,1-.581,1.434c-.111.247-.185.371-.346.371a2.589,2.589,0,0,1-.68-.235c-.371-.161-.63-.271-.63-.407a.9.9,0,0,1,.148-.335,8.883,8.883,0,0,0,.643-1.643c.037-.124.1-.2.235-.2C311.569,239.014,312.4,239.323,312.793,239.472Zm1.8,5.908c0,.532.037,1.063.037,1.607,0,.272-.111.3-.47.3h-.729c-.358,0-.47-.025-.47-.309,0-.531.037-1.063.037-1.595v-4.053a8.2,8.2,0,0,0-.049-1.063c0-.136.111-.162.223-.162.136,0,1.088.062,1.323.087.272.026.371.049.371.162s-.087.16-.148.209c-.124.111-.124.186-.124,1.224Zm2.274,1.792c0,.21.025.717.025,1.075,0,1.36-1.038,1.619-2.175,1.619-.284,0-.569,0-.692-.247a2.692,2.692,0,0,1-.173-.939c0-.222.025-.618.321-.618.111,0,.408.025.667.025.371,0,.371-.148.371-.779v-6.984c0-.2.012-.445.012-.7a6.152,6.152,0,0,0-.049-.779c0-.148.111-.16.223-.16.42,0,1.014.037,1.323.061.185.013.37.026.37.185,0,.063-.024.087-.073.137-.136.123-.148.172-.148.691Z" transform="translate(-116.824 380.13)" fill="#545454"/>
    <path id="パス_8" data-name="パス 8" d="M323.659,245.4a6.213,6.213,0,0,1-.136.618,24.478,24.478,0,0,1-.989,3.1,1.026,1.026,0,0,0-.074.26c0,.074.049.173.049.26a.162.162,0,0,1-.161.148,7.091,7.091,0,0,1-1.112-.643c-.272-.173-.371-.235-.371-.358a1.756,1.756,0,0,1,.173-.433,16.54,16.54,0,0,0,1.15-3.238c.062-.247.074-.4.272-.4C322.634,244.719,323.659,245.1,323.659,245.4Zm-.717-3.114c.26.222.754.642.754.791,0,.259-.717,1.075-1,1.075-.111,0-.173-.087-.26-.173a16.124,16.124,0,0,0-1.31-1.125c-.074-.049-.173-.124-.173-.222a1.115,1.115,0,0,1,.161-.383c.049-.049.1-.111.161-.185.223-.248.494-.557.655-.557S322.72,242.086,322.943,242.285Zm.532-2.621c.309.26.569.458.569.606,0,.248-.742,1.15-.989,1.15-.074,0-.173-.087-.346-.247-.4-.345-.816-.68-1.236-.989-.074-.049-.223-.136-.223-.234,0-.21.791-1.137,1.026-1.137A6.831,6.831,0,0,1,323.474,239.664Zm2.522,2.46a.338.338,0,0,0-.346.346v1.582a19.167,19.167,0,0,1-.606,5.093c-.247.766-.272.828-.494.828a2.958,2.958,0,0,1-.927-.247c-.124-.049-.482-.2-.482-.4,0-.037.124-.371.161-.482a14.189,14.189,0,0,0,.729-4.882v-1.743c0-.4-.037-.791-.037-1.187,0-.482.247-.593.68-.593.408,0,.816.025,1.211.025h1.965a.348.348,0,0,0,.346-.382v-.346c0-.112-.012-.222-.012-.335v-.321c0-.234.111-.309.334-.309.025,0,1.125.087,1.224.087a.756.756,0,0,1,.4.1.231.231,0,0,0,.124.037c.074,0,.1-.024.161-.074a1.4,1.4,0,0,1,.519-.272c.161,0,.507.458.655.644a2.379,2.379,0,0,1,.4.58c0,.148-.148.272-.26.347-.049.037-.148.1-.148.16,0,.037.049.062.1.062h.1c.346,0,.371.062.371.494v.73c0,.382-.025.482-.334.482-.433,0-.853-.026-1.285-.026h-.284a.353.353,0,0,0-.4.4c0,.408.012.8.012,1.211v.136c0,.235.025.42.111.42s.161-.185.247-.47a6.909,6.909,0,0,0,.247-.964c.012-.086.049-.148.136-.148a6.546,6.546,0,0,1,.779.3c.667.272.952.358.952.532,0,.136-.136.162-.236.2-.147.049-.185.161-.3.457a19.777,19.777,0,0,1-1.174,2.608.74.74,0,0,0-.124.4c0,.173.136.532.26.532.161,0,.21-.729.21-.865,0-.2.012-.284.272-.284.234,0,1,.136,1,.63a6.153,6.153,0,0,1-.372,1.829c-.209.531-.506.9-1.112.9a1.534,1.534,0,0,1-1.248-.8.269.269,0,0,0-.21-.136c-.1,0-.21.148-.3.26-.148.173-.544.667-.754.667-.235,0-1.174-.667-1.174-.927,0-.087.136-.222.2-.284a9.1,9.1,0,0,0,.989-1.2,1.124,1.124,0,0,0,.284-.779,5.878,5.878,0,0,0-.111-.878,22.925,22.925,0,0,1-.223-3.226v-.049c0-.247-.074-.457-.346-.457Zm1.038.433c.3,0,.569-.025.816-.025s.272.173.272.445v.42c0,.284-.025.457-.272.457s-.544-.025-.816-.025h-.074c-.272,0-.544.025-.8.025s-.284-.185-.284-.457v-.42c0-.272.025-.445.284-.445s.531.025.8.025Zm.21,1.656c.111,0,.21-.012.321-.012.371,0,.47.2.47.532,0,.26-.012.532-.012.791v.89c0,.272.012.531.012.8,0,.321-.087.532-.445.532a.6.6,0,0,1-.148-.012c-.074,0-.087-.012-.161-.012h-.247c-.247,0-.284.136-.284.346v.025c0,.185-.025.247-.3.247h-.247c-.235,0-.321-.049-.321-.26,0-.284.012-.556.012-.841v-1.718c0-.272-.025-.531-.025-.8,0-.47.235-.519.507-.519.173,0,.358.012.531.012Zm-.494,2.126a.2.2,0,0,0,.2.2h.025a.2.2,0,0,0,.2-.2v-.729a.2.2,0,0,0-.2-.2h-.025a.2.2,0,0,0-.2.2Zm3.387-6.761a1.013,1.013,0,0,1-.1-.124c-.012-.024-.062-.086-.087-.086-.086,0-.1.223-.1.283v.3c0,.3.037.518.4.518h.21c.111,0,.21-.036.21-.16C330.668,240.158,330.248,239.7,330.136,239.577Z" transform="translate(-119.422 380.135)" fill="#545454"/>
    <path id="パス_9" data-name="パス 9" d="M339.336,245.923a.216.216,0,0,1-.185.124c-.21,0-.247-.309-.321-.606s-.1-.494-.3-.494a4.373,4.373,0,0,0-.729.272c-.049.025-.087.037-.111.049-.507.222-.531.2-.581.334a.22.22,0,0,1-.185.136c-.1,0-.148-.161-.309-.569-.049-.1-.086-.222-.148-.371-.012-.037-.037-.087-.062-.148a1.893,1.893,0,0,1-.124-.383c0-.087.037-.074.3-.136a15.111,15.111,0,0,0,2.015-.729.47.47,0,0,1,.185-.062c.223,0,.26.569.272.729.012.21.111.358.346.358.272,0,.643-.2.643-.433,0-.111-.1-.185-.185-.26a8.953,8.953,0,0,0-.9-.618c-.136-.087-.272-.148-.272-.26,0-.148.581-1.038.766-1.038a.167.167,0,0,1,.074.026.143.143,0,0,0,.062.012c.074,0,.124-.1.222-.271a.927.927,0,0,0,.148-.309c0-.112-.1-.149-.2-.149h-1.52c-.507,0-1,.025-1.508.025-.3,0-.321-.111-.321-.457v-.63c0-.346.025-.445.346-.445.494,0,.989.026,1.483.026h2.175a.349.349,0,0,0,.346-.358c0-.063-.025-.334-.037-.4,0-.026-.012-.063-.012-.087,0-.124.136-.124.3-.124.235,0,1.014.037,1.372.061.309.026.482.037.482.173,0,.112-.1.136-.148.162-.111.061-.111.16-.111.26a.327.327,0,0,0,.334.309h2.25c.494,0,.989-.026,1.483-.026.309,0,.346.087.346.508v.469c0,.458,0,.556-.358.556-.1,0-.222.012-.222.136,0,.062.445.952.506,1.075a.349.349,0,0,1,.05.173c0,.063-.05.111-.137.111a.579.579,0,0,1-.136-.037.3.3,0,0,0-.1-.025c-.037,0-.371.111-.618.2-.136.049-.247.087-.284.1a7.9,7.9,0,0,1-1.051.284c-.433,0-.717-.989-.717-1.05,0-.211.247-.248.433-.3.47-.136.927-.321,1.384-.494.049-.026.148-.049.148-.112s-.049-.087-.408-.087h-3.547c-.062,0-.1.025-.1.074,0,.026.037.049.037.1,0,.112-.111.112-.185.112s-.087.012-.173.135c-.21.284-.4.556-.618.853-.087.111-.124.148-.124.222a.193.193,0,0,0,.185.2c.111,0,.173-.087.235-.173a10.964,10.964,0,0,0,.7-.976c.049-.063.1-.124.173-.124a8.132,8.132,0,0,1,1.174.606c.2.123.272.16.272.246,0,.161-.185.173-.284.173s-.124.037-.185.1c-.284.3-.692.816-1.088,1.248-.111.124-.185.173-.185.247s.062.111.136.111c.556,0,.68-.087.68-.222a.439.439,0,0,0-.1-.247.406.406,0,0,1-.087-.2c0-.148.247-.247.47-.358l.074-.037a1.484,1.484,0,0,1,.494-.173c.185,0,.272.173.358.321.074.111.2.346.346.346.124,0,.185-.124.235-.21s.148-.235.272-.235a11.865,11.865,0,0,1,1.632.63,5.766,5.766,0,0,1,.618.309.186.186,0,0,1,.124.173c0,.173-.556,1.1-.766,1.1a.63.63,0,0,1-.284-.148,7.112,7.112,0,0,0-1.224-.618.106.106,0,0,0-.1.1,1.86,1.86,0,0,0,.2.42.388.388,0,0,1,.074.2c0,.235-.927.618-1.137.618-.161,0-.185-.136-.235-.247a.435.435,0,0,0-.4-.3c-.111,0-.692.037-.692.173,0,.062.1.087.161.087.111.012.284.012.284.185,0,.1-.074.148-.148.2-.037.025-.111.074-.111.124s.087.062.136.062h2.608c.494,0,.988-.025,1.5-.025.3,0,.321.124.321.482v.618c0,.371-.025.482-.321.482-.508,0-1-.025-1.5-.025H342.97a.352.352,0,0,0-.346.371c0,.445.037.915.037,1.3,0,.309-.111.383-.655.383h-.593c-.531,0-.63-.074-.63-.371,0-.235.037-1.051.037-1.384a.339.339,0,0,0-.346-.3h-2.46c-.494,0-1,.025-1.5.025-.3,0-.321-.111-.321-.482v-.358c0-.667,0-.742.334-.742.494,0,.989.025,1.483.025h2.559c.185,0,.235-.161.235-.309,0-.185-.1-.272-.284-.272-.025,0-.952.074-1.038.074C339.422,245.825,339.385,245.837,339.336,245.923Zm-.63-3.572c0,.185-.667,1.014-.915,1.014-.062,0-.111-.062-.148-.1a11.589,11.589,0,0,0-1.1-.927.224.224,0,0,1-.124-.185,2.966,2.966,0,0,1,.47-.594c.062-.074.124-.136.148-.173a.485.485,0,0,1,.309-.2A4.472,4.472,0,0,1,338.705,242.351Z" transform="translate(-122.119 380.13)" fill="#545454"/>
    <path id="パス_10" data-name="パス 10" d="M264.757,294.259H259.6v-19.44a17.8,17.8,0,0,1-6.663,3.91v-4.681a14.907,14.907,0,0,0,4.387-2.506,9.523,9.523,0,0,0,3.249-4.3h4.185Z" transform="translate(-110.935 370.762)" fill="#ed1c24"/>
    <path id="パス_11" data-name="パス 11" d="M278.308,279.739a5.773,5.773,0,0,1-3.818-5.562,6.513,6.513,0,0,1,2.1-4.975,10.045,10.045,0,0,1,11.932,0,6.489,6.489,0,0,1,2.12,4.975,5.873,5.873,0,0,1-.972,3.332,6.163,6.163,0,0,1-2.736,2.231,7.216,7.216,0,0,1,3.406,2.625,6.953,6.953,0,0,1,1.165,3.983,8.111,8.111,0,0,1-2.377,6.057,8.641,8.641,0,0,1-6.324,2.331,9.56,9.56,0,0,1-6.113-1.927,7.518,7.518,0,0,1-2.882-6.241,7.711,7.711,0,0,1,1.083-4.011A6.974,6.974,0,0,1,278.308,279.739Zm.588,6.333a4.737,4.737,0,0,0,1.093,3.323,3.539,3.539,0,0,0,2.726,1.193,3.422,3.422,0,0,0,2.643-1.147,4.749,4.749,0,0,0,1.047-3.313,4.288,4.288,0,0,0-1.065-3.037,3.521,3.521,0,0,0-2.7-1.148,3.226,3.226,0,0,0-2.817,1.3A4.778,4.778,0,0,0,278.9,286.071Zm.477-11.527a3.232,3.232,0,0,0,.872,2.4,3.159,3.159,0,0,0,2.323.863,3.2,3.2,0,0,0,2.349-.872,3.245,3.245,0,0,0,.881-2.414,3,3,0,0,0-3.176-3.195,3.2,3.2,0,0,0-2.368.881A3.156,3.156,0,0,0,279.372,274.544Z" transform="translate(-114.608 370.762)" fill="#ed1c24"/>
    <path id="パス_12" data-name="パス 12" d="M298.1,298.927v-5.158h5.158v5.158Z" transform="translate(-118.882 366.094)" fill="#ed1c24"/>
    <path id="パス_13" data-name="パス 13" d="M317.992,294.259v-5.416H306.979v-4.516l11.674-17.09h4.333V284.31h3.341v4.534h-3.341v5.416Zm0-9.949v-9.2l-6.186,9.2Z" transform="translate(-120.445 370.762)" fill="#ed1c24"/>
    <path id="パス_14" data-name="パス 14" d="M332.541,284.487a4.054,4.054,0,0,1,.829-2.8,2.889,2.889,0,0,1,2.248-.911,2.958,2.958,0,0,1,2.3.906,5.146,5.146,0,0,1,0,5.6,2.891,2.891,0,0,1-2.248.911,2.958,2.958,0,0,1-2.3-.906A4.051,4.051,0,0,1,332.541,284.487Zm2.1-.02a3.63,3.63,0,0,0,.316,1.841.76.76,0,0,0,.661.345.77.77,0,0,0,.672-.345,3.731,3.731,0,0,0,.307-1.841,3.671,3.671,0,0,0-.307-1.831.81.81,0,0,0-1.332-.01A3.633,3.633,0,0,0,334.641,284.468Zm3.03,11.142h-1.995l7.489-14.833H345.1Zm4.353-3.692a4.056,4.056,0,0,1,.83-2.8,3.291,3.291,0,0,1,4.545,0,5.156,5.156,0,0,1,0,5.61,2.893,2.893,0,0,1-2.248.911,2.952,2.952,0,0,1-2.3-.911A4.072,4.072,0,0,1,342.023,291.918Zm2.1-.009a3.582,3.582,0,0,0,.316,1.831.757.757,0,0,0,.662.354.747.747,0,0,0,.662-.344,3.632,3.632,0,0,0,.316-1.841,3.731,3.731,0,0,0-.307-1.841.77.77,0,0,0-.672-.345.747.747,0,0,0-.662.345A3.641,3.641,0,0,0,344.124,291.909Z" transform="translate(-124.943 368.38)" fill="#ed1c24"/>
    <path id="パス_17" data-name="パス 17" d="M428.943,241.386a.33.33,0,0,0-.346.345v5.488a.346.346,0,0,0,.346.346h2.2c.556,0,1.112-.037,1.669-.037.321,0,.346.136.346.544v.717c0,.408-.026.544-.335.544-.569,0-1.125-.025-1.681-.025h-7.02c-.569,0-1.126.025-1.681.025-.321,0-.346-.148-.346-.544v-.7c0-.408.025-.556.358-.556.557,0,1.113.037,1.669.037h2.163a.354.354,0,0,0,.346-.346v-5.488a.354.354,0,0,0-.346-.345h-1.644c-.508,0-1.027.036-1.545.036-.335,0-.372-.136-.372-.532v-.741c0-.421.026-.569.372-.569.518,0,1.037.036,1.545.036H430.6c.507,0,1.026-.036,1.545-.036.334,0,.371.123.371.518v.754c0,.433-.025.569-.371.569-.519,0-1.038-.036-1.545-.036Z" transform="translate(-166.745 379.971)" fill="#545454"/>
    <path id="パス_18" data-name="パス 18" d="M443.557,243.793a.173.173,0,0,0,.161.161h1.47c.421,0,.841-.012,1.261-.012.3,0,.581.037.581.408,0,.21-.012.42-.012.63a.346.346,0,0,0,.333.358c.161,0,.322-.012.47-.012.26,0,.26.124.26.494v.2c0,.21-.025.321-.247.321h-.494c-.11,0-.334.074-.334.408v.062c0,.321.037.779.037.927,0,.284-.185.3-.42.3h-.828c-.507,0-.581,0-.667-.185a.264.264,0,0,0-.26-.111h-.89c-.3,0-.395.185-.395.334,0,.124.012.334.012.494a1.128,1.128,0,0,1-.408.927,3.747,3.747,0,0,1-2.014.408c-.445,0-.668-.037-.791-.321a3.1,3.1,0,0,1-.173-1.014c0-.173.037-.321.247-.321a2.207,2.207,0,0,1,.284.025,3.443,3.443,0,0,0,.494.037c.334,0,.433-.049.433-.358,0-.148-.111-.21-.247-.21H439.9c-.717,0-1.162.025-1.446.025-.458,0-.458-.025-.458-.507v-.21c0-.284.026-.346.322-.346.532,0,1.062.025,1.582.025h1.619a.154.154,0,0,0,.148-.161v-.074a.154.154,0,0,0-.148-.161h-2.472c-.569,0-1.137.012-1.706.012-.236,0-.26-.1-.26-.334v-.2c0-.408.012-.482.26-.482.569,0,1.136.025,1.706.025h2.472a.154.154,0,0,0,.148-.161v-.037a.147.147,0,0,0-.148-.161h-2.288c-.334,0-.667.012-1,.012-.185,0-.21-.074-.21-.3v-.433c0-.247.012-.346.21-.346.334,0,.667.025,1,.025h2.288a.154.154,0,0,0,.148-.161v-.025a.147.147,0,0,0-.148-.161h-.742c-.457,0-.927.025-1.4.025-.284,0-.8,0-.8-.4,0-.074.012-.161.012-.223.013-.148.025-.272.025-.407v-.482c0-.136-.012-.26-.025-.409,0-.062-.012-.148-.012-.222,0-.4.518-.4.8-.4.47,0,.94.025,1.4.025h.742a.154.154,0,0,0,.148-.161v-.036a.155.155,0,0,0-.148-.162h-2.188c-.545,0-1.075.025-1.619.025-.247,0-.3-.1-.3-.345v-.421c0-.309.013-.433.3-.433.544,0,1.075.026,1.619.026h1.94a.343.343,0,0,0,.384-.347c0-.061-.037-.3-.037-.37,0-.161.135-.173.259-.173.087,0,.236.012.321.012.371.025,1.137.087,1.422.135.11.026.185.062.185.174,0,.074-.049.11-.123.185a.236.236,0,0,0-.1.185c0,.074.049.2.247.2h2c.556,0,1.1-.026,1.644-.026.247,0,.272.112.272.372v.445c0,.271-.025.382-.283.382-.544,0-1.089-.025-1.632-.025h-2.113a.165.165,0,0,0-.161.162v.036a.164.164,0,0,0,.161.161h.7c.471,0,.939-.025,1.4-.025.283,0,.8,0,.8.4a1.357,1.357,0,0,1-.012.222c-.013.148-.013.273-.013.409v.482c0,.135,0,.259.013.407a1.357,1.357,0,0,1,.012.223c0,.4-.519.4-.8.4-.471,0-.927-.025-1.4-.025h-.7a.156.156,0,0,0-.161.161Zm-3.028-1.644a.2.2,0,0,0-.2.2v.038a.2.2,0,0,0,.2.2h.939a.2.2,0,0,0,.2-.2v-.038a.2.2,0,0,0-.2-.2Zm3.226,0a.2.2,0,0,0-.2.2v.038a.2.2,0,0,0,.2.2h.927a.2.2,0,0,0,.2-.2v-.038a.2.2,0,0,0-.2-.2Zm-.2,3.041a.164.164,0,0,0,.161.161h1.273a.155.155,0,0,0,.16-.161v-.037a.149.149,0,0,0-.16-.161h-1.273a.163.163,0,0,0-.161.161Zm.161,1.137a.164.164,0,0,0-.161.161v.074a.164.164,0,0,0,.161.161h1.273a.155.155,0,0,0,.16-.161v-.074a.149.149,0,0,0-.16-.161Z" transform="translate(-169.381 380.122)" fill="#545454"/>
    <path id="パス_19" data-name="パス 19" d="M458.41,244.974c0,.148.111.161.2.161h2.658c.506,0,1.025-.025,1.545-.025.333,0,.346.111.346.519v.507c0,.346-.026.433-.359.433-.519,0-1.026-.025-1.532-.025h-1.446c-.2,0-.272.012-.272.1a7.229,7.229,0,0,0,3.411,1.644c.185.037.21.049.21.185,0,.47-.507,1.434-.9,1.434a8.477,8.477,0,0,1-1.817-.606,7.7,7.7,0,0,1-2.558-1.842c-.062-.074-.173-.2-.285-.2s-.2.111-.259.2a7.66,7.66,0,0,1-3.943,2.262,2.09,2.09,0,0,1-.471.087c-.309,0-.494-.42-.679-.9a2.167,2.167,0,0,1-.173-.63c0-.148.049-.173.408-.222a7.7,7.7,0,0,0,2.817-1.075c.112-.062.334-.21.334-.334,0-.087-.11-.1-.209-.1h-1.4c-.506,0-1.025.025-1.532.025-.334,0-.359-.087-.359-.433v-.606c0-.334.026-.42.347-.42.519,0,1.025.025,1.544.025h2.077c.419,0,.419-.2.432-.63.013-.235.037-.284.2-.284.272,0,1.15.074,1.435.1.419.037.568.087.568.235,0,.074-.061.124-.136.173C458.484,244.789,458.41,244.851,458.41,244.974Zm-4.315-2.484c0-.173-.086-.185-.235-.185s-.63.025-.988.025c-.26,0-.3-.1-.3-.481v-.3c0-.358.025-.457.3-.457.3,0,.593.013.89.013h.173c.123,0,.16-.038.16-.149v-.036a.156.156,0,0,0-.16-.162h-.482c-.309,0-.618.025-.927.025-.248,0-.272-.148-.272-.432v-.346c0-.384.012-.52.309-.52s.593.026.89.026h.21c.222,0,.42-.063.42-.322a1.742,1.742,0,0,0-.026-.26v-.1c0-.124.124-.136.223-.136.21,0,1.063.075,1.31.087.284.026.395.062.395.148,0,.05-.025.074-.123.149a.26.26,0,0,0-.112.222c0,.148.112.21.26.21h.185c.309,0,.618-.026.927-.026.285,0,.285.124.285.644v.222c0,.283-.025.432-.272.432-.309,0-.618-.025-.94-.025h-.284c-.11,0-.172.049-.172.162v.036c0,.111.062.149.172.149.284,0,.569-.013.865-.013.26,0,.284.111.284.383v.457c0,.284-.024.4-.284.4-.3,0-.592-.025-.89-.025-.136,0-.148.1-.148.162v.073c0,.111.025.173.148.173s1.076-.11,1.225-.136c.012,0,.036-.012.049-.012.161,0,.186.42.186.532,0,.68-.05.754-.223.779-1.137.2-2.966.457-4.165.556-.087,0-.111.012-.21.1-.049.037-.124.1-.173.1-.148,0-.235-.445-.26-.556a6.581,6.581,0,0,1-.2-.89c0-.148.062-.148.593-.185.247-.013.581-.038,1.051-.075.185-.012.333-.012.333-.26Zm6.662-3.423c.383-.013.754-.025,1.126-.025.642,0,.791.222.791.84a13.611,13.611,0,0,1-.471,3.572c-.334.766-1.088.89-1.842.89-.185,0-.445-.012-.543-.185a2.4,2.4,0,0,1-.2-.989c0-.2.026-.481.284-.481.087,0,.26.012.445.012.247,0,.358-.062.42-.309a11.355,11.355,0,0,0,.2-1.57c0-.272-.074-.283-.358-.283h-.2c-.3,0-.309.074-.345.506a7.377,7.377,0,0,1-1.064,3.1c-.062.074-.148.173-.246.173-.335,0-1.323-.63-1.323-.976,0-.1.087-.173.149-.235a4.292,4.292,0,0,0,.889-2.287.223.223,0,0,0-.234-.246h-.112c-.309,0-.333-.1-.333-.5v-.494c0-.457.012-.555.346-.555.358,0,.728.037,1.137.037Z" transform="translate(-172.021 380.127)" fill="#545454"/>
    <path id="パス_20" data-name="パス 20" d="M470.232,243.26a2.977,2.977,0,0,0-.358.494c0,.049.062.1.148.1a.384.384,0,0,0,.124-.012c.173-.025.408.012.408-.161a.593.593,0,0,0-.087-.247.674.674,0,0,1-.073-.222c0-.284.915-.643,1.063-.643.025,0,.1.012.136.012.259,0,.346-.185.457-.4a.611.611,0,0,1,.062-.123,13.7,13.7,0,0,0,1.126-3.127c.037-.173.049-.248.2-.248a11,11,0,0,1,1.138.235c.494.112.617.186.617.3s-.1.136-.185.173c-.161.062-.185.148-.272.433-.037.124-.074.26-.136.444a1.5,1.5,0,0,0-.074.335c0,.209.21.246.383.246h1.026c.457,0,.816-.024,1.075-.024.841,0,.853.16.853,1.223a33.482,33.482,0,0,1-.47,6.007,2.073,2.073,0,0,1-.716,1.446,4.1,4.1,0,0,1-2,.433c-.358,0-.692-.037-.815-.42a3.507,3.507,0,0,1-.149-1.075c0-.272.025-.42.334-.42.124,0,.445.037.519.049.124.012.433.012.556.012.371,0,.643,0,.754-.964.124-1.063.247-2.967.247-4.03,0-.507-.087-.556-.667-.556h-1.3c-.432,0-.544.223-.717.556-.21.42-.3.569-.469.569a2.047,2.047,0,0,1-.655-.173.476.476,0,0,0-.124-.037c-.062,0-.086.049-.086.1a3.48,3.48,0,0,0,.148.42,5.5,5.5,0,0,1,.382,1.137c0,.309-1.037.593-1.149.593-.161,0-.2-.136-.235-.223a.343.343,0,0,0-.335-.26c-.272,0-.346.2-.346.433V247.6c0,.63.026,1.261.026,1.891,0,.334-.111.371-.519.371h-.754c-.383,0-.532-.025-.532-.358,0-.63.037-1.273.037-1.9v-.878c0-.1-.012-.124-.061-.124-.124,0-.136.173-.149.26a19.9,19.9,0,0,1-.382,2.126c-.037.161-.063.4-.26.4s-1.1-.235-1.1-.494a3.342,3.342,0,0,1,.111-.445,12.748,12.748,0,0,0,.408-2.175c.012-.173,0-.334.185-.334a5.21,5.21,0,0,1,.655.136,3.228,3.228,0,0,0,.445.1.139.139,0,0,0,.147-.148c0-.334-.1-.445-.482-.445-.1,0-.407.037-.531.049a.226.226,0,0,0-.21.148.212.212,0,0,1-.2.148c-.111,0-.161-.049-.21-.383-.012-.124-.2-1.026-.223-1.137a1.182,1.182,0,0,1-.049-.284c0-.124.136-.124.283-.124h.272a.935.935,0,0,0,.519-.1,1.482,1.482,0,0,0,.421-.68c0-.135-.185-.308-.309-.433a.4.4,0,0,1-.075-.062,10.7,10.7,0,0,0-.951-.754c-.062-.049-.173-.1-.173-.185a1.674,1.674,0,0,1,.3-.606c.05-.087.087-.16.124-.222.074-.123.235-.457.408-.457a.225.225,0,0,1,.123.049.34.34,0,0,0,.1.037c.111,0,.161-.148.346-.618.124-.3.272-.729.383-1.1.038-.135.075-.21.186-.21a8.2,8.2,0,0,1,.939.346,1.574,1.574,0,0,1,.161.063c.235.086.42.136.42.272s-.1.148-.173.173a.286.286,0,0,0-.247.173c-.223.419-.42.841-.655,1.26a1.181,1.181,0,0,1-.111.185.815.815,0,0,0-.149.334c0,.148.149.321.247.321s.248-.26.334-.419a.278.278,0,0,0,.05-.075c.16-.309.321-.618.469-.915.087-.16.111-.246.247-.246a8.624,8.624,0,0,1,1.026.457c.087.038.149.075.186.087.173.075.457.173.457.347,0,.148-.148.148-.273.173a.318.318,0,0,0-.2.136C471.159,241.976,470.7,242.618,470.232,243.26Zm.78,2.658a2.957,2.957,0,0,1,.654-.161.25.25,0,0,1,.223.111,11.643,11.643,0,0,1,.457,1.2,7.034,7.034,0,0,1,.235.853c0,.26-1,.507-1.1.507-.186,0-.235-.173-.272-.383a10.983,10.983,0,0,0-.482-1.644.519.519,0,0,1-.05-.2C470.677,246.054,470.8,245.992,471.012,245.918Zm3.288-2.188a8.45,8.45,0,0,1,.469,1.014,11.291,11.291,0,0,1,.519,1.446c0,.346-1.15.667-1.285.667-.2,0-.235-.2-.283-.346-.235-.643-.556-1.459-.853-2.064a.626.626,0,0,1-.074-.2c0-.3,1.124-.7,1.26-.7S474.238,243.631,474.3,243.73Z" transform="translate(-174.623 380.135)" fill="#545454"/>
    <path id="パス_21" data-name="パス 21" d="M485.022,243.315c-.445,0-.89.037-1.335.037-.309,0-.322-.161-.322-.42V242.9a.352.352,0,0,0-.346-.4c-.037,0-.073.012-.123.012-.359,0-.631,0-.631-.334,0-.173.037-.494.037-.742v-.3c0-.372-.024-.78-.024-.9,0-.47.494-.482.84-.482.47,0,.953.026,1.422.026h1.68c.223,0,.4-.087.4-.335s-.05-.519-.05-.592c0-.161.136-.173.272-.173.334,0,1.026.049,1.372.074a.709.709,0,0,0,.161.012c.236.024.409.037.409.185,0,.061-.063.111-.136.173a.453.453,0,0,0-.111.333c0,.26.234.322.445.322h1.643c.47,0,.952-.026,1.422-.026.345,0,.852.012.852.482,0,.087-.037.519-.037.9v.333c0,.272.037.569.037.742,0,.3-.185.334-.556.334H492.1a.358.358,0,0,0-.4.334v.049c0,.3-.037.42-.334.42-.445,0-.877-.037-1.322-.037H488.63a.163.163,0,0,0-.16.161v.074a.163.163,0,0,0,.16.161h1.063c.445,0,.89-.025,1.335-.025.3,0,.322.124.322.47v.482c0,.358-.026.482-.322.482-.445,0-.89-.025-1.335-.025h-1.075c-.21,0-.247.136-.247.2,0,.173.161.173.247.173H491.3c.482,0,.964-.025,1.446-.025.3,0,.321.124.321.519v.507c0,.321-.025.445-.321.445-.482,0-.964-.025-1.446-.025h-1.434c-.16,0-.271,0-.271.124,0,.161.543.4.692.47a8.367,8.367,0,0,0,2.348.742c.26.037.482.037.482.321a1.762,1.762,0,0,1-.309.915c-.235.334-.346.494-.606.494a1.888,1.888,0,0,1-.445-.087,9.847,9.847,0,0,1-2.336-.865,6.09,6.09,0,0,1-1.52-1.187.6.6,0,0,0-.358-.21.532.532,0,0,0-.346.222,7.585,7.585,0,0,1-3.66,1.879,5.587,5.587,0,0,1-.754.124c-.469,0-.778-1.038-.778-1.31,0-.3.259-.3.692-.371a6.923,6.923,0,0,0,2.435-.816c.086-.049.371-.235.371-.321,0-.111-.112-.124-.272-.124h-1.409c-.482,0-.977.025-1.459.025-.283,0-.309-.111-.309-.482v-.494c0-.383.026-.494.322-.494.482,0,.964.025,1.446.025h2.509c.173,0,.234-.1.234-.2,0-.124-.086-.173-.2-.173h-.94c-.445,0-.877.025-1.322.025-.309,0-.335-.136-.335-.507v-.457c0-.346.037-.47.335-.47.445,0,.89.025,1.322.025h1.113a.163.163,0,0,0,.16-.161v-.074a.163.163,0,0,0-.16-.161Zm1.433-1.409c.124,0,.235-.049.235-.185,0-.284-.025-.383-.283-.383h-2.064c-.136,0-.247.037-.247.2,0,.259.037.358.309.358h.024c.2,0,.4.012.594.012Zm3.6,0c.246,0,.494-.012.741-.012s.272-.124.272-.347c0-.173-.111-.21-.259-.21h-1.843c-.1,0-.16,0-.16.075v.061c0,.087-.075.136-.149.173-.049.026-.086.049-.086.112s.049.148.21.148Z" transform="translate(-177.287 380.13)" fill="#545454"/>
    <path id="パス_22" data-name="パス 22" d="M497.633,245.815a.2.2,0,0,1-.2.136c-.161,0-.2-.148-.309-.7-.049-.21-.1-.445-.185-.816a.38.38,0,0,1-.012-.124c0-.148.173-.148.284-.148.321-.012.419-.062.555-.235a1.105,1.105,0,0,0,.284-.593c0-.223-.21-.4-.37-.544a9.5,9.5,0,0,0-.742-.655c-.074-.061-.162-.124-.162-.223,0-.321.408-1.36.693-1.36.061,0,.1.075.185.075s.136-.149.2-.321l.037-.112c.148-.42.284-.852.42-1.273.037-.124.062-.222.173-.222.062,0,.531.2.827.309.1.038.173.075.21.087.2.075.4.136.4.272a.127.127,0,0,1-.136.124.242.242,0,0,0-.186.136c-.16.421-.494,1.187-.692,1.595a1.265,1.265,0,0,0-.147.408c0,.074.049.173.136.173s.185-.173.247-.309a.332.332,0,0,0,.049-.087c.16-.321.309-.643.457-.976.049-.136.074-.26.222-.26a5.84,5.84,0,0,1,.865.334c.112.049.2.087.248.112.247.1.457.16.457.345a.179.179,0,0,1-.185.173.324.324,0,0,0-.248.185c-.1.161-.852,1.384-.852,1.446,0,.037.037.049.074.049a2.631,2.631,0,0,0,.259-.062,2.063,2.063,0,0,1,.458-.111c.123,0,.16.087.2.185.074.2.3.964.359,1.187a8.462,8.462,0,0,1,.235,1.3c0,.247-.211.284-.445.371a3.781,3.781,0,0,1-.618.148c-.149,0-.161-.161-.173-.272-.025-.074-.05-.136-.136-.136-.124,0-.149.161-.149.247v1.99c0,.643.037,1.285.037,1.928,0,.334-.123.358-.519.358h-.568c-.507,0-.593-.049-.593-.346,0-.643.024-1.3.024-1.941v-.791c0-.074-.012-.223-.11-.223s-.1.148-.111.284a19.57,19.57,0,0,1-.235,2.175c-.063.358-.1.457-.284.457a4.2,4.2,0,0,1-.8-.235c-.1-.037-.21-.111-.21-.222,0-.012.111-.667.124-.754.1-.717.136-1.224.21-1.941.012-.161,0-.346.136-.346.111,0,.766.136.915.161a.826.826,0,0,0,.173.025c.135,0,.2-.049.2-.185v-.222c0-.136-.073-.173-.2-.173s-.494.049-.643.062C497.67,245.741,497.67,245.765,497.633,245.815Zm1.891-1.842c.05,0,.21-.025.272-.025.124-.012.3-.025.3-.148a1.565,1.565,0,0,0-.111-.371c-.013-.062-.05-.173-.124-.173s-.335.408-.4.507a.313.313,0,0,0-.049.136C499.414,243.961,499.475,243.973,499.524,243.973Zm1.681,1.916c.186,0,.21.049.433,1.261.024.173.148.8.148.939,0,.284-.8.408-1.037.408-.148,0-.162-.087-.186-.247a17.309,17.309,0,0,0-.222-1.792.956.956,0,0,1-.026-.185C500.315,246.012,501.007,245.889,501.205,245.889Zm3.09,2.039c-.073,0-.173.037-.173.124a.707.707,0,0,0,.124.26.537.537,0,0,1,.049.087,1.627,1.627,0,0,1,.26.507.133.133,0,0,1-.124.124h-.073a.538.538,0,0,0-.136-.025.529.529,0,0,0-.2.062,10.971,10.971,0,0,1-2.212.766c-.4,0-.692-.841-.692-1.112,0-.148.086-.148.259-.185.236-.049,1.707-.358,1.707-.531,0-.049-.111-.062-.149-.062-.123,0-.3.025-.457.025-.371,0-.581-.111-.581-.556,0-.309.026-.618.026-.939v-1.743c0-.321-.026-.63-.026-.939,0-.408.173-.556.569-.556.321,0,.655.037.976.037h2.484c.322,0,.643-.037.964-.037.371,0,.581.1.581.556,0,.309-.024.63-.024.939v1.743c0,.321.024.63.024.939,0,.445-.2.556-.569.556-.11,0-.222-.012-.334-.012-.049,0-.173,0-.173.062,0,.173,1.5.494,1.73.531.148.025.235.062.235.222,0,.235-.3,1.112-.642,1.112a7.362,7.362,0,0,1-1.274-.371,9.221,9.221,0,0,1-1.285-.569.153.153,0,0,1-.111-.173,1.563,1.563,0,0,1,.223-.606.22.22,0,0,0,.05-.124c0-.1-.137-.111-.21-.111Zm1.99-8.467c.433,0,.878-.012,1.31-.012.272,0,.284.075.284.358v.26c0,.309-.025.383-.272.383-.445,0-.878-.025-1.323-.025h-.618a.138.138,0,0,0-.136.136v.037a.138.138,0,0,0,.136.136h.309c.445,0,.878-.024,1.31-.024.26,0,.284.061.284.309v.26c0,.345-.012.4-.284.4-.433,0-.865-.026-1.31-.026h-.309a.138.138,0,0,0-.136.136v.037a.137.137,0,0,0,.136.136h.828c.433,0,.865-.025,1.285-.025.272,0,.3.062.3.309v.309c0,.334-.037.359-.283.359-.433,0-.865-.013-1.3-.013H502.96c-.445,0-.877.013-1.31.013-.235,0-.283-.026-.283-.347v-.321c0-.247.025-.309.3-.309.433,0,.866.025,1.3.025h.754a.137.137,0,0,0,.136-.136v-.037a.137.137,0,0,0-.136-.136h-.334c-.432,0-.865.026-1.3.026-.26,0-.285-.05-.285-.335v-.321c0-.248.025-.309.285-.309.432,0,.865.024,1.3.024h.334a.137.137,0,0,0,.136-.136v-.037a.138.138,0,0,0-.136-.136h-.63c-.445,0-.89.025-1.323.025-.2,0-.272-.037-.272-.309v-.321c0-.3.013-.372.285-.372.432,0,.865.012,1.31.012h.519c.161,0,.235-.086.235-.246,0-.1-.013-.222-.013-.321,0-.149.087-.186.223-.186.185,0,1.112.05,1.346.074s.445.012.445.162a.2.2,0,0,1-.11.173c-.063.049-.161.123-.161.209s.087.136.173.136Zm-.482,4.882a.163.163,0,0,0-.161-.161h-1.891a.164.164,0,0,0-.161.161v.025a.164.164,0,0,0,.161.161h1.891a.163.163,0,0,0,.161-.161Zm0,1.174a.172.172,0,0,0-.161-.161h-1.891a.164.164,0,0,0-.161.161v.037a.164.164,0,0,0,.161.161h1.891a.163.163,0,0,0,.161-.161Zm0,1.211a.172.172,0,0,0-.161-.161h-1.891a.164.164,0,0,0-.161.161v.037a.164.164,0,0,0,.161.161h1.891a.163.163,0,0,0,.161-.161Z" transform="translate(-179.886 380.127)" fill="#545454"/>
    <path id="パス_23" data-name="パス 23" d="M412.282,272.608v-4.791h16.759v3.744a27.722,27.722,0,0,0-4.221,6.168,37.1,37.1,0,0,0-3.27,8.545,33.255,33.255,0,0,0-1.108,8.086h-4.726a36.171,36.171,0,0,1,2.189-11.382,38.531,38.531,0,0,1,5.519-10.371Z" transform="translate(-165.546 370.66)" fill="#ed1c24"/>
    <path id="パス_24" data-name="パス 24" d="M426.934,293.769h4.9v3.69a13.517,13.517,0,0,1-.366,3.533,5.321,5.321,0,0,1-1.387,2.322,7.076,7.076,0,0,1-2.589,1.615l-.959-2.129a4.119,4.119,0,0,0,2.11-1.413,4.413,4.413,0,0,0,.663-2.46h-2.371Z" transform="translate(-168.053 366.094)" fill="#ed1c24"/>
    <path id="パス_25" data-name="パス 25" d="M443.532,267.238a6.849,6.849,0,0,1,5.807,2.79q2.493,3.3,2.494,10.959,0,7.636-2.511,10.977a6.838,6.838,0,0,1-5.79,2.754,7.187,7.187,0,0,1-6.017-3.02q-2.284-3.018-2.284-10.766,0-7.6,2.512-10.941A6.837,6.837,0,0,1,443.532,267.238Zm0,4.277a2.372,2.372,0,0,0-1.587.6,4.064,4.064,0,0,0-1.081,2.138,45.993,45.993,0,0,0-.053,13.245,4.66,4.66,0,0,0,1.142,2.359,2.41,2.41,0,0,0,3.165-.01,4.063,4.063,0,0,0,1.081-2.138,45.858,45.858,0,0,0,.053-13.226,4.728,4.728,0,0,0-1.142-2.368A2.34,2.34,0,0,0,443.532,271.515Z" transform="translate(-169.584 370.762)" fill="#ed1c24"/>
    <path id="パス_26" data-name="パス 26" d="M466.119,267.238a6.849,6.849,0,0,1,5.807,2.79q2.494,3.3,2.494,10.959,0,7.636-2.511,10.977a6.837,6.837,0,0,1-5.79,2.754,7.186,7.186,0,0,1-6.016-3.02q-2.285-3.018-2.285-10.766,0-7.6,2.512-10.941A6.838,6.838,0,0,1,466.119,267.238Zm0,4.277a2.372,2.372,0,0,0-1.587.6,4.07,4.07,0,0,0-1.081,2.138,46.032,46.032,0,0,0-.052,13.245,4.654,4.654,0,0,0,1.142,2.359,2.41,2.41,0,0,0,3.165-.01,4.069,4.069,0,0,0,1.081-2.138,45.823,45.823,0,0,0,.052-13.226,4.728,4.728,0,0,0-1.142-2.368A2.34,2.34,0,0,0,466.119,271.515Z" transform="translate(-173.558 370.762)" fill="#ed1c24"/>
    <path id="パス_27" data-name="パス 27" d="M488.707,267.238a6.849,6.849,0,0,1,5.807,2.79q2.493,3.3,2.494,10.959,0,7.636-2.511,10.977a6.837,6.837,0,0,1-5.79,2.754,7.185,7.185,0,0,1-6.016-3.02q-2.285-3.018-2.285-10.766,0-7.6,2.512-10.941A6.838,6.838,0,0,1,488.707,267.238Zm0,4.277a2.372,2.372,0,0,0-1.587.6,4.07,4.07,0,0,0-1.081,2.138,45.953,45.953,0,0,0-.052,13.245,4.654,4.654,0,0,0,1.141,2.359,2.411,2.411,0,0,0,3.166-.01,4.069,4.069,0,0,0,1.081-2.138,45.82,45.82,0,0,0,.052-13.226,4.728,4.728,0,0,0-1.142-2.368A2.34,2.34,0,0,0,488.707,271.515Z" transform="translate(-177.533 370.762)" fill="#ed1c24"/>
    <path id="パス_28" data-name="パス 28" d="M508.506,293.22c0,.9.059,1.807.059,2.73,0,.491-.216.53-.883.53h-1.2c-.648,0-.864-.039-.864-.53,0-.923.059-1.826.059-2.73v-4.556c0-.217,0-.374-.177-.374-.059,0-.1.04-.157.079a.436.436,0,0,1-.334.176c-.471,0-1.571-1.885-1.571-2.357,0-.274.315-.609.472-.805a19.716,19.716,0,0,0,3.3-6.167c.078-.255.176-.609.491-.609.2,0,2,.609,2.337.727s.609.177.609.452c0,.118-.079.157-.236.236a1.44,1.44,0,0,0-.314.157,1.168,1.168,0,0,0-.2.393,31.613,31.613,0,0,1-1.532,3.182.761.761,0,0,0-.118.354.32.32,0,0,0,.314.294c.177.02.334.079.334.255,0,.118-.078.157-.2.275a.789.789,0,0,0-.2.628Zm4.635-7.954c-.609,0-.668.216-.864.727-.471,1.2-.667,1.65-1,1.65a5,5,0,0,1-1.453-.452c-.373-.177-.845-.334-.845-.688a2.225,2.225,0,0,1,.255-.588,18.709,18.709,0,0,0,1.885-6.069c.02-.176.078-.334.294-.334a12.574,12.574,0,0,1,1.473.314c.845.2,1.335.294,1.335.569a.342.342,0,0,1-.216.3c-.314.176-.334.236-.452.805-.02.118-.058.354-.118.609a.672.672,0,0,0-.02.176c0,.2.138.236.315.236.432,0,.609-.274.609-.667v-.962a14.093,14.093,0,0,0-.059-1.63c0-.079-.02-.138-.02-.216,0-.255.236-.255.433-.255.589,0,1.807.059,2.2.078.452.02.667.059.667.275,0,.137-.078.176-.2.274a.751.751,0,0,0-.176.491c-.02.255-.02.766-.02,1.1v.845a.585.585,0,0,0,.667.667h.334c.806,0,1.591-.059,2.4-.059.491,0,.531.216.531.845v1.178c0,.629-.04.825-.531.825-.805,0-1.61-.04-2.4-.04h-.354a.587.587,0,0,0-.648.668v1.708a.549.549,0,0,0,.55.55h.962c.747,0,1.512-.039,2.259-.039.589,0,.648.216.648.9v.982c0,.746-.058.962-.648.962-.747,0-1.512-.059-2.259-.059h-.962a.562.562,0,0,0-.55.55v1.237c0,1.08.058,2.18.058,3.261,0,.452-.216.51-.785.51h-1.355c-.589,0-.805-.059-.805-.51,0-1.08.059-2.161.059-3.261v-1.237a.562.562,0,0,0-.55-.55h-1.394c-.747,0-1.512.059-2.259.059-.589,0-.648-.235-.648-.923v-.845c0-.825.019-1.079.648-1.079.747,0,1.512.039,2.259.039h1.394a.549.549,0,0,0,.55-.55v-1.827a.526.526,0,0,0-.55-.55Z" transform="translate(-181.586 368.761)" fill="#ed1c24"/>
    <path id="パス_31" data-name="パス 31" d="M95.609,244.066c0,.062.049.1.124.1h.185c.21,0,.235.074.235.371v.408c0,.272-.012.358-.2.358-.161,0-.321-.012-.47-.012a.182.182,0,0,0-.185.185v.049a.181.181,0,0,0,.2.161c.074,0,.173-.012.272-.012.185,0,.2.087.2.3v.346c0,.247-.012.309-.21.309-.1,0-.247-.012-.3-.012a.161.161,0,0,0-.161.148v.1a.165.165,0,0,0,.173.148c.049,0,.185-.012.284-.012.2,0,.21.074.21.309v.334c0,.222-.012.3-.2.3-.111,0-.21-.012-.321-.012a.148.148,0,0,0-.148.136v.111c0,.087.074.148.185.148s.408-.012.47-.012a.76.76,0,0,1,.173.012c.025,0,.049.012.074.012a1.409,1.409,0,0,0,.643-.544c0-.111-.111-.136-.161-.148-.222-.074-.272-.346-.272-.544,0-.383.037-.766.037-1.15v-2.929c0-.4-.037-.779-.037-1.174,0-.444.2-.58.63-.58h.1c.4,0,.42-.433.42-.445,0-.112-.111-.149-.2-.149-.284,0-.569.037-.853.037-.235,0-.26-.124-.26-.47v-.68c0-.334.025-.47.26-.47.321,0,.717.037,1.125.037h2.175c.408,0,.8-.037,1.112-.037.247,0,.271.112.271.556v.63c0,.272-.012.433-.271.433-.309,0-.7-.037-1.112-.037h-.148a.46.46,0,0,0-.445.445.176.176,0,0,0,.185.186c.3,0,.581-.037.878-.037.42,0,.63.123.63.58,0,.384-.026.779-.026,1.174v2.929c0,.383.026.779.026,1.162,0,.531-.3.581-.644.581-.073,0-.123.025-.123.1s.123.148.345.321a7.326,7.326,0,0,0,.878.581c.075.049.124.087.124.173,0,.272-.693,1.112-.989,1.112-.21,0-.729-.433-.9-.569a6.513,6.513,0,0,1-.939-.853c0-.148.445-.569.556-.68a.153.153,0,0,0,.049-.1c0-.111-.124-.111-.272-.111h-.841c-.247,0-.4,0-.4.148,0,.074.1.161.321.358.124.111.358.334.358.42,0,.062-.049.124-.173.124h-.049c-.1,0-.136.025-.222.111a8.521,8.521,0,0,1-1.508,1.211c-.21,0-.507-.309-.643-.445-.161-.161-.284-.161-.643-.161H93.953a.248.248,0,0,0-.247.247v.111c0,.21-.124.235-.346.235h-.507c-.42,0-.494-.025-.494-.26s.025-.482.025-.89V246.65a.414.414,0,0,0-.235-.371.185.185,0,0,0-.087-.037c-.124,0-.124.136-.124.222a18.516,18.516,0,0,1-.272,1.978,7.726,7.726,0,0,1-.3,1.2c-.049.136-.1.222-.247.222-.247,0-1.211-.408-1.211-.692,0-.037.074-.26.087-.321a14.935,14.935,0,0,0,.494-4.054V241.8c0-.272-.012-.519-.012-.729,0-.382.173-.457.532-.457.309,0,.63.026.939.026h2.361c.284,0,.581-.026.865-.026.358,0,.618.049.618.471,0,.234-.025.482-.025.716v.087c0,.248.025.482.025.729,0,.42-.272.457-.63.457-.284,0-.569-.025-.853-.025h-.618c-.037,0-.148.013-.148.074s.4.21.47.235c.173.062.2.1.2.173a.16.16,0,0,1-.148.148c-.062.012-.1.012-.124.037s-.062.148-.1.235a.291.291,0,0,0-.025.1.133.133,0,0,0,.148.136c.185,0,.222-.173.482-.964.037-.087.049-.148.148-.148.124,0,1.026.321,1.211.384.087.024.185.086.185.185s-.049.111-.124.124c-.136.024-.136.049-.185.11A.723.723,0,0,0,95.609,244.066Zm-.939-4.956c.358,0,.717-.026,1.088-.026.26,0,.284.112.284.4v.421c0,.271-.025.4-.272.4-.371,0-.742-.012-1.1-.012H91.592c-.358,0-.729.012-1.1.012-.247,0-.272-.124-.272-.4v-.421c0-.272.025-.4.272-.4.371,0,.742.026,1.1.026Zm-2.633,2.743a.156.156,0,0,0,.161.161h1.879a.164.164,0,0,0,.161-.161v-.037a.163.163,0,0,0-.161-.16H92.2a.163.163,0,0,0-.161.16Zm.3,1.2a.3.3,0,0,0-.3.3v.952c0,.062.025.136.062.136.1,0,.4-.816.445-.952a.578.578,0,0,0,.074-.235c0-.136-.087-.185-.2-.2Zm1.792,2.386a.153.153,0,0,0-.161-.148h-.124a.153.153,0,0,0-.161.148v.1a.164.164,0,0,0,.161.161h.124a.156.156,0,0,0,.161-.161Zm0,1.323a.156.156,0,0,0-.161-.161h-.124a.164.164,0,0,0-.161.161v.1a.153.153,0,0,0,.161.148h.124a.153.153,0,0,0,.161-.148Zm-.284,1.15a.164.164,0,0,0-.161.161v.1a.153.153,0,0,0,.161.148h.124a.153.153,0,0,0,.161-.148v-.1c0-.1-.062-.148-.161-.161Zm5.377-5.006a.164.164,0,0,0-.161-.161H98.23a.164.164,0,0,0-.161.161v.025a.164.164,0,0,0,.161.161h.828a.163.163,0,0,0,.161-.161Zm0,1.582a.173.173,0,0,0-.161-.161H98.23a.164.164,0,0,0-.161.161v.037a.164.164,0,0,0,.161.161h.828a.164.164,0,0,0,.161-.161Zm0,1.545a.163.163,0,0,0-.161-.161H98.23a.164.164,0,0,0-.161.161v.037a.164.164,0,0,0,.161.161h.828a.164.164,0,0,0,.161-.161Z" transform="translate(-44.193 380.033)" fill="#545454"/>
    <path id="パス_32" data-name="パス 32" d="M113.9,248.878c0,.309.037.692.037.791,0,.21-.124.235-.507.235h-.766c-.334,0-.42-.049-.42-.26a.148.148,0,0,0-.161-.161h-2.707c-.148,0-.2.062-.2.2,0,.2-.148.222-.47.222h-.729c-.42,0-.556-.025-.556-.235,0-.1.037-.482.037-.791v-1.421c0-.247,0-.457-.272-.457a9.081,9.081,0,0,0-.976.272.807.807,0,0,1-.247.062c-.334,0-.841-1-.841-1.3,0-.185.2-.2.482-.272a19.9,19.9,0,0,0,2.892-.976c.136-.049.692-.26.692-.408,0-.074-.074-.136-.222-.272-.074-.062-.161-.148-.272-.26a.492.492,0,0,0-.334-.21.351.351,0,0,0-.21.087,10.26,10.26,0,0,1-1.854,1.063c-.272,0-.915-.976-.915-1.174,0-.161.173-.222.284-.272a10.271,10.271,0,0,0,2.719-1.792.387.387,0,0,0,.136-.21c0-.136-.136-.161-.3-.161h-.655c-.309,0-.408.2-.408.346s.037.408.037.519c0,.26-.173.284-.667.284h-.7c-.235,0-.457-.025-.457-.272s.037-.433.037-.618v-.7c0-.272-.025-.532-.025-.741,0-.4.532-.409.8-.409.482,0,.952.026,1.421.026h1.706c.334,0,.42-.211.42-.335,0-.049-.025-.309-.025-.433,0-.148.136-.16.247-.16.334,0,1.063.061,1.409.087.3.024.482.037.482.185,0,.061-.074.111-.136.173a.379.379,0,0,0-.111.247c0,.185.136.235.284.235h1.9c.47,0,.939-.026,1.409-.026.284,0,.815.013.815.4,0,.222-.036.383-.036.618v.878c0,.185.036.457.036.606,0,.26-.2.284-.667.284h-.667c-.26,0-.482-.025-.482-.272,0-.136.037-.408.037-.569s-.1-.346-.408-.346h-2.583c-.124,0-.136,0-.148.1-.012.123-.148.16-.247.16-.074,0-.21.037-.21.136,0,.124.136.124.26.124h1.137c.21,0,.408-.012.618-.012a.849.849,0,0,1,.729.408c.111.136.358.42.358.594,0,.234-1.2,1.334-1.434,1.52a.289.289,0,0,0-.136.21c0,.136.111.185.519.371a21.419,21.419,0,0,0,3.053,1.051c.136.037.42.087.42.284s-.47,1.236-.865,1.236a4.9,4.9,0,0,1-.841-.247,1.05,1.05,0,0,0-.3-.062c-.26,0-.26.247-.26.445Zm-1.916-.84a.3.3,0,0,0,.3-.3v-.062a.3.3,0,0,0-.3-.3h-2.534a.293.293,0,0,0-.3.3v.062a.286.286,0,0,0,.3.3Zm-.42-1.941c.161,0,.235,0,.235-.074,0-.049-.087-.087-.136-.111-.247-.124-.494-.26-.742-.4a.553.553,0,0,0-.247-.049,1.536,1.536,0,0,0-.593.26c-.124.062-.247.136-.371.2-.049.025-.1.049-.1.087,0,.087.1.087.272.087Zm-1.285-3.127c-.111,0-.222.026-.222.112,0,.11.433.457.581.457s.346-.173.556-.371c.025-.025.074-.062.074-.1,0-.087-.247-.1-.47-.1Z" transform="translate(-46.87 380.104)" fill="#545454"/>
    <path id="パス_33" data-name="パス 33" d="M121.059,241.56a5.635,5.635,0,0,1,1.038.841c.309.285.63.581.63.692,0,.309-.9,1.125-1.1,1.125-.1,0-.247-.185-.309-.26a9.126,9.126,0,0,0-1.174-1c-.1-.074-.173-.111-.173-.222C119.971,242.377,120.873,241.56,121.059,241.56Zm-.939,6.91a15.934,15.934,0,0,0,1.323-3.659c.025-.1.074-.185.185-.185.272,0,1.335.519,1.335.853a2.782,2.782,0,0,1-.1.408,21.422,21.422,0,0,1-1.125,3.127,1.39,1.39,0,0,0-.124.383c0,.074.025.173.025.247a.164.164,0,0,1-.161.161,7.012,7.012,0,0,1-1.063-.63c-.111-.074-.185-.136-.235-.161-.087-.062-.2-.124-.2-.26A.672.672,0,0,1,120.119,248.47Zm1.137-9.653a6.05,6.05,0,0,1,1.73,1.458A2.342,2.342,0,0,1,121.9,241.4c-.087,0-.2-.111-.247-.161a9.653,9.653,0,0,0-1.248-1.013c-.087-.063-.2-.136-.2-.248C120.206,239.706,121,238.817,121.256,238.817Zm5.253,6.365a.346.346,0,0,0-.346-.346h-.939a.346.346,0,0,0-.346.346v3.078c0,.433.025.865.025,1.3,0,.284-.124.309-.445.309h-.618c-.334,0-.433-.025-.433-.334,0-.42.025-.841.025-1.273v-3.189c0-.4-.025-.779-.025-1.137,0-.42.272-.507.63-.507.4,0,.779.037,1.174.037h.766a.2.2,0,0,0,.2-.2v-.074a.2.2,0,0,0-.2-.2h-1.446c-.445,0-.89.024-1.335.024-.3,0-.321-.148-.321-.494v-.247c0-.593,0-.717.346-.717.433,0,.878.026,1.31.026h.173a.138.138,0,0,0,.136-.136V241.2c0-.173-.1-.2-.247-.2-.334,0-.655.025-.976.025-.284,0-.309-.11-.309-.419v-.532c0-.309.025-.445.3-.445s.556.013.841.013c.235,0,.383-.1.383-.346,0-.149-.025-.321-.025-.346v-.112c0-.148.124-.16.235-.16.21,0,1.236.061,1.508.087.161.012.222.037.222.11s-.074.112-.124.173a.339.339,0,0,0-.111.26.321.321,0,0,0,.334.346h.433c.235,0,.3-.2.3-.407a2.6,2.6,0,0,0-.025-.3c0-.026-.012-.062-.012-.1,0-.149.136-.161.247-.161.235,0,1.2.063,1.459.087.136.012.26.026.26.124,0,.074-.049.11-.124.173a.381.381,0,0,0-.1.283c0,.222.173.3.371.3.284,0,.569-.025.853-.025s.309.136.309.445v.236c0,.617-.012.716-.321.716-.284,0-.556-.012-.828-.012-.21,0-.4.024-.4.271v.1c0,.185.161.2.309.2.433,0,.853-.026,1.285-.026.271,0,.346.087.346.383v.63c0,.421-.1.445-.445.445-.235,0-.618-.024-1.212-.024h-1.4a.2.2,0,0,0-.2.2v.074a.2.2,0,0,0,.2.2h.779c.383,0,.766-.037,1.137-.037s.667.062.667.507c0,.358-.025.742-.025,1.137v2.583c0,.247.012.494.012.742a1.313,1.313,0,0,1-.42,1.15,2.918,2.918,0,0,1-1.582.346c-.235,0-.519-.025-.593-.272a3.2,3.2,0,0,1-.124-.754c0-.222.074-.42.321-.42.185,0,.445.025.68.025s.235-.062.235-.494v-2.793a.338.338,0,0,0-.346-.346h-.939a.346.346,0,0,0-.346.346v1.446a.14.14,0,0,0,.148.136h.025a.137.137,0,0,0,.136-.136v-.9a3.361,3.361,0,0,0-.012-.371.093.093,0,0,1-.012-.062c0-.087.074-.087.148-.087.161,0,.655.012.816.037.1,0,.272.012.272.148a.172.172,0,0,1-.062.124c-.111.1-.124.173-.124.531v1.125c0,.321.025.643.025.9,0,.185-.087.185-.3.185-.136,0-.26.012-.383.012-.3,0-.334-.012-.371-.1a.17.17,0,0,0-.161-.111h-1.434a.123.123,0,0,0-.124.124v.087c0,.185-.087.2-.346.2h-.4c-.235,0-.334-.012-.334-.2,0-.247.025-.581.025-.89v-1.57a2.472,2.472,0,0,0-.025-.445v-.062c0-.087.074-.087.148-.087.161,0,.643.012.8.025.1.012.284.012.284.148,0,.062-.037.087-.074.124-.111.111-.111.222-.111.544v.569a.137.137,0,0,0,.136.136h.025a.147.147,0,0,0,.148-.136Zm.247-4.178a.243.243,0,0,0-.235.235v.111a.235.235,0,0,0,.235.236h.618a.228.228,0,0,0,.235-.236v-.111a.236.236,0,0,0-.235-.235Z" transform="translate(-49.483 380.104)" fill="#545454"/>
    <path id="パス_34" data-name="パス 34" d="M138.745,243.718c-.321,0-.309,0-.42.161s-.223.148-.791.148h-.371c-.507,0-.68-.025-.68-.309,0-.111.037-.581.037-.963V240.43c0-.271-.025-.543-.025-.816,0-.494.445-.544.927-.544.4,0,.779.026,1.162.026h4.264c.383,0,.779-.026,1.162-.026.544,0,.927.075.927.557,0,.272-.026.531-.026.8v2.325c0,.358.038.852.038.951,0,.3-.148.321-.667.321h-.371c-.569,0-.729,0-.8-.185-.037-.1-.1-.124-.284-.124H142a.354.354,0,0,0-.346.346v.47a.354.354,0,0,0,.346.346h1.434c.482,0,.952-.037,1.434-.037.3,0,.321.124.321.482v.692c0,.371-.025.482-.321.482-.482,0-.952-.025-1.434-.025H142a.345.345,0,0,0-.346.346v.729a.369.369,0,0,0,.42.408H143.2c.618,0,1.941-.025,2.522-.1a2.618,2.618,0,0,1,.3-.025c.26,0,.285.272.285.457a2.82,2.82,0,0,1-.161.964.615.615,0,0,1-.7.47h-.1c-.2,0-.4.012-.593.012h-1.372c-1.31,0-3.535-.037-4.413-.494a4,4,0,0,1-.964-.692.37.37,0,0,0-.222-.124c-.124,0-.21.173-.26.272a5.47,5.47,0,0,1-.507.865.589.589,0,0,1-.433.3c-.309,0-1.434-.47-1.434-.8a.9.9,0,0,1,.21-.42c.037-.049.074-.1.1-.136a8.634,8.634,0,0,0,1.459-3.671c.037-.26.037-.408.26-.408a10.826,10.826,0,0,1,1.632.358c.148.037.358.111.358.26,0,.074-.1.124-.173.148-.2.062-.222.136-.309.47-.037.148-.074.26-.124.445a1.136,1.136,0,0,0-.062.346c0,.667.927,1.224,1.1,1.224s.173-.148.173-.309v-3.3a.368.368,0,0,0-.371-.346Zm-.433-1.977a.331.331,0,0,0,.346.345h4.116a.345.345,0,0,0,.346-.345v-.631a.345.345,0,0,0-.346-.346h-4.116a.345.345,0,0,0-.346.346Z" transform="translate(-52.151 380.036)" fill="#545454"/>
    <path id="パス_35" data-name="パス 35" d="M153.247,243.081a.36.36,0,0,0-.408.37v.074a20.489,20.489,0,0,1-.247,3.486,8.713,8.713,0,0,1-1.014,2.744.318.318,0,0,1-.26.148c-.309,0-1.273-.519-1.273-.865a1,1,0,0,1,.1-.309,13.524,13.524,0,0,0,.915-5.982V241.4c0-.432-.037-.827-.037-1.136,0-.471.309-.545.717-.545.433,0,.865.026,1.3.026h1.409c.222,0,.408-.112.408-.358,0-.075-.025-.335-.025-.408a.345.345,0,0,1-.012-.112c0-.161.124-.185.26-.185.161,0,1.36.074,1.582.1.136.012.42.012.42.211,0,.087-.074.124-.185.2a.26.26,0,0,0-.124.222.35.35,0,0,0,.4.335h2.039c.507,0,1.014-.038,1.52-.038.309,0,.334.1.334.433v.63c0,.346-.025.445-.334.445-.408,0-.816-.037-1.211-.037-.1,0-.1.062-.1.1s-.1.11-.136.136a.246.246,0,0,0-.111.185.2.2,0,0,0,.222.185h.062c.507,0,1-.024,1.508-.024.259,0,.284.11.284.432v.5c0,.309-.026.432-.272.432-.458,0-.915-.036-1.372-.036-.26,0-.457.086-.457.382v.272c0,.247.025.482.025.729,0,.334-.26.383-.544.383-.408,0-.816-.025-1.224-.025h-1.36c-.457,0-.915.025-1.372.025-.284,0-.507-.062-.507-.4,0-.235.012-.47.012-.717v-.26a.36.36,0,0,0-.383-.395Zm4.771,2.088c.358,0,.717-.025,1.075-.025a.951.951,0,0,1,.717.21c.124.111.371.334.371.494,0,.4-1.273,1.533-1.607,1.792a.265.265,0,0,0-.124.2c0,.148.21.161.482.21a10.067,10.067,0,0,0,2.027.2c.2,0,.272.025.272.346,0,.433-.272,1.273-.692,1.273-.2,0-1.2-.173-1.446-.222a12.24,12.24,0,0,1-2.175-.655.887.887,0,0,0-.358-.074.956.956,0,0,0-.42.1,16.341,16.341,0,0,1-2.954.828c-.334,0-.433-.235-.581-.717a3.083,3.083,0,0,1-.173-.7c0-.222.235-.222.68-.272a15.238,15.238,0,0,0,1.533-.247c.087-.025.173-.062.173-.161a.188.188,0,0,0-.074-.136c-.161-.148-.766-.766-.766-.964a.2.2,0,0,1,.1-.148.105.105,0,0,0,.037-.062c0-.062-.062-.074-.173-.074s-.321.025-.581.025c-.235,0-.26-.124-.26-.383v-.47c0-.284.025-.383.26-.383.408,0,.816.025,1.224.025Zm-4.932-3.992a.246.246,0,0,0-.247.236v.124a.247.247,0,0,0,.247.246h.8a.25.25,0,0,0,.272-.26c0-.2-.062-.346-.284-.346Zm2.929,5.179c-.087,0-.148.037-.148.111s.087.124.161.2c.124.124.494.457.655.457s.9-.507.9-.68c0-.074-.124-.087-.309-.087Zm.185-3.275a.258.258,0,0,0-.26.246v.087a.238.238,0,0,0,.247.235h1.063a.227.227,0,0,0,.235-.235v-.087a.237.237,0,0,0-.235-.246Zm.136-1.9c-.1,0-.111.013-.124.074s-.087.087-.136.124a.2.2,0,0,0-.1.173.234.234,0,0,0,.26.235h.964a.254.254,0,0,0,.272-.246.657.657,0,0,0-.012-.149.24.24,0,0,0-.272-.21Z" transform="translate(-54.775 380.104)" fill="#545454"/>
    <path id="パス_36" data-name="パス 36" d="M82.287,288.036l4.994-.55a3.609,3.609,0,0,0,.954,2.258,2.833,2.833,0,0,0,2.038.734,3.324,3.324,0,0,0,2.717-1.468q1.12-1.468,1.431-6.095a6.16,6.16,0,0,1-4.864,2.258,7.269,7.269,0,0,1-5.48-2.451,8.939,8.939,0,0,1-2.3-6.379,9.074,9.074,0,0,1,2.433-6.6,8.805,8.805,0,0,1,12.914.661q2.625,3.167,2.625,10.417,0,7.379-2.736,10.647a8.849,8.849,0,0,1-7.122,3.266,7.532,7.532,0,0,1-5.1-1.679A8.112,8.112,0,0,1,82.287,288.036Zm11.675-11.271a5.885,5.885,0,0,0-1.147-3.873,3.385,3.385,0,0,0-2.653-1.377,2.974,2.974,0,0,0-2.377,1.129,5.759,5.759,0,0,0-.945,3.7,5.876,5.876,0,0,0,1.028,3.828,3.227,3.227,0,0,0,2.57,1.22,3.19,3.19,0,0,0,2.506-1.175A5.13,5.13,0,0,0,93.962,276.765Z" transform="translate(-42.761 370.762)" fill="#ed1c24"/>
    <path id="パス_37" data-name="パス 37" d="M125.112,273.938l-4.993.55a3.643,3.643,0,0,0-.955-2.277,2.784,2.784,0,0,0-2-.734,3.378,3.378,0,0,0-2.762,1.469q-1.129,1.468-1.423,6.113a6.034,6.034,0,0,1,4.792-2.277,7.315,7.315,0,0,1,5.534,2.461,8.917,8.917,0,0,1,2.3,6.351,9.113,9.113,0,0,1-2.424,6.628,8.825,8.825,0,0,1-12.923-.671q-2.625-3.167-2.625-10.38,0-7.4,2.735-10.666a8.83,8.83,0,0,1,7.1-3.267,7.543,7.543,0,0,1,5.075,1.716A8.044,8.044,0,0,1,125.112,273.938ZM113.419,285.19a5.85,5.85,0,0,0,1.156,3.883,3.4,3.4,0,0,0,2.644,1.368,3.009,3.009,0,0,0,2.386-1.12,5.645,5.645,0,0,0,.954-3.672,5.91,5.91,0,0,0-1.028-3.846,3.307,3.307,0,0,0-5.085-.055A5.063,5.063,0,0,0,113.419,285.19Z" transform="translate(-47.313 370.762)" fill="#ed1c24"/>
    <path id="パス_38" data-name="パス 38" d="M133.434,298.927v-5.158h5.158v5.158Z" transform="translate(-51.852 366.094)" fill="#ed1c24"/>
    <path id="パス_39" data-name="パス 39" d="M139.754,272.608v-4.791h17.641v3.744a27.788,27.788,0,0,0-4.442,6.168,35.965,35.965,0,0,0-3.442,8.545,31.679,31.679,0,0,0-1.165,8.086h-4.975a34.554,34.554,0,0,1,2.3-11.382,37.919,37.919,0,0,1,5.81-10.371Z" transform="translate(-52.964 370.66)" fill="#ed1c24"/>
    <path id="パス_40" data-name="パス 40" d="M158.294,284.487a4.053,4.053,0,0,1,.829-2.8,2.891,2.891,0,0,1,2.249-.911,2.958,2.958,0,0,1,2.3.906,5.15,5.15,0,0,1,0,5.6,2.891,2.891,0,0,1-2.249.911,2.958,2.958,0,0,1-2.3-.906A4.051,4.051,0,0,1,158.294,284.487Zm2.1-.02a3.63,3.63,0,0,0,.316,1.841.76.76,0,0,0,.662.345.769.769,0,0,0,.671-.345,3.719,3.719,0,0,0,.307-1.841,3.659,3.659,0,0,0-.307-1.831.81.81,0,0,0-1.332-.01A3.632,3.632,0,0,0,160.394,284.468Zm3.03,11.142h-1.994l7.489-14.833h1.936Zm4.353-3.692a4.056,4.056,0,0,1,.829-2.8,3.292,3.292,0,0,1,4.545,0,5.16,5.16,0,0,1,0,5.61,2.9,2.9,0,0,1-2.249.911,2.952,2.952,0,0,1-2.3-.911A4.071,4.071,0,0,1,167.777,291.918Zm2.1-.009a3.571,3.571,0,0,0,.316,1.831.756.756,0,0,0,.662.354.748.748,0,0,0,.662-.344,3.632,3.632,0,0,0,.316-1.841,3.719,3.719,0,0,0-.307-1.841.769.769,0,0,0-.671-.345.745.745,0,0,0-.662.345A3.63,3.63,0,0,0,169.877,291.909Z" transform="translate(-56.226 368.38)" fill="#ed1c24"/>
    <path id="パス_54" data-name="パス 54" d="M674.762,273.945l.318.7s4.45-3.491,6.137-4.5c1.5,2.7,3.731.311,3.759.181a4.26,4.26,0,0,1-1.729-1,1.825,1.825,0,0,0-.4-.307q.615-.487,1.193-1.045c1.585,2.15,3.43-.4,3.446-.529a3.537,3.537,0,0,1-1.682-.658,1.46,1.46,0,0,0-.436-.23c.3-.355.595-.723.875-1.108,1.688,1.6,3.176-1.16,3.178-1.282a3.21,3.21,0,0,1-1.679-.314,1.231,1.231,0,0,0-.356-.129c.281-.472.544-.964.8-1.464,1.953,1.41,3.03-1.944,3.014-2.068a3.024,3.024,0,0,1-1.621.213,1.138,1.138,0,0,0-.558.025c.256-.621.493-1.262.708-1.918a.478.478,0,0,0,.092.093c2.082.965,2.76-2.654,2.731-2.775a3.242,3.242,0,0,1-1.561.6,1.24,1.24,0,0,0-.735.3c.2-.764.368-1.549.509-2.348,2.018.593,2.439-2.948,2.4-3.059a3.424,3.424,0,0,1-1.46.787,1.277,1.277,0,0,0-.663.356c.1-.884.177-1.784.21-2.7a.392.392,0,0,0,.082.047c2.043.337,2.2-3.261,2.157-3.369a3.719,3.719,0,0,1-1.361,1,1.626,1.626,0,0,0-.859.82c-.007-.737-.03-1.483-.084-2.234-.011-.154-.027-.307-.041-.461.515-.243.979-1.693.979-1.693a4.3,4.3,0,0,1-.725,1.787c-.213.237.064.2.064.2,1.925-.764,1.168-4.226,1.1-4.3a5.594,5.594,0,0,1-.977,1.654,2.4,2.4,0,0,0-.562,1.19,34.473,34.473,0,0,0-.672-3.84.049.049,0,0,0,.049,0c.485-.306.823-1.844.823-1.844a4.728,4.728,0,0,1-.554,1.879c-.187.267.078.179.078.179,1.8-1.085.782-4.342.712-4.406a6.15,6.15,0,0,1-.806,1.79,2.9,2.9,0,0,0-.467,1.731,32.465,32.465,0,0,0-1.031-3.284c.053.083.1.111.144.065a5.138,5.138,0,0,0,.446-2.126,5.477,5.477,0,0,1-.184,2.054c-.129.335.109.144.109.144,1.506-1.757-.05-4.552-.129-4.589a7.558,7.558,0,0,1-.438,2.065,3.33,3.33,0,0,0-.106,1.976,28.457,28.457,0,0,0-2.377-4.756,1.079,1.079,0,0,0-.2-.3,24.014,24.014,0,0,0-1.936-2.6.669.669,0,0,0,.07-.1c.092-.155-.221-.464-.65-.553a20.128,20.128,0,0,0-1.823-1.735h0c.083-.154-.216-.431-.624-.5a16.722,16.722,0,0,0-1.911-1.273.17.17,0,0,0,.012-.022c.075-.178-.3-.427-.753-.378-.354-.176-.712-.338-1.074-.483.028-.015.055-.021.083-.037,0,0,.2-.173-.034-.174a2.066,2.066,0,0,1-1.169-.644s.888.627,1.315.393c.2-.108-.408-1.248-1.225-1.211a2.691,2.691,0,0,1-1.281-.377c-.01.091.743,2.579,2.127,2.131.342.14.681.292,1.014.461a1.181,1.181,0,0,0-.5.353,2.958,2.958,0,0,1-1.186.813c.031.1,1.891,1.777,2.766-.378a.423.423,0,0,0,.014-.171,16.466,16.466,0,0,1,1.475.99,1.1,1.1,0,0,0-.607.291,2.78,2.78,0,0,1-1.3.636c.024.1,1.825,2.142,2.9.075a.5.5,0,0,0,.03-.158q.737.643,1.425,1.378a1.079,1.079,0,0,0-.617.257,2.744,2.744,0,0,1-1.343.565c.021.1,1.778,2.261,2.942.295.453.553.886,1.137,1.3,1.747a1.06,1.06,0,0,0-.791-.045,2.714,2.714,0,0,1-1.464,0c0,.114,1.373,2.978,2.939,1.467,0,0,.19-.26-.063-.183a1.967,1.967,0,0,1-1.384-.336s.92.349,1.4.082a27.173,27.173,0,0,1,1.4,2.613,1.184,1.184,0,0,0-1.043-.263,2.753,2.753,0,0,1-1.466-.1c0,.111,1.276,3.064,2.894,1.668,0,0,.2-.244-.058-.186a2.031,2.031,0,0,1-1.373-.432s.947.432,1.427.166a30.329,30.329,0,0,1,1.123,3.052,1.48,1.48,0,0,0-1.164-.653,3.132,3.132,0,0,1-1.493-.442c-.013.112.976,3.386,2.788,2.352,0,0,.231-.2-.038-.2a2.4,2.4,0,0,1-1.363-.753s.992.7,1.5.476a32.014,32.014,0,0,1,.73,3.267,1.845,1.845,0,0,0-.9-.86,4.129,4.129,0,0,1-1.373-1.02c-.036.1.309,3.6,2.274,3.349,0,0,.265-.1,0-.207a3.279,3.279,0,0,1-1.186-1.261s.807,1.025,1.346,1.053c.1.748.186,1.506.24,2.277a33.584,33.584,0,0,1-.073,5.617,2.717,2.717,0,0,0-.933-1.7,5.412,5.412,0,0,1-1.248-1.456c-.05.089-.225,3.684,1.817,4.066,0,0,.285-.013.033-.207a4.243,4.243,0,0,1-1.022-1.637s.724,1.386,1.279,1.5c.007,0,.011,0,.019,0a31.409,31.409,0,0,1-.557,3.3,3.05,3.05,0,0,0-.727-1.714,6.536,6.536,0,0,1-1.1-1.759c-.064.075-.66,3.609,1.366,4.5,0,0,.29.057.056-.2a5,5,0,0,1-.843-1.883s.536,1.462,1.071,1.782a28.979,28.979,0,0,1-.956,3.077,3.46,3.46,0,0,0-.6-2,7.6,7.6,0,0,1-.972-2c-.071.066-1,3.544,1.006,4.832,0,0,.293.115.075-.19a5.591,5.591,0,0,1-.7-2.074,5.361,5.361,0,0,0,.958,2.027,25.192,25.192,0,0,1-1.274,2.717,3.6,3.6,0,0,0-.413-2,8.306,8.306,0,0,1-.78-2.158c-.078.05-1.339,3.281.542,4.952,0,0,.283.171.1-.171a5.954,5.954,0,0,1-.5-2.18,6.184,6.184,0,0,0,.728,2.149c-.229.394-.469.773-.716,1.145-.32.21-.511.511-.457.664-.213.3-.435.581-.657.862a3.649,3.649,0,0,0,.048-2.267,9.368,9.368,0,0,1-.348-2.43c-.089.017-2,2.615-.449,5.042,0,0,.248.286.128-.127a6.361,6.361,0,0,1-.067-2.33,6.19,6.19,0,0,0,.34,2.462.075.075,0,0,0,.032.028c-.262.308-.526.61-.8.9a.845.845,0,0,0-.261.258c-.169.169-.338.336-.511.494a3.864,3.864,0,0,0-.048-2.067,9.587,9.587,0,0,1-.369-2.476c-.09.017-2.025,2.694-.429,5.151a.612.612,0,0,0,.068.065q-.474.386-.969.727a.777.777,0,0,0-.459.309C679.527,270.259,675.584,272.632,674.762,273.945Zm4.919-48.836c-.018,0-.046.018-.089.066a1.8,1.8,0,0,1-1.209.481A2.326,2.326,0,0,0,679.5,225C679.565,225.033,679.622,225.073,679.681,225.109Zm2.491,1.817a.19.19,0,0,0-.084.049,1.756,1.756,0,0,1-1.295.292,2.242,2.242,0,0,0,1.213-.483C682.062,226.831,682.117,226.877,682.172,226.925Zm2.321,2.378a1.8,1.8,0,0,1-1.275.178,2.447,2.447,0,0,0,1.147-.325C684.407,229.2,684.451,229.252,684.493,229.3Zm6.795,20.813c0-.089,0-.18,0-.271.543-.125,1.215-1.017,1.215-1.017a2.954,2.954,0,0,1-1.154,1.254A.26.26,0,0,0,691.287,250.116Zm-.449,4.489c.015-.084.026-.165.04-.248a3.43,3.43,0,0,0,1.143-.8A2.782,2.782,0,0,1,690.839,254.605Zm-1.041,4.278c.029-.09.058-.178.086-.271a2.873,2.873,0,0,0,1.368-.672,2.485,2.485,0,0,1-1.381.928A.229.229,0,0,0,689.8,258.883Zm-1.467,3.639c.037-.075.075-.15.112-.227a2.918,2.918,0,0,0,1.279-.35A2.239,2.239,0,0,1,688.331,262.522Zm-1.824,3.088.121-.176a3.108,3.108,0,0,0,1.1-.012A2.116,2.116,0,0,1,686.507,265.609Zm-2.208,2.633c.049-.047.1-.092.146-.14a3.368,3.368,0,0,0,1.24.25A2.212,2.212,0,0,1,684.3,268.242Zm-1.53.316a.89.89,0,0,0-.029-.121,6.492,6.492,0,0,1-.079-2.379,7.616,7.616,0,0,0,.262,2.373C682.873,268.475,682.82,268.516,682.769,268.558Zm-1.284,1.935c.073-.045.146-.092.22-.14a4.083,4.083,0,0,0,1.323.559A2.525,2.525,0,0,1,681.485,270.493Zm-1.771-.619a6.28,6.28,0,0,1,.416-2.417A7.046,7.046,0,0,0,680,270.2c.142.411,1.119-.9.939-2.58a9.87,9.87,0,0,1,.138-2.641,4.126,4.126,0,0,0-1.524,4.963S679.754,270.35,679.714,269.874Zm9.7-23.1s.757,1.32,1.308,1.4c.259.035-.008-1.61-.92-2.185a5.145,5.145,0,0,1-1.276-1.353c-.046.093-.1,3.662,1.923,3.895,0,0,.28-.031.024-.2A4,4,0,0,1,689.413,246.777Zm-1.741-17.651a7.913,7.913,0,0,1-.25,2.085c-.365,1.214.227,2.6.393,2.341a5.329,5.329,0,0,0,.25-2.14,5.523,5.523,0,0,1-.006,2.026c-.1.348.114.121.114.121C689.472,231.587,687.75,229.148,687.672,229.126Zm-1.363,1.367a3.854,3.854,0,0,0-1.132-4.226,8.222,8.222,0,0,1,.064,2.137c-.173,1.314.6,2.5.721,2.2a5.594,5.594,0,0,0-.069-2.194,5.517,5.517,0,0,1,.289,2C686.139,230.781,686.309,230.492,686.309,230.492Zm-2.586-3.079a3.681,3.681,0,0,0-1.181-4.05,8.108,8.108,0,0,1,.1,2.071c-.141,1.282.632,2.4.743,2.1a5.425,5.425,0,0,0-.115-2.126,5.321,5.321,0,0,1,.324,1.931C683.564,227.7,683.723,227.414,683.723,227.414Zm-2.506-2.03a3.525,3.525,0,0,0-1.269-3.907,7.794,7.794,0,0,1,.162,2.027c-.1,1.268.686,2.318.785,2.017a5.309,5.309,0,0,0-.172-2.081,5.1,5.1,0,0,1,.37,1.877C681.071,225.675,681.217,225.384,681.217,225.384Zm-1.926-1.651a2.972,2.972,0,0,0-1.67-3.394,7.266,7.266,0,0,1,.4,1.891c.061,1.236.927,2.033.983,1.719a4.907,4.907,0,0,0-.418-1.943,4.527,4.527,0,0,1,.579,1.694C679.191,224.048,679.291,223.732,679.291,223.732Z" transform="translate(-328.761 398.447)" fill="#ab8c36"/>
    <path id="パス_69" data-name="パス 69" d="M693.5,273.945l-.318.7s-4.45-3.491-6.137-4.5c-1.5,2.7-3.731.311-3.759.181a4.26,4.26,0,0,0,1.729-1,1.825,1.825,0,0,1,.4-.307q-.615-.487-1.193-1.045c-1.585,2.15-3.43-.4-3.446-.529a3.537,3.537,0,0,0,1.682-.658,1.46,1.46,0,0,1,.436-.23c-.3-.355-.595-.723-.875-1.108-1.688,1.6-3.176-1.16-3.178-1.282a3.21,3.21,0,0,0,1.679-.314,1.231,1.231,0,0,1,.356-.129c-.281-.472-.544-.964-.8-1.464-1.953,1.41-3.03-1.944-3.014-2.068a3.024,3.024,0,0,0,1.621.213,1.138,1.138,0,0,1,.558.025c-.256-.621-.493-1.262-.708-1.918a.478.478,0,0,1-.092.093c-2.082.965-2.76-2.654-2.731-2.775a3.242,3.242,0,0,0,1.561.6,1.24,1.24,0,0,1,.735.3c-.2-.764-.368-1.549-.509-2.348-2.018.593-2.439-2.948-2.4-3.059a3.424,3.424,0,0,0,1.46.787,1.277,1.277,0,0,1,.663.356c-.1-.884-.177-1.784-.21-2.7a.392.392,0,0,1-.082.047c-2.043.337-2.2-3.261-2.157-3.369a3.719,3.719,0,0,0,1.362,1,1.626,1.626,0,0,1,.859.82c.007-.737.03-1.483.084-2.234.011-.154.027-.307.041-.461-.515-.243-.979-1.693-.979-1.693a4.3,4.3,0,0,0,.725,1.787c.213.237-.064.2-.064.2-1.925-.764-1.168-4.226-1.1-4.3a5.593,5.593,0,0,0,.977,1.654,2.4,2.4,0,0,1,.562,1.19,34.473,34.473,0,0,1,.672-3.84.049.049,0,0,1-.049,0c-.485-.306-.823-1.844-.823-1.844a4.728,4.728,0,0,0,.554,1.879c.187.267-.078.179-.078.179-1.8-1.085-.782-4.342-.712-4.406a6.15,6.15,0,0,0,.806,1.79,2.9,2.9,0,0,1,.467,1.731,32.465,32.465,0,0,1,1.031-3.284c-.053.083-.1.111-.144.065a5.138,5.138,0,0,1-.446-2.126,5.477,5.477,0,0,0,.184,2.054c.129.335-.109.144-.109.144-1.506-1.757.05-4.552.129-4.589a7.558,7.558,0,0,0,.438,2.065,3.33,3.33,0,0,1,.106,1.976,28.457,28.457,0,0,1,2.377-4.756,1.079,1.079,0,0,1,.2-.3,24.014,24.014,0,0,1,1.936-2.6.669.669,0,0,1-.07-.1c-.092-.155.221-.464.65-.553a20.128,20.128,0,0,1,1.823-1.735h0c-.083-.154.216-.431.624-.5a16.722,16.722,0,0,1,1.911-1.273.17.17,0,0,1-.012-.022c-.075-.178.3-.427.753-.378.354-.176.712-.338,1.074-.483-.028-.015-.055-.021-.083-.037,0,0-.2-.173.034-.174a2.066,2.066,0,0,0,1.169-.644s-.888.627-1.315.393c-.2-.108.408-1.248,1.225-1.211a2.691,2.691,0,0,0,1.281-.377c.01.091-.743,2.579-2.127,2.131-.342.14-.681.292-1.014.461a1.181,1.181,0,0,1,.5.353,2.958,2.958,0,0,0,1.186.813c-.031.1-1.891,1.777-2.766-.378a.423.423,0,0,1-.014-.171,16.466,16.466,0,0,0-1.475.99,1.1,1.1,0,0,1,.607.291,2.78,2.78,0,0,0,1.3.636c-.024.1-1.825,2.142-2.9.075a.5.5,0,0,1-.03-.158q-.737.643-1.425,1.378a1.079,1.079,0,0,1,.617.257,2.744,2.744,0,0,0,1.343.565c-.021.1-1.778,2.261-2.942.295-.453.553-.886,1.137-1.3,1.747a1.06,1.06,0,0,1,.791-.045,2.714,2.714,0,0,0,1.464,0c0,.114-1.373,2.978-2.939,1.467,0,0-.19-.26.063-.183a1.967,1.967,0,0,0,1.384-.336s-.92.349-1.4.082a27.173,27.173,0,0,0-1.4,2.613,1.184,1.184,0,0,1,1.043-.263,2.753,2.753,0,0,0,1.466-.1c0,.111-1.276,3.064-2.894,1.668,0,0-.2-.244.058-.186a2.031,2.031,0,0,0,1.373-.432s-.947.432-1.427.166a30.329,30.329,0,0,0-1.123,3.052,1.48,1.48,0,0,1,1.164-.653,3.132,3.132,0,0,0,1.493-.442c.013.112-.976,3.386-2.788,2.352,0,0-.231-.2.038-.2a2.4,2.4,0,0,0,1.363-.753s-.992.7-1.5.476a32.014,32.014,0,0,0-.73,3.267,1.845,1.845,0,0,1,.9-.86,4.129,4.129,0,0,0,1.373-1.02c.036.1-.309,3.6-2.274,3.349,0,0-.265-.1,0-.207a3.279,3.279,0,0,0,1.186-1.261s-.807,1.025-1.346,1.053c-.1.748-.186,1.506-.24,2.277a33.584,33.584,0,0,0,.073,5.617,2.717,2.717,0,0,1,.933-1.7,5.412,5.412,0,0,0,1.248-1.456c.05.089.225,3.684-1.817,4.066,0,0-.285-.013-.033-.207a4.243,4.243,0,0,0,1.022-1.637s-.724,1.386-1.279,1.5c-.007,0-.011,0-.019,0a31.409,31.409,0,0,0,.557,3.3,3.05,3.05,0,0,1,.727-1.714,6.536,6.536,0,0,0,1.1-1.759c.064.075.66,3.609-1.366,4.5,0,0-.29.057-.056-.2a5,5,0,0,0,.843-1.883s-.536,1.462-1.071,1.782a28.979,28.979,0,0,0,.956,3.077,3.46,3.46,0,0,1,.6-2,7.6,7.6,0,0,0,.972-2c.071.066,1,3.544-1.006,4.832,0,0-.293.115-.075-.19a5.591,5.591,0,0,0,.7-2.074,5.361,5.361,0,0,1-.958,2.027,25.192,25.192,0,0,0,1.274,2.717,3.6,3.6,0,0,1,.413-2,8.306,8.306,0,0,0,.78-2.158c.078.05,1.339,3.281-.542,4.952,0,0-.283.171-.1-.171a5.954,5.954,0,0,0,.5-2.18,6.184,6.184,0,0,1-.728,2.149c.229.394.469.773.716,1.145.32.21.511.511.457.664.213.3.435.581.657.862a3.649,3.649,0,0,1-.048-2.267,9.368,9.368,0,0,0,.348-2.43c.089.017,2,2.615.449,5.042,0,0-.248.286-.128-.127a6.361,6.361,0,0,0,.067-2.33,6.19,6.19,0,0,1-.34,2.462.075.075,0,0,1-.032.028c.262.308.526.61.8.9a.845.845,0,0,1,.261.258c.169.169.338.336.511.494a3.864,3.864,0,0,1,.048-2.067,9.587,9.587,0,0,0,.369-2.476c.09.017,2.025,2.694.429,5.151a.612.612,0,0,1-.068.065q.474.386.969.727a.777.777,0,0,1,.459.309C688.731,270.259,692.674,272.632,693.5,273.945Zm-4.919-48.836c.018,0,.046.018.089.066a1.8,1.8,0,0,0,1.209.481,2.326,2.326,0,0,1-1.121-.658C688.694,225.033,688.637,225.073,688.577,225.109Zm-2.491,1.817a.19.19,0,0,1,.084.049,1.756,1.756,0,0,0,1.295.292,2.242,2.242,0,0,1-1.213-.483C686.2,226.831,686.141,226.877,686.086,226.925Zm-2.321,2.378a1.8,1.8,0,0,0,1.275.178,2.447,2.447,0,0,1-1.147-.325C683.851,229.2,683.808,229.252,683.766,229.3Zm-6.795,20.813c0-.089,0-.18,0-.271-.543-.125-1.215-1.017-1.215-1.017a2.954,2.954,0,0,0,1.154,1.254A.26.26,0,0,1,676.971,250.116Zm.449,4.489c-.015-.084-.026-.165-.04-.248a3.43,3.43,0,0,1-1.143-.8A2.782,2.782,0,0,0,677.42,254.605Zm1.041,4.278c-.029-.09-.058-.178-.086-.271a2.873,2.873,0,0,1-1.368-.672,2.485,2.485,0,0,0,1.381.928A.229.229,0,0,1,678.461,258.883Zm1.467,3.639c-.037-.075-.075-.15-.112-.227a2.918,2.918,0,0,1-1.279-.35A2.239,2.239,0,0,0,679.928,262.522Zm1.824,3.088-.121-.176a3.108,3.108,0,0,1-1.1-.012A2.116,2.116,0,0,0,681.752,265.609Zm2.208,2.633c-.049-.047-.1-.092-.146-.14a3.368,3.368,0,0,1-1.24.25A2.212,2.212,0,0,0,683.959,268.242Zm1.53.316a.89.89,0,0,1,.029-.121,6.492,6.492,0,0,0,.079-2.379,7.616,7.616,0,0,1-.262,2.373C685.386,268.475,685.438,268.516,685.489,268.558Zm1.284,1.935c-.073-.045-.146-.092-.22-.14a4.083,4.083,0,0,1-1.323.559A2.525,2.525,0,0,0,686.774,270.493Zm1.771-.619a6.28,6.28,0,0,0-.416-2.417,7.046,7.046,0,0,1,.13,2.747c-.142.411-1.119-.9-.939-2.58a9.87,9.87,0,0,0-.138-2.641,4.126,4.126,0,0,1,1.524,4.963S688.5,270.35,688.544,269.874Zm-9.7-23.1s-.757,1.32-1.308,1.4c-.259.035.008-1.61.92-2.185a5.145,5.145,0,0,0,1.276-1.353c.046.093.1,3.662-1.923,3.895,0,0-.28-.031-.024-.2A4,4,0,0,0,678.845,246.777Zm1.741-17.651a7.913,7.913,0,0,0,.25,2.085c.365,1.214-.227,2.6-.393,2.341a5.329,5.329,0,0,1-.25-2.14,5.523,5.523,0,0,0,.006,2.026c.1.348-.114.121-.114.121C678.786,231.587,680.508,229.148,680.586,229.126Zm1.363,1.367a3.854,3.854,0,0,1,1.132-4.226,8.222,8.222,0,0,0-.064,2.137c.173,1.314-.6,2.5-.721,2.2a5.594,5.594,0,0,1,.069-2.194,5.517,5.517,0,0,0-.289,2C682.119,230.781,681.949,230.492,681.949,230.492Zm2.586-3.079a3.681,3.681,0,0,1,1.181-4.05,8.108,8.108,0,0,0-.1,2.071c.141,1.282-.632,2.4-.743,2.1a5.425,5.425,0,0,1,.115-2.126,5.321,5.321,0,0,0-.324,1.931C684.694,227.7,684.536,227.414,684.536,227.414Zm2.506-2.03a3.525,3.525,0,0,1,1.269-3.907,7.794,7.794,0,0,0-.162,2.027c.1,1.268-.686,2.318-.785,2.017a5.309,5.309,0,0,1,.172-2.081,5.1,5.1,0,0,0-.37,1.877C687.187,225.675,687.042,225.384,687.042,225.384Zm1.926-1.651a2.972,2.972,0,0,1,1.67-3.394,7.266,7.266,0,0,0-.4,1.891c-.061,1.236-.927,2.033-.983,1.719a4.907,4.907,0,0,1,.418-1.943,4.527,4.527,0,0,0-.579,1.694C689.068,224.048,688.967,223.732,688.967,223.732Z" transform="translate(-664.761 398.447)" fill="#ab8c36"/>
    <path id="パス_70" data-name="パス 70" d="M1614.742,248.427v44.588" transform="translate(-1482 377)" fill="none" stroke="#fff" stroke-width="2"/>
  </g>
</svg>
