<svg xmlns="http://www.w3.org/2000/svg" width="152.32" height="111.1" viewBox="0 0 152.32 111.1"><defs><style>.cls-1{fill:#ab8c36;}.cls-2{fill:#545454;}.cls-3{fill:#ed1c24;}</style></defs><g id="レイヤー_2" data-name="レイヤー 2"><g id="レイヤー_1-2" data-name="レイヤー 1"><path class="cls-1" d="M25.12,99.91a1.54,1.54,0,0,0-.94-.63c-.67-.47-1.33-1-2-1.49l.14-.13c3.26-5-.69-10.5-.88-10.54a20,20,0,0,1-.75,5.07,7.85,7.85,0,0,0-.1,4.23c-.36-.33-.7-.67-1.05-1a1.66,1.66,0,0,0-.53-.53c-.56-.59-1.11-1.2-1.64-1.83,0,0,.05,0,.07-.06.85-1.37.69-5,.69-5A13.11,13.11,0,0,1,18,92.72c-.25.84.26.26.26.26,3.17-5-.74-10.28-.92-10.31a19,19,0,0,1-.71,5,7.33,7.33,0,0,0,.1,4.63c-.46-.57-.91-1.15-1.35-1.76.11-.31-.28-.93-.93-1.36-.51-.76-1-1.53-1.47-2.34,1-1.12,1.49-4.39,1.49-4.39a12.33,12.33,0,0,1-1,4.46c-.39.7.19.34.19.34,3.85-3.41,1.27-10,1.11-10.13a17.32,17.32,0,0,1-1.6,4.42,7.36,7.36,0,0,0-.84,4.1,52.56,52.56,0,0,1-2.61-5.56c1.08-.83,2-4.15,2-4.15a11.33,11.33,0,0,1-1.43,4.25c-.45.62.15.38.15.38,4.11-2.63,2.21-9.75,2.06-9.88a15.6,15.6,0,0,1-2,4.08,7.07,7.07,0,0,0-1.22,4.1,59.07,59.07,0,0,1-2-6.29c1.1-.66,2.19-3.65,2.19-3.65a10.19,10.19,0,0,1-1.72,3.85c-.48.52.12.41.12.41,4.14-1.82,2.92-9.05,2.79-9.21a13.47,13.47,0,0,1-2.24,3.6,6.28,6.28,0,0,0-1.49,3.51A66.17,66.17,0,0,1,5.8,64.29h0c1.14-.24,2.62-3.07,2.62-3.07a8.6,8.6,0,0,1-2.09,3.34c-.52.4.06.43.06.43,4.18-.78,3.82-8.14,3.72-8.32a11.2,11.2,0,0,1-2.55,3,5.53,5.53,0,0,0-1.91,3.49,68.62,68.62,0,0,1-.15-11.49c.11-1.58.28-3.13.49-4.66,1.1-.06,2.75-2.16,2.75-2.16a6.62,6.62,0,0,1-2.42,2.58c-.54.23,0,.43,0,.43,4,.5,4.72-6.65,4.65-6.85A8.4,8.4,0,0,1,8.2,43.08a3.81,3.81,0,0,0-1.83,1.76,64.29,64.29,0,0,1,1.49-6.68c1,.46,3.07-1,3.07-1a4.93,4.93,0,0,1-2.79,1.54c-.55,0-.08.41-.08.41,3.71,2.12,5.73-4.58,5.71-4.81a6.39,6.39,0,0,1-3.06.9,3,3,0,0,0-2.38,1.34,62.22,62.22,0,0,1,2.3-6.24c1,.54,2.92-.34,2.92-.34a4.18,4.18,0,0,1-2.81.88c-.53-.12-.12.38-.12.38,3.31,2.86,5.93-3.18,5.92-3.41a5.7,5.7,0,0,1-3,.21,2.43,2.43,0,0,0-2.13.54,57.84,57.84,0,0,1,2.87-5.35c1,.55,2.86-.17,2.86-.17a4,4,0,0,1-2.83.69c-.52-.16-.13.38-.13.38,3.2,3.09,6-2.77,6-3a5.36,5.36,0,0,1-3,0,2.19,2.19,0,0,0-1.62.09c.84-1.24,1.73-2.44,2.65-3.57,2.38,4,6-.39,6-.6a5.7,5.7,0,0,1-2.75-1.16,2.18,2.18,0,0,0-1.26-.52,38.67,38.67,0,0,1,2.92-2.82.84.84,0,0,0,.06.32c2.2,4.23,5.89.06,5.94-.15a5.77,5.77,0,0,1-2.66-1.3,2.21,2.21,0,0,0-1.24-.6,32.41,32.41,0,0,1,3-2,.85.85,0,0,0,0,.35c1.79,4.4,5.59,1,5.66.77a6,6,0,0,1-2.43-1.66,2.47,2.47,0,0,0-1-.73c.68-.34,1.37-.65,2.07-.94C35.43,7.51,37,2.42,37,2.23A5.39,5.39,0,0,1,34.33,3c-1.67-.07-2.91,2.26-2.5,2.48.87.48,2.69-.8,2.69-.8A4.29,4.29,0,0,1,32.12,6c-.47,0-.07.35-.07.35l.17.08a23.75,23.75,0,0,0-2.19,1c-.92-.1-1.7.4-1.54.77l0,0a35.93,35.93,0,0,0-3.91,2.61c-.83.13-1.44.7-1.27,1h0a40,40,0,0,0-3.73,3.55c-.88.18-1.52.81-1.33,1.13a1.43,1.43,0,0,0,.14.2,50.32,50.32,0,0,0-4,5.32,2.28,2.28,0,0,0-.4.62,58.51,58.51,0,0,0-4.86,9.73,6.78,6.78,0,0,0-.22-4,15.3,15.3,0,0,1-.89-4.22c-.16.07-3.35,5.79-.27,9.38,0,0,.49.39.23-.29A11.08,11.08,0,0,1,7.66,29s.08,3.35.91,4.34c.08.1.19,0,.3-.13A64.18,64.18,0,0,0,6.76,40a5.94,5.94,0,0,0-1-3.54,12.89,12.89,0,0,1-1.65-3.66c-.14.13-2.21,6.79,1.46,9,0,0,.54.18.16-.37a9.48,9.48,0,0,1-1.13-3.84s.69,3.15,1.68,3.77a.08.08,0,0,0,.1,0,70,70,0,0,0-1.37,7.86A4.94,4.94,0,0,0,3.9,46.77a11.44,11.44,0,0,1-2-3.38c-.13.16-1.68,7.24,2.26,8.8,0,0,.57.08.13-.4a8.72,8.72,0,0,1-1.48-3.66s.95,3,2,3.47c0,.31-.06.63-.08.94-.11,1.54-.16,3.06-.18,4.57A3.34,3.34,0,0,0,2.8,55.43a7.56,7.56,0,0,1-2.79-2c-.09.22.23,7.58,4.41,6.89a.54.54,0,0,0,.17-.09c.07,1.87.22,3.71.43,5.52A2.64,2.64,0,0,0,3.67,65c-2-.35-2.93-1.81-3-1.61s.79,7.47,4.91,6.26c.29,1.64.64,3.24,1,4.8a2.53,2.53,0,0,0-1.5-.6C3,73.76,2,72.39,1.94,72.6s1.33,7.65,5.58,5.67a1,1,0,0,0,.19-.19c.44,1.35.93,2.66,1.45,3.93A2.29,2.29,0,0,0,8,82c-2.12.44-3.29-.65-3.32-.43s2.18,7.11,6.17,4.23c.52,1,1.06,2,1.63,3a2.51,2.51,0,0,0-.73.27c-2.08,1.11-3.44.41-3.43.64s3,5.89,6.5,2.62c.57.79,1.17,1.54,1.79,2.27a3.25,3.25,0,0,0-.9.47c-2,1.55-3.46,1.12-3.44,1.35s3.81,5.48,7.05,1.08c.79.76,1.61,1.47,2.44,2.14a3.69,3.69,0,0,0-.82.62c-2,2-3.58,1.82-3.53,2s4.63,5.15,7.69-.37c3.45,2.07,12.55,9.22,12.55,9.22l.65-1.44C36.64,107,28.58,102.12,25.12,99.91Zm3.5-90.38a4.76,4.76,0,0,0,2.29,1.35,3.67,3.67,0,0,1-2.47-1c-.09-.09-.14-.13-.18-.13ZM23.5,13.19a4.61,4.61,0,0,0,2.49,1,3.62,3.62,0,0,1-2.65-.6c-.08-.07-.13-.1-.18-.1ZM18.68,18A4.94,4.94,0,0,0,21,18.7a3.62,3.62,0,0,1-2.6-.36ZM4.38,60.85A6.06,6.06,0,0,1,2,58.28S3.4,60.1,4.51,60.36c0,.19,0,.37,0,.55ZM3,68a7,7,0,0,0,2.33,1.64l.09.51A5.7,5.7,0,0,1,3,68Zm4.4,10.87a5.1,5.1,0,0,1-2.83-1.9,5.8,5.8,0,0,0,2.8,1.37l.18.56A.33.33,0,0,0,7.42,78.82Zm.3,6.29a6.1,6.1,0,0,0,2.62.72c.07.16.15.31.23.46A4.61,4.61,0,0,1,7.72,85.11Zm4.08,7.11a6.37,6.37,0,0,0,2.25,0l.25.36A4.32,4.32,0,0,1,11.8,92.22Zm4.18,6a7,7,0,0,0,2.53-.52l.3.29A4.55,4.55,0,0,1,16,98.22Zm5.65.16a15.65,15.65,0,0,0,.54-4.86A13.26,13.26,0,0,1,22,98.39a1.76,1.76,0,0,0-.06.25Zm-.22,5.07a8.22,8.22,0,0,0,2.71-1.14l.45.29A5.17,5.17,0,0,1,21.41,103.45Zm7.11-2A8.42,8.42,0,0,0,25.4,91.33a19.45,19.45,0,0,1,.29,5.4c-.37,3.43,1.63,6.11,1.92,5.27.61-1.77-.27-5.61-.27-5.61a12.74,12.74,0,0,1,.85,4.94C28.11,102.3,28.52,101.48,28.52,101.48ZM6.19,57.25c-.53.36,0,.42,0,.42,4.13-.48,4-7.77,3.93-8a10.62,10.62,0,0,1-2.61,2.76C5.69,53.65,5.15,57,5.68,56.94c1.12-.16,2.67-2.86,2.67-2.86A8.25,8.25,0,0,1,6.19,57.25ZM10.89,27s.43.47.23-.24a11.35,11.35,0,0,1,0-4.15s-.2,3.27.51,4.38c.34.53,1.55-2.31.8-4.79A16.64,16.64,0,0,1,11.91,18C11.75,18,8.23,23,10.89,27ZM15,20.6a11.46,11.46,0,0,1,.59-4.1s-.66,3.17-.14,4.49c.25.62,1.83-1.8,1.48-4.49A16.3,16.3,0,0,1,17,12.13c-.16,0-4.3,3.83-2.32,8.64C14.7,20.77,15.05,21.36,15,20.6Zm5.29-6.28a10.76,10.76,0,0,1,.66-4s-.71,3-.24,4.35c.23.61,1.81-1.67,1.52-4.29a16.66,16.66,0,0,1,.22-4.24c-.15,0-4.23,3.53-2.42,8.28C20,14.47,20.32,15.06,20.25,14.32Zm5.12-4.14a10.5,10.5,0,0,1,.76-3.84s-.78,2.95-.35,4.26c.2.62,1.81-1.53,1.6-4.12a16.06,16.06,0,0,1,.33-4.15,7.2,7.2,0,0,0-2.59,8S25.42,10.92,25.37,10.18Zm3.94-3.3A9.28,9.28,0,0,1,30.5,3.41s-1.1,2.61-.86,4c.11.64,1.89-1,2-3.52A15.16,15.16,0,0,1,32.47,0a6.09,6.09,0,0,0-3.41,7S29.26,7.59,29.31,6.88Z"/><path class="cls-1" d="M114,109.66l.65,1.44s9.1-7.15,12.56-9.22c3,5.52,7.63.64,7.69.37s-1.54,0-3.54-2a3.28,3.28,0,0,0-.82-.62c.84-.67,1.65-1.38,2.44-2.14,3.24,4.4,7-.82,7.05-1.08s-1.43.2-3.44-1.35a3.2,3.2,0,0,0-.89-.47c.61-.73,1.21-1.48,1.79-2.27,3.45,3.27,6.49-2.37,6.5-2.62s-1.36.47-3.44-.64a2.51,2.51,0,0,0-.73-.27c.58-1,1.12-2,1.63-3,4,2.88,6.2-4,6.17-4.23s-1.2.87-3.32.43a2.3,2.3,0,0,0-1.14.06c.52-1.27,1-2.58,1.45-3.93a1,1,0,0,0,.19.19c4.26,2,5.64-5.43,5.58-5.67s-1.07,1.16-3.19,1.23a2.53,2.53,0,0,0-1.5.6c.4-1.56.75-3.16,1-4.8,4.13,1.21,5-6,4.91-6.26a6.93,6.93,0,0,1-3,1.61,2.63,2.63,0,0,0-1.36.73c.21-1.81.36-3.65.43-5.52a.68.68,0,0,0,.17.09c4.18.69,4.5-6.67,4.41-6.89a7.35,7.35,0,0,1-2.78,2,3.35,3.35,0,0,0-1.76,1.68c0-1.51-.06-3-.17-4.57l-.09-.94c1.06-.5,2-3.47,2-3.47A8.87,8.87,0,0,1,148,51.79c-.43.48.13.4.13.4,3.94-1.56,2.39-8.64,2.26-8.8a11.17,11.17,0,0,1-2,3.38,4.92,4.92,0,0,0-1.14,2.44,70,70,0,0,0-1.38-7.86.08.08,0,0,0,.1,0c1-.62,1.69-3.77,1.69-3.77a9.65,9.65,0,0,1-1.14,3.84c-.38.55.16.37.16.37,3.68-2.22,1.6-8.88,1.46-9a12.55,12.55,0,0,1-1.65,3.66,5.93,5.93,0,0,0-1,3.54,66.64,66.64,0,0,0-2.11-6.72c.11.17.21.23.29.13.83-1,.91-4.34.91-4.34a11.27,11.27,0,0,1-.37,4.2c-.27.68.22.29.22.29,3.08-3.59-.1-9.31-.26-9.38a16.08,16.08,0,0,1-.9,4.22,6.86,6.86,0,0,0-.22,4,58.51,58.51,0,0,0-4.86-9.73,2.28,2.28,0,0,0-.4-.62,49,49,0,0,0-4-5.32,1.43,1.43,0,0,0,.14-.2c.19-.32-.45-.95-1.33-1.13A38.81,38.81,0,0,0,129,11.86h0c.17-.32-.44-.89-1.28-1a35.93,35.93,0,0,0-3.91-2.61l0,0c.15-.37-.62-.87-1.54-.77-.73-.37-1.46-.7-2.2-1l.17-.08s.4-.35-.07-.35a4.26,4.26,0,0,1-2.39-1.32s1.81,1.28,2.69.8c.41-.22-.84-2.55-2.51-2.48a5.44,5.44,0,0,1-2.62-.77c0,.19,1.52,5.28,4.35,4.36.7.29,1.4.6,2.08.94a2.49,2.49,0,0,0-1,.73,6.13,6.13,0,0,1-2.42,1.66c.06.19,3.87,3.63,5.65-.77a.85.85,0,0,0,0-.35,32.41,32.41,0,0,1,3,2,2.28,2.28,0,0,0-1.24.6,5.81,5.81,0,0,1-2.65,1.3c0,.21,3.73,4.38,5.94.15a1.11,1.11,0,0,0,.06-.32c1,.87,2,1.82,2.91,2.82a2.21,2.21,0,0,0-1.26.52,5.66,5.66,0,0,1-2.75,1.16c.05.21,3.64,4.62,6,.6.92,1.13,1.81,2.33,2.66,3.57a2.2,2.2,0,0,0-1.62-.09,5.41,5.41,0,0,1-3,0c0,.24,2.81,6.1,6,3,0,0,.39-.54-.13-.38a4,4,0,0,1-2.83-.69s1.88.72,2.86.17a53.42,53.42,0,0,1,2.87,5.35,2.41,2.41,0,0,0-2.13-.54,5.7,5.7,0,0,1-3-.21c0,.23,2.61,6.27,5.92,3.41,0,0,.41-.5-.12-.38a4.18,4.18,0,0,1-2.81-.88s1.94.88,2.92.34a59.86,59.86,0,0,1,2.3,6.24,3,3,0,0,0-2.38-1.34,6.26,6.26,0,0,1-3.05-.9c0,.23,2,6.93,5.7,4.81,0,0,.47-.41-.08-.41a4.93,4.93,0,0,1-2.79-1.54s2,1.43,3.07,1a64.3,64.3,0,0,1,1.5,6.68,3.83,3.83,0,0,0-1.84-1.76A8.68,8.68,0,0,1,141.31,41c-.07.2.64,7.35,4.65,6.85,0,0,.54-.2,0-.43a6.57,6.57,0,0,1-2.43-2.58s1.65,2.1,2.75,2.16c.21,1.53.38,3.08.49,4.66a67.58,67.58,0,0,1-.15,11.49,5.51,5.51,0,0,0-1.9-3.49,11.14,11.14,0,0,1-2.56-3c-.1.18-.46,7.54,3.72,8.32,0,0,.58,0,.07-.43a8.6,8.6,0,0,1-2.09-3.34s1.48,2.83,2.61,3.07h0a63.53,63.53,0,0,1-1.14,6.76,6.21,6.21,0,0,0-1.49-3.51,13.47,13.47,0,0,1-2.24-3.6c-.13.16-1.35,7.39,2.8,9.21,0,0,.59.11.11-.41a10.35,10.35,0,0,1-1.72-3.85s1.09,3,2.19,3.65a59.07,59.07,0,0,1-2,6.29,7.07,7.07,0,0,0-1.22-4.1,15.6,15.6,0,0,1-2-4.08c-.14.13-2.05,7.25,2.06,9.88,0,0,.6.24.15-.38a11.69,11.69,0,0,1-1.43-4.25s.88,3.32,2,4.15A52.56,52.56,0,0,1,140,85.61a7.36,7.36,0,0,0-.84-4.1,17.32,17.32,0,0,1-1.6-4.42c-.15.11-2.74,6.72,1.11,10.13,0,0,.58.36.2-.34a12.14,12.14,0,0,1-1-4.46s.53,3.27,1.49,4.39c-.47.81-1,1.58-1.46,2.34-.66.43-1.05,1-.94,1.36-.43.61-.89,1.19-1.34,1.76a7.47,7.47,0,0,0,.1-4.63,20,20,0,0,1-.72-5c-.18,0-4.09,5.35-.91,10.31,0,0,.5.58.26-.26a12.9,12.9,0,0,1-.14-4.77s-.15,3.67.7,5a.34.34,0,0,0,.06.06c-.53.63-1.07,1.24-1.63,1.83a1.71,1.71,0,0,0-.54.53l-1,1a8,8,0,0,0-.1-4.23,19.82,19.82,0,0,1-.76-5.07c-.18,0-4.14,5.51-.88,10.54l.14.13c-.64.53-1.31,1-2,1.49a1.54,1.54,0,0,0-.94.63C123.75,102.12,115.68,107,114,109.66Zm10.06-99.9s-.09,0-.18.13a3.67,3.67,0,0,1-2.47,1,4.76,4.76,0,0,0,2.29-1.35Zm5.1,3.72s-.09,0-.17.1a3.62,3.62,0,0,1-2.65.6,4.59,4.59,0,0,0,2.48-1Zm4.75,4.86a3.65,3.65,0,0,1-2.61.36,4.92,4.92,0,0,0,2.34-.66ZM147.8,60.91c0-.18,0-.36,0-.55,1.11-.26,2.49-2.08,2.49-2.08a6.06,6.06,0,0,1-2.36,2.57Zm-.91,9.19c0-.17.05-.34.08-.51A7,7,0,0,0,149.31,68,5.76,5.76,0,0,1,146.89,70.1Zm-2.13,8.75c.06-.19.12-.37.17-.56a5.8,5.8,0,0,0,2.8-1.37,5.11,5.11,0,0,1-2.82,1.9A.28.28,0,0,0,144.76,78.85Zm-3,7.44.23-.46a6,6,0,0,0,2.61-.72A4.58,4.58,0,0,1,141.76,86.29ZM138,92.61l.24-.36a6.42,6.42,0,0,0,2.26,0A4.32,4.32,0,0,1,138,92.61ZM133.51,98l.3-.29a7,7,0,0,0,2.54.52A4.58,4.58,0,0,1,133.51,98Zm-3.13.65a1.76,1.76,0,0,0-.06-.25,13.24,13.24,0,0,1-.16-4.87,15.54,15.54,0,0,0,.53,4.86Zm-2.63,4,.45-.29a8.22,8.22,0,0,0,2.71,1.14A5.17,5.17,0,0,1,127.75,102.6Zm-3.62-1.27a12.74,12.74,0,0,1,.85-4.94s-.88,3.84-.26,5.61c.29.84,2.29-1.84,1.92-5.27a20.27,20.27,0,0,1,.28-5.4,8.43,8.43,0,0,0-3.12,10.15S124.21,102.3,124.13,101.33ZM144,54.08s1.55,2.7,2.68,2.86c.52.07,0-3.29-1.89-4.47a10.62,10.62,0,0,1-2.61-2.76c-.09.19-.2,7.48,3.94,8,0,0,.57-.06,0-.42A8.17,8.17,0,0,1,144,54.08ZM140.41,18a16.64,16.64,0,0,1-.51,4.26c-.75,2.48.46,5.32.8,4.79.71-1.11.51-4.38.51-4.38a11.14,11.14,0,0,1,0,4.15c-.19.71.24.24.24.24C144.09,23,140.57,18,140.41,18Zm-2.79,2.79c2-4.81-2.16-8.64-2.32-8.64a16.3,16.3,0,0,1,.13,4.37c-.35,2.69,1.23,5.11,1.48,4.49.52-1.32-.14-4.49-.14-4.49a11.24,11.24,0,0,1,.59,4.1C137.27,21.36,137.62,20.77,137.62,20.77Zm-5.29-6.3c1.81-4.75-2.26-8.29-2.41-8.28a17,17,0,0,1,.21,4.24c-.29,2.62,1.29,4.9,1.52,4.29.48-1.31-.24-4.35-.24-4.35a10.76,10.76,0,0,1,.66,4C132,15.06,132.33,14.47,132.33,14.47Zm-5.13-4.15a7.2,7.2,0,0,0-2.59-8,16.06,16.06,0,0,1,.33,4.15c-.21,2.59,1.4,4.74,1.6,4.12.44-1.31-.35-4.26-.35-4.26a10.5,10.5,0,0,1,.76,3.84C126.91,10.92,127.2,10.32,127.2,10.32ZM123.27,7A6.1,6.1,0,0,0,119.85,0a15.16,15.16,0,0,1,.82,3.87c.13,2.53,1.9,4.16,2,3.52.24-1.37-.85-4-.85-4A9.27,9.27,0,0,1,123,6.88C123.06,7.59,123.27,7,123.27,7Z"/><path class="cls-2" d="M47.67,22.26c0-.08,0-.21-.13-.21s-.26.21-.32.28-.37.53-.64.53-1.47-.62-1.47-1c0-.09.13-.19.19-.27a11,11,0,0,0,2.1-3.16c.06-.14.09-.24.26-.24s1.51.28,1.74.34c.4.11.4.15.4.24s-.25.26-.39.29-.27.1-.27.27.12.19.26.19H56c.55,0,1.12,0,1.68,0,.34,0,.39.14.39.56V21c0,.42,0,.56-.38.56l-.49,0a.39.39,0,0,0-.44.42v.71c0,.28.23.39.47.39l1,0c.38,0,.41.16.41.58v.78c0,.47,0,.62-.44.62s-.67,0-1,0a.42.42,0,0,0-.45.4v.75a.42.42,0,0,0,.45.42c.26,0,.5,0,.74,0s.42.18.42.63v.77c0,.46,0,.64-.44.64h-.51c-.12,0-.3,0-.3.18s.15.27.21.36c.35.4.77,1,1.08,1.41.09.12.27.33.27.48,0,.36-1.12,1-1.48,1s-.36-.24-.47-.4a13.91,13.91,0,0,0-1.42-1.91c-.06-.06-.18-.16-.18-.25s.54-.57.7-.65.2-.09.2-.15-.14-.1-.2-.1H48c-.05,0-.18,0-.18.1s.73.39.85.44.26.12.26.27-.17.19-.26.21a.34.34,0,0,0-.24.24,14.65,14.65,0,0,1-1.06,1.78c-.3.42-.33.48-.54.48-.42,0-1.58-.66-1.58-1a.43.43,0,0,1,.12-.23,17.56,17.56,0,0,0,1.28-2,.28.28,0,0,0,.06-.15c0-.08,0-.15-.17-.15h-.24c-.64,0-.64,0-.64-1V27.1c0-.45,0-.63.43-.63s.75,0,1.13,0a.41.41,0,0,0,.43-.4v-.77a.43.43,0,0,0-.46-.42c-.48,0-1,.05-1.44.05s-.39-.18-.39-.62v-.7c0-.45,0-.66.39-.66s1,0,1.47,0a.42.42,0,0,0,.43-.42ZM50.3,28.8a3.79,3.79,0,0,1,.58-.05c.45,0,.51.11.66.93a11.36,11.36,0,0,1,.23,1.58c0,.28-.21.36-.48.42a8.08,8.08,0,0,1-1.31.15c-.36,0-.39-.17-.4-.47a13.28,13.28,0,0,0-.24-2,.44.44,0,0,1,0-.15C49.31,29,49.74,28.9,50.3,28.8Zm-.56-7.34a.24.24,0,0,0-.24.24v1.08a.24.24,0,0,0,.24.24h.11a.24.24,0,0,0,.24-.24V21.7a.26.26,0,0,0-.24-.24Zm.11,5.06a.26.26,0,0,0,.24-.24V25.15a.26.26,0,0,0-.24-.24h-.11a.25.25,0,0,0-.24.24v1.13a.25.25,0,0,0,.24.24Zm2.31-5.06a.24.24,0,0,0-.24.24v1.08a.23.23,0,0,0,.24.24h.09a.24.24,0,0,0,.24-.24V21.7a.24.24,0,0,0-.24-.24Zm.09,5.06a.25.25,0,0,0,.24-.24V25.15a.25.25,0,0,0-.24-.24h-.09a.24.24,0,0,0-.24.24v1.13a.25.25,0,0,0,.24.24ZM53,28.77a8.85,8.85,0,0,1,.88-.12c.42,0,.48.28.86,1.69a6.65,6.65,0,0,1,.21.92c0,.22-.29.36-.89.43-.25,0-.73.11-1,.11s-.32-.21-.38-.75a10.09,10.09,0,0,0-.36-1.73,1.43,1.43,0,0,1,0-.22c0-.18.31-.26.57-.3Zm1.54-7.31a.24.24,0,0,0-.24.24v1.08a.24.24,0,0,0,.24.24h.11a.24.24,0,0,0,.24-.24V21.7a.26.26,0,0,0-.24-.24Zm.11,5.06a.25.25,0,0,0,.24-.24V25.15a.25.25,0,0,0-.24-.24h-.11a.25.25,0,0,0-.24.24v1.13a.27.27,0,0,0,.24.24Z"/><path class="cls-2" d="M70.23,26.07c.23-.05.29-.17.29-.38V20.17a11.84,11.84,0,0,0,0-1.38.71.71,0,0,1,0-.15c0-.19.15-.21.3-.21.48,0,1.12,0,1.62.06.15,0,.48,0,.48.23s-.08.13-.15.21a.5.5,0,0,0-.12.37c0,.17,0,.45,0,.75v5.27c0,.22.09.24.17.24a3.21,3.21,0,0,0,.52-.11l.2,0c.28,0,.36.33.43,1l0,.39c0,.1,0,.3,0,.39,0,.36-.21.37-.76.45-.27,0-.65.06-.65.4v1.08c0,.83.05,1.65.05,2.48,0,.36-.15.4-.6.4h-.93c-.45,0-.62,0-.62-.4,0-.83,0-1.65,0-2.48v-.54a.32.32,0,0,0-.36-.37H70l-2.14.44c-.2,0-1,.25-1.14.25-.3,0-.39-.52-.44-.75,0-.07-.06-.25-.16-.25s-.21.15-.27.19a.56.56,0,0,1-.33.17c-.21,0-.53-.56-.65-.74s-.13-.22-.22-.22-.08.09-.08.13v2c0,.71,0,1.41,0,2.13,0,.33-.17.36-.6.36h-.87c-.44,0-.59,0-.59-.36,0-.7,0-1.42,0-2.13V29s0-.09,0-.09-.11.12-.15.22c-.14.26-.56,1.1-.87,1.1s-.74-.42-.93-.59-.56-.43-.56-.69.09-.22.18-.31a11.25,11.25,0,0,0,1.62-2.73,4.31,4.31,0,0,0,.33-1c0-.15-.18-.16-.34-.16-.36,0-.74,0-1.08,0s-.38-.18-.38-.64v-.87c0-.45,0-.62.39-.62s.77.05,1.28.05h.15a.39.39,0,0,0,.4-.44V19.21c0-.12,0-.31,0-.42s.05-.34.26-.34,1.32.07,1.6.1.51,0,.51.15-.1.15-.19.24a.56.56,0,0,0-.15.41c0,.43,0,.87,0,1.3v1.71c0,.29.29.41.53.41s.72-.05,1-.05.39.15.39.57v1c0,.41,0,.57-.38.57s-.46,0-.69,0c-.07,0-.24,0-.24.11a5.43,5.43,0,0,0,.92,1.27l.13.17c.15.18.26.33.53.33a4.24,4.24,0,0,0,.58-.08Zm-8.82-6.84c.32,0,.44.39.69,1.42A13.56,13.56,0,0,1,62.36,22c0,.39-1,.63-1.26.63s-.29-.24-.33-.48a15.41,15.41,0,0,0-.59-2.34.49.49,0,0,1,0-.14C60.15,19.39,61.17,19.23,61.41,19.23Zm5.63.31c.15.05.48.12.48.32s-.11.16-.21.19-.2.11-.26.33a16.14,16.14,0,0,1-.58,1.91c-.06.16-.14.31-.32.31s-1.29-.25-1.29-.54a6,6,0,0,1,.17-.58,11.67,11.67,0,0,0,.49-2c0-.14,0-.27.21-.27S66.86,19.5,67,19.54ZM68.3,22.9a8.94,8.94,0,0,1,1.41,1.73,2.68,2.68,0,0,1-1.34,1.15.23.23,0,0,1-.19-.15,19.09,19.09,0,0,0-1.29-1.5c-.08-.06-.17-.12-.17-.22A2.52,2.52,0,0,1,68,22.71C68.16,22.71,68.18,22.78,68.3,22.9ZM69,19.57a9,9,0,0,1,1.38,1.7A2.39,2.39,0,0,1,69,22.35c-.07,0-.12-.06-.16-.12a16.07,16.07,0,0,0-1.32-1.5c-.08-.06-.17-.14-.17-.23a2.55,2.55,0,0,1,1.34-1.14C68.84,19.36,68.87,19.44,69,19.57Z"/><path class="cls-2" d="M86.09,20l1.66,0c.39,0,.42.18.42.63v.57c0,.44,0,.63-.42.63s-1,0-1.47,0h-.43a.35.35,0,0,0-.36.36v.12a.36.36,0,0,0,.36.36h.75c.54,0,1.06,0,1.6,0,.39,0,.42.17.42.65v.63c0,.48,0,.63-.42.63l-.63,0a.23.23,0,0,0-.25.15l-.14.14a.42.42,0,0,0-.12.27.43.43,0,0,0,.42.4H88c.42,0,.43.15.43.72v.6c0,.45,0,.66-.37.66l-.57,0c-.21,0-.45.14-.45.54v1.83c0,1.89-.54,2.19-2.6,2.19-.64,0-.81-.09-1-.57a4.51,4.51,0,0,1-.16-1c0-.12,0-.24-.18-.24a.51.51,0,0,0-.24.1,1.07,1.07,0,0,1-.53.2c-.16,0-.25-.12-.54-.54-.16-.24-.4-.59-.75-1.05a.66.66,0,0,1-.19-.38c0-.28.55-.69.78-.85a.18.18,0,0,0,.09-.12c0-.06-.06-.08-.11-.08l-.54,0c-.28,0-.36-.23-.36-.48s-.06-.47-.21-.47-.22.08-.39.14a.89.89,0,0,0-.48.93V29.4c0,.72,0,1.42,0,2.13,0,.34-.15.39-.59.39h-1c-.45,0-.6-.05-.6-.39,0-.71.05-1.41.05-2.13V28.15c0-.15-.05-.31-.24-.31a1.84,1.84,0,0,0-.44.13c-.27.12-.46.2-.55.45s-.09.26-.24.26-.26-.27-.41-.9c-.06-.24-.12-.53-.21-.87a3.41,3.41,0,0,1-.1-.54c0-.24.15-.26.7-.41,1.34-.34,1.49-.43,1.49-1V23.17a.19.19,0,0,0-.2-.19h-.06a.2.2,0,0,0-.22.22v0c0,.14,0,.9-.08,1s-.28.29-.51.29-1.33-.12-1.33-.51a3,3,0,0,1,.07-.5,21.81,21.81,0,0,0,.27-3.34c0-.29,0-.47.26-.47.13,0,1,.12,1.15.14s.54.06.54.25a.31.31,0,0,1-.13.24c-.14.09-.17.12-.17.51a.18.18,0,0,0,.2.18.2.2,0,0,0,.21-.21v-.94c0-.38,0-.74-.05-1.05,0-.05,0-.09,0-.14s.16-.19.3-.19,1.33.06,1.77.09.42,0,.42.18-.06.15-.15.24a1.55,1.55,0,0,0-.14.85v.75a.42.42,0,0,0,.42.41l.36,0c.33,0,.38.14.38.45v.8c0,.34.34.37,1,.37H83a.36.36,0,0,0,.36-.36v-.1a.35.35,0,0,0-.36-.38h-.15c-.41,0-.83,0-1.25,0s-.42-.18-.42-.61v-.59c0-.46,0-.63.45-.63s.86,0,1.29,0a.4.4,0,0,0,.44-.4c0-.2,0-.59,0-.77s0-.1,0-.15.13-.22.3-.22c.55,0,1.23,0,1.8.07.31,0,.42,0,.42.18s-.08.17-.15.26a.84.84,0,0,0-.15.6C85.49,19.75,85.53,20,86.09,20Zm-6.41,4.17c0,.14,0,.35.2.35a.38.38,0,0,0,.15-.05c.09,0,.18-.09.27-.12s.16-.1.16-.22,0-.48,0-.72v-.08a.36.36,0,0,0-.36-.34.38.38,0,0,0-.41.4Zm2.78.27c-1.44,0-1.68,0-1.68.21a1.42,1.42,0,0,0,0,.2,1.07,1.07,0,0,1,.09.34c0,.23.15.23.35.23.45,0,1,0,1.51,0h1.7a.46.46,0,0,0,.51-.42c0-.32-.11-.59-.47-.59ZM85,27.79a.43.43,0,0,0-.42-.42H83c-.15,0-.33,0-.33.2a.5.5,0,0,0,.14.27,5,5,0,0,1,.93,1.48.22.22,0,0,1,0,.11s0,.13,0,.15c0,.21.24.21.31.22a4.19,4.19,0,0,0,.5,0c.39,0,.46-.07.46-.73Z"/><path class="cls-2" d="M100.1,28.57c-.17,0-.24,0-.24.09s.09.11.15.15a14.08,14.08,0,0,0,3.52,1.46c.11,0,.32.09.32.22a2.89,2.89,0,0,1-.72,1.17.64.64,0,0,1-.51.3,4.41,4.41,0,0,1-.81-.25,16.29,16.29,0,0,1-2.37-1.08c-.23-.14-1.47-.87-1.47-1.1s.48-.55.58-.64a.27.27,0,0,0,.11-.2c0-.09-.08-.12-.27-.12H95.51c-.15,0-.29,0-.29.14a5.47,5.47,0,0,0,.68.69c.21.16.33.25.33.4S96.11,30,96,30h-.11l-.15,0a.54.54,0,0,0-.27.14A18.6,18.6,0,0,1,92,31.74a2.94,2.94,0,0,1-.72.19c-.28,0-.52-.33-.73-.61a3.3,3.3,0,0,1-.5-.89c0-.16.18-.19.32-.22a13.44,13.44,0,0,0,2.67-.87c.16-.08,1.12-.54,1.12-.68s-.15-.09-.25-.09H92.67c-.66,0-1.32.05-2,.05-.34,0-.37-.18-.37-.56v-.81c0-.46,0-.63.37-.63l.54,0a.46.46,0,0,0,.44-.5V22.36c0-.51,0-1,0-1.51s.29-.8.86-.8.91,0,1.38,0H94c.31,0,.46-.16.46-.48s0-.66,0-1,.08-.25.26-.25l1.9.1c.12,0,.27.06.27.21s-.1.15-.19.24-.17.32-.17.71a.42.42,0,0,0,.47.46H97c.32,0,.47-.15.47-.46s0-.68,0-1,.06-.25.24-.25l1.92.1c.11,0,.26.06.26.21s-.09.15-.18.24-.17.39-.17.78c0,.14.09.39.47.39h.19l1.29,0c.48,0,.86.09.86.8,0,.51,0,1,0,1.51v3.8a.43.43,0,0,0,.42.48l.51,0c.36,0,.39.14.39.62v.82c0,.39,0,.56-.38.56-.66,0-1.32-.05-2-.05Zm-6.36-5.5a.36.36,0,0,0,.36.36h.22a.36.36,0,0,0,.36-.36v-.65a.36.36,0,0,0-.36-.36H94.1a.36.36,0,0,0-.36.36Zm0,3.22a.36.36,0,0,0,.36.36h.22a.36.36,0,0,0,.36-.36v-.66a.36.36,0,0,0-.36-.36H94.1a.35.35,0,0,0-.36.36Zm3.75-3.81a.44.44,0,0,0-.42-.42H96.9a.44.44,0,0,0-.42.42V23a.44.44,0,0,0,.42.42h.17a.41.41,0,0,0,.42-.42Zm0,3.21a.44.44,0,0,0-.42-.42H96.9a.44.44,0,0,0-.42.42v.54a.42.42,0,0,0,.42.42h.17a.4.4,0,0,0,.42-.42Zm2.71-3.27a.36.36,0,0,0-.36-.36h-.19a.36.36,0,0,0-.36.36v.65a.36.36,0,0,0,.36.36h.19a.36.36,0,0,0,.36-.36Zm0,3.21a.36.36,0,0,0-.36-.36h-.19a.36.36,0,0,0-.36.36v.66a.36.36,0,0,0,.36.36h.19a.35.35,0,0,0,.36-.36Z"/><path class="cls-3" d="M30.44,71.78c-1.28,5-3.49,7.87-7.24,9.58a16.29,16.29,0,0,1-3.59,1.2c-.87,0-1.28-1.41-1.65-2.62a10.24,10.24,0,0,1-.53-2.62c0-.67.5-.71.93-.75a8.41,8.41,0,0,0,6-3.62,8.18,8.18,0,0,0,1.15-3.08c0-.54-.31-.63-.75-.63H22.64c-1.31,0-2.62.09-4,.09-.68,0-.74-.46-.74-1.71V65.5c0-1.17.06-1.58.78-1.58,1.31,0,2.62.12,3.93.12H41.06c1.31,0,2.62-.12,3.93-.12.72,0,.78.45.78,1.79v1.91c0,1.25-.06,1.71-.75,1.71-1.34,0-2.65-.09-4-.09H37.91c-.5,0-.88.5-.88,1.17v4.41c0,1.21,0,1.75,1.22,1.75h1.84a.73.73,0,0,0,.69-.29c.34-.5.47-1.46.59-3.37.06-1,.19-1.54.94-1.54a5.63,5.63,0,0,1,2.28.62,1.77,1.77,0,0,1,1.21,1.83,21.67,21.67,0,0,1-1.31,6.54c-.68,1.54-1.34,1.79-2.87,1.79H36c-2.34,0-3.75-.29-3.75-4.37,0-1,.07-2.13.07-3.21V70.41c0-.67-.41-1.17-.88-1.17h-1c-.25,0-.37,0-.37.25s.12.25.31.29,1.06.25,1.06.8c0,.33-.4.54-.59.62S30.54,71.49,30.44,71.78Zm-6.3-17.86A1.08,1.08,0,0,0,23,55.09c0,.54.13,1.75.13,2,0,.92-.5,1-1.41,1h-2c-.91,0-1.38-.08-1.38-1,0-.5.1-1.5.1-2.25V52.72c0-1.13-.07-2.46-.07-2.75,0-1.46,1.35-1.46,2.13-1.46,1.22,0,2.4.09,3.59.09h4.21c.72,0,1-.59,1-1.17,0-.33-.06-1.25-.09-1.58,0-.13,0-.29,0-.42,0-.54.37-.58.68-.58.88,0,2.63.17,3.5.25s1.56.17,1.56.67c0,.29-.15.41-.34.62a1.76,1.76,0,0,0-.31,1.08,1.06,1.06,0,0,0,1.12,1.13h4.12c1.19,0,2.37-.09,3.59-.09.78,0,2.12,0,2.12,1.46,0,.21-.06,1.5-.06,2.75v2.45c0,.67.09,1.79.09,2.25,0,1-.49,1-1.49,1H42c-.91,0-1.44-.08-1.44-1,0-.5.12-1.37.12-2.37a1,1,0,0,0-1-1.13ZM36,56.76c1.13,0,2.22-.09,3.34-.09.78,0,.84.46.84,1.71v2c0,1.2-.09,1.62-.84,1.62-1.12,0-2.21-.08-3.34-.08H27.7c-1.13,0-2.25.08-3.37.08-.79,0-.85-.5-.85-1.79V58.42c0-1.33.1-1.75.88-1.75s2.18.09,2.74.09Z"/><path class="cls-3" d="M65.41,53.38c-.53,0-.88.5-.88,1.17V73c0,.63.38,1.17.88,1.17H71c1.41,0,2.81-.13,4.22-.13.81,0,.87.46.87,1.83v2.42c0,1.37-.06,1.83-.84,1.83-1.44,0-2.84-.08-4.25-.08H53.23c-1.43,0-2.84.08-4.24.08-.82,0-.88-.5-.88-1.83V75.94c0-1.37.06-1.87.91-1.87,1.4,0,2.81.13,4.21.13h5.46c.47,0,.88-.54.88-1.17V54.55c0-.63-.41-1.17-.88-1.17H54.54c-1.28,0-2.59.13-3.9.13-.84,0-.94-.46-.94-1.79v-2.5c0-1.41.07-1.91.94-1.91,1.31,0,2.62.12,3.9.12H69.59c1.28,0,2.59-.12,3.9-.12.85,0,.94.41.94,1.74v2.54c0,1.46-.06,1.92-.94,1.92-1.31,0-2.62-.13-3.9-.13Z"/><path class="cls-3" d="M98.65,76.57c0,1.5.1,3,.1,4.58,0,1.25-.38,1.37-1.47,1.37H95.53c-1,0-1.37-.12-1.37-1.37,0-1.46.09-3,.09-4.58V74.49c0-.42,0-.88-.25-.88s-.47.5-.62.71c-.63,1.08-3.81,5.75-4.65,5.75-.66,0-1.28-1-1.72-1.63a4.85,4.85,0,0,1-1-2.08,1.59,1.59,0,0,1,.65-1.12c.78-.84,4.75-5.37,4.75-6.45,0-.46-.41-.46-.63-.46h-.21c-1,0-1.94.08-2.91.08s-1-.37-1-1.66v-2c0-1.29.1-1.67,1-1.67s1.94.08,2.91.08h2.65c.56,0,1-.33,1-1.16,0-2.29-.19-2.33-.5-2.33h-.56c-.28,0-.34,0-.38.25-.15.75-.28.75-2.06.75h-.78c-1.09,0-1.37-.09-1.37-1,0-1.54.06-3,.06-4.58V51.39c0-2.13,0-3-.34-3s-.38.5-.47.79c-.75,2.08-1.44,4.2-2.25,6.2a3.43,3.43,0,0,0-.28,1,.64.64,0,0,0,.5.66c.19,0,.53.13.53.55,0,.24-.12.33-.31.58s-.31.66-.31,2.37V75.65c0,1.92.09,3.83.09,5.79,0,1-.34,1.12-1.4,1.12H82.48c-1,0-1.37-.08-1.37-1.12,0-2,.09-3.87.09-5.79V65.91c0-.37,0-.75-.25-.75s-.25.17-.31.25-.28.34-.5.34c-.75,0-2.5-4-2.5-5a3.92,3.92,0,0,1,.75-1.7A47.59,47.59,0,0,0,83.64,46c.12-.54.25-1.29.78-1.29a1.56,1.56,0,0,1,.56.13,30.12,30.12,0,0,0,3.62,1.5,2.42,2.42,0,0,0,.53-.13,2.06,2.06,0,0,1,1.19-.25c.93,0,1.84.09,2.75.09h7c.91,0,1.84-.09,2.75-.09s1.75.25,1.75,2c0,1.21,0,2.46,0,3.66V55c0,1.54.07,3,.07,4.58,0,.95-.28,1-1.63,1h-1c-1.28,0-1.53-.09-1.65-.67-.06-.33-.19-.33-.44-.33h-.16c-.12,0-.34,0-.34.16s.13.21.13.46a.8.8,0,0,1-.32.59,1.52,1.52,0,0,0-.46,1.08c0,.87.46,1.2,1.06,1.2h2.56c1,0,2-.08,2.81-.08s1,.38,1,1.71v2c0,1.25-.06,1.71-1,1.71s-1.88-.08-2.81-.08H102c-.19,0-.54,0-.54.46A3.15,3.15,0,0,0,102,70a1.38,1.38,0,0,1,.15.25,31.47,31.47,0,0,0,4.28,5.58,1,1,0,0,1,.31.71c0,1.08-1.81,3.45-2.87,3.45-.56,0-.94-.58-2-2.08a33.66,33.66,0,0,1-2.56-4.08c-.12-.21-.25-.46-.44-.46s-.25.42-.25.84Zm.85-21.94c.5,0,.87-.54.87-1.16V52.09c0-.62-.37-1.16-.87-1.16H93.56c-.46,0-.87.54-.87,1.16v1.38c0,.62.44,1.16.87,1.16Z"/><path class="cls-3" d="M115.42,51.84c1,0,2-.08,3-.08s1,.33,1,1.46V55c0,1.16-.09,1.45-1,1.45s-2-.08-3-.08h-3c-1,0-2,.08-3,.08s-1-.25-1-1.29v-2c0-1,.13-1.33,1-1.33s2,.08,3,.08Zm-6.15,22.73c0-1.12-.07-2.2-.07-3.29,0-1.79.6-2.41,1.88-2.41.75,0,1.49.08,2.28.08h1.06c.75,0,1.5-.08,2.24-.08,1.32,0,1.88.62,1.88,2.41,0,1.09-.07,2.21-.07,3.29v3c0,1.37.1,2.75.1,4,0,1-.28,1.08-1.25,1.08h-1.44c-.78,0-1.15,0-1.15-1.08v-.29c0-.42-.25-.8-.56-.8h-.25c-.47,0-.6.5-.6,1,0,1-.37,1.13-1.15,1.13h-1.62c-1.07,0-1.35-.13-1.35-1.08,0-1.34.07-2.67.07-4Zm5.58-28.35c.91,0,1.72-.08,2.44-.08s1,.29,1,1.37v1.71c0,1.13-.1,1.42-1,1.42s-1.53-.09-2.41-.09h-1.71c-.91,0-1.69.09-2.47.09s-1-.21-1-1.17v-2c0-1.08.1-1.37,1-1.37s1.53.08,2.47.08Zm0,17c.88,0,1.72-.09,2.5-.09s1,.34,1,1.42v1.75c0,1.16-.1,1.45-1,1.45s-1.56-.08-2.47-.08H113.2c-.91,0-1.72.08-2.5.08s-1-.25-1-1.25v-2.2c0-.92.16-1.17,1-1.17s1.63.09,2.5.09Zm.06-5.58c.88,0,1.75-.08,2.44-.08.87,0,1,.33,1,1.45v1.83c0,.88-.16,1.21-.94,1.21s-1.56-.12-2.47-.12h-1.71c-.88,0-1.75.08-2.47.08s-.9-.25-.9-1.21v-2c0-1,.12-1.24.93-1.24s1.56.08,2.44.08Zm-1.65,17.65c0,.58.34,1,.75,1h.09c.41,0,.75-.42.75-1v-1c0-.54-.34-1-.75-1H114c-.41,0-.75.46-.75,1Zm12.52.7c.47,0,.87-.54.87-1.16V52.72c0-.63-.37-1.17-.84-1.17h-1c-1.21,0-2.4.13-3.62.13-1,0-1.06-.54-1.06-1.88V48.06c0-1.42.09-1.88,1.12-1.88,1.19,0,2.38.09,3.56.09h6.09c1.19,0,2.34-.09,3.53-.09,1,0,1.15.42,1.15,1.58v2c0,1.34-.09,1.88-1.06,1.88s-1.78-.09-2.68-.09a1,1,0,0,0-1,1.09v6.78c0,.67.37,1.17.87,1.17.85,0,1.69-.09,2.53-.09.56,0,.63.42.63,1.5v2.08c0,1.21-.07,1.63-.63,1.63-.81,0-1.65-.09-2.46-.09a1,1,0,0,0-.94,1.17v8c0,1,.59,1.16,1.19,1.16,1.15,0,2.28-.12,3.4-.12.9,0,1,.46,1,1.92v2.12c0,1.12-.13,1.62-.88,1.62-1.18,0-2.37-.12-3.53-.12H123.6c-1.19,0-2.35.12-3.5.12-.84,0-.91-.5-.91-2v-2c0-1.12.1-1.5.75-1.58a.64.64,0,0,0,.44-.67V60.67c0-.5-.09-1.46-.09-2s.25-.54.56-.54,2.56.25,3,.29c.68.08,1.21.08,1.21.58,0,.29-.15.38-.31.58a3.87,3.87,0,0,0-.31,2.13V74.78c0,.62.34,1.16.87,1.16Z"/></g></g></svg>