<svg xmlns="http://www.w3.org/2000/svg" width="152.32" height="111.1" viewBox="0 0 152.32 111.1"><defs><style>.cls-1{fill:#ab8c36;}.cls-2{fill:#545454;}.cls-3{fill:#ed1c24;}</style></defs><g id="レイヤー_2" data-name="レイヤー 2"><g id="レイヤー_1-2" data-name="レイヤー 1"><path class="cls-1" d="M25.12,99.91a1.54,1.54,0,0,0-.94-.63c-.67-.47-1.33-1-2-1.49l.14-.13c3.26-5-.69-10.5-.88-10.54a20,20,0,0,1-.75,5.07,7.85,7.85,0,0,0-.1,4.23c-.36-.33-.7-.67-1.05-1a1.66,1.66,0,0,0-.53-.53c-.56-.59-1.11-1.2-1.64-1.83,0,0,.05,0,.07-.06.85-1.37.69-5,.69-5A13.11,13.11,0,0,1,18,92.72c-.25.84.26.26.26.26,3.17-5-.74-10.28-.92-10.31a19,19,0,0,1-.71,5,7.33,7.33,0,0,0,.1,4.63c-.46-.57-.91-1.15-1.35-1.76.11-.31-.28-.93-.93-1.36-.51-.76-1-1.53-1.47-2.34,1-1.12,1.49-4.39,1.49-4.39a12.33,12.33,0,0,1-1,4.46c-.39.7.19.34.19.34,3.85-3.41,1.27-10,1.11-10.13a17.32,17.32,0,0,1-1.6,4.42,7.36,7.36,0,0,0-.84,4.1,52.56,52.56,0,0,1-2.61-5.56c1.08-.83,2-4.15,2-4.15a11.33,11.33,0,0,1-1.43,4.25c-.45.62.15.38.15.38,4.11-2.63,2.21-9.75,2.06-9.88a15.6,15.6,0,0,1-2,4.08,7.07,7.07,0,0,0-1.22,4.1,59.07,59.07,0,0,1-2-6.29c1.1-.66,2.19-3.65,2.19-3.65a10.19,10.19,0,0,1-1.72,3.85c-.48.52.12.41.12.41,4.14-1.82,2.92-9.05,2.79-9.21a13.47,13.47,0,0,1-2.24,3.6,6.28,6.28,0,0,0-1.49,3.51A66.17,66.17,0,0,1,5.8,64.29h0c1.14-.24,2.62-3.07,2.62-3.07a8.6,8.6,0,0,1-2.09,3.34c-.52.4.06.43.06.43,4.18-.78,3.82-8.14,3.72-8.32a11.2,11.2,0,0,1-2.55,3,5.53,5.53,0,0,0-1.91,3.49,68.62,68.62,0,0,1-.15-11.49c.11-1.58.28-3.13.49-4.66,1.1-.06,2.75-2.16,2.75-2.16a6.62,6.62,0,0,1-2.42,2.58c-.54.23,0,.43,0,.43,4,.5,4.72-6.65,4.65-6.85A8.4,8.4,0,0,1,8.2,43.08a3.81,3.81,0,0,0-1.83,1.76,64.29,64.29,0,0,1,1.49-6.68c1,.46,3.07-1,3.07-1a4.93,4.93,0,0,1-2.79,1.54c-.55,0-.08.41-.08.41,3.71,2.12,5.73-4.58,5.71-4.81a6.39,6.39,0,0,1-3.06.9,3,3,0,0,0-2.38,1.34,62.22,62.22,0,0,1,2.3-6.24c1,.54,2.92-.34,2.92-.34a4.18,4.18,0,0,1-2.81.88c-.53-.12-.12.38-.12.38,3.31,2.86,5.93-3.18,5.92-3.41a5.7,5.7,0,0,1-3,.21,2.43,2.43,0,0,0-2.13.54,57.84,57.84,0,0,1,2.87-5.35c1,.55,2.86-.17,2.86-.17a4,4,0,0,1-2.83.69c-.52-.16-.13.38-.13.38,3.2,3.09,6-2.77,6-3a5.36,5.36,0,0,1-3,0,2.19,2.19,0,0,0-1.62.09c.84-1.24,1.73-2.44,2.65-3.57,2.38,4,6-.39,6-.6a5.7,5.7,0,0,1-2.75-1.16,2.18,2.18,0,0,0-1.26-.52,38.67,38.67,0,0,1,2.92-2.82.84.84,0,0,0,.06.32c2.2,4.23,5.89.06,5.94-.15a5.77,5.77,0,0,1-2.66-1.3,2.21,2.21,0,0,0-1.24-.6,32.41,32.41,0,0,1,3-2,.85.85,0,0,0,0,.35c1.79,4.4,5.59,1,5.66.77a6,6,0,0,1-2.43-1.66,2.47,2.47,0,0,0-1-.73c.68-.34,1.37-.65,2.07-.94C35.43,7.51,37,2.42,37,2.23A5.39,5.39,0,0,1,34.33,3c-1.67-.07-2.91,2.26-2.5,2.48.87.48,2.69-.8,2.69-.8A4.29,4.29,0,0,1,32.12,6c-.47,0-.07.35-.07.35l.17.08a23.75,23.75,0,0,0-2.19,1c-.92-.1-1.7.4-1.54.77l0,0a35.93,35.93,0,0,0-3.91,2.61c-.83.13-1.44.7-1.27,1h0a40,40,0,0,0-3.73,3.55c-.88.18-1.52.81-1.33,1.13a1.43,1.43,0,0,0,.14.2,50.32,50.32,0,0,0-4,5.32,2.28,2.28,0,0,0-.4.62,58.51,58.51,0,0,0-4.86,9.73,6.78,6.78,0,0,0-.22-4,15.3,15.3,0,0,1-.89-4.22c-.16.07-3.35,5.79-.27,9.38,0,0,.49.39.23-.29A11.08,11.08,0,0,1,7.66,29s.08,3.35.91,4.34c.08.1.19,0,.3-.13A64.18,64.18,0,0,0,6.76,40a5.94,5.94,0,0,0-1-3.54,12.89,12.89,0,0,1-1.65-3.66c-.14.13-2.21,6.79,1.46,9,0,0,.54.18.16-.37a9.48,9.48,0,0,1-1.13-3.84s.69,3.15,1.68,3.77a.08.08,0,0,0,.1,0,70,70,0,0,0-1.37,7.86A4.94,4.94,0,0,0,3.9,46.77a11.44,11.44,0,0,1-2-3.38c-.13.16-1.68,7.24,2.26,8.8,0,0,.57.08.13-.4a8.72,8.72,0,0,1-1.48-3.66s.95,3,2,3.47c0,.31-.06.63-.08.94-.11,1.54-.16,3.06-.18,4.57A3.34,3.34,0,0,0,2.8,55.43a7.56,7.56,0,0,1-2.79-2c-.09.22.23,7.58,4.41,6.89a.54.54,0,0,0,.17-.09c.07,1.87.22,3.71.43,5.52A2.64,2.64,0,0,0,3.67,65c-2-.35-2.93-1.81-3-1.61s.79,7.47,4.91,6.26c.29,1.64.64,3.24,1,4.8a2.53,2.53,0,0,0-1.5-.6C3,73.76,2,72.39,1.94,72.6s1.33,7.65,5.58,5.67a1,1,0,0,0,.19-.19c.44,1.35.93,2.66,1.45,3.93A2.29,2.29,0,0,0,8,82c-2.12.44-3.29-.65-3.32-.43s2.18,7.11,6.17,4.23c.52,1,1.06,2,1.63,3a2.51,2.51,0,0,0-.73.27c-2.08,1.11-3.44.41-3.43.64s3,5.89,6.5,2.62c.57.79,1.17,1.54,1.79,2.27a3.25,3.25,0,0,0-.9.47c-2,1.55-3.46,1.12-3.44,1.35s3.81,5.48,7.05,1.08c.79.76,1.61,1.47,2.44,2.14a3.69,3.69,0,0,0-.82.62c-2,2-3.58,1.82-3.53,2s4.63,5.15,7.69-.37c3.45,2.07,12.55,9.22,12.55,9.22l.65-1.44C36.64,107,28.58,102.12,25.12,99.91Zm3.5-90.38a4.76,4.76,0,0,0,2.29,1.35,3.67,3.67,0,0,1-2.47-1c-.09-.09-.14-.13-.18-.13ZM23.5,13.19a4.61,4.61,0,0,0,2.49,1,3.62,3.62,0,0,1-2.65-.6c-.08-.07-.13-.1-.18-.1ZM18.68,18A4.94,4.94,0,0,0,21,18.7a3.62,3.62,0,0,1-2.6-.36ZM4.38,60.85A6.06,6.06,0,0,1,2,58.28S3.4,60.1,4.51,60.36c0,.19,0,.37,0,.55ZM3,68a7,7,0,0,0,2.33,1.64l.09.51A5.7,5.7,0,0,1,3,68Zm4.4,10.87a5.1,5.1,0,0,1-2.83-1.9,5.8,5.8,0,0,0,2.8,1.37l.18.56A.33.33,0,0,0,7.42,78.82Zm.3,6.29a6.1,6.1,0,0,0,2.62.72c.07.16.15.31.23.46A4.61,4.61,0,0,1,7.72,85.11Zm4.08,7.11a6.37,6.37,0,0,0,2.25,0l.25.36A4.32,4.32,0,0,1,11.8,92.22Zm4.18,6a7,7,0,0,0,2.53-.52l.3.29A4.55,4.55,0,0,1,16,98.22Zm5.65.16a15.65,15.65,0,0,0,.54-4.86A13.26,13.26,0,0,1,22,98.39a1.76,1.76,0,0,0-.06.25Zm-.22,5.07a8.22,8.22,0,0,0,2.71-1.14l.45.29A5.17,5.17,0,0,1,21.41,103.45Zm7.11-2A8.42,8.42,0,0,0,25.4,91.33a19.45,19.45,0,0,1,.29,5.4c-.37,3.43,1.63,6.11,1.92,5.27.61-1.77-.27-5.61-.27-5.61a12.74,12.74,0,0,1,.85,4.94C28.11,102.3,28.52,101.48,28.52,101.48ZM6.19,57.25c-.53.36,0,.42,0,.42,4.13-.48,4-7.77,3.93-8a10.62,10.62,0,0,1-2.61,2.76C5.69,53.65,5.15,57,5.68,56.94c1.12-.16,2.67-2.86,2.67-2.86A8.25,8.25,0,0,1,6.19,57.25ZM10.89,27s.43.47.23-.24a11.35,11.35,0,0,1,0-4.15s-.2,3.27.51,4.38c.34.53,1.55-2.31.8-4.79A16.64,16.64,0,0,1,11.91,18C11.75,18,8.23,23,10.89,27ZM15,20.6a11.46,11.46,0,0,1,.59-4.1s-.66,3.17-.14,4.49c.25.62,1.83-1.8,1.48-4.49A16.3,16.3,0,0,1,17,12.13c-.16,0-4.3,3.83-2.32,8.64C14.7,20.77,15.05,21.36,15,20.6Zm5.29-6.28a10.76,10.76,0,0,1,.66-4s-.71,3-.24,4.35c.23.61,1.81-1.67,1.52-4.29a16.66,16.66,0,0,1,.22-4.24c-.15,0-4.23,3.53-2.42,8.28C20,14.47,20.32,15.06,20.25,14.32Zm5.12-4.14a10.5,10.5,0,0,1,.76-3.84s-.78,2.95-.35,4.26c.2.62,1.81-1.53,1.6-4.12a16.06,16.06,0,0,1,.33-4.15,7.2,7.2,0,0,0-2.59,8S25.42,10.92,25.37,10.18Zm3.94-3.3A9.28,9.28,0,0,1,30.5,3.41s-1.1,2.61-.86,4c.11.64,1.89-1,2-3.52A15.16,15.16,0,0,1,32.47,0a6.09,6.09,0,0,0-3.41,7S29.26,7.59,29.31,6.88Z"/><path class="cls-1" d="M114,109.66l.65,1.44s9.1-7.15,12.56-9.22c3,5.52,7.63.64,7.69.37s-1.54,0-3.54-2a3.28,3.28,0,0,0-.82-.62c.84-.67,1.65-1.38,2.44-2.14,3.24,4.4,7-.82,7.05-1.08s-1.43.2-3.44-1.35a3.2,3.2,0,0,0-.89-.47c.61-.73,1.21-1.48,1.79-2.27,3.45,3.27,6.49-2.37,6.5-2.62s-1.36.47-3.44-.64a2.51,2.51,0,0,0-.73-.27c.58-1,1.12-2,1.63-3,4,2.88,6.2-4,6.17-4.23s-1.2.87-3.32.43a2.3,2.3,0,0,0-1.14.06c.52-1.27,1-2.58,1.45-3.93a1,1,0,0,0,.19.19c4.26,2,5.64-5.43,5.58-5.67s-1.07,1.16-3.19,1.23a2.53,2.53,0,0,0-1.5.6c.4-1.56.75-3.16,1-4.8,4.13,1.21,5-6,4.91-6.26a6.93,6.93,0,0,1-3,1.61,2.63,2.63,0,0,0-1.36.73c.21-1.81.36-3.65.43-5.52a.68.68,0,0,0,.17.09c4.18.69,4.5-6.67,4.41-6.89a7.35,7.35,0,0,1-2.78,2,3.35,3.35,0,0,0-1.76,1.68c0-1.51-.06-3-.17-4.57l-.09-.94c1.06-.5,2-3.47,2-3.47A8.87,8.87,0,0,1,148,51.79c-.43.48.13.4.13.4,3.94-1.56,2.39-8.64,2.26-8.8a11.17,11.17,0,0,1-2,3.38,4.92,4.92,0,0,0-1.14,2.44,70,70,0,0,0-1.38-7.86.08.08,0,0,0,.1,0c1-.62,1.69-3.77,1.69-3.77a9.65,9.65,0,0,1-1.14,3.84c-.38.55.16.37.16.37,3.68-2.22,1.6-8.88,1.46-9a12.55,12.55,0,0,1-1.65,3.66,5.93,5.93,0,0,0-1,3.54,66.64,66.64,0,0,0-2.11-6.72c.11.17.21.23.29.13.83-1,.91-4.34.91-4.34a11.27,11.27,0,0,1-.37,4.2c-.27.68.22.29.22.29,3.08-3.59-.1-9.31-.26-9.38a16.08,16.08,0,0,1-.9,4.22,6.86,6.86,0,0,0-.22,4,58.51,58.51,0,0,0-4.86-9.73,2.28,2.28,0,0,0-.4-.62,49,49,0,0,0-4-5.32,1.43,1.43,0,0,0,.14-.2c.19-.32-.45-.95-1.33-1.13A38.81,38.81,0,0,0,129,11.86h0c.17-.32-.44-.89-1.28-1a35.93,35.93,0,0,0-3.91-2.61l0,0c.15-.37-.62-.87-1.54-.77-.73-.37-1.46-.7-2.2-1l.17-.08s.4-.35-.07-.35a4.26,4.26,0,0,1-2.39-1.32s1.81,1.28,2.69.8c.41-.22-.84-2.55-2.51-2.48a5.44,5.44,0,0,1-2.62-.77c0,.19,1.52,5.28,4.35,4.36.7.29,1.4.6,2.08.94a2.49,2.49,0,0,0-1,.73,6.13,6.13,0,0,1-2.42,1.66c.06.19,3.87,3.63,5.65-.77a.85.85,0,0,0,0-.35,32.41,32.41,0,0,1,3,2,2.28,2.28,0,0,0-1.24.6,5.81,5.81,0,0,1-2.65,1.3c0,.21,3.73,4.38,5.94.15a1.11,1.11,0,0,0,.06-.32c1,.87,2,1.82,2.91,2.82a2.21,2.21,0,0,0-1.26.52,5.66,5.66,0,0,1-2.75,1.16c.05.21,3.64,4.62,6,.6.92,1.13,1.81,2.33,2.66,3.57a2.2,2.2,0,0,0-1.62-.09,5.41,5.41,0,0,1-3,0c0,.24,2.81,6.1,6,3,0,0,.39-.54-.13-.38a4,4,0,0,1-2.83-.69s1.88.72,2.86.17a53.42,53.42,0,0,1,2.87,5.35,2.41,2.41,0,0,0-2.13-.54,5.7,5.7,0,0,1-3-.21c0,.23,2.61,6.27,5.92,3.41,0,0,.41-.5-.12-.38a4.18,4.18,0,0,1-2.81-.88s1.94.88,2.92.34a59.86,59.86,0,0,1,2.3,6.24,3,3,0,0,0-2.38-1.34,6.26,6.26,0,0,1-3.05-.9c0,.23,2,6.93,5.7,4.81,0,0,.47-.41-.08-.41a4.93,4.93,0,0,1-2.79-1.54s2,1.43,3.07,1a64.3,64.3,0,0,1,1.5,6.68,3.83,3.83,0,0,0-1.84-1.76A8.68,8.68,0,0,1,141.31,41c-.07.2.64,7.35,4.65,6.85,0,0,.54-.2,0-.43a6.57,6.57,0,0,1-2.43-2.58s1.65,2.1,2.75,2.16c.21,1.53.38,3.08.49,4.66a67.58,67.58,0,0,1-.15,11.49,5.51,5.51,0,0,0-1.9-3.49,11.14,11.14,0,0,1-2.56-3c-.1.18-.46,7.54,3.72,8.32,0,0,.58,0,.07-.43a8.6,8.6,0,0,1-2.09-3.34s1.48,2.83,2.61,3.07h0a63.53,63.53,0,0,1-1.14,6.76,6.21,6.21,0,0,0-1.49-3.51,13.47,13.47,0,0,1-2.24-3.6c-.13.16-1.35,7.39,2.8,9.21,0,0,.59.11.11-.41a10.35,10.35,0,0,1-1.72-3.85s1.09,3,2.19,3.65a59.07,59.07,0,0,1-2,6.29,7.07,7.07,0,0,0-1.22-4.1,15.6,15.6,0,0,1-2-4.08c-.14.13-2.05,7.25,2.06,9.88,0,0,.6.24.15-.38a11.69,11.69,0,0,1-1.43-4.25s.88,3.32,2,4.15A52.56,52.56,0,0,1,140,85.61a7.36,7.36,0,0,0-.84-4.1,17.32,17.32,0,0,1-1.6-4.42c-.15.11-2.74,6.72,1.11,10.13,0,0,.58.36.2-.34a12.14,12.14,0,0,1-1-4.46s.53,3.27,1.49,4.39c-.47.81-1,1.58-1.46,2.34-.66.43-1.05,1-.94,1.36-.43.61-.89,1.19-1.34,1.76a7.47,7.47,0,0,0,.1-4.63,20,20,0,0,1-.72-5c-.18,0-4.09,5.35-.91,10.31,0,0,.5.58.26-.26a12.9,12.9,0,0,1-.14-4.77s-.15,3.67.7,5a.34.34,0,0,0,.06.06c-.53.63-1.07,1.24-1.63,1.83a1.71,1.71,0,0,0-.54.53l-1,1a8,8,0,0,0-.1-4.23,19.82,19.82,0,0,1-.76-5.07c-.18,0-4.14,5.51-.88,10.54l.14.13c-.64.53-1.31,1-2,1.49a1.54,1.54,0,0,0-.94.63C123.75,102.12,115.68,107,114,109.66Zm10.06-99.9s-.09,0-.18.13a3.67,3.67,0,0,1-2.47,1,4.76,4.76,0,0,0,2.29-1.35Zm5.1,3.72s-.09,0-.17.1a3.62,3.62,0,0,1-2.65.6,4.59,4.59,0,0,0,2.48-1Zm4.75,4.86a3.65,3.65,0,0,1-2.61.36,4.92,4.92,0,0,0,2.34-.66ZM147.8,60.91c0-.18,0-.36,0-.55,1.11-.26,2.49-2.08,2.49-2.08a6.06,6.06,0,0,1-2.36,2.57Zm-.91,9.19c0-.17.05-.34.08-.51A7,7,0,0,0,149.31,68,5.76,5.76,0,0,1,146.89,70.1Zm-2.13,8.75c.06-.19.12-.37.17-.56a5.8,5.8,0,0,0,2.8-1.37,5.11,5.11,0,0,1-2.82,1.9A.28.28,0,0,0,144.76,78.85Zm-3,7.44.23-.46a6,6,0,0,0,2.61-.72A4.58,4.58,0,0,1,141.76,86.29ZM138,92.61l.24-.36a6.42,6.42,0,0,0,2.26,0A4.32,4.32,0,0,1,138,92.61ZM133.51,98l.3-.29a7,7,0,0,0,2.54.52A4.58,4.58,0,0,1,133.51,98Zm-3.13.65a1.76,1.76,0,0,0-.06-.25,13.24,13.24,0,0,1-.16-4.87,15.54,15.54,0,0,0,.53,4.86Zm-2.63,4,.45-.29a8.22,8.22,0,0,0,2.71,1.14A5.17,5.17,0,0,1,127.75,102.6Zm-3.62-1.27a12.74,12.74,0,0,1,.85-4.94s-.88,3.84-.26,5.61c.29.84,2.29-1.84,1.92-5.27a20.27,20.27,0,0,1,.28-5.4,8.43,8.43,0,0,0-3.12,10.15S124.21,102.3,124.13,101.33ZM144,54.08s1.55,2.7,2.68,2.86c.52.07,0-3.29-1.89-4.47a10.62,10.62,0,0,1-2.61-2.76c-.09.19-.2,7.48,3.94,8,0,0,.57-.06,0-.42A8.17,8.17,0,0,1,144,54.08ZM140.41,18a16.64,16.64,0,0,1-.51,4.26c-.75,2.48.46,5.32.8,4.79.71-1.11.51-4.38.51-4.38a11.14,11.14,0,0,1,0,4.15c-.19.71.24.24.24.24C144.09,23,140.57,18,140.41,18Zm-2.79,2.79c2-4.81-2.16-8.64-2.32-8.64a16.3,16.3,0,0,1,.13,4.37c-.35,2.69,1.23,5.11,1.48,4.49.52-1.32-.14-4.49-.14-4.49a11.24,11.24,0,0,1,.59,4.1C137.27,21.36,137.62,20.77,137.62,20.77Zm-5.29-6.3c1.81-4.75-2.26-8.29-2.41-8.28a17,17,0,0,1,.21,4.24c-.29,2.62,1.29,4.9,1.52,4.29.48-1.31-.24-4.35-.24-4.35a10.76,10.76,0,0,1,.66,4C132,15.06,132.33,14.47,132.33,14.47Zm-5.13-4.15a7.2,7.2,0,0,0-2.59-8,16.06,16.06,0,0,1,.33,4.15c-.21,2.59,1.4,4.74,1.6,4.12.44-1.31-.35-4.26-.35-4.26a10.5,10.5,0,0,1,.76,3.84C126.91,10.92,127.2,10.32,127.2,10.32ZM123.27,7A6.1,6.1,0,0,0,119.85,0a15.16,15.16,0,0,1,.82,3.87c.13,2.53,1.9,4.16,2,3.52.24-1.37-.85-4-.85-4A9.27,9.27,0,0,1,123,6.88C123.06,7.59,123.27,7,123.27,7Z"/><path class="cls-2" d="M49.19,87.45c.08-.29.15-.57.2-.81s.06-.42.25-.42a17.84,17.84,0,0,1,2.22.81c.3.13.39.22.39.3s0,.09-.1.12a.9.9,0,0,0-.56.61,12.24,12.24,0,0,0-.91,4.26c0,.83,0,1.23.19,1.23s.18-.12.26-.24.18-.31.34-.31.78.51.78.73a9.63,9.63,0,0,0-.66,2.18c0,.1,0,.48.06.7a3.29,3.29,0,0,1,.05.44c0,.55-1.11,1-1.58,1-.28,0-.42-.2-.69-.74a10.84,10.84,0,0,1-1-4.81A18.6,18.6,0,0,1,49.19,87.45Zm4.29,6.43a2.35,2.35,0,0,0,2.1,1,12.23,12.23,0,0,0,3.29-.48,1.43,1.43,0,0,1,.36-.06c.19,0,.28.19.3.33a14.63,14.63,0,0,1,.07,1.56c0,.19,0,.3-.21.39a17.41,17.41,0,0,1-3.7.48c-2.42,0-3.48-1.2-3.48-1.55s.75-1.8,1.09-1.8C53.38,93.76,53.44,93.84,53.48,93.88Zm0-6.49a3.18,3.18,0,0,1,.47.06,10.9,10.9,0,0,0,2,.21,9.21,9.21,0,0,0,2.22-.3,1.33,1.33,0,0,1,.3,0c.28,0,.37.32.4.54a10.33,10.33,0,0,1,.09,1.23c0,.36,0,.47-.43.53a17.8,17.8,0,0,1-2.52.18,10.43,10.43,0,0,1-2.81-.32c-.12-.1-.12-.55-.12-.72C53,87.64,53.09,87.39,53.45,87.39Z"/><path class="cls-2" d="M63.1,89.74a10,10,0,0,1-.24-1.6c0-.47.21-.47,1-.51,2.21-.12,4.4-.33,6.6-.6,1.08-.14,2.28-.29,3.36-.48a.34.34,0,0,1,.14,0c.27,0,.34.26.39.5a13.37,13.37,0,0,1,.18,1.66c0,.29-.18.29-.8.3a6.35,6.35,0,0,0-2.16.27,4.65,4.65,0,0,0-3.09,4.38c0,1.43.74,1.82,2.06,1.82.39,0,.87,0,1.09,0s.38,0,.38.33a6.62,6.62,0,0,1-.26,1.76c-.13.31-.31.34-.63.34-2.79,0-5.11-.72-5.11-4a6.26,6.26,0,0,1,1.23-3.72.67.67,0,0,0,.15-.33c0-.13-.11-.22-.27-.22a7.87,7.87,0,0,0-.81.13c-.8.15-1.82.38-2.6.6a.83.83,0,0,1-.22,0C63.23,90.37,63.14,90,63.1,89.74Z"/><path class="cls-2" d="M80.6,90.93c-.07.1-.28.37-.28.49s.1.11.16.11.65,0,.65-.24A1.59,1.59,0,0,0,81,90.9a2,2,0,0,1-.08-.35c0-.31.9-.48,1.16-.48s.31.12.7,1.56a12.76,12.76,0,0,1,.33,1.58c0,.34-1.09.61-1.29.61s-.22-.1-.27-.33c0-.07,0-.19-.18-.19s-.22.15-.22.3V96c0,.78,0,1.56,0,2.34,0,.39-.15.42-.62.42h-.81c-.46,0-.58,0-.58-.44,0-.78,0-1.54,0-2.32V95c0-.09,0-.18-.12-.18s-.17.23-.18.44c0,.72-.14,1.75-.26,2.56-.06.38-.09.5-.3.5s-1.29-.23-1.29-.53c0-.1.18-1,.21-1.17.11-.75.17-1.5.23-2.25,0-.1,0-.25.19-.25a2.85,2.85,0,0,1,.39.06c.14,0,.84.18,1,.18s.18-.08.18-.21V93.9c0-.21-.08-.27-.27-.27s-.66,0-.78.06-.15,0-.21.16a.2.2,0,0,1-.18.11c-.17,0-.21-.09-.42-1a5,5,0,0,1-.15-.93c0-.27.09-.27.48-.27.54,0,.57-.14.82-.57a.66.66,0,0,0,.12-.32c0-.21-.21-.4-.36-.55a12.15,12.15,0,0,0-1.17-1.11A.28.28,0,0,1,77,89c0-.27.63-1.62.91-1.62.09,0,.17.09.23.09s.13-.07.24-.34.39-1,.58-1.59c.08-.23.09-.36.23-.36a12.38,12.38,0,0,1,1.65.61c.12.06.16.12.16.2s-.07.18-.19.19-.23,0-.29.17l-.81,1.72a3.06,3.06,0,0,0-.28.63.27.27,0,0,0,.24.27c.09,0,.15-.07.28-.33a15.14,15.14,0,0,0,.63-1.38c.06-.13.12-.3.27-.3a9.22,9.22,0,0,1,1.46.62c.24.1.46.18.46.33a.18.18,0,0,1-.19.19c-.15,0-.24,0-.3.15A27.44,27.44,0,0,1,80.6,90.93Zm2.27,3.94a14.9,14.9,0,0,1,.33,1.86c0,.38-.87.6-1.17.6s-.27-.19-.32-.54a18.77,18.77,0,0,0-.39-2.14,1.33,1.33,0,0,1,0-.21c0-.35.78-.47,1-.47S82.67,94.05,82.87,94.87Zm5.07-9.33,1.15,0c.9,0,1.22.15,1.22,1.1a13.57,13.57,0,0,1-.57,4c-.45.87-1.41.91-2.28.91-.72,0-1,0-1-1.36,0-.26,0-.69.28-.69.12,0,.3,0,.48,0,.35,0,.6,0,.72-.4a6,6,0,0,0,.17-1.4c0-.27-.06-.3-.3-.3h-.63c-.5,0-.53.32-.59.65A5.59,5.59,0,0,1,84,91.84c-.38,0-1.31-1-1.31-1.36,0-.09.08-.15.15-.2a4.78,4.78,0,0,0,1.56-1.89,3.63,3.63,0,0,0,.18-.76c0-.18-.15-.2-.37-.2s-.51,0-.77,0-.39-.15-.39-.64v-.71c0-.46,0-.6.41-.6s.85,0,1.35,0Zm-4.59,8.1c0-.42,0-.73,0-.93,0-.51.69-.51,1.05-.51s.91,0,1.38,0h2c.46,0,.91,0,1.38,0s1,0,1,.51c0,.21,0,.5,0,.93v3.65c0,.52,0,1,0,1.21s-.15.27-.66.27h-1c-.33,0-.48,0-.48-.27,0-.07,0-.13,0-.21a.43.43,0,0,0-.42-.43H85.88a.43.43,0,0,0-.43.43v.21c0,.24-.15.27-.47.27H84c-.48,0-.63,0-.63-.25s0-.8,0-1.23Zm2.07,2a.41.41,0,0,0,.42.42h1.75a.43.43,0,0,0,.42-.42V94.47a.42.42,0,0,0-.42-.42H85.84a.41.41,0,0,0-.42.42Z"/><path class="cls-2" d="M102.37,96.67c0,.57,0,1.14,0,1.71,0,.35-.16.39-.63.39h-1c-.44,0-.62,0-.62-.39,0-.54.05-1.12.05-1.71V91.51c0-.33,0-.67-.05-1,0-.05,0-.11,0-.15s.16-.2.31-.2l.78,0c.08,0,.18,0,.18-.12s-.09-.18-.16-.24a18.31,18.31,0,0,1-2.07-2.15c-.08-.09-.18-.21-.32-.21s-.25.14-.39.3a22.7,22.7,0,0,1-1.83,2,.39.39,0,0,0-.13.22c0,.18.21.2.75.23l.39,0c.45,0,.67,0,.67.25s0,.12-.16.18-.21.17-.21.48v1a7.83,7.83,0,0,1-1,4.32,6.51,6.51,0,0,1-1.83,1.94l-.28.18a.55.55,0,0,1-.32.12c-.66,0-1.5-1.22-1.5-1.52s.2-.27.33-.34a4.69,4.69,0,0,0,2.19-2.79,7.34,7.34,0,0,0,.21-1.92v-.9c0-.26,0-.41-.18-.41a.64.64,0,0,0-.33.2,6.67,6.67,0,0,1-1.69,1.15c-.57,0-1.38-1.36-1.38-1.57s.1-.2.21-.26c1.62-.91,4.56-3.51,5.38-5.16.08-.13.12-.19.27-.19s1.32.21,1.67.25c.63.09.87.14.87.38a.19.19,0,0,1-.09.18.19.19,0,0,0-.09.15,4.08,4.08,0,0,0,.61.78.25.25,0,0,1,.09.09,17.09,17.09,0,0,0,4.25,3.22c.3.15.49.24.49.42,0,.36-.93,1.59-1.39,1.59a5.69,5.69,0,0,1-1.62-1,.35.35,0,0,0-.2-.07c-.18,0-.19.21-.19.55Z"/><path class="cls-3" d="M36.86,42.89c-.67,0-.86.28-.92.88s-.54.58-1.36.58H32.67c-1.17,0-1.52-.07-1.52-.86,0-1.56.1-3.11.1-4.66V21.54c0-1.11-.1-2.26-.1-3.4,0-1.3.57-1.74,1.81-1.74,1.08,0,2.16.06,3.23.06H53.07c1.08,0,2.13-.06,3.2-.06s1.84.19,1.84,1.74c0,1.14-.06,2.29-.06,3.4V38.83c0,1.52.1,3.07.1,4.63,0,.79-.32.89-1.4.89h-2c-1.08,0-1.39-.07-1.46-.77-.06-.54-.38-.69-.85-.69Zm-1-5.08a.91.91,0,0,0,.88,1H52.5a.89.89,0,0,0,.89-.88V21.38a.89.89,0,0,0-.89-.89H36.76a.88.88,0,0,0-.88.89ZM47.49,25.22a.77.77,0,0,0-.76.76v.73a.35.35,0,0,0,.34.35h.48c1,0,2-.07,3-.07.73,0,.8.32.8,1.24V29.5c0,.44,0,.82-.35,1a.21.21,0,0,0-.16.22c0,.07,0,.13.12.26a8.44,8.44,0,0,1,1.34,2.09.9.9,0,0,1-.29.54c-.06.06-.13.13-.13.19s.07.16.26.19c.41.07.44.54.44,1.14v1.34c0,.82-.06,1.23-.76,1.23-1.08,0-2.19-.06-3.27-.06h-7.7c-1.12,0-2.19.06-3.3.06-.7,0-.77-.41-.77-1.27v-.73c0-1.42,0-1.74.83-1.74,1.08,0,2.16.06,3.24.06h.38a.91.91,0,0,0,1-1V31.5a.9.9,0,0,0-.89-1c-.86,0-1.71.07-2.57.07-.38,0-.79,0-.79-1.11V28.2c0-.89.09-1.21.82-1.21s1.72.07,2.6.07h.26c.41,0,.57-.26.57-.64v-.7a.54.54,0,0,0-.51-.5H41c-1.11,0-2.18.09-3.3.09-.66,0-.72-.38-.72-1.11V22.81c0-.86.06-1.21.79-1.21,1.08,0,2.16.06,3.23.06h7.33c1.11,0,2.22-.06,3.3-.06.7,0,.76.41.76,1.21v1.26c0,.86-.06,1.24-.76,1.24-1.11,0-2.19-.09-3.3-.09Zm-.42,5.29a.35.35,0,0,0-.34.35v2.38a.77.77,0,0,0,.76.76h.19a.38.38,0,0,0,.41-.38,5.31,5.31,0,0,0-.89-1.36.49.49,0,0,1-.19-.38c0-.32.73-.83,1-1s.16-.12.16-.22-.12-.16-.22-.16Z"/><path class="cls-3" d="M73.41,23.09c-.26,0-.73.06-.73.38s.44.54.66.7a.68.68,0,0,1,.38.57c0,.29-.41.32-.85.35s-.45.22-.64.48a27.1,27.1,0,0,1-6.18,5.2,2.24,2.24,0,0,1-1,.44c-.57,0-.89-.25-1.65-1-.41-.42-1.17-1.24-1.17-1.81,0-.42.38-.54.89-.8,1.2-.63,5.1-3.3,5.1-4.12,0-.25-.28-.35-.5-.35h-.29c-1.36,0-2.73.06-4.12.06-.83,0-.92-.25-.92-1.17V20.2c0-.95.06-1.2.92-1.2,1.36,0,2.76.06,4.12.06h5.43c.76,0,.92-.6.92-1.2a13.71,13.71,0,0,0-.1-1.59c0-.09,0-.22,0-.28,0-.48.41-.48.76-.48.76,0,3,.16,3.78.25l.31,0c.57,0,1.08.07,1.08.45,0,.16-.16.28-.41.47s-.32.58-.32,1.21.26,1.14.92,1.14h5.68c1.36,0,2.76-.06,4.12-.06.86,0,.92.28.92,1.24v1.65c0,1-.06,1.26-.92,1.26-1.36,0-2.76-.06-4.12-.06h-.54c-.25,0-.57.06-.57.38s.92,1.21,1.39,1.62a1.55,1.55,0,0,1,.23.19,24.92,24.92,0,0,0,4.25,2.79c.19.13.38.22.38.51,0,.79-1.81,3-2.89,3a11.83,11.83,0,0,1-2.88-1.74.88.88,0,0,0-.61-.32.7.7,0,0,0-.35.09,1.1,1.1,0,0,1-.47.16c-.45.07-.61.19-1,.95a24.16,24.16,0,0,1-1.93,2.73,2.31,2.31,0,0,0-.54,1c0,.47.7,1,1,1.23a28.17,28.17,0,0,0,8.63,4.22c.44.13,1,.23,1,.77a5.21,5.21,0,0,1-.82,1.8c-.42.67-1,1.68-2,1.68S82.16,41.68,81.08,41a30.55,30.55,0,0,1-3.2-2.18,2.78,2.78,0,0,0-1.52-.7,3.54,3.54,0,0,0-1.84.92,1.85,1.85,0,0,1-.29.22,34.56,34.56,0,0,1-6.12,3.49,16.63,16.63,0,0,1-3.78,1.3c-.6,0-1.08-.73-1.36-1.17a5.31,5.31,0,0,1-1-2.26c0-.41.26-.57.64-.66a35.81,35.81,0,0,0,7.52-3.11c.73-.41,2.72-1.49,2.72-2.38a2.34,2.34,0,0,0-.6-1.14c-.44-.54-2.82-3.75-2.82-4.19s.63-.79,2-1.62c1.08-.63,1.39-.82,1.71-.82s.38.16.63.63A23.55,23.55,0,0,0,75,29.47c.67,1,1,1.49,1.46,1.49.73,0,2.26-2.92,2.61-3.59.09-.22.19-.47.44-.47a12.39,12.39,0,0,1,2.19.92,1,1,0,0,0,.28.09c.13,0,.19,0,.19-.16a.68.68,0,0,0-.28-.41C81.5,27,79.5,25,79.5,24.52c0-.19.25-.38.38-.51s.6-.41.6-.67-.32-.25-.48-.25Z"/><path class="cls-3" d="M105.73,42.66a.65.65,0,0,0-.69.64c0,.06,0,.16,0,.22,0,.63-.26.7-1.3.7h-2c-.95,0-1.3-.07-1.3-.64s.09-1.61.09-2.57V33.88c0-.29,0-.8-.51-.8a2.13,2.13,0,0,0-.57.16,29.87,29.87,0,0,1-3.3.95c-.92,0-2.28-2.76-2.28-3.39s.76-.7,1.21-.83a56.45,56.45,0,0,0,10.24-3.33c.16-.06.35-.12.35-.28s-.16-.19-.28-.19h-.64c-1.36,0-1.84-.16-2.19-1.08a5,5,0,0,1-.35-1.9c0-1,.13-1.15,1.05-1.15h1.59c.92,0,1-.38,1-1.23v-3c0-.44-.1-1.2-.1-1.55s.38-.6.8-.6,3.2.19,3.68.25,1.17,0,1.17.44c0,.23-.29.38-.44.51-.51.38-.51.57-.51,1.59v1.71c0,.76.09,1.49.09,2.25,0,.22,0,.48,0,.57,0,.26.1.54.41.54s1.91-1.52,2.19-1.84c.13-.16.35-.44.57-.44a1.57,1.57,0,0,1,.7.44c.51.45,1.65,1.59,2.51,2.51a1,1,0,0,1,.35.63c0,.23-.26.38-.51.38s-.57-.09-.7-.09a6.17,6.17,0,0,0-1.39.86c-.64.41-1.91,1.27-2.57,1.65-.13.06-.32.22-.32.38s.35.31.51.31h2c1,0,2-.06,3.07-.06.77,0,1.59.06,1.59,1.05,0,.69-.06,1.46-.06,2.31v9.49c0,1,.06,1.9.06,2.57s-.35.63-1.4.63h-1.87c-1,0-1.36-.06-1.36-.66,0-.13,0-.23,0-.32a.64.64,0,0,0-.7-.64ZM103,18.21c1,.6,1.43.76,1.43,1s-.35.29-.54.32c-.54.06-.51.09-.89.57a37.12,37.12,0,0,1-4.7,4.92,2,2,0,0,1-1.2.6c-.92,0-3.27-1.59-3.27-2.44,0-.29.44-.54.7-.7a21.54,21.54,0,0,0,5.23-5.33c.13-.16.26-.32.48-.32A13.49,13.49,0,0,1,103,18.21ZM105,31.94a.41.41,0,0,0,.42.41H114a.39.39,0,0,0,.41-.41v-.09a.42.42,0,0,0-.41-.42h-8.56a.42.42,0,0,0-.42.42Zm0,3.62a.4.4,0,0,0,.42.38H114a.39.39,0,0,0,.41-.38v-.13A.42.42,0,0,0,114,35h-8.47c-.28,0-.48.09-.51.41Zm0,3.58a.4.4,0,0,0,.42.38H114a.39.39,0,0,0,.41-.38V39a.42.42,0,0,0-.41-.42h-8.56A.44.44,0,0,0,105,39Zm11.26-21.66a29.87,29.87,0,0,1,2.7,2.44c.57.57,2.92,2.95,2.92,3.65s-2.09,2.09-2.73,2.09a1.16,1.16,0,0,1-.86-.6,27.54,27.54,0,0,0-5-5.14c-.28-.26-.73-.57-.73-1,0-.61,2-2,2.61-2A1.53,1.53,0,0,1,116.23,17.48Z"/><path class="cls-3" d="M50.18,62c1.37,0,1.78,0,1.78-.41,0-.16-.1-.25-.19-.38A45.86,45.86,0,0,1,49,56.92c-.41-.67-.48-.79-1.27-.79h-.25c-1.05,0-2.1.06-3.14.06-.8,0-.86-.25-.86-1.17V53.08c0-1,.1-1.17.95-1.17,1,0,2,.06,3.05.06h1.2c.57,0,1.14,0,1.68,0a1.28,1.28,0,0,1,1.4,1c1.08,3.18,4.44,6.82,6.85,9,.26.22.64.6.64.89,0,.6-1.68,3-3,3A1.81,1.81,0,0,1,55,65.07c-.06-.06-.12-.16-.25-.16s-.28.23-.28.45a66.47,66.47,0,0,1-.73,9.36c-.29,1.52-.61,3.07-2,3.93a8.89,8.89,0,0,1-4.7,1c-2.54,0-2.79-.28-2.79-3.26,0-1.18.22-1.4,1.08-1.4.32,0,1.14.06,1.36.06,1.81,0,2.13-.15,2.41-1a29.9,29.9,0,0,0,.64-6.63c0-.89-.19-.89-1.75-.89H46.12c-.79,0-1.23.09-1.33.73a15.69,15.69,0,0,1-5,9.2c-.79.76-3.55,2.95-4.57,2.95s-3-2-3-3c0-.39.44-.61.82-.8a.84.84,0,0,1,.19-.12c2.48-1.37,5.3-3.59,6.41-6.25a10,10,0,0,0,.57-2.07c0-.47-.35-.63-.76-.63-.79,0-1.62.06-2.41.06s-.89-.22-.89-.92v-.41c0-.44,0-.7-.25-.7a.46.46,0,0,0-.38.26c-.41.44-1.24,1.36-1.87,1.36-.86,0-3.11-1.65-3.11-2.54,0-.31.35-.5.54-.7a25.39,25.39,0,0,0,4.91-6,26.36,26.36,0,0,0,2.22-4.79.46.46,0,0,1,.48-.39,20.21,20.21,0,0,1,2.92,1.56c.28.16,1.27.73,1.27,1s-.42.34-.64.34-.35.07-.54.54a32.27,32.27,0,0,1-3.3,6.06.71.71,0,0,0-.15.38c0,.38.5.38,2.41.38Z"/><path class="cls-3" d="M82.16,67.8c1.21-.29,1.46-.41,1.46-1.68V53.62c0-.67-.13-1.62-.13-2.25,0-.41.23-.48.7-.48.64,0,3.46.13,4.1.19.31,0,.76.16.76.57,0,.19-.1.29-.26.42a.81.81,0,0,0-.41.66c-.06.41-.06,2.92-.06,3.52v9c0,.6,0,.92.57.92a3.38,3.38,0,0,0,.54-.09,3.42,3.42,0,0,1,.63-.16c.7,0,1,2.25,1.11,2.95a6.31,6.31,0,0,1,.07.76c0,.47-.13.54-.58.63-1.9.38-2.34.45-2.34,1.87v1.08c0,1.81.09,3.65.09,5.49,0,.83-.35.92-1.36.92H84.86c-1,0-1.33-.09-1.33-.89,0-1.71.09-3.42.09-5.14V73.1c0-.6,0-1-.63-1a3.53,3.53,0,0,0-.61.1l-4.75,1.14c-.8.19-1.94.51-2.07.51-.63,0-1-1.3-1.23-2.48-.07-.15-.13-.31-.35-.31s-.22,0-.32,0c-.48,0-1.81-2-2.09-2.44-.07-.1-.16-.23-.26-.23s-.16.13-.16.35v5.59c0,1.46.07,2.95.07,4.41,0,.79-.29.85-1.3.85H68c-1.11,0-1.14-.25-1.14-1.52,0-.54.09-2,.09-3.74V72.59c0-.38,0-.51-.15-.51s-.16.07-.26.29c-.6,1.27-1.43,2.89-2,2.89s-1.36-.8-1.74-1.18c-.54-.51-1.08-1-1.08-1.62a2.34,2.34,0,0,1,.6-1c1.08-1.43,3.81-6.73,3.81-7.74,0-.48-.41-.48-.7-.48-.89,0-1.81.1-2.41.1s-.76-.32-.76-1.08v-2c0-.86.06-1.14.76-1.14s1.52.06,2.54.06H66c.57,0,.88-.22.88-.79v-.7c0-.6,0-.95-.57-.95-.38,0-1.58.28-2.16.28-1.14,0-1.52-2.5-1.52-3.39,0-.45.26-.54.64-.57A33.21,33.21,0,0,0,72,51.11a2.68,2.68,0,0,1,.79-.25c.38,0,.64.41,1.05,1.11a5.33,5.33,0,0,0,.31.57,10.58,10.58,0,0,1,1.15,2.16.39.39,0,0,1-.42.35,1.15,1.15,0,0,1-.41-.13c-.09,0-.19-.06-.28-.06s-1.18.35-1.4.41c-1.36.41-1.59.51-1.59,1.62v1.27c0,.69.19,1,1,1,1,0,1.74-.06,2.47-.06s.79.31.79,1v.48c0,.19,0,.47.26.47s.35-.19.44-.28c.38-.35,1.11-1,1.62-1,.25,0,1,.64,2.06,1.78.57.6,1.17,1.23,1.75,1.9a.68.68,0,0,1,.28.51c0,.73-2.25,2.66-2.89,2.66-.28,0-.47-.28-.63-.5A22.67,22.67,0,0,0,76,63.68c-.38-.38-.51-.45-.73-.45l-.35,0c-.13,0-.28,0-.41,0-.6,0-1.17-.07-1.78-.07-.25,0-.63,0-.63.35s.44.83.63,1a17.55,17.55,0,0,0,2.92,3c.16.13.32.26.32.48a1.11,1.11,0,0,1-.19.51,1,1,0,0,0-.13.35.22.22,0,0,0,.22.22,2.73,2.73,0,0,0,.48-.1Zm-3-15.23a.67.67,0,0,1,.5.29c.54.51,1.08,1,1.65,1.58s1.81,1.81,1.81,2.19c0,.86-1.87,2.7-2.73,2.7-.25,0-.47-.29-.6-.48a26.88,26.88,0,0,0-3.08-3.14.82.82,0,0,1-.34-.5C76.33,54.57,78.29,52.57,79.12,52.57Z"/><path class="cls-3" d="M105.29,63.55c-1,0-2,.06-2.89.06-.54,0-.63-.25-.66-1.27,0-.22-.1-.54-.38-.54A.59.59,0,0,0,101,62c-.83.61-3.81,2.7-4.7,2.7-1.11,0-2.51-2.44-2.51-3.33,0-.29.23-.41.45-.54,4.54-2.25,9-5.62,11.67-10a.64.64,0,0,1,.57-.35c.48,0,3.21.51,4.1.7s1.39.25,1.39.7a.61.61,0,0,1-.38.5.31.31,0,0,0-.22.26c0,.22.7,1,.89,1.14a26.09,26.09,0,0,0,9.42,6.63c.86.35,1,.47,1,.82,0,.86-1.24,3.68-2.22,3.68s-4.51-2.41-5.33-3a.82.82,0,0,0-.48-.22c-.29,0-.35.31-.35.57v.09c0,1.11-.19,1.27-.66,1.27-1,0-1.94-.06-2.89-.06ZM98.57,79.16c-.1.19-.23.35-.45.35-.41,0-.63-.86-1-2.13a14.52,14.52,0,0,1-.51-2.51c0-.44.16-.5,1.56-.5h.47c.76,0,1.52,0,1.94-.7.06-.1.16-.29.28-.54A19.44,19.44,0,0,0,102.5,70c0-.45-.51-.51-.86-.51h-1c-1.4,0-2.8.1-4.19.1-.7,0-.76-.42-.76-1.37V66.47c0-1,.06-1.4.76-1.4,1.39,0,2.79.1,4.19.1h14.87c1.4,0,2.79-.1,4.19-.1.67,0,.79.38.79,1.24v2c0,.92-.15,1.24-.82,1.24-.89,0-1.78-.1-2.41-.1s-1,.06-1,.38a.61.61,0,0,0,.13.35c.73,1,4.41,6.82,4.41,7.68s-3.36,1.87-4,1.87-.61-.26-1-1.21a1.64,1.64,0,0,0-1.59-.82c-.16,0-12.72,1-15.16,1.11A.52.52,0,0,0,98.57,79.16Zm12.08-19.7c.26,0,.7,0,.7-.42s-.38-.66-.95-1.2c-.35-.35-.76-.76-1.18-1.24-.25-.32-.63-.76-1.07-.76s-.89.54-1.59,1.3c-.35.35-.79.79-1.27,1.24a1.11,1.11,0,0,0-.38.66c0,.42.41.42.7.42Zm-4.53,14.11c0,.42.34.51.69.51.73,0,3.56-.13,4.41-.19,1.08-.09,1.49-.16,1.49-.6a5.06,5.06,0,0,0-.92-1.59,1.2,1.2,0,0,1-.25-.47c0-.42,1.17-1,1.78-1.3.12,0,.35-.16.35-.32s-.1-.16-.42-.16h-4c-.35,0-.45,0-.51.29s-.22.31-.54.38-.48.15-.7.57A17.34,17.34,0,0,0,106.12,73.57Z"/></g></g></svg>