<svg id="logo" data-name="logo" xmlns="http://www.w3.org/2000/svg" viewBox="0 0 134.19 22.21"><defs><style>.cls-1{fill:#e60020}.cls-2{fill:#fff}</style></defs><path class="cls-1" d="M0 0h22.21v22.21H0z"/><path class="cls-2" d="M18.86 18.29V9.06a1 1 0 00-.37-.78l-6-4.9a2.14 2.14 0 00-2.68 0l-6 4.9a1 1 0 00-.37.78v9.23a1 1 0 001 1h3.97a1 1 0 001-1v-5.74h3.39v5.74a1 1 0 001 1h4a1 1 0 001.06-1zm-1.11-.1h-3.84v-5.75a1 1 0 00-1-1h-3.6a1 1 0 00-1 1v5.75H4.47V9.11l6-4.87a1 1 0 011.28 0l6 4.87zM74.51.63v2.13l5.21.13-2.32 5.78a16.35 16.35 0 002.52 0c0-.13 3-7.93 3-7.93zM97.02.94h3.86v1.5h-3.86zM60.26.94h1.5V4.8h-1.5zM38.1 21.22h1.79l-5.67-9.66-.28-.47.28-.48L39.94.94h-1.8l-5.99 10.15 5.95 10.13zM120.7 7.29l-.12.14V.94h-1.5V9.1zM119.08 14v7.19h1.5v-8.82zM118.14 5.12h-2.92v1.5h2.92V5.07v.05z"/><path class="cls-2" d="M131.68 15.12V8c0-2.31-1.13-3.91-3.1-4.39a4.06 4.06 0 00-1-.13 5.17 5.17 0 00-3.77 1.88c-.66.7-2.54 2.79-4.72 5.21l-3.83 4.26v2.12L116 16c3-3.38 7.66-8.5 8.8-9.71a3.77 3.77 0 012.73-1.43 2.84 2.84 0 01.69.09c1.33.33 2 1.33 2 3v7.16h-2.3a2.39 2.39 0 00-2.38 2.39v1.34a2.38 2.38 0 002.38 2.38h1.36a2.38 2.38 0 002.38-2.38v-2.27h1.57v-1.45h-1.57zm-3.34 4.43a.29.29 0 01-.3.3h-.81a.29.29 0 01-.3-.3v-.81a.29.29 0 01.3-.3h.77a.29.29 0 01.3.3zm0-2a.29.29 0 01-.3.3h-.81a.29.29 0 01-.3-.3v-.81a.29.29 0 01.3-.3h.77a.29.29 0 01.3.3zm2 2a.29.29 0 01-.3.3h-.81a.29.29 0 01-.3-.3v-.81a.29.29 0 01.3-.3h.77a.29.29 0 01.3.3zm0-2a.29.29 0 01-.3.3h-.81a.29.29 0 01-.3-.3v-.81a.29.29 0 01.3-.3h.77a.29.29 0 01.3.3zM121.51 6.4l-.07.08zM73.59 9.19h11.09v1.5H73.59zM53.69.94h1.5v7.33h-1.5zM77.23 15v.43A5.81 5.81 0 0083 21.22h1.65v-1.49h-1.6a4.33 4.33 0 01-4.33-4.28V15A4.25 4.25 0 0180 12a3 3 0 01.38-.34h-2A5.72 5.72 0 0077.23 15zM56.82 9.21H53.7v1.49h3.11a4.3 4.3 0 014.28 4.3v.44a4.32 4.32 0 01-4.31 4.27h-3.15v1.49h3.15a5.81 5.81 0 005.8-5.75V15a5.8 5.8 0 00-5.76-5.79zM99.92 6.81h-4.63V8.3h4.62a4.3 4.3 0 014.28 4.33v2.83a4.32 4.32 0 01-4.31 4.28h-1.65v1.49h1.65a5.81 5.81 0 005.8-5.75v-2.84a5.8 5.8 0 00-5.76-5.83z"/><rect class="cls-1" x="126.93" y="16.46" width="1.41" height="1.41" rx=".3"/><rect class="cls-1" x="126.93" y="18.44" width="1.41" height="1.41" rx=".3"/><rect class="cls-1" x="128.91" y="18.44" width="1.41" height="1.41" rx=".3"/><rect class="cls-1" x="128.91" y="16.46" width="1.41" height="1.41" rx=".3"/><path d="M99.93 5.87h-5.57v3.36h5.56a3.38 3.38 0 013.34 3.39v2.84a3.36 3.36 0 01-3.39 3.34h-2.58v3.37h2.55a6.75 6.75 0 006.77-6.69v-2.84a6.75 6.75 0 00-6.68-6.77zm5.75 9.61a5.81 5.81 0 01-5.8 5.75h-1.65v-1.49h1.65a4.32 4.32 0 004.31-4.28v-2.83a4.3 4.3 0 00-4.28-4.33h-4.62V6.81h4.63a5.8 5.8 0 015.76 5.83zM101.81 0h-5.73v3.37h5.73zm-.93 2.44H97V.94h3.86zM62.7 5.73V0h-3.38v5.73zM61.76.94v3.85h-1.49V.94z"/><path d="M56.83 8.27h-.71V0h-3.37v11.64h4.05A3.37 3.37 0 0160.15 15v.44a3.37 3.37 0 01-3.37 3.34h-4.09v3.37h4.09a6.76 6.76 0 006.74-6.69v-.43a6.75 6.75 0 00-6.69-6.76zM53.69.94h1.49v7.33h-1.49zm8.89 14.54a5.81 5.81 0 01-5.8 5.75h-3.15v-1.49h3.15a4.32 4.32 0 004.31-4.27V15a4.3 4.3 0 00-4.28-4.33H53.7V9.21h3.12A5.8 5.8 0 0162.58 15zM118.53 9.71l-.39.43zM132.62 8c0-2.73-1.43-4.72-3.81-5.3a5 5 0 00-1.27-.16 6 6 0 00-4.45 2.18c-.31.32-.86.92-1.58 1.71V4.18 6.4l-.07.08.07-.08V0h-3.37v4.18h-3.86v3.37h3.86v2.59l.39-.43-.39.43-3.86 4.28v4.51c0 .17.18.22.3.09l4.42-4.85-.81.9v7.09h3.37V11.33c1.81-2 3.39-3.74 4-4.38a2.87 2.87 0 012-1.13 2.23 2.23 0 01.47.06c.38.1 1.28.32 1.28 2.08v6.23h-1.36a3.32 3.32 0 00-3.32 3.32v1.34a3.32 3.32 0 003.32 3.32h1.36a3.32 3.32 0 003.32-3.32v-1.34h1.57v-3.32h-1.57zm-17.4-1.34V5.12h2.92v1.5zm5.36-5.72v6.49l.12-.14-1.62 1.81V.94zm-1.5 20.28V14l1.5-1.66v8.85zm14.17-6.1v1.45h-1.57v2.28a2.38 2.38 0 01-2.38 2.38h-1.36a2.38 2.38 0 01-2.38-2.38v-1.34a2.39 2.39 0 012.38-2.39h2.3V8c0-1.66-.67-2.66-2-3a2.84 2.84 0 00-.69-.09 3.77 3.77 0 00-2.73 1.43c-1.14 1.21-5.75 6.33-8.8 9.71l-.8.89v-2.15l3.83-4.26c2.18-2.42 4.06-4.51 4.72-5.21a5.17 5.17 0 013.77-1.88 4.06 4.06 0 011 .13c2 .48 3.1 2.08 3.1 4.39v7.16h1.57zM31.06 11.09l6.5 11.07h4L35 11.09 41.58 0h-4zM39.94.94l-5.72 9.67-.28.48.28.47 5.67 9.66H38.1l-6-10.13 6-10.15zM83.97 0l-.01.02.01-.02zM79.3 2.44l-.04.09.04-.09zM76.93 8.26h1.02L80.92.94h1.65l-2.98 7.32h1.02L83.97 0h-3.68l-.99 2.44-.04.09.04-.09h-4.36V.94h4.97l.38-.94H74v3.38l4.92-.01-1.99 4.89z"/><path d="M72.65 11.63h4.55a6.65 6.65 0 00-.91 3.4v.44A6.76 6.76 0 0083 22.16h2.59v-3.37H83a3.37 3.37 0 01-3.37-3.34V15a3.36 3.36 0 013.26-3.38h2.7V8.25h-13zM80 12a4.25 4.25 0 00-1.24 3v.43a4.33 4.33 0 004.33 4.28h1.63v1.49H83a5.81 5.81 0 01-5.8-5.76V15a5.72 5.72 0 011.09-3.4h2a3 3 0 00-.29.4zm-6.41-2.8h11.09v1.5H73.59z"/></svg>