<svg xmlns="http://www.w3.org/2000/svg" viewBox="0 0 85.03 75"><defs><style>.cls-1{fill:#fff}.cls-2{fill:#1c1c1c}.cls-3{fill:none;stroke:#1c1c1c;stroke-linecap:round;stroke-miterlimit:4;stroke-width:2.5px}</style></defs><g id="レイヤー_2" data-name="レイヤー 2"><g id="レイヤー_1-2" data-name="レイヤー 1"><path class="cls-1" d="M.03 0h85v75h-85z"/><g id="受信アイコン"><g id="mobile_marketing" data-name="mobile marketing"><path id="パス_52" data-name="パス 52" class="cls-2" d="M75.07 68.59A6.45 6.45 0 0168.61 75h-32a6.43 6.43 0 01-6.47-6.41V6.38A6.43 6.43 0 0136.64 0h32a6.43 6.43 0 016.48 6.38z"/><path id="長方形_22" data-name="長方形 22" class="cls-1" d="M34.21 11.94h36.84v51.11H34.21z"/><path id="パス_53" data-name="パス 53" class="cls-1" d="M56.87 7.3h-8.49c-.66 0-1.2-1-1.2-1.66S47.72 4 48.38 4h8.49c.67 0 1.21 1 1.21 1.66s-.54 1.64-1.21 1.64z"/><ellipse id="楕円形_4" data-name="楕円形 4" class="cls-1" cx="52.63" cy="68.73" rx="2.56" ry="2.53"/></g><g id="グループ_21" data-name="グループ 21"><g id="グループ_20" data-name="グループ 20"><rect id="長方形_32" data-name="長方形 32" class="cls-1" x="19.17" y="21.17" width="26.4" height="33.34" rx="4.5" transform="rotate(-69.98 32.368 37.844)"/><g id="メールのアイコンその9"><path id="パス_76" data-name="パス 76" class="cls-2" d="M49.25 34.84a4 4 0 00-.18-1.92c0-.13-.1-.25-.15-.37a4 4 0 00-2.24-2.06l-21-7.63a3.91 3.91 0 00-3 .13l-.36.19A3.82 3.82 0 0021 24.53a3.77 3.77 0 00-.34.7L15.26 40a4 4 0 00.13 3 3.41 3.41 0 00.17.33 4 4 0 002.07 1.73l21 7.63a4 4 0 002.7 0l.33-.14a4 4 0 001.17-.82h.05a4 4 0 00.84-1.37l5.36-14.72a4 4 0 00.17-.8zm-26.2-10.26a1.64 1.64 0 01.29-.16 2.4 2.4 0 011.84-.08l21 7.63a2.37 2.37 0 011.35 1.25 1.66 1.66 0 01.12.31l.08.27L33 39.48a2 2 0 01-2.5-.92l-7.68-13.82zm-6.35 16a.93.93 0 010-.13L22 26.07l5.92 10.74-11.33 4.36zm23.66 10.7a2.46 2.46 0 01-1.23-.11l-21-7.64a2.46 2.46 0 01-1-.7l-.28-.34L28.58 38l.67 1.2a3.4 3.4 0 004.2 1.53l1.28-.49 6.06 11zm1.85-1.55a.5.5 0 01-.05.13l-.27.5L36 39.77l11.44-4.41z"/></g><g id="グループ_23" data-name="グループ 23"><path id="線_3" data-name="線 3" class="cls-3" d="M1.25 21.34l15.01 5.47"/><path id="線_4" data-name="線 4" class="cls-3" d="M4.81 27.81l9.79 3.56"/><path id="線_5" data-name="線 5" class="cls-3" d="M6.41 33.56l6.52 2.38"/></g></g></g></g></g></g></svg>