<svg id="レイヤー_1" data-name="レイヤー 1" xmlns="http://www.w3.org/2000/svg" viewBox="0 0 162 100"><defs><style>.cls-1,.cls-4{fill:#9eb59a;}.cls-1{stroke:#3e3a39;stroke-miterlimit:10;stroke-width:2px;}.cls-2{fill:#485f4b;}.cls-3{opacity:0.15;isolation:isolate;}</style></defs><rect class="cls-1" x="40.23" y="26.48" width="81.54" height="47.04" rx="1.57" transform="translate(-10.18 22.67) rotate(-15)"/><path class="cls-2" d="M109.73,22.42,42.33,40.48a1.57,1.57,0,0,0-1.11,1.92h0l9.13,34.08a1.56,1.56,0,0,0,1.92,1.1h0l67.4-18.06a1.57,1.57,0,0,0,1.11-1.92h0l-9.13-34.08a1.56,1.56,0,0,0-1.92-1.1Zm-2.14,37.3-44.67,12A13.7,13.7,0,0,0,50.13,64.3l-3-11.25A13.71,13.71,0,0,0,54.5,40.26L99,28.33a13.7,13.7,0,0,0,13,7.74l3,11.26A13.7,13.7,0,0,0,107.59,59.72Z"/><path class="cls-2" d="M78,38.64A11.76,11.76,0,1,0,92.36,47h0A11.76,11.76,0,0,0,78,38.64Z"/><polygon class="cls-3" points="77.65 26.17 38.15 48.98 43.52 69.05 51.01 82.01 95.81 70.01 123.86 53.82 119.5 37.57 108.19 17.99 77.65 26.17"/><rect class="cls-1" x="40.23" y="26.48" width="81.54" height="47.04" rx="1.57" transform="translate(-14.15 47.2) rotate(-30)"/><path class="cls-2" d="M101.61,15.92,41.18,50.81A1.56,1.56,0,0,0,40.61,53h0L58.25,83.51a1.57,1.57,0,0,0,2.14.57h0l60.43-34.89a1.56,1.56,0,0,0,.57-2.14h0L103.75,16.49a1.57,1.57,0,0,0-2.14-.57Zm7.59,36.59-40,23.12a13.68,13.68,0,0,0-14.26-3.82l-5.83-10.1a13.7,13.7,0,0,0,3.82-14.26l39.91-23a13.69,13.69,0,0,0,14.52,4.12l5.83,10.1a13.69,13.69,0,0,0-3.94,13.88Z"/><path class="cls-2" d="M75.12,39.82a11.76,11.76,0,1,0,16.06,4.3h0A11.75,11.75,0,0,0,75.12,39.82Z"/><polygon class="cls-3" points="99.26 66.91 123.02 43.15 110.31 21.14 100.85 11.68 70.38 29.27 38.98 60.67 45.07 71.21 62.18 88.32 99.26 66.91"/><rect class="cls-1" x="40.23" y="26.48" width="81.54" height="47.04" rx="1.57" transform="translate(-11.63 71.92) rotate(-45)"/><path class="cls-2" d="M92.09,11.75,42.75,61.09a1.56,1.56,0,0,0,0,2.22h0L67.69,88.25a1.56,1.56,0,0,0,2.22,0h0l49.34-49.34a1.56,1.56,0,0,0,0-2.22h0L94.31,11.75a1.56,1.56,0,0,0-2.22,0Zm16.79,33.37L76.19,77.82a13.7,13.7,0,0,0-14.77,0l-8.24-8.24a13.7,13.7,0,0,0,0-14.77L85.76,22.23a13.68,13.68,0,0,0,15.09.22l8.25,8.25a13.7,13.7,0,0,0-.22,14.42Z"/><path class="cls-2" d="M72.68,41.68a11.77,11.77,0,1,0,16.64,0h0A11.78,11.78,0,0,0,72.68,41.68Z"/><path class="cls-4" d="M81.08,44.13a1.13,1.13,0,0,1,.43-.78,1,1,0,0,1,1.47.06.82.82,0,0,1,.21.58L83,49.51l2-1.67a.88.88,0,1,1,1.11,1.32L83.56,51.3l.37.45,2.56-2.14a.88.88,0,1,1,1.1,1.32L85,53.07l1.26,1.5A1,1,0,0,1,86,56a1,1,0,0,1-1.39,0l-1.27-1.5-2.59,2.17a.87.87,0,1,1-1.1-1.32l2.59-2.17-.38-.45L79.3,54.87a.89.89,0,0,1-1.32,0,.91.91,0,0,1,.21-1.35l2.08-1.74L75,51.1a1,1,0,0,1-.77-.38,1,1,0,0,1,.24-1.43c.34-.28.49-.3,1.13-.22l5.39.8Z"/></svg>