<svg xmlns="http://www.w3.org/2000/svg" viewBox="0 0 193 276"><defs><clipPath id="clip-path"><path fill="none" d="M50 100h95v100H50z"/></clipPath><style>.cls-2{fill:#fff}.cls-17{fill:#d1d1d1}</style></defs><g id="レイヤー_2" data-name="レイヤー 2"><g id="レイヤー_1-2" data-name="レイヤー 1"><g id="グループ_49" data-name="グループ 49"><rect id="長方形_59-8" data-name="長方形 59-8" class="cls-2" width="193" height="276" rx="10"/><g id="グループ_16-3" data-name="グループ 16-3"><path id="長方形_14-3" data-name="長方形 14-3" d="M40 20h113a20 20 0 0120 20 20 20 0 01-20 20H40a20 20 0 01-20-20 20 20 0 0120-20z" fill="#e50020"/><text transform="translate(59 48)" style="isolation:isolate" font-family="HiraginoSans-W6-83pv-RKSJ-H,Hiragino Sans" font-size="20" letter-spacing=".05em" fill="#fff" id="STEP3">STEP3</text></g><text transform="translate(25.98 254)" style="isolation:isolate" fill="#1c1c1c" font-size="16" letter-spacing="-.14em" font-family="HiraginoSans-W6-83pv-RKSJ-H,Hiragino Sans">メ<tspan x="13.78" y="0" letter-spacing="-.1em">ッ</tspan><tspan x="28.21" y="0" letter-spacing="-.03em">セ</tspan><tspan x="43.79" y="0" letter-spacing="-.02em">ー</tspan><tspan x="59.39" y="0" letter-spacing="-.04em">ジ</tspan><tspan x="74.75" y="0" letter-spacing="-.04em">で</tspan><tspan x="90.18" y="0" letter-spacing="-.08em">や</tspan><tspan x="104.86" y="0">り</tspan><tspan x="118.64" y="0" letter-spacing="-.12em">と</tspan><tspan x="132.77" y="0" letter-spacing="-.06em">り</tspan></text><g id="グループ_30" data-name="グループ 30"><g clip-path="url(#clip-path)"><g id="マスクグループ_3" data-name="マスクグループ 3"><g id="mobile_marketing-2" data-name="mobile marketing-2"><path id="パス_52-2" data-name="パス 52-2" d="M144.85 245.8a13.67 13.67 0 01-13.72 13.63h-68a13.69 13.69 0 01-13.71-13.63V113.56A13.67 13.67 0 0163.17 100h67.91a13.67 13.67 0 0113.77 13.56z" fill="#1c1c1c"/><path id="長方形_22-2" data-name="長方形 22-2" class="cls-2" d="M58 125.39h78.31v108.64H58z"/><path id="パス_53-2" data-name="パス 53-2" class="cls-2" d="M106.17 115.51h-18c-1.42 0-2.57-2.11-2.57-3.52s1.15-3.54 2.57-3.54h18c1.42 0 2.59 2.12 2.59 3.54s-1.17 3.52-2.59 3.52z"/><ellipse id="楕円形_4-2" data-name="楕円形 4-2" class="cls-2" cx="97.16" cy="246.11" rx="5.43" ry="5.39"/></g></g></g><path id="合体_1" data-name="合体 1" class="cls-17" d="M126.46 147.22H76.78a4 4 0 01-4-4v-5a4 4 0 014-4h50.33a4 4 0 014 4v5a4 4 0 01-.52 2l1.46 4.07z"/><path id="合体_2" data-name="合体 2" d="M63.12 166.49a4 4 0 01-.51-2v-5a4 4 0 014-4h50.33a4 4 0 014 4v5a4 4 0 01-4 4H67.27l-5.6 2z" fill="#ff98a5"/><path id="合体_3" data-name="合体 3" class="cls-17" d="M126.46 188H76.78a4 4 0 01-4-4v-5a4 4 0 014-4h50.33a4 4 0 014 4v5a4 4 0 01-.52 2l1.46 4.07z"/></g></g></g></g></svg>