<svg xmlns="http://www.w3.org/2000/svg" viewBox="0 0 193 276"><defs><style>.cls-1{fill:#fff}.cls-12,.cls-14{fill:none;stroke-width:3.5px;stroke:#1c1c1c}.cls-14{stroke-linecap:round}</style></defs><g id="レイヤー_2" data-name="レイヤー 2"><g id="レイヤー_1-2" data-name="レイヤー 1"><g id="グループ_46" data-name="グループ 46"><rect id="長方形_59-10" data-name="長方形 59-10" class="cls-1" width="193" height="276" rx="10"/><g id="グループ_16-5" data-name="グループ 16-5"><path id="長方形_14-5" data-name="長方形 14-5" d="M40 20h113a20 20 0 0120 20 20 20 0 01-20 20H40a20 20 0 01-20-20 20 20 0 0120-20z" fill="#e50020"/><text transform="translate(59 48)" style="isolation:isolate" font-family="HiraginoSans-W6-83pv-RKSJ-H,Hiragino Sans" font-size="20" letter-spacing=".05em" fill="#fff" id="STEP5">STEP5</text></g><text transform="translate(32.44 254)" style="isolation:isolate" font-size="16" fill="#1c1c1c" letter-spacing=".01em" font-family="HiraginoSans-W6-83pv-RKSJ-H,Hiragino Sans">見積<tspan x="32.32" y="0" letter-spacing="-.01em">書</tspan><tspan x="48.18" y="0" letter-spacing="-.01em">の</tspan><tspan x="64.05" y="0" letter-spacing="-.02em">受</tspan><tspan x="79.81" y="0" letter-spacing="-.03em">け</tspan><tspan x="95.38" y="0" letter-spacing="-.06em">取</tspan><tspan x="110.48" y="0" letter-spacing="-.06em">り</tspan></text><g id="書類アイコン"><g id="長方形_39" data-name="長方形 39"><rect class="cls-1" x="65" y="109" width="71" height="92" rx="8"/><rect class="cls-12" x="66.75" y="110.75" width="67.5" height="88.5" rx="6.25"/></g><g id="長方形_38" data-name="長方形 38"><path class="cls-1" d="M61 105h71v90H61z"/><path stroke="#fff" fill="none" stroke-width="3.5" d="M62.75 106.75h67.5v86.5h-67.5z"/></g><g id="長方形_37" data-name="長方形 37"><rect class="cls-1" x="57" y="100" width="71" height="92" rx="8"/><rect class="cls-12" x="58.75" y="101.75" width="67.5" height="88.5" rx="6.25"/></g><g id="グループ_24" data-name="グループ 24"><path id="線_6" data-name="線 6" class="cls-14" d="M74 126h37"/><path id="線_7" data-name="線 7" class="cls-14" d="M73.56 139.2h37.65"/><path id="線_8" data-name="線 8" class="cls-14" d="M73.56 152.7h37.65"/><path id="線_9" data-name="線 9" class="cls-14" d="M73.56 166.19h37.65"/></g></g></g></g></g></svg>