<svg xmlns="http://www.w3.org/2000/svg" viewBox="0 0 193 276"><defs><style>.cls-1{fill:#fff}.cls-13{fill:#1c1c1c}.cls-14{fill:none;stroke:#1c1c1c;stroke-linecap:round;stroke-miterlimit:4;stroke-width:2.5px}</style></defs><g id="レイヤー_2" data-name="レイヤー 2"><g id="レイヤー_1-2" data-name="レイヤー 1"><g id="グループ_48" data-name="グループ 48"><rect id="長方形_59-7" data-name="長方形 59-7" class="cls-1" width="193" height="276" rx="10"/><g id="グループ_16-2" data-name="グループ 16-2"><path id="長方形_14-2" data-name="長方形 14-2" d="M40 20h113a20 20 0 0120 20 20 20 0 01-20 20H40a20 20 0 01-20-20 20 20 0 0120-20z" fill="#e50020"/><text transform="translate(59 48)" style="isolation:isolate" font-family="HiraginoSans-W6-83pv-RKSJ-H,Hiragino Sans" font-size="20" letter-spacing=".05em" fill="#fff" id="STEP2">STEP2</text></g><text transform="translate(34.55 254)" style="isolation:isolate" fill="#1c1c1c" font-size="16" letter-spacing="-.06em" font-family="HiraginoSans-W6-83pv-RKSJ-H,Hiragino Sans">メ<tspan x="15.04" y="0" letter-spacing="-.04em">ー</tspan><tspan x="30.42" y="0" letter-spacing="-.02em">ル</tspan><tspan x="46.02" y="0" letter-spacing="-.01em">の</tspan><tspan x="61.89" y="0" letter-spacing="-.01em">受</tspan><tspan x="77.65" y="0" letter-spacing="-.03em">け</tspan><tspan x="93.22" y="0">取</tspan><tspan x="108.32" y="0">り</tspan></text><g id="受信アイコン"><g id="mobile_marketing" data-name="mobile marketing"><path id="パス_52" data-name="パス 52" class="cls-13" d="M127.89 191.45a8.58 8.58 0 01-8.61 8.55H76.65a8.59 8.59 0 01-8.65-8.55V108.5a8.59 8.59 0 018.63-8.5h42.6a8.58 8.58 0 018.64 8.5z"/><path id="長方形_22" data-name="長方形 22" class="cls-1" d="M73.41 115.92h49.12v68.14H73.41z"/><path id="パス_53" data-name="パス 53" class="cls-1" d="M103.62 109.73H92.31c-.89 0-1.61-1.33-1.61-2.21s.72-2.22 1.61-2.22h11.31c.89 0 1.62 1.33 1.62 2.22s-.73 2.21-1.62 2.21z"/><ellipse id="楕円形_4" data-name="楕円形 4" class="cls-1" cx="97.97" cy="191.65" rx="3.41" ry="3.38"/></g><g id="グループ_21" data-name="グループ 21"><g id="グループ_20" data-name="グループ 20"><rect id="長方形_32" data-name="長方形 32" class="cls-1" x="53.35" y="128.24" width="35.19" height="44.45" rx="6" transform="rotate(-69.98 70.961 150.47)"/><g id="メールのアイコンその9"><path id="パス_76" data-name="パス 76" class="cls-13" d="M93.46 146.45a5.3 5.3 0 00-.24-2.56 3 3 0 00-.2-.49 5.31 5.31 0 00-3-2.74l-27.93-10.18a5.23 5.23 0 00-4.05.18 2.73 2.73 0 00-.48.25 5.23 5.23 0 00-1.82 1.8 5.41 5.41 0 00-.45.94l-7.15 19.62a5.36 5.36 0 00.18 4 4.53 4.53 0 00.23.44 5.31 5.31 0 002.76 2.31l28 10.18a5.3 5.3 0 003.6 0l.45-.18a5.32 5.32 0 001.56-1.1l.06-.07a5.19 5.19 0 001.12-1.82l7.15-19.63a4.9 4.9 0 00.21-.95zm-34.93-13.67a1.87 1.87 0 01.39-.22 3.2 3.2 0 012.45-.11l27.95 10.18a3.16 3.16 0 011.8 1.66c.06.14.11.27.16.42l.11.36-19.66 7.57a2.7 2.7 0 01-3.33-1.22L58.23 133zm-8.47 21.39v-.18l7-19.22L65 149.08l-15.1 5.82zm31.55 14.25a3.12 3.12 0 01-1.63-.14L52 158.09a3.25 3.25 0 01-1.35-.93l-.37-.45 15.6-6 .89 1.6a4.54 4.54 0 005.6 2l1.7-.66 8.08 14.63zm2.47-2.06a.87.87 0 01-.07.17l-.36.67-7.83-14.2 15.26-5.89z"/></g><g id="グループ_23" data-name="グループ 23"><path id="線_3" data-name="線 3" class="cls-14" d="M29.47 128.45l20.01 7.29"/><path id="線_4" data-name="線 4" class="cls-14" d="M34.21 137.08l13.05 4.75"/><path id="線_5" data-name="線 5" class="cls-14" d="M36.34 144.76l8.7 3.17"/></g></g></g></g></g></g></g></svg>