<svg xmlns="http://www.w3.org/2000/svg" viewBox="0 0 193 276"><defs><style>.cls-5{fill:#1c1c1c}.cls-6{fill:#f4e153}</style></defs><g id="レイヤー_2" data-name="レイヤー 2"><g id="レイヤー_1-2" data-name="レイヤー 1"><g id="グループ_47" data-name="グループ 47"><rect id="長方形_59-6" data-name="長方形 59-6" width="193" height="276" rx="10" fill="#fff"/><g id="グループ_16" data-name="グループ 16"><path id="長方形_14" data-name="長方形 14" d="M40 20h113a20 20 0 0120 20 20 20 0 01-20 20H40a20 20 0 01-20-20 20 20 0 0120-20z" fill="#e50020"/><text transform="translate(59 48)" style="isolation:isolate" font-family="HiraginoSans-W6-83pv-RKSJ-H,Hiragino Sans" font-size="20" letter-spacing=".05em" fill="#fff" id="STEP1">STEP1</text></g><g id="工事会社アイコン"><path id="パス_29" data-name="パス 29" class="cls-5" d="M133.64 195.09s-1-15.8-2.89-19.66C129 172 125.1 169.27 118 166.5v-.05c-1.27-.5-2.64-1-4.07-1.48l-2.49-.84a15.29 15.29 0 01-.62 3.08 21.19 21.19 0 01-2.61 5.37 28.77 28.77 0 01-2.14 2.77c-.69-1.1-5.94-8.09-5.94-8.09l-3.63 1.34-3.67-1.34s-5.25 7-5.93 8.08a22.9 22.9 0 01-4.76-8.13 14.72 14.72 0 01-.6-3.08l-2.49.84c-1.43.49-2.8 1-4.07 1.47v.06c-7.13 2.77-11.06 5.49-12.73 8.93-1.93 3.86-2.9 19.66-2.9 19.66a33.49 33.49 0 004.77 1.62v.07c7.71 2.05 19.1 3.12 30.61 3.22h3.59c11.51-.1 22.84-1.17 30.61-3.22v-.07a35.74 35.74 0 004.71-1.62zm-43.11 2.25A162.51 162.51 0 0174 196.05a56.7 56.7 0 01.41-6.25 1.19 1.19 0 000-.53l-1.93-6.47a1.26 1.26 0 00-1.61-.8 1.28 1.28 0 00-.83 1.52l1.82 6.2c-.27 2.14-.36 4.51-.4 5.94-2.27-.37-4.35-.79-6.2-1.26a3.16 3.16 0 00-.54-.2c-1-.27-1.93-.55-2.73-.84.45-6.28 1.41-14.67 2.46-16.78 1.39-2.78 4.9-5.15 11.36-7.72.14-.06.27-.13.4-.2 1-.39 2.12-.78 3.28-1.19a23.21 23.21 0 003.23 6.75 24.77 24.77 0 003.49 4.15l1.21 1.11.79-1.44.05-.13c0-.07.11-.18.2-.32q.24-.43.72-1.2c.43-.68 1-1.54 1.71-2.46l3 3.86zm37.14-2.9c-1.85.48-3.94.89-6.2 1.26a53.55 53.55 0 00-.41-5.94l1.83-6.21a1.27 1.27 0 00-2.44-.73l-1.93 6.48a1 1 0 000 .53 59.08 59.08 0 01.42 6.24 157.35 157.35 0 01-16.51 1.29l-3.38-19.53 3-3.86a39.9 39.9 0 012.66 4.06l.79 1.48 1.22-1.11a25.57 25.57 0 003.45-4.11 23.65 23.65 0 003.23-6.76c1.14.4 2.25.8 3.26 1.18a1.65 1.65 0 00.42.21c6.47 2.53 10 4.9 11.36 7.72 1.06 2.11 2 10.51 2.46 16.79-.82.29-1.74.57-2.73.84a1.86 1.86 0 00-.53.19z"/><path id="パス_30" data-name="パス 30" class="cls-5" d="M70 140.8c.77 6.51 4.44 9.5 8.15 9.8a26.19 26.19 0 005.79 10 17.61 17.61 0 0024.91.39l.38-.39a26.53 26.53 0 005.79-10c3.7-.3 7.38-3.29 8.14-9.8.58-5.06-1.44-7.27-2.71-8.13A5.28 5.28 0 00119 132h2.78v-7.72h-2.41a23.7 23.7 0 00-14.77-20.78v-2.23l-1-.27a26.4 26.4 0 00-14.27 0l-1 .27v2.24a23.52 23.52 0 00-14.75 20.79h-2.32v7.7h2.82a4.68 4.68 0 00-1.42.69c-1.27.85-3.29 3.05-2.66 8.11zm34.64-34.48a21.09 21.09 0 0112.17 18H104.6zm-13.51-3.06a23.52 23.52 0 0110.94 0v21H91zm-2.66 3.06v18H76.26a20.92 20.92 0 0112.17-18zm-14.59 23.05v-2.47h45.29v2.47zm.63 6a2.22 2.22 0 011.33-.38 56.67 56.67 0 002.45 6.55l.91-9.54h34.62l.92 9.56a58.87 58.87 0 002.5-6.55 2.32 2.32 0 011.33.38c1.12.76 1.6 2.6 1.31 5-.52 4.5-2.84 7.22-5.93 6.92v.08l-.73-.4a26 26 0 01-6 11.68 14.86 14.86 0 01-21 .34l-.34-.34a26 26 0 01-6-11.68l-.72.4v-.08c-3.09.29-5.42-2.42-5.94-6.92-.33-2.45.15-4.29 1.27-5z"/><path id="パス_31" data-name="パス 31" class="cls-5" d="M86.52 143.63a2.9 2.9 0 10-2.9-2.9 2.89 2.89 0 002.9 2.9z"/><circle id="楕円形_1" data-name="楕円形 1" class="cls-5" cx="106.51" cy="140.75" r="2.88"/><path id="パス_32" data-name="パス 32" class="cls-6" d="M91.09 103.26a23.52 23.52 0 0110.94 0v21h-11z"/><path id="パス_33" data-name="パス 33" class="cls-6" d="M104.6 106.32a21.09 21.09 0 0112.17 18H104.6z"/><path id="パス_34" data-name="パス 34" class="cls-6" d="M88.43 106.32v18H76.26a20.92 20.92 0 0112.17-18z"/><path id="長方形_19" data-name="長方形 19" class="cls-6" d="M73.88 126.9h45.29v2.47H73.88z"/></g><text transform="translate(32.44 254)" style="isolation:isolate" font-size="16" letter-spacing=".01em" fill="#1c1c1c" font-family="HiraginoSans-W6-83pv-RKSJ-H,Hiragino Sans">解体工事会社選定</text></g></g></g></svg>