<svg xmlns="http://www.w3.org/2000/svg" viewBox="0 0 193 276"><defs><style>.cls-1,.cls-6{fill:#fff}.cls-6,.cls-8{stroke:#1c1c1c;stroke-linecap:round;stroke-linejoin:round;stroke-width:3px}.cls-8{fill:none}</style></defs><g id="レイヤー_2" data-name="レイヤー 2"><g id="レイヤー_1-2" data-name="レイヤー 1"><g id="グループ_50" data-name="グループ 50"><rect id="長方形_59-9" data-name="長方形 59-9" class="cls-1" width="193" height="276" rx="10"/><g id="グループ_16-4" data-name="グループ 16-4"><path id="長方形_14-4" data-name="長方形 14-4" d="M40 20h113a20 20 0 0120 20 20 20 0 01-20 20H40a20 20 0 01-20-20 20 20 0 0120-20z" fill="#e50020"/><text transform="translate(59 48)" style="isolation:isolate" font-family="HiraginoSans-W6-83pv-RKSJ-H,Hiragino Sans" font-size="20" letter-spacing=".05em" fill="#fff" id="STEP4">STEP4</text></g><text transform="translate(64.52 254)" style="isolation:isolate" font-size="16" fill="#1c1c1c" letter-spacing=".02em" font-family="HiraginoSans-W6-83pv-RKSJ-H,Hiragino Sans">現地確認</text><g id="現地調査アイコン"><g id="家"><path id="パス_77" data-name="パス 77" class="cls-6" d="M130.58 198.44V135.1L100 111.28a5.07 5.07 0 00-6.22 0L63.09 135.1v63.34z"/><path id="長方形_40" data-name="長方形 40" class="cls-6" d="M110.75 143.51h6.89v14.68h-6.89z"/><path id="長方形_41" data-name="長方形 41" class="cls-6" d="M93.39 143.51h6.89v14.68h-6.89z"/><path id="長方形_42" data-name="長方形 42" class="cls-6" d="M76.04 143.51h6.89v14.68h-6.89z"/><path id="パス_78" data-name="パス 78" d="M63.09 126.38l30.64-23.82a5.1 5.1 0 016.22 0l30.63 23.82v8.71L100 111.28a5.07 5.07 0 00-6.22 0l-30.69 23.81z" fill="#935500" stroke-width="3" stroke-linejoin="round" stroke-linecap="round" stroke="#1c1c1c"/><path id="パス_79" data-name="パス 79" class="cls-8" d="M106 198.43H87.68v-23a5 5 0 011.47-3.54 5.06 5.06 0 013.57-1.46H101a5 5 0 015 5z"/><path id="線_10" data-name="線 10" class="cls-8" d="M93.23 182.3v4.3"/><path id="線_11" data-name="線 11" class="cls-8" d="M46.88 198.43h99.92"/></g><g id="虫眼鏡"><g id="楕円形_5" data-name="楕円形 5"><circle class="cls-1" cx="123.58" cy="159.03" r="18.73"/><circle cx="123.58" cy="159.03" r="17.23" stroke-width="3" fill="none" stroke="#1c1c1c"/></g><path id="線_12" data-name="線 12" stroke-width="3.5" fill="none" stroke-linecap="round" stroke="#1c1c1c" d="M136.83 171.61l13.25 13.25"/><path id="パス_80" data-name="パス 80" d="M112 153.71a9.91 9.91 0 013.36-4.56 11.4 11.4 0 016-2.63" stroke-width="2" fill="none" stroke-linejoin="round" stroke-linecap="round" stroke="#1c1c1c"/></g></g></g></g></g></svg>