<svg xmlns="http://www.w3.org/2000/svg" width="161.142" height="153" viewBox="0 0 161.142 153">
  <g id="files" transform="translate(-540.577 -13207.499)">
    <g id="resume" transform="translate(542.077 13209)">
      <g id="paper" transform="translate(0 0)">
        <path id="パス_19" data-name="パス 19" d="M60.9,27.482V1.5H10.458A9.063,9.063,0,0,0,4.1,4.008a8.459,8.459,0,0,0-2.6,6.148v97.6a8.852,8.852,0,0,0,8.958,8.671H87.5a8.852,8.852,0,0,0,8.943-8.671h0V35.926H69.853A8.807,8.807,0,0,1,60.9,27.482Z" transform="translate(-1.5 -1.5)" fill="#fff" stroke="#333" stroke-linecap="round" stroke-linejoin="round" stroke-width="3"/>
        <path id="パス_20" data-name="パス 20" d="M40.6,1.5V27.542a8.58,8.58,0,0,0,2.628,6.224,9.063,9.063,0,0,0,6.4,2.538H76.521Z" transform="translate(18.463 -1.499)" fill="#fff" stroke="#333" stroke-linecap="round" stroke-linejoin="round" stroke-width="3"/>
        <g id="グループ_27" data-name="グループ 27" transform="translate(22.644 51.284)">
          <path id="パス_10" data-name="パス 10" d="M16.49,35.45Z" transform="translate(-16.49 -35.45)" fill="none" stroke="#3e3a39" stroke-linecap="round" stroke-linejoin="round" stroke-width="2"/>
          <path id="パス_11" data-name="パス 11" d="M16.49,47.25Z" transform="translate(-16.49 -29.425)" fill="none" stroke="#3e3a39" stroke-linecap="round" stroke-linejoin="round" stroke-width="2"/>
          <path id="パス_12" data-name="パス 12" d="M16.49,59.05Z" transform="translate(-16.49 -23.401)" fill="none" stroke="#3e3a39" stroke-linecap="round" stroke-linejoin="round" stroke-width="2"/>
        </g>
      </g>
      <line id="線_7" data-name="線 7" x2="47.583" transform="translate(21.193 51.284)" fill="none" stroke="#3e3a39" stroke-linecap="round" stroke-linejoin="round" stroke-width="2"/>
      <line id="線_8" data-name="線 8" x2="47.583" transform="translate(21.193 69.109)" fill="none" stroke="#3e3a39" stroke-linecap="round" stroke-linejoin="round" stroke-width="2"/>
      <line id="線_9" data-name="線 9" x2="47.583" transform="translate(21.193 86.934)" fill="none" stroke="#3e3a39" stroke-linecap="round" stroke-linejoin="round" stroke-width="2"/>
    </g>
    <g id="resume-2" data-name="resume" transform="translate(570.272 13227.045)">
      <g id="paper-2" data-name="paper" transform="translate(0 0)">
        <path id="パス_19-2" data-name="パス 19" d="M60.9,27.482V1.5H10.458A9.063,9.063,0,0,0,4.1,4.008a8.459,8.459,0,0,0-2.6,6.148v97.6a8.852,8.852,0,0,0,8.958,8.671H87.5a8.852,8.852,0,0,0,8.943-8.671h0V35.926H69.853A8.807,8.807,0,0,1,60.9,27.482Z" transform="translate(-1.5 -1.5)" fill="#fff" stroke="#333" stroke-linecap="round" stroke-linejoin="round" stroke-width="3"/>
        <path id="パス_20-2" data-name="パス 20" d="M40.6,1.5V27.542a8.58,8.58,0,0,0,2.628,6.224,9.063,9.063,0,0,0,6.4,2.538H76.521Z" transform="translate(18.463 -1.499)" fill="#fff" stroke="#333" stroke-linecap="round" stroke-linejoin="round" stroke-width="3"/>
        <g id="グループ_27-2" data-name="グループ 27" transform="translate(22.644 51.284)">
          <path id="パス_10-2" data-name="パス 10" d="M16.49,35.45Z" transform="translate(-16.49 -35.45)" fill="none" stroke="#3e3a39" stroke-linecap="round" stroke-linejoin="round" stroke-width="2"/>
          <path id="パス_11-2" data-name="パス 11" d="M16.49,47.25Z" transform="translate(-16.49 -29.425)" fill="none" stroke="#3e3a39" stroke-linecap="round" stroke-linejoin="round" stroke-width="2"/>
          <path id="パス_12-2" data-name="パス 12" d="M16.49,59.05Z" transform="translate(-16.49 -23.401)" fill="none" stroke="#3e3a39" stroke-linecap="round" stroke-linejoin="round" stroke-width="2"/>
        </g>
      </g>
      <line id="線_7-2" data-name="線 7" x2="47.583" transform="translate(21.193 51.284)" fill="none" stroke="#3e3a39" stroke-linecap="round" stroke-linejoin="round" stroke-width="2"/>
      <line id="線_8-2" data-name="線 8" x2="47.583" transform="translate(21.193 69.109)" fill="none" stroke="#3e3a39" stroke-linecap="round" stroke-linejoin="round" stroke-width="2"/>
      <line id="線_9-2" data-name="線 9" x2="47.583" transform="translate(21.193 86.934)" fill="none" stroke="#3e3a39" stroke-linecap="round" stroke-linejoin="round" stroke-width="2"/>
    </g>
    <g id="resume-3" data-name="resume" transform="translate(605.235 13244.074)">
      <g id="paper-3" data-name="paper" transform="translate(0 0)">
        <path id="パス_19-3" data-name="パス 19" d="M60.9,27.482V1.5H10.458A9.063,9.063,0,0,0,4.1,4.008a8.459,8.459,0,0,0-2.6,6.148v97.6a8.852,8.852,0,0,0,8.958,8.671H87.5a8.852,8.852,0,0,0,8.943-8.671h0V35.926H69.853A8.807,8.807,0,0,1,60.9,27.482Z" transform="translate(-1.5 -1.5)" fill="#fff" stroke="#333" stroke-linecap="round" stroke-linejoin="round" stroke-width="3"/>
        <path id="パス_20-3" data-name="パス 20" d="M40.6,1.5V27.542a8.58,8.58,0,0,0,2.628,6.224,9.063,9.063,0,0,0,6.4,2.538H76.521Z" transform="translate(18.463 -1.499)" fill="#fff" stroke="#333" stroke-linecap="round" stroke-linejoin="round" stroke-width="3"/>
        <g id="グループ_27-3" data-name="グループ 27" transform="translate(22.644 51.284)">
          <path id="パス_10-3" data-name="パス 10" d="M16.49,35.45Z" transform="translate(-16.49 -35.45)" fill="none" stroke="#3e3a39" stroke-linecap="round" stroke-linejoin="round" stroke-width="2"/>
          <path id="パス_11-3" data-name="パス 11" d="M16.49,47.25Z" transform="translate(-16.49 -29.425)" fill="none" stroke="#3e3a39" stroke-linecap="round" stroke-linejoin="round" stroke-width="2"/>
          <path id="パス_12-3" data-name="パス 12" d="M16.49,59.05Z" transform="translate(-16.49 -23.401)" fill="none" stroke="#3e3a39" stroke-linecap="round" stroke-linejoin="round" stroke-width="2"/>
        </g>
      </g>
      <line id="線_7-3" data-name="線 7" x2="47.583" transform="translate(21.193 51.284)" fill="none" stroke="#3e3a39" stroke-linecap="round" stroke-linejoin="round" stroke-width="2"/>
      <line id="線_8-3" data-name="線 8" x2="47.583" transform="translate(21.193 69.109)" fill="none" stroke="#3e3a39" stroke-linecap="round" stroke-linejoin="round" stroke-width="2"/>
      <line id="線_9-3" data-name="線 9" x2="47.583" transform="translate(21.193 86.934)" fill="none" stroke="#3e3a39" stroke-linecap="round" stroke-linejoin="round" stroke-width="2"/>
    </g>
  </g>
</svg>
