<svg xmlns="http://www.w3.org/2000/svg" width="152.32" height="111.1" viewBox="0 0 152.32 111.1"><defs><style>.cls-1{fill:#ab8c36;}.cls-2{fill:#545454;}.cls-3{fill:#ed1c24;}</style></defs><g id="レイヤー_2" data-name="レイヤー 2"><g id="レイヤー_1-2" data-name="レイヤー 1"><path class="cls-1" d="M25.12,99.91a1.54,1.54,0,0,0-.94-.63c-.67-.47-1.33-1-2-1.49l.14-.13c3.26-5-.69-10.5-.88-10.54a20,20,0,0,1-.75,5.07,7.85,7.85,0,0,0-.1,4.23c-.36-.33-.7-.67-1.05-1a1.66,1.66,0,0,0-.53-.53c-.56-.59-1.11-1.2-1.64-1.83,0,0,.05,0,.07-.06.85-1.37.69-5,.69-5A13.11,13.11,0,0,1,18,92.72c-.25.84.26.26.26.26,3.17-5-.74-10.28-.92-10.31a19,19,0,0,1-.71,5,7.33,7.33,0,0,0,.1,4.63c-.46-.57-.91-1.15-1.35-1.76.11-.31-.28-.93-.93-1.36-.51-.76-1-1.53-1.47-2.34,1-1.12,1.49-4.39,1.49-4.39a12.33,12.33,0,0,1-1,4.46c-.39.7.19.34.19.34,3.85-3.41,1.27-10,1.11-10.13a17.32,17.32,0,0,1-1.6,4.42,7.36,7.36,0,0,0-.84,4.1,52.56,52.56,0,0,1-2.61-5.56c1.08-.83,2-4.15,2-4.15a11.33,11.33,0,0,1-1.43,4.25c-.45.62.15.38.15.38,4.11-2.63,2.21-9.75,2.06-9.88a15.6,15.6,0,0,1-2,4.08,7.07,7.07,0,0,0-1.22,4.1,59.07,59.07,0,0,1-2-6.29c1.1-.66,2.19-3.65,2.19-3.65a10.19,10.19,0,0,1-1.72,3.85c-.48.52.12.41.12.41,4.14-1.82,2.92-9.05,2.79-9.21a13.47,13.47,0,0,1-2.24,3.6,6.28,6.28,0,0,0-1.49,3.51A66.17,66.17,0,0,1,5.8,64.29h0c1.14-.24,2.62-3.07,2.62-3.07a8.6,8.6,0,0,1-2.09,3.34c-.52.4.06.43.06.43,4.18-.78,3.82-8.14,3.72-8.32a11.2,11.2,0,0,1-2.55,3,5.53,5.53,0,0,0-1.91,3.49,68.62,68.62,0,0,1-.15-11.49c.11-1.58.28-3.13.49-4.66,1.1-.06,2.75-2.16,2.75-2.16a6.62,6.62,0,0,1-2.42,2.58c-.54.23,0,.43,0,.43,4,.5,4.72-6.65,4.65-6.85A8.4,8.4,0,0,1,8.2,43.08a3.81,3.81,0,0,0-1.83,1.76,64.29,64.29,0,0,1,1.49-6.68c1,.46,3.07-1,3.07-1a4.93,4.93,0,0,1-2.79,1.54c-.55,0-.08.41-.08.41,3.71,2.12,5.73-4.58,5.71-4.81a6.39,6.39,0,0,1-3.06.9,3,3,0,0,0-2.38,1.34,62.22,62.22,0,0,1,2.3-6.24c1,.54,2.92-.34,2.92-.34a4.18,4.18,0,0,1-2.81.88c-.53-.12-.12.38-.12.38,3.31,2.86,5.93-3.18,5.92-3.41a5.7,5.7,0,0,1-3,.21,2.43,2.43,0,0,0-2.13.54,57.84,57.84,0,0,1,2.87-5.35c1,.55,2.86-.17,2.86-.17a4,4,0,0,1-2.83.69c-.52-.16-.13.38-.13.38,3.2,3.09,6-2.77,6-3a5.36,5.36,0,0,1-3,0,2.19,2.19,0,0,0-1.62.09c.84-1.24,1.73-2.44,2.65-3.57,2.38,4,6-.39,6-.6a5.7,5.7,0,0,1-2.75-1.16,2.18,2.18,0,0,0-1.26-.52,38.67,38.67,0,0,1,2.92-2.82.84.84,0,0,0,.06.32c2.2,4.23,5.89.06,5.94-.15a5.77,5.77,0,0,1-2.66-1.3,2.21,2.21,0,0,0-1.24-.6,32.41,32.41,0,0,1,3-2,.85.85,0,0,0,0,.35c1.79,4.4,5.59,1,5.66.77a6,6,0,0,1-2.43-1.66,2.47,2.47,0,0,0-1-.73c.68-.34,1.37-.65,2.07-.94C35.43,7.51,37,2.42,37,2.23A5.39,5.39,0,0,1,34.33,3c-1.67-.07-2.91,2.26-2.5,2.48.87.48,2.69-.8,2.69-.8A4.29,4.29,0,0,1,32.12,6c-.47,0-.07.35-.07.35l.17.08a23.75,23.75,0,0,0-2.19,1c-.92-.1-1.7.4-1.54.77l0,0a35.93,35.93,0,0,0-3.91,2.61c-.83.13-1.44.7-1.27,1h0a40,40,0,0,0-3.73,3.55c-.88.18-1.52.81-1.33,1.13a1.43,1.43,0,0,0,.14.2,50.32,50.32,0,0,0-4,5.32,2.28,2.28,0,0,0-.4.62,58.51,58.51,0,0,0-4.86,9.73,6.78,6.78,0,0,0-.22-4,15.3,15.3,0,0,1-.89-4.22c-.16.07-3.35,5.79-.27,9.38,0,0,.49.39.23-.29A11.08,11.08,0,0,1,7.66,29s.08,3.35.91,4.34c.08.1.19,0,.3-.13A64.18,64.18,0,0,0,6.76,40a5.94,5.94,0,0,0-1-3.54,12.89,12.89,0,0,1-1.65-3.66c-.14.13-2.21,6.79,1.46,9,0,0,.54.18.16-.37a9.48,9.48,0,0,1-1.13-3.84s.69,3.15,1.68,3.77a.08.08,0,0,0,.1,0,70,70,0,0,0-1.37,7.86A4.94,4.94,0,0,0,3.9,46.77a11.44,11.44,0,0,1-2-3.38c-.13.16-1.68,7.24,2.26,8.8,0,0,.57.08.13-.4a8.72,8.72,0,0,1-1.48-3.66s.95,3,2,3.47c0,.31-.06.63-.08.94-.11,1.54-.16,3.06-.18,4.57A3.34,3.34,0,0,0,2.8,55.43a7.56,7.56,0,0,1-2.79-2c-.09.22.23,7.58,4.41,6.89a.54.54,0,0,0,.17-.09c.07,1.87.22,3.71.43,5.52A2.64,2.64,0,0,0,3.67,65c-2-.35-2.93-1.81-3-1.61s.79,7.47,4.91,6.26c.29,1.64.64,3.24,1,4.8a2.53,2.53,0,0,0-1.5-.6C3,73.76,2,72.39,1.94,72.6s1.33,7.65,5.58,5.67a1,1,0,0,0,.19-.19c.44,1.35.93,2.66,1.45,3.93A2.29,2.29,0,0,0,8,82c-2.12.44-3.29-.65-3.32-.43s2.18,7.11,6.17,4.23c.52,1,1.06,2,1.63,3a2.51,2.51,0,0,0-.73.27c-2.08,1.11-3.44.41-3.43.64s3,5.89,6.5,2.62c.57.79,1.17,1.54,1.79,2.27a3.25,3.25,0,0,0-.9.47c-2,1.55-3.46,1.12-3.44,1.35s3.81,5.48,7.05,1.08c.79.76,1.61,1.47,2.44,2.14a3.69,3.69,0,0,0-.82.62c-2,2-3.58,1.82-3.53,2s4.63,5.15,7.69-.37c3.45,2.07,12.55,9.22,12.55,9.22l.65-1.44C36.64,107,28.58,102.12,25.12,99.91Zm3.5-90.38a4.76,4.76,0,0,0,2.29,1.35,3.67,3.67,0,0,1-2.47-1c-.09-.09-.14-.13-.18-.13ZM23.5,13.19a4.61,4.61,0,0,0,2.49,1,3.62,3.62,0,0,1-2.65-.6c-.08-.07-.13-.1-.18-.1ZM18.68,18A4.94,4.94,0,0,0,21,18.7a3.62,3.62,0,0,1-2.6-.36ZM4.38,60.85A6.06,6.06,0,0,1,2,58.28S3.4,60.1,4.51,60.36c0,.19,0,.37,0,.55ZM3,68a7,7,0,0,0,2.33,1.64l.09.51A5.7,5.7,0,0,1,3,68Zm4.4,10.87a5.1,5.1,0,0,1-2.83-1.9,5.8,5.8,0,0,0,2.8,1.37l.18.56A.33.33,0,0,0,7.42,78.82Zm.3,6.29a6.1,6.1,0,0,0,2.62.72c.07.16.15.31.23.46A4.61,4.61,0,0,1,7.72,85.11Zm4.08,7.11a6.37,6.37,0,0,0,2.25,0l.25.36A4.32,4.32,0,0,1,11.8,92.22Zm4.18,6a7,7,0,0,0,2.53-.52l.3.29A4.55,4.55,0,0,1,16,98.22Zm5.65.16a15.65,15.65,0,0,0,.54-4.86A13.26,13.26,0,0,1,22,98.39a1.76,1.76,0,0,0-.06.25Zm-.22,5.07a8.22,8.22,0,0,0,2.71-1.14l.45.29A5.17,5.17,0,0,1,21.41,103.45Zm7.11-2A8.42,8.42,0,0,0,25.4,91.33a19.45,19.45,0,0,1,.29,5.4c-.37,3.43,1.63,6.11,1.92,5.27.61-1.77-.27-5.61-.27-5.61a12.74,12.74,0,0,1,.85,4.94C28.11,102.3,28.52,101.48,28.52,101.48ZM6.19,57.25c-.53.36,0,.42,0,.42,4.13-.48,4-7.77,3.93-8a10.62,10.62,0,0,1-2.61,2.76C5.69,53.65,5.15,57,5.68,56.94c1.12-.16,2.67-2.86,2.67-2.86A8.25,8.25,0,0,1,6.19,57.25ZM10.89,27s.43.47.23-.24a11.35,11.35,0,0,1,0-4.15s-.2,3.27.51,4.38c.34.53,1.55-2.31.8-4.79A16.64,16.64,0,0,1,11.91,18C11.75,18,8.23,23,10.89,27ZM15,20.6a11.46,11.46,0,0,1,.59-4.1s-.66,3.17-.14,4.49c.25.62,1.83-1.8,1.48-4.49A16.3,16.3,0,0,1,17,12.13c-.16,0-4.3,3.83-2.32,8.64C14.7,20.77,15.05,21.36,15,20.6Zm5.29-6.28a10.76,10.76,0,0,1,.66-4s-.71,3-.24,4.35c.23.61,1.81-1.67,1.52-4.29a16.66,16.66,0,0,1,.22-4.24c-.15,0-4.23,3.53-2.42,8.28C20,14.47,20.32,15.06,20.25,14.32Zm5.12-4.14a10.5,10.5,0,0,1,.76-3.84s-.78,2.95-.35,4.26c.2.62,1.81-1.53,1.6-4.12a16.06,16.06,0,0,1,.33-4.15,7.2,7.2,0,0,0-2.59,8S25.42,10.92,25.37,10.18Zm3.94-3.3A9.28,9.28,0,0,1,30.5,3.41s-1.1,2.61-.86,4c.11.64,1.89-1,2-3.52A15.16,15.16,0,0,1,32.47,0a6.09,6.09,0,0,0-3.41,7S29.26,7.59,29.31,6.88Z"/><path class="cls-1" d="M114,109.66l.65,1.44s9.1-7.15,12.56-9.22c3,5.52,7.63.64,7.69.37s-1.54,0-3.54-2a3.28,3.28,0,0,0-.82-.62c.84-.67,1.65-1.38,2.44-2.14,3.24,4.4,7-.82,7.05-1.08s-1.43.2-3.44-1.35a3.2,3.2,0,0,0-.89-.47c.61-.73,1.21-1.48,1.79-2.27,3.45,3.27,6.49-2.37,6.5-2.62s-1.36.47-3.44-.64a2.51,2.51,0,0,0-.73-.27c.58-1,1.12-2,1.63-3,4,2.88,6.2-4,6.17-4.23s-1.2.87-3.32.43a2.3,2.3,0,0,0-1.14.06c.52-1.27,1-2.58,1.45-3.93a1,1,0,0,0,.19.19c4.26,2,5.64-5.43,5.58-5.67s-1.07,1.16-3.19,1.23a2.53,2.53,0,0,0-1.5.6c.4-1.56.75-3.16,1-4.8,4.13,1.21,5-6,4.91-6.26a6.93,6.93,0,0,1-3,1.61,2.63,2.63,0,0,0-1.36.73c.21-1.81.36-3.65.43-5.52a.68.68,0,0,0,.17.09c4.18.69,4.5-6.67,4.41-6.89a7.35,7.35,0,0,1-2.78,2,3.35,3.35,0,0,0-1.76,1.68c0-1.51-.06-3-.17-4.57l-.09-.94c1.06-.5,2-3.47,2-3.47A8.87,8.87,0,0,1,148,51.79c-.43.48.13.4.13.4,3.94-1.56,2.39-8.64,2.26-8.8a11.17,11.17,0,0,1-2,3.38,4.92,4.92,0,0,0-1.14,2.44,70,70,0,0,0-1.38-7.86.08.08,0,0,0,.1,0c1-.62,1.69-3.77,1.69-3.77a9.65,9.65,0,0,1-1.14,3.84c-.38.55.16.37.16.37,3.68-2.22,1.6-8.88,1.46-9a12.55,12.55,0,0,1-1.65,3.66,5.93,5.93,0,0,0-1,3.54,66.64,66.64,0,0,0-2.11-6.72c.11.17.21.23.29.13.83-1,.91-4.34.91-4.34a11.27,11.27,0,0,1-.37,4.2c-.27.68.22.29.22.29,3.08-3.59-.1-9.31-.26-9.38a16.08,16.08,0,0,1-.9,4.22,6.86,6.86,0,0,0-.22,4,58.51,58.51,0,0,0-4.86-9.73,2.28,2.28,0,0,0-.4-.62,49,49,0,0,0-4-5.32,1.43,1.43,0,0,0,.14-.2c.19-.32-.45-.95-1.33-1.13A38.81,38.81,0,0,0,129,11.86h0c.17-.32-.44-.89-1.28-1a35.93,35.93,0,0,0-3.91-2.61l0,0c.15-.37-.62-.87-1.54-.77-.73-.37-1.46-.7-2.2-1l.17-.08s.4-.35-.07-.35a4.26,4.26,0,0,1-2.39-1.32s1.81,1.28,2.69.8c.41-.22-.84-2.55-2.51-2.48a5.44,5.44,0,0,1-2.62-.77c0,.19,1.52,5.28,4.35,4.36.7.29,1.4.6,2.08.94a2.49,2.49,0,0,0-1,.73,6.13,6.13,0,0,1-2.42,1.66c.06.19,3.87,3.63,5.65-.77a.85.85,0,0,0,0-.35,32.41,32.41,0,0,1,3,2,2.28,2.28,0,0,0-1.24.6,5.81,5.81,0,0,1-2.65,1.3c0,.21,3.73,4.38,5.94.15a1.11,1.11,0,0,0,.06-.32c1,.87,2,1.82,2.91,2.82a2.21,2.21,0,0,0-1.26.52,5.66,5.66,0,0,1-2.75,1.16c.05.21,3.64,4.62,6,.6.92,1.13,1.81,2.33,2.66,3.57a2.2,2.2,0,0,0-1.62-.09,5.41,5.41,0,0,1-3,0c0,.24,2.81,6.1,6,3,0,0,.39-.54-.13-.38a4,4,0,0,1-2.83-.69s1.88.72,2.86.17a53.42,53.42,0,0,1,2.87,5.35,2.41,2.41,0,0,0-2.13-.54,5.7,5.7,0,0,1-3-.21c0,.23,2.61,6.27,5.92,3.41,0,0,.41-.5-.12-.38a4.18,4.18,0,0,1-2.81-.88s1.94.88,2.92.34a59.86,59.86,0,0,1,2.3,6.24,3,3,0,0,0-2.38-1.34,6.26,6.26,0,0,1-3.05-.9c0,.23,2,6.93,5.7,4.81,0,0,.47-.41-.08-.41a4.93,4.93,0,0,1-2.79-1.54s2,1.43,3.07,1a64.3,64.3,0,0,1,1.5,6.68,3.83,3.83,0,0,0-1.84-1.76A8.68,8.68,0,0,1,141.31,41c-.07.2.64,7.35,4.65,6.85,0,0,.54-.2,0-.43a6.57,6.57,0,0,1-2.43-2.58s1.65,2.1,2.75,2.16c.21,1.53.38,3.08.49,4.66a67.58,67.58,0,0,1-.15,11.49,5.51,5.51,0,0,0-1.9-3.49,11.14,11.14,0,0,1-2.56-3c-.1.18-.46,7.54,3.72,8.32,0,0,.58,0,.07-.43a8.6,8.6,0,0,1-2.09-3.34s1.48,2.83,2.61,3.07h0a63.53,63.53,0,0,1-1.14,6.76,6.21,6.21,0,0,0-1.49-3.51,13.47,13.47,0,0,1-2.24-3.6c-.13.16-1.35,7.39,2.8,9.21,0,0,.59.11.11-.41a10.35,10.35,0,0,1-1.72-3.85s1.09,3,2.19,3.65a59.07,59.07,0,0,1-2,6.29,7.07,7.07,0,0,0-1.22-4.1,15.6,15.6,0,0,1-2-4.08c-.14.13-2.05,7.25,2.06,9.88,0,0,.6.24.15-.38a11.69,11.69,0,0,1-1.43-4.25s.88,3.32,2,4.15A52.56,52.56,0,0,1,140,85.61a7.36,7.36,0,0,0-.84-4.1,17.32,17.32,0,0,1-1.6-4.42c-.15.11-2.74,6.72,1.11,10.13,0,0,.58.36.2-.34a12.14,12.14,0,0,1-1-4.46s.53,3.27,1.49,4.39c-.47.81-1,1.58-1.46,2.34-.66.43-1.05,1-.94,1.36-.43.61-.89,1.19-1.34,1.76a7.47,7.47,0,0,0,.1-4.63,20,20,0,0,1-.72-5c-.18,0-4.09,5.35-.91,10.31,0,0,.5.58.26-.26a12.9,12.9,0,0,1-.14-4.77s-.15,3.67.7,5a.34.34,0,0,0,.06.06c-.53.63-1.07,1.24-1.63,1.83a1.71,1.71,0,0,0-.54.53l-1,1a8,8,0,0,0-.1-4.23,19.82,19.82,0,0,1-.76-5.07c-.18,0-4.14,5.51-.88,10.54l.14.13c-.64.53-1.31,1-2,1.49a1.54,1.54,0,0,0-.94.63C123.75,102.12,115.68,107,114,109.66Zm10.06-99.9s-.09,0-.18.13a3.67,3.67,0,0,1-2.47,1,4.76,4.76,0,0,0,2.29-1.35Zm5.1,3.72s-.09,0-.17.1a3.62,3.62,0,0,1-2.65.6,4.59,4.59,0,0,0,2.48-1Zm4.75,4.86a3.65,3.65,0,0,1-2.61.36,4.92,4.92,0,0,0,2.34-.66ZM147.8,60.91c0-.18,0-.36,0-.55,1.11-.26,2.49-2.08,2.49-2.08a6.06,6.06,0,0,1-2.36,2.57Zm-.91,9.19c0-.17.05-.34.08-.51A7,7,0,0,0,149.31,68,5.76,5.76,0,0,1,146.89,70.1Zm-2.13,8.75c.06-.19.12-.37.17-.56a5.8,5.8,0,0,0,2.8-1.37,5.11,5.11,0,0,1-2.82,1.9A.28.28,0,0,0,144.76,78.85Zm-3,7.44.23-.46a6,6,0,0,0,2.61-.72A4.58,4.58,0,0,1,141.76,86.29ZM138,92.61l.24-.36a6.42,6.42,0,0,0,2.26,0A4.32,4.32,0,0,1,138,92.61ZM133.51,98l.3-.29a7,7,0,0,0,2.54.52A4.58,4.58,0,0,1,133.51,98Zm-3.13.65a1.76,1.76,0,0,0-.06-.25,13.24,13.24,0,0,1-.16-4.87,15.54,15.54,0,0,0,.53,4.86Zm-2.63,4,.45-.29a8.22,8.22,0,0,0,2.71,1.14A5.17,5.17,0,0,1,127.75,102.6Zm-3.62-1.27a12.74,12.74,0,0,1,.85-4.94s-.88,3.84-.26,5.61c.29.84,2.29-1.84,1.92-5.27a20.27,20.27,0,0,1,.28-5.4,8.43,8.43,0,0,0-3.12,10.15S124.21,102.3,124.13,101.33ZM144,54.08s1.55,2.7,2.68,2.86c.52.07,0-3.29-1.89-4.47a10.62,10.62,0,0,1-2.61-2.76c-.09.19-.2,7.48,3.94,8,0,0,.57-.06,0-.42A8.17,8.17,0,0,1,144,54.08ZM140.41,18a16.64,16.64,0,0,1-.51,4.26c-.75,2.48.46,5.32.8,4.79.71-1.11.51-4.38.51-4.38a11.14,11.14,0,0,1,0,4.15c-.19.71.24.24.24.24C144.09,23,140.57,18,140.41,18Zm-2.79,2.79c2-4.81-2.16-8.64-2.32-8.64a16.3,16.3,0,0,1,.13,4.37c-.35,2.69,1.23,5.11,1.48,4.49.52-1.32-.14-4.49-.14-4.49a11.24,11.24,0,0,1,.59,4.1C137.27,21.36,137.62,20.77,137.62,20.77Zm-5.29-6.3c1.81-4.75-2.26-8.29-2.41-8.28a17,17,0,0,1,.21,4.24c-.29,2.62,1.29,4.9,1.52,4.29.48-1.31-.24-4.35-.24-4.35a10.76,10.76,0,0,1,.66,4C132,15.06,132.33,14.47,132.33,14.47Zm-5.13-4.15a7.2,7.2,0,0,0-2.59-8,16.06,16.06,0,0,1,.33,4.15c-.21,2.59,1.4,4.74,1.6,4.12.44-1.31-.35-4.26-.35-4.26a10.5,10.5,0,0,1,.76,3.84C126.91,10.92,127.2,10.32,127.2,10.32ZM123.27,7A6.1,6.1,0,0,0,119.85,0a15.16,15.16,0,0,1,.82,3.87c.13,2.53,1.9,4.16,2,3.52.24-1.37-.85-4-.85-4A9.27,9.27,0,0,1,123,6.88C123.06,7.59,123.27,7,123.27,7Z"/><path class="cls-2" d="M35.84,18.88c.63,0,1.26,0,1.89,0,.45,0,.45.22.45.85v.63c0,.53-.06.66-.46.66h-.57c-.09,0-.21,0-.21.12s.09.09.12.1c.22.09,1.09.48,1.09.72s-.13.17-.24.17c-.27,0-.24,0-.7.87a16.51,16.51,0,0,1-1,1.53c0,.07-.12.15-.12.25s.2.17.44.17l1.74,0c.42,0,.46.16.46.67v.81c0,.53,0,.69-.46.69-.62,0-1.25,0-1.88,0H33.74a.42.42,0,0,0-.42.42v1.8c0,.76,0,1.53,0,2.29,0,.39-.18.44-.71.44H31.57c-.51,0-.69-.05-.69-.44,0-.76.06-1.53.06-2.29v-1.8a.42.42,0,0,0-.42-.42H27.86c-.61,0-1.24,0-1.87,0-.42,0-.45-.18-.45-.67v-.75c0-.65,0-.77.58-.77.33,0,.84,0,1.65,0,.23,0,.45,0,.45-.23a17.64,17.64,0,0,0-1.39-2.62.67.67,0,0,1-.15-.32c0-.22.46-.43.66-.54,0,0,.12-.07.12-.13s-.08-.09-.17-.09h-.75c-.42,0-.46-.16-.46-.67V19.5c0-.5,0-.66.45-.66.63,0,1.26,0,1.89,0ZM29.08,21c-.14,0-.39,0-.39.21a.55.55,0,0,0,.12.27,24.31,24.31,0,0,1,1.36,2.69c0,.19-.22.33-.39.42s-.22.1-.22.24.16.12.25.12h.71a.42.42,0,0,0,.42-.42V21.37a.41.41,0,0,0-.42-.42Zm4.66,0a.42.42,0,0,0-.42.42v3.11a.42.42,0,0,0,.42.42h.75c.11,0,.3,0,.3-.14s-.12-.18-.31-.3l-.14-.09a.4.4,0,0,1-.22-.31,1.06,1.06,0,0,1,.24-.42,13,13,0,0,0,1.33-2.46c0-.21-.21-.23-.37-.23Z"/><path class="cls-2" d="M43.81,26.28c0,.18,0,.42.31.42a1.42,1.42,0,0,0,.44-.11.71.71,0,0,1,.25-.06c.32,0,.33.75.33,1,0,.8-.09,1-.46,1.1s-2.79.87-3,.93-.21.07-.28.24a.36.36,0,0,1-.3.22c-.17,0-.24-.27-.41-.76a10.18,10.18,0,0,1-.4-1.37c0-.21.19-.22.54-.28.82-.14.93-.15.93-.66V24.15c0-.29-.08-.56-.42-.56l-.45,0c-.32,0-.35-.15-.35-.59v-.91c0-.44,0-.59.35-.59l.43,0a.45.45,0,0,0,.44-.5V20c0-.53-.05-1-.05-1.17s.12-.2.27-.2,1.35.06,1.64.08.54,0,.54.25-.09.18-.21.27-.12.17-.12.33v1.53a.4.4,0,0,0,.43.45h.32c.28,0,.34.14.34.41v.37c0,.26,0,.35.11.35s.21-.35.34-.69a17.44,17.44,0,0,0,.95-3.24c0-.15,0-.3.24-.3s1.3.24,1.68.31c.22.05.58.14.58.36a.24.24,0,0,1-.19.21c-.23.06-.23.09-.3.35a6.11,6.11,0,0,0-.18.75c0,.19.25.22.4.22H51.2c.56,0,1.1,0,1.65,0,.74,0,.8.32.8,1.16v.57a42.1,42.1,0,0,1-.66,8,2.33,2.33,0,0,1-1.26,1.45,5.34,5.34,0,0,1-1.95.24c-.87,0-1.31,0-1.31-1.32,0-.42,0-.87.48-.87.27,0,.77.05,1.14.05.84,0,.95-.6,1-1.28a45.08,45.08,0,0,0,.3-5.35c0-.57-.14-.63-.8-.63H47.9c-.55,0-.55.25-.75.76a.48.48,0,0,0,0,.2c0,.19.22.22.42.22h1l1.35,0c.46,0,.51.15.51.62V25c0,.46,0,.61-.51.61l-1.35,0h-.86l-1.36,0c-.42,0-.51-.13-.51-.52s0-.47-.32-.59-1-.45-1-.73c0,0,0-.08,0-.09s0-.11-.39-.11a.35.35,0,0,0-.34.39Zm6.85.9c0,.6,0,.81-.4.94a34.44,34.44,0,0,1-3.5,1.05c-.16,0-.21,0-.25.17a.31.31,0,0,1-.27.19c-.17,0-.23-.15-.47-.79a8.34,8.34,0,0,1-.37-1.1c0-.15.12-.22.25-.24a40.38,40.38,0,0,0,4.47-1.09l.14,0C50.65,26.28,50.66,26.77,50.66,27.18Z"/><path class="cls-2" d="M62.17,19.14a.37.37,0,0,0,.36-.32c0-.07,0-.16,0-.24s.13-.22.3-.22,1.32.07,1.57.1.48,0,.48.17-.13.22-.24.3a.09.09,0,0,0,0,.06.18.18,0,0,0,.18.15h.78c.51,0,1,0,1.53,0,.32,0,.71,0,.71.51,0,.18,0,.46,0,.79v.17c0,.33,0,.63,0,.81,0,.43-.33.49-.69.49H64.72a.17.17,0,0,0-.17.16v.09a.18.18,0,0,0,.17.17h2.43l1,0c.23,0,.45,0,.45.3a5.48,5.48,0,0,1-.52,2,1,1,0,0,1-.69.48c-.59.15-.62.28-.62.87v2.49c0,.4,0,.75,0,1,0,.42-.34.54-.85.54H65.8s-.14,0-.14.08,1,.21,1.17.22c.51.05,1,.09,1.52.11.22,0,.27,0,.27.16a3.61,3.61,0,0,1-.18,1c-.11.34-.26.51-.63.51a14.71,14.71,0,0,1-2.37-.27,14.37,14.37,0,0,1-2-.45c-.12-.05-.26-.11-.26-.26a1.8,1.8,0,0,1,.33-.72.26.26,0,0,0,.09-.19c0-.14-.13-.2-.25-.2H60.85c-.14,0-.26.06-.26.2s0,.07.09.19.41.62.54.84a.29.29,0,0,1,.06.18.14.14,0,0,1-.13.12.64.64,0,0,1-.24,0,.53.53,0,0,0-.18-.05l-.14,0a22,22,0,0,1-4.17.6c-.31,0-.37-.12-.48-.42a4,4,0,0,1-.24-1c0-.24.15-.24.23-.24a17.47,17.47,0,0,0,2.53-.17c.42-.06.51-.1.51-.16s0-.06-.13-.06h-.41c-.39,0-.93,0-.93-.54,0-.21,0-.55,0-1V25.92c0-.23,0-.47-.33-.47a1.93,1.93,0,0,0-.53.11,1.59,1.59,0,0,1-.37.06c-.57,0-.86-1-.86-1.29s.11-.29.63-.36c.2,0,1.37-.23,1.37-.42s-.11-.09-.17-.09h-.42c-.43,0-.91,0-.91-.29a1.72,1.72,0,0,1,.1-.39,15.67,15.67,0,0,0,.42-1.63c.06-.32.17-.39.48-.39h2.27a.21.21,0,0,0,.19-.23.18.18,0,0,0-.18-.19H56.36c-.27,0-.31-.07-.31-.36v-.48c0-.31,0-.4.31-.4.47,0,.93,0,1.41,0h1.29a.36.36,0,0,0,.35-.36V18.6c0-.23.1-.29.31-.29s1.64.08,1.83.11a.22.22,0,0,1,.23.21c0,.12-.08.16-.15.21s-.14.07-.14.15a.16.16,0,0,0,.18.15Zm-3.24,3.15a.23.23,0,0,0,.21-.24c0-.11-.09-.18-.23-.18h-.33c-.28,0-.43,0-.43.22a.21.21,0,0,0,.19.2Zm3.21,2.14a.42.42,0,0,0,.42-.42v-.13a.41.41,0,0,0-.42-.42H60.89a1,1,0,0,0-.69.36l-.3.27c-.09.07-.16.15-.16.21s.12.13.19.13Zm2.26,1.62a.17.17,0,0,0,.17-.16V25.8a.18.18,0,0,0-.17-.17H59.9a.17.17,0,0,0-.16.17v.09a.16.16,0,0,0,.16.16ZM59.9,27a.16.16,0,0,0-.16.18v.07a.17.17,0,0,0,.16.17h4.5a.18.18,0,0,0,.17-.17v-.07A.16.16,0,0,0,64.4,27Zm0,1.3a.17.17,0,0,0-.16.17v.09a.16.16,0,0,0,.16.16h4.5a.17.17,0,0,0,.17-.16v-.09a.16.16,0,0,0-.17-.17Zm1.49-6.4a.21.21,0,0,0-.21.21.2.2,0,0,0,.19.21h1a.18.18,0,0,0,.17-.17V22a.16.16,0,0,0-.17-.16Zm1-1.11a.2.2,0,0,0,.2-.2v0a.18.18,0,0,0-.2-.18h-.78c-.12,0-.18.1-.18.22s.08.18.2.2Zm3.11,0a.2.2,0,0,0,.19-.2v0a.18.18,0,0,0-.19-.18h-.72a.18.18,0,0,0-.2.18v0a.21.21,0,0,0,.2.2Zm-.5,2.7a.42.42,0,0,0-.42.42v.36a.2.2,0,0,0,.21.19c.18,0,.21-.1.21-.28s.14-.32.35-.32l.52,0a.89.89,0,0,0,.39-.06.36.36,0,0,0,.2-.26c0-.07-.08-.07-.21-.07Z"/><path class="cls-2" d="M74.21,27.54c-.51,0-.64.25-.72.7a9.06,9.06,0,0,1-1.15,3.18c-.14.21-.33.51-.62.51s-1.51-.78-1.51-1.18a.57.57,0,0,1,.15-.33,8.28,8.28,0,0,0,.85-2.06,19,19,0,0,0,.39-4.66V21.19c0-.54,0-1.06,0-1.6s.22-.83.82-.83,1,0,1.49,0h7l1.46,0c.6,0,.84.21.84.83s0,1.06,0,1.6V28.8c0,.4,0,.82,0,1.23a1.6,1.6,0,0,1-.76,1.6A3.62,3.62,0,0,1,80.6,32a.79.79,0,0,1-.91-.63,3.09,3.09,0,0,1-.18-1c0-.27,0-.48.36-.48a1.06,1.06,0,0,1,.25,0h.36c.44,0,.47-.13.47-.54V28a.42.42,0,0,0-.42-.42H78.67a.42.42,0,0,0-.42.42v.9c0,.79,0,1.57,0,2.35,0,.38-.18.41-.69.41h-.93c-.52,0-.69,0-.69-.42,0-.78,0-1.56,0-2.34V28a.4.4,0,0,0-.42-.42Zm0-3.33c-.46,0-.52.24-.52.64v.33a.44.44,0,0,0,.49.42h1.4a.42.42,0,0,0,.42-.42v-.55a.41.41,0,0,0-.42-.42Zm1.37-2a.4.4,0,0,0,.42-.42v-.54a.41.41,0,0,0-.42-.42H74.17a.42.42,0,0,0-.42.42v.54a.42.42,0,0,0,.42.42Zm4.92,0a.41.41,0,0,0,.42-.42v-.54a.41.41,0,0,0-.42-.42H78.67a.41.41,0,0,0-.42.42v.54a.4.4,0,0,0,.42.42Zm-1.86,2a.4.4,0,0,0-.42.42v.55a.42.42,0,0,0,.42.42h1.86a.42.42,0,0,0,.42-.42v-.55a.42.42,0,0,0-.42-.42Z"/><path class="cls-2" d="M87.14,18.84A7.1,7.1,0,0,1,87.67,20a8.11,8.11,0,0,1,.45,1.34c0,.21-.27.3-.59.43a4.16,4.16,0,0,1-1,.32.27.27,0,0,1-.24-.23,10.64,10.64,0,0,0-.9-2.19.63.63,0,0,1-.09-.24c0-.21.48-.37.74-.48a4.76,4.76,0,0,1,.76-.28A.36.36,0,0,1,87.14,18.84Zm5.7,9.9c0,.4,0,.81,0,1.21,0,1.67-1.07,2-2.52,2-.56,0-.81-.1-.92-.67a5.69,5.69,0,0,1-.12-1c0-.19,0-.49.3-.49a1.05,1.05,0,0,1,.24,0,3,3,0,0,0,.5,0c.51,0,.52-.15.52-.51v-.16c0-.33-.15-.53-.49-.53h-2a.42.42,0,0,0-.42.42v.78c0,.57,0,1.16,0,1.74,0,.35-.15.38-.6.38h-.85c-.42,0-.59,0-.59-.36,0-.59,0-1.17,0-1.76V24.42c0-.47,0-.92,0-1.38,0-.65.31-.75.84-.75.34,0,.7,0,1,0s.48-.3.48-.54v-2c0-.65,0-1.14,0-1.26s.12-.21.29-.21c.36,0,1.33.06,1.74.09.21,0,.45,0,.45.21s-.08.15-.21.24-.11.25-.11.43v2.45c0,.33.11.54.47.54s.7,0,1.06,0c.53,0,.87.07.87.76,0,.45,0,.9,0,1.37Zm-2.26-4.07a.27.27,0,0,0,.28-.28v-.05a.27.27,0,0,0-.28-.28H88.27a.28.28,0,0,0-.29.28v.05a.28.28,0,0,0,.29.28Zm-2.31,1.68a.28.28,0,0,0-.29.29v0a.28.28,0,0,0,.29.29h2.31a.28.28,0,0,0,.28-.29v0a.28.28,0,0,0-.28-.29Zm5.19-7c.21.08.34.15.34.3s-.16.17-.22.18-.21,0-.26.2a18.59,18.59,0,0,1-.7,1.74c-.14.3-.23.45-.42.45a3.3,3.3,0,0,1-.83-.29c-.45-.19-.76-.33-.76-.49a1.07,1.07,0,0,1,.18-.41,11,11,0,0,0,.78-2,.27.27,0,0,1,.28-.24C92,18.75,93,19.12,93.46,19.3Zm2.19,7.17c0,.65,0,1.29,0,2,0,.33-.13.36-.57.36h-.88c-.44,0-.57,0-.57-.37,0-.65,0-1.29,0-1.94V21.55a10.07,10.07,0,0,0-.06-1.29c0-.16.14-.19.27-.19s1.32.07,1.61.1.45.06.45.2-.11.19-.18.25-.15.23-.15,1.49Zm2.76,2.18c0,.25,0,.87,0,1.3,0,1.65-1.26,2-2.64,2-.35,0-.69,0-.84-.3a3.2,3.2,0,0,1-.21-1.14c0-.27,0-.75.39-.75.13,0,.49,0,.81,0s.45-.18.45-1V20.34c0-.24,0-.54,0-.86a7.41,7.41,0,0,0-.06-.94c0-.18.14-.2.27-.2.51,0,1.23.05,1.61.08.22,0,.45,0,.45.22s0,.11-.09.17-.18.21-.18.84Z"/><path class="cls-2" d="M103.49,26.5a7.2,7.2,0,0,1-.16.75,30.6,30.6,0,0,1-1.2,3.77,1.21,1.21,0,0,0-.09.31c0,.09.06.21.06.32a.2.2,0,0,1-.2.18,8.84,8.84,0,0,1-1.35-.78c-.33-.21-.45-.29-.45-.44a2,2,0,0,1,.21-.52,20.21,20.21,0,0,0,1.4-3.93c.07-.3.09-.48.33-.48S103.49,26.14,103.49,26.5Zm-.87-3.78c.32.27.92.78.92,1S102.67,25,102.32,25c-.13,0-.21-.11-.31-.21a20.53,20.53,0,0,0-1.59-1.37c-.09-.06-.21-.15-.21-.27a1.33,1.33,0,0,1,.19-.46l.2-.23c.27-.3.6-.67.79-.67S102.35,22.48,102.62,22.72Zm.65-3.18c.37.32.69.56.69.74s-.9,1.39-1.2,1.39c-.09,0-.21-.1-.42-.3-.48-.42-1-.82-1.5-1.2-.09-.06-.27-.16-.27-.28s1-1.38,1.24-1.38A8.09,8.09,0,0,1,103.27,19.54Zm3.06,3a.41.41,0,0,0-.42.42v1.92a23.26,23.26,0,0,1-.74,6.18c-.3.93-.33,1-.6,1a3.47,3.47,0,0,1-1.12-.3c-.15-.06-.59-.24-.59-.48,0,0,.15-.45.2-.58a17.24,17.24,0,0,0,.88-5.93V22.65c0-.48,0-1,0-1.44s.3-.72.82-.72,1,0,1.47,0h2.39a.43.43,0,0,0,.42-.47v-.42c0-.13,0-.27,0-.4v-.39c0-.29.14-.38.41-.38l1.48.11a.85.85,0,0,1,.48.12.31.31,0,0,0,.15,0c.09,0,.12,0,.2-.09a1.74,1.74,0,0,1,.63-.33c.19,0,.61.56.79.78a2.91,2.91,0,0,1,.48.71c0,.18-.18.33-.31.42s-.18.12-.18.19.06.08.12.08h.12c.42,0,.45.07.45.6V22c0,.47,0,.59-.41.59s-1,0-1.56,0h-.34A.42.42,0,0,0,111,23c0,.49,0,1,0,1.47v.16c0,.29,0,.51.14.51s.19-.22.3-.57a10,10,0,0,0,.3-1.17c0-.1.06-.18.16-.18a7.47,7.47,0,0,1,1,.36c.81.33,1.15.44,1.15.65s-.16.19-.28.24-.23.19-.36.55A23.8,23.8,0,0,1,112,28.2a.88.88,0,0,0-.15.48c0,.21.17.64.32.64s.25-.88.25-1.05,0-.34.33-.34,1.22.16,1.22.76a7.63,7.63,0,0,1-.45,2.22c-.26.65-.62,1.1-1.35,1.1a1.86,1.86,0,0,1-1.52-1,.32.32,0,0,0-.25-.16c-.12,0-.26.18-.36.31s-.66.81-.92.81-1.42-.81-1.42-1.12c0-.11.16-.27.24-.35a11.84,11.84,0,0,0,1.2-1.45,1.37,1.37,0,0,0,.34-.95,7.11,7.11,0,0,0-.13-1.06,27.84,27.84,0,0,1-.27-3.92v-.06c0-.3-.09-.55-.42-.55Zm1.26.52c.36,0,.69,0,1,0s.33.21.33.54v.51c0,.35,0,.56-.33.56l-1,0h-.09c-.33,0-.66,0-1,0s-.34-.23-.34-.56v-.51c0-.33,0-.54.34-.54s.65,0,1,0Zm.25,2h.39c.45,0,.57.24.57.64s0,.65,0,1v1.08c0,.33,0,.65,0,1s-.1.64-.54.64h-.18l-.19,0h-.3c-.3,0-.35.17-.35.42v0c0,.23,0,.3-.36.3h-.3c-.28,0-.39-.06-.39-.31s0-.68,0-1V26.65c0-.33,0-.64,0-1,0-.57.28-.63.61-.63h1Zm-.6,2.58a.24.24,0,0,0,.24.24h0a.23.23,0,0,0,.24-.24v-.88a.24.24,0,0,0-.24-.24h0a.24.24,0,0,0-.24.24Zm4.11-8.2-.12-.15s-.07-.11-.1-.11-.12.27-.12.35v.36c0,.36,0,.63.48.63h.25c.14,0,.26-.05.26-.2S111.49,19.59,111.35,19.44Z"/><path class="cls-2" d="M119.24,27.13a.26.26,0,0,1-.22.15c-.26,0-.3-.37-.39-.73s-.12-.6-.36-.6a5.17,5.17,0,0,0-.89.33l-.13.06c-.62.27-.65.24-.71.4a.26.26,0,0,1-.22.17c-.12,0-.18-.2-.38-.69-.06-.12-.1-.27-.18-.45a1.08,1.08,0,0,0-.07-.18,2.43,2.43,0,0,1-.15-.47c0-.1,0-.09.36-.16a18.3,18.3,0,0,0,2.44-.89.56.56,0,0,1,.23-.07c.27,0,.31.69.33.88s.13.44.42.44.78-.24.78-.53c0-.13-.12-.22-.23-.31a10,10,0,0,0-1.09-.75c-.17-.11-.33-.18-.33-.32s.7-1.26.93-1.26a.32.32,0,0,1,.09,0,.12.12,0,0,0,.07,0c.09,0,.15-.12.27-.33a1,1,0,0,0,.18-.38c0-.13-.12-.18-.24-.18h-1.84c-.62,0-1.22,0-1.83,0-.36,0-.39-.13-.39-.55V20c0-.42,0-.54.42-.54.6,0,1.2,0,1.8,0h2.64a.42.42,0,0,0,.42-.43,3.71,3.71,0,0,0,0-.48s0-.08,0-.11.16-.15.36-.15,1.23.05,1.66.08.59,0,.59.21-.12.16-.18.19a.31.31,0,0,0-.14.32.4.4,0,0,0,.41.37h2.73c.6,0,1.2,0,1.8,0,.37,0,.42.11.42.62v.57c0,.55,0,.67-.44.67-.12,0-.27,0-.27.17s.54,1.15.62,1.3a.47.47,0,0,1,.06.21c0,.08-.06.14-.17.14a.49.49,0,0,1-.16-.05l-.12,0c-.05,0-.45.14-.75.24l-.35.12a9.06,9.06,0,0,1-1.27.35c-.53,0-.87-1.2-.87-1.28,0-.25.3-.3.52-.36.57-.16,1.13-.39,1.68-.6.06,0,.18-.06.18-.13s-.06-.11-.49-.11h-4.31c-.07,0-.12,0-.12.09s0,.06,0,.12-.14.14-.23.14-.1,0-.21.16c-.25.35-.48.68-.75,1-.1.13-.15.18-.15.27a.23.23,0,0,0,.23.24c.13,0,.21-.11.28-.21a14.38,14.38,0,0,0,.86-1.19c.06-.07.12-.15.21-.15a10.25,10.25,0,0,1,1.42.74c.24.15.33.19.33.3s-.22.21-.34.21-.15,0-.23.12c-.34.36-.84,1-1.32,1.51-.13.15-.22.21-.22.3a.14.14,0,0,0,.16.14c.68,0,.83-.11.83-.27a.53.53,0,0,0-.12-.3.48.48,0,0,1-.11-.24c0-.18.3-.3.57-.44l.09,0a1.8,1.8,0,0,1,.6-.21c.23,0,.33.21.44.39s.24.42.42.42.22-.15.28-.26.18-.28.33-.28a14.5,14.5,0,0,1,2,.76,6.59,6.59,0,0,1,.75.38.22.22,0,0,1,.15.21c0,.21-.67,1.33-.93,1.33a.75.75,0,0,1-.34-.18,9,9,0,0,0-1.49-.75.13.13,0,0,0-.12.12,2.38,2.38,0,0,0,.24.51.44.44,0,0,1,.09.24c0,.29-1.12.75-1.38.75s-.22-.16-.28-.3a.53.53,0,0,0-.48-.36c-.14,0-.84.05-.84.21s.12.11.19.11.35,0,.35.22-.09.18-.18.24-.14.09-.14.15.11.08.17.08h3.16c.6,0,1.2,0,1.82,0,.36,0,.39.15.39.58v.75c0,.45,0,.59-.39.59-.62,0-1.22,0-1.82,0h-3a.43.43,0,0,0-.42.45c0,.54,0,1.11,0,1.57s-.14.47-.8.47h-.72c-.64,0-.76-.09-.76-.45s0-1.28,0-1.68a.41.41,0,0,0-.42-.36h-3l-1.82,0c-.36,0-.39-.14-.39-.59V28.5c0-.81,0-.9.41-.9l1.8,0h3.1c.23,0,.29-.2.29-.38s-.12-.33-.35-.33l-1.26.09C119.35,27,119.3,27,119.24,27.13Zm-.76-4.33c0,.22-.81,1.23-1.11,1.23-.08,0-.14-.08-.18-.12a14.8,14.8,0,0,0-1.34-1.13.27.27,0,0,1-.15-.22,3.68,3.68,0,0,1,.57-.72l.18-.21a.61.61,0,0,1,.38-.24A5.42,5.42,0,0,1,118.48,22.8Z"/><path class="cls-3" d="M46.52,79.69H40.26V56.1a21.63,21.63,0,0,1-8.09,4.75V55.17a18.1,18.1,0,0,0,5.33-3.05,11.55,11.55,0,0,0,3.94-5.22h5.08Z"/><path class="cls-3" d="M58.51,62.07a7,7,0,0,1-4.64-6.75,7.92,7.92,0,0,1,2.55-6Q59,46.9,63.67,46.9t7.23,2.38a7.88,7.88,0,0,1,2.58,6,7.15,7.15,0,0,1-1.18,4A7.51,7.51,0,0,1,69,62.07a8.73,8.73,0,0,1,4.13,3.19,8.42,8.42,0,0,1,1.41,4.83,9.83,9.83,0,0,1-2.88,7.35A10.48,10.48,0,0,1,64,80.27a11.56,11.56,0,0,1-7.41-2.34,9.09,9.09,0,0,1-3.5-7.57,9.43,9.43,0,0,1,1.31-4.87A8.46,8.46,0,0,1,58.51,62.07Zm.71,7.69a5.73,5.73,0,0,0,1.33,4,4.3,4.3,0,0,0,3.3,1.45,4.15,4.15,0,0,0,3.21-1.4,5.72,5.72,0,0,0,1.27-4A5.18,5.18,0,0,0,67,66.14a4.27,4.27,0,0,0-3.28-1.4,3.91,3.91,0,0,0-3.42,1.59A5.77,5.77,0,0,0,59.22,69.76Zm.58-14a3.88,3.88,0,0,0,1.06,2.91,3.8,3.8,0,0,0,2.81,1,3.89,3.89,0,0,0,2.86-1.06,3.94,3.94,0,0,0,1.07-2.93,3.9,3.9,0,1,0-7.8,0Z"/><path class="cls-3" d="M77.34,79.69V73.43H83.6v6.26Z"/><path class="cls-3" d="M99.58,79.69V73.12H86.22V67.64L100.38,46.9h5.26V67.62h4.06v5.5h-4.06v6.57Zm0-12.07V56.46l-7.5,11.16Z"/><path class="cls-3" d="M111.78,64.94a4.88,4.88,0,0,1,1-3.4,3.52,3.52,0,0,1,2.72-1.1,3.6,3.6,0,0,1,2.79,1.1,4.92,4.92,0,0,1,1,3.4,4.93,4.93,0,0,1-1,3.4,3.5,3.5,0,0,1-2.73,1.11,3.59,3.59,0,0,1-2.78-1.1A4.89,4.89,0,0,1,111.78,64.94Zm2.55,0a4.46,4.46,0,0,0,.38,2.23.92.92,0,0,0,.8.42,1,1,0,0,0,.82-.42,4.49,4.49,0,0,0,.37-2.23,4.42,4.42,0,0,0-.37-2.22,1,1,0,0,0-1.62,0A4.54,4.54,0,0,0,114.33,64.92ZM118,78.44h-2.42l9.09-18H127ZM123.29,74a4.93,4.93,0,0,1,1-3.4,4,4,0,0,1,5.52,0,4.93,4.93,0,0,1,1,3.4,4.94,4.94,0,0,1-1,3.41,3.49,3.49,0,0,1-2.73,1.1,3.57,3.57,0,0,1-2.79-1.1A4.94,4.94,0,0,1,123.29,74Zm2.55,0a4.28,4.28,0,0,0,.38,2.22.9.9,0,0,0,.8.43.89.89,0,0,0,.8-.42,4.33,4.33,0,0,0,.39-2.23,4.66,4.66,0,0,0-.37-2.24,1,1,0,0,0-.82-.41.91.91,0,0,0-.8.41A4.4,4.4,0,0,0,125.84,74Z"/></g></g></svg>