<svg xmlns="http://www.w3.org/2000/svg" width="152.32" height="111.1" viewBox="0 0 152.32 111.1"><defs><style>.cls-1{fill:#ab8c36;}.cls-2{fill:#545454;}.cls-3{fill:#ed1c24;}</style></defs><g id="レイヤー_2" data-name="レイヤー 2"><g id="レイヤー_1-2" data-name="レイヤー 1"><path class="cls-1" d="M25.12,99.91a1.54,1.54,0,0,0-.94-.63c-.67-.47-1.33-1-2-1.49l.14-.13c3.26-5-.69-10.5-.88-10.54a20,20,0,0,1-.75,5.07,7.85,7.85,0,0,0-.1,4.23c-.36-.33-.7-.67-1.05-1a1.66,1.66,0,0,0-.53-.53c-.56-.59-1.11-1.2-1.64-1.83,0,0,.05,0,.07-.06.85-1.37.69-5,.69-5A13.11,13.11,0,0,1,18,92.72c-.25.84.26.26.26.26,3.17-5-.74-10.28-.92-10.31a19,19,0,0,1-.71,5,7.33,7.33,0,0,0,.1,4.63c-.46-.57-.91-1.15-1.35-1.76.11-.31-.28-.93-.93-1.36-.51-.76-1-1.53-1.47-2.34,1-1.12,1.49-4.39,1.49-4.39a12.33,12.33,0,0,1-1,4.46c-.39.7.19.34.19.34,3.85-3.41,1.27-10,1.11-10.13a17.32,17.32,0,0,1-1.6,4.42,7.36,7.36,0,0,0-.84,4.1,52.56,52.56,0,0,1-2.61-5.56c1.08-.83,2-4.15,2-4.15a11.33,11.33,0,0,1-1.43,4.25c-.45.62.15.38.15.38,4.11-2.63,2.21-9.75,2.06-9.88a15.6,15.6,0,0,1-2,4.08,7.07,7.07,0,0,0-1.22,4.1,59.07,59.07,0,0,1-2-6.29c1.1-.66,2.19-3.65,2.19-3.65a10.19,10.19,0,0,1-1.72,3.85c-.48.52.12.41.12.41,4.14-1.82,2.92-9.05,2.79-9.21a13.47,13.47,0,0,1-2.24,3.6,6.28,6.28,0,0,0-1.49,3.51A66.17,66.17,0,0,1,5.8,64.29h0c1.14-.24,2.62-3.07,2.62-3.07a8.6,8.6,0,0,1-2.09,3.34c-.52.4.06.43.06.43,4.18-.78,3.82-8.14,3.72-8.32a11.2,11.2,0,0,1-2.55,3,5.53,5.53,0,0,0-1.91,3.49,68.62,68.62,0,0,1-.15-11.49c.11-1.58.28-3.13.49-4.66,1.1-.06,2.75-2.16,2.75-2.16a6.62,6.62,0,0,1-2.42,2.58c-.54.23,0,.43,0,.43,4,.5,4.72-6.65,4.65-6.85A8.4,8.4,0,0,1,8.2,43.08a3.81,3.81,0,0,0-1.83,1.76,64.29,64.29,0,0,1,1.49-6.68c1,.46,3.07-1,3.07-1a4.93,4.93,0,0,1-2.79,1.54c-.55,0-.08.41-.08.41,3.71,2.12,5.73-4.58,5.71-4.81a6.39,6.39,0,0,1-3.06.9,3,3,0,0,0-2.38,1.34,62.22,62.22,0,0,1,2.3-6.24c1,.54,2.92-.34,2.92-.34a4.18,4.18,0,0,1-2.81.88c-.53-.12-.12.38-.12.38,3.31,2.86,5.93-3.18,5.92-3.41a5.7,5.7,0,0,1-3,.21,2.43,2.43,0,0,0-2.13.54,57.84,57.84,0,0,1,2.87-5.35c1,.55,2.86-.17,2.86-.17a4,4,0,0,1-2.83.69c-.52-.16-.13.38-.13.38,3.2,3.09,6-2.77,6-3a5.36,5.36,0,0,1-3,0,2.19,2.19,0,0,0-1.62.09c.84-1.24,1.73-2.44,2.65-3.57,2.38,4,6-.39,6-.6a5.7,5.7,0,0,1-2.75-1.16,2.18,2.18,0,0,0-1.26-.52,38.67,38.67,0,0,1,2.92-2.82.84.84,0,0,0,.06.32c2.2,4.23,5.89.06,5.94-.15a5.77,5.77,0,0,1-2.66-1.3,2.21,2.21,0,0,0-1.24-.6,32.41,32.41,0,0,1,3-2,.85.85,0,0,0,0,.35c1.79,4.4,5.59,1,5.66.77a6,6,0,0,1-2.43-1.66,2.47,2.47,0,0,0-1-.73c.68-.34,1.37-.65,2.07-.94C35.43,7.51,37,2.42,37,2.23A5.39,5.39,0,0,1,34.33,3c-1.67-.07-2.91,2.26-2.5,2.48.87.48,2.69-.8,2.69-.8A4.29,4.29,0,0,1,32.12,6c-.47,0-.07.35-.07.35l.17.08a23.75,23.75,0,0,0-2.19,1c-.92-.1-1.7.4-1.54.77l0,0a35.93,35.93,0,0,0-3.91,2.61c-.83.13-1.44.7-1.27,1h0a40,40,0,0,0-3.73,3.55c-.88.18-1.52.81-1.33,1.13a1.43,1.43,0,0,0,.14.2,50.32,50.32,0,0,0-4,5.32,2.28,2.28,0,0,0-.4.62,58.51,58.51,0,0,0-4.86,9.73,6.78,6.78,0,0,0-.22-4,15.3,15.3,0,0,1-.89-4.22c-.16.07-3.35,5.79-.27,9.38,0,0,.49.39.23-.29A11.08,11.08,0,0,1,7.66,29s.08,3.35.91,4.34c.08.1.19,0,.3-.13A64.18,64.18,0,0,0,6.76,40a5.94,5.94,0,0,0-1-3.54,12.89,12.89,0,0,1-1.65-3.66c-.14.13-2.21,6.79,1.46,9,0,0,.54.18.16-.37a9.48,9.48,0,0,1-1.13-3.84s.69,3.15,1.68,3.77a.08.08,0,0,0,.1,0,70,70,0,0,0-1.37,7.86A4.94,4.94,0,0,0,3.9,46.77a11.44,11.44,0,0,1-2-3.38c-.13.16-1.68,7.24,2.26,8.8,0,0,.57.08.13-.4a8.72,8.72,0,0,1-1.48-3.66s.95,3,2,3.47c0,.31-.06.63-.08.94-.11,1.54-.16,3.06-.18,4.57A3.34,3.34,0,0,0,2.8,55.43a7.56,7.56,0,0,1-2.79-2c-.09.22.23,7.58,4.41,6.89a.54.54,0,0,0,.17-.09c.07,1.87.22,3.71.43,5.52A2.64,2.64,0,0,0,3.67,65c-2-.35-2.93-1.81-3-1.61s.79,7.47,4.91,6.26c.29,1.64.64,3.24,1,4.8a2.53,2.53,0,0,0-1.5-.6C3,73.76,2,72.39,1.94,72.6s1.33,7.65,5.58,5.67a1,1,0,0,0,.19-.19c.44,1.35.93,2.66,1.45,3.93A2.29,2.29,0,0,0,8,82c-2.12.44-3.29-.65-3.32-.43s2.18,7.11,6.17,4.23c.52,1,1.06,2,1.63,3a2.51,2.51,0,0,0-.73.27c-2.08,1.11-3.44.41-3.43.64s3,5.89,6.5,2.62c.57.79,1.17,1.54,1.79,2.27a3.25,3.25,0,0,0-.9.47c-2,1.55-3.46,1.12-3.44,1.35s3.81,5.48,7.05,1.08c.79.76,1.61,1.47,2.44,2.14a3.69,3.69,0,0,0-.82.62c-2,2-3.58,1.82-3.53,2s4.63,5.15,7.69-.37c3.45,2.07,12.55,9.22,12.55,9.22l.65-1.44C36.64,107,28.58,102.12,25.12,99.91Zm3.5-90.38a4.76,4.76,0,0,0,2.29,1.35,3.67,3.67,0,0,1-2.47-1c-.09-.09-.14-.13-.18-.13ZM23.5,13.19a4.61,4.61,0,0,0,2.49,1,3.62,3.62,0,0,1-2.65-.6c-.08-.07-.13-.1-.18-.1ZM18.68,18A4.94,4.94,0,0,0,21,18.7a3.62,3.62,0,0,1-2.6-.36ZM4.38,60.85A6.06,6.06,0,0,1,2,58.28S3.4,60.1,4.51,60.36c0,.19,0,.37,0,.55ZM3,68a7,7,0,0,0,2.33,1.64l.09.51A5.7,5.7,0,0,1,3,68Zm4.4,10.87a5.1,5.1,0,0,1-2.83-1.9,5.8,5.8,0,0,0,2.8,1.37l.18.56A.33.33,0,0,0,7.42,78.82Zm.3,6.29a6.1,6.1,0,0,0,2.62.72c.07.16.15.31.23.46A4.61,4.61,0,0,1,7.72,85.11Zm4.08,7.11a6.37,6.37,0,0,0,2.25,0l.25.36A4.32,4.32,0,0,1,11.8,92.22Zm4.18,6a7,7,0,0,0,2.53-.52l.3.29A4.55,4.55,0,0,1,16,98.22Zm5.65.16a15.65,15.65,0,0,0,.54-4.86A13.26,13.26,0,0,1,22,98.39a1.76,1.76,0,0,0-.06.25Zm-.22,5.07a8.22,8.22,0,0,0,2.71-1.14l.45.29A5.17,5.17,0,0,1,21.41,103.45Zm7.11-2A8.42,8.42,0,0,0,25.4,91.33a19.45,19.45,0,0,1,.29,5.4c-.37,3.43,1.63,6.11,1.92,5.27.61-1.77-.27-5.61-.27-5.61a12.74,12.74,0,0,1,.85,4.94C28.11,102.3,28.52,101.48,28.52,101.48ZM6.19,57.25c-.53.36,0,.42,0,.42,4.13-.48,4-7.77,3.93-8a10.62,10.62,0,0,1-2.61,2.76C5.69,53.65,5.15,57,5.68,56.94c1.12-.16,2.67-2.86,2.67-2.86A8.25,8.25,0,0,1,6.19,57.25ZM10.89,27s.43.47.23-.24a11.35,11.35,0,0,1,0-4.15s-.2,3.27.51,4.38c.34.53,1.55-2.31.8-4.79A16.64,16.64,0,0,1,11.91,18C11.75,18,8.23,23,10.89,27ZM15,20.6a11.46,11.46,0,0,1,.59-4.1s-.66,3.17-.14,4.49c.25.62,1.83-1.8,1.48-4.49A16.3,16.3,0,0,1,17,12.13c-.16,0-4.3,3.83-2.32,8.64C14.7,20.77,15.05,21.36,15,20.6Zm5.29-6.28a10.76,10.76,0,0,1,.66-4s-.71,3-.24,4.35c.23.61,1.81-1.67,1.52-4.29a16.66,16.66,0,0,1,.22-4.24c-.15,0-4.23,3.53-2.42,8.28C20,14.47,20.32,15.06,20.25,14.32Zm5.12-4.14a10.5,10.5,0,0,1,.76-3.84s-.78,2.95-.35,4.26c.2.62,1.81-1.53,1.6-4.12a16.06,16.06,0,0,1,.33-4.15,7.2,7.2,0,0,0-2.59,8S25.42,10.92,25.37,10.18Zm3.94-3.3A9.28,9.28,0,0,1,30.5,3.41s-1.1,2.61-.86,4c.11.64,1.89-1,2-3.52A15.16,15.16,0,0,1,32.47,0a6.09,6.09,0,0,0-3.41,7S29.26,7.59,29.31,6.88Z"/><path class="cls-1" d="M114,109.66l.65,1.44s9.1-7.15,12.56-9.22c3,5.52,7.63.64,7.69.37s-1.54,0-3.54-2a3.28,3.28,0,0,0-.82-.62c.84-.67,1.65-1.38,2.44-2.14,3.24,4.4,7-.82,7.05-1.08s-1.43.2-3.44-1.35a3.2,3.2,0,0,0-.89-.47c.61-.73,1.21-1.48,1.79-2.27,3.45,3.27,6.49-2.37,6.5-2.62s-1.36.47-3.44-.64a2.51,2.51,0,0,0-.73-.27c.58-1,1.12-2,1.63-3,4,2.88,6.2-4,6.17-4.23s-1.2.87-3.32.43a2.3,2.3,0,0,0-1.14.06c.52-1.27,1-2.58,1.45-3.93a1,1,0,0,0,.19.19c4.26,2,5.64-5.43,5.58-5.67s-1.07,1.16-3.19,1.23a2.53,2.53,0,0,0-1.5.6c.4-1.56.75-3.16,1-4.8,4.13,1.21,5-6,4.91-6.26a6.93,6.93,0,0,1-3,1.61,2.63,2.63,0,0,0-1.36.73c.21-1.81.36-3.65.43-5.52a.68.68,0,0,0,.17.09c4.18.69,4.5-6.67,4.41-6.89a7.35,7.35,0,0,1-2.78,2,3.35,3.35,0,0,0-1.76,1.68c0-1.51-.06-3-.17-4.57l-.09-.94c1.06-.5,2-3.47,2-3.47A8.87,8.87,0,0,1,148,51.79c-.43.48.13.4.13.4,3.94-1.56,2.39-8.64,2.26-8.8a11.17,11.17,0,0,1-2,3.38,4.92,4.92,0,0,0-1.14,2.44,70,70,0,0,0-1.38-7.86.08.08,0,0,0,.1,0c1-.62,1.69-3.77,1.69-3.77a9.65,9.65,0,0,1-1.14,3.84c-.38.55.16.37.16.37,3.68-2.22,1.6-8.88,1.46-9a12.55,12.55,0,0,1-1.65,3.66,5.93,5.93,0,0,0-1,3.54,66.64,66.64,0,0,0-2.11-6.72c.11.17.21.23.29.13.83-1,.91-4.34.91-4.34a11.27,11.27,0,0,1-.37,4.2c-.27.68.22.29.22.29,3.08-3.59-.1-9.31-.26-9.38a16.08,16.08,0,0,1-.9,4.22,6.86,6.86,0,0,0-.22,4,58.51,58.51,0,0,0-4.86-9.73,2.28,2.28,0,0,0-.4-.62,49,49,0,0,0-4-5.32,1.43,1.43,0,0,0,.14-.2c.19-.32-.45-.95-1.33-1.13A38.81,38.81,0,0,0,129,11.86h0c.17-.32-.44-.89-1.28-1a35.93,35.93,0,0,0-3.91-2.61l0,0c.15-.37-.62-.87-1.54-.77-.73-.37-1.46-.7-2.2-1l.17-.08s.4-.35-.07-.35a4.26,4.26,0,0,1-2.39-1.32s1.81,1.28,2.69.8c.41-.22-.84-2.55-2.51-2.48a5.44,5.44,0,0,1-2.62-.77c0,.19,1.52,5.28,4.35,4.36.7.29,1.4.6,2.08.94a2.49,2.49,0,0,0-1,.73,6.13,6.13,0,0,1-2.42,1.66c.06.19,3.87,3.63,5.65-.77a.85.85,0,0,0,0-.35,32.41,32.41,0,0,1,3,2,2.28,2.28,0,0,0-1.24.6,5.81,5.81,0,0,1-2.65,1.3c0,.21,3.73,4.38,5.94.15a1.11,1.11,0,0,0,.06-.32c1,.87,2,1.82,2.91,2.82a2.21,2.21,0,0,0-1.26.52,5.66,5.66,0,0,1-2.75,1.16c.05.21,3.64,4.62,6,.6.92,1.13,1.81,2.33,2.66,3.57a2.2,2.2,0,0,0-1.62-.09,5.41,5.41,0,0,1-3,0c0,.24,2.81,6.1,6,3,0,0,.39-.54-.13-.38a4,4,0,0,1-2.83-.69s1.88.72,2.86.17a53.42,53.42,0,0,1,2.87,5.35,2.41,2.41,0,0,0-2.13-.54,5.7,5.7,0,0,1-3-.21c0,.23,2.61,6.27,5.92,3.41,0,0,.41-.5-.12-.38a4.18,4.18,0,0,1-2.81-.88s1.94.88,2.92.34a59.86,59.86,0,0,1,2.3,6.24,3,3,0,0,0-2.38-1.34,6.26,6.26,0,0,1-3.05-.9c0,.23,2,6.93,5.7,4.81,0,0,.47-.41-.08-.41a4.93,4.93,0,0,1-2.79-1.54s2,1.43,3.07,1a64.3,64.3,0,0,1,1.5,6.68,3.83,3.83,0,0,0-1.84-1.76A8.68,8.68,0,0,1,141.31,41c-.07.2.64,7.35,4.65,6.85,0,0,.54-.2,0-.43a6.57,6.57,0,0,1-2.43-2.58s1.65,2.1,2.75,2.16c.21,1.53.38,3.08.49,4.66a67.58,67.58,0,0,1-.15,11.49,5.51,5.51,0,0,0-1.9-3.49,11.14,11.14,0,0,1-2.56-3c-.1.18-.46,7.54,3.72,8.32,0,0,.58,0,.07-.43a8.6,8.6,0,0,1-2.09-3.34s1.48,2.83,2.61,3.07h0a63.53,63.53,0,0,1-1.14,6.76,6.21,6.21,0,0,0-1.49-3.51,13.47,13.47,0,0,1-2.24-3.6c-.13.16-1.35,7.39,2.8,9.21,0,0,.59.11.11-.41a10.35,10.35,0,0,1-1.72-3.85s1.09,3,2.19,3.65a59.07,59.07,0,0,1-2,6.29,7.07,7.07,0,0,0-1.22-4.1,15.6,15.6,0,0,1-2-4.08c-.14.13-2.05,7.25,2.06,9.88,0,0,.6.24.15-.38a11.69,11.69,0,0,1-1.43-4.25s.88,3.32,2,4.15A52.56,52.56,0,0,1,140,85.61a7.36,7.36,0,0,0-.84-4.1,17.32,17.32,0,0,1-1.6-4.42c-.15.11-2.74,6.72,1.11,10.13,0,0,.58.36.2-.34a12.14,12.14,0,0,1-1-4.46s.53,3.27,1.49,4.39c-.47.81-1,1.58-1.46,2.34-.66.43-1.05,1-.94,1.36-.43.61-.89,1.19-1.34,1.76a7.47,7.47,0,0,0,.1-4.63,20,20,0,0,1-.72-5c-.18,0-4.09,5.35-.91,10.31,0,0,.5.58.26-.26a12.9,12.9,0,0,1-.14-4.77s-.15,3.67.7,5a.34.34,0,0,0,.06.06c-.53.63-1.07,1.24-1.63,1.83a1.71,1.71,0,0,0-.54.53l-1,1a8,8,0,0,0-.1-4.23,19.82,19.82,0,0,1-.76-5.07c-.18,0-4.14,5.51-.88,10.54l.14.13c-.64.53-1.31,1-2,1.49a1.54,1.54,0,0,0-.94.63C123.75,102.12,115.68,107,114,109.66Zm10.06-99.9s-.09,0-.18.13a3.67,3.67,0,0,1-2.47,1,4.76,4.76,0,0,0,2.29-1.35Zm5.1,3.72s-.09,0-.17.1a3.62,3.62,0,0,1-2.65.6,4.59,4.59,0,0,0,2.48-1Zm4.75,4.86a3.65,3.65,0,0,1-2.61.36,4.92,4.92,0,0,0,2.34-.66ZM147.8,60.91c0-.18,0-.36,0-.55,1.11-.26,2.49-2.08,2.49-2.08a6.06,6.06,0,0,1-2.36,2.57Zm-.91,9.19c0-.17.05-.34.08-.51A7,7,0,0,0,149.31,68,5.76,5.76,0,0,1,146.89,70.1Zm-2.13,8.75c.06-.19.12-.37.17-.56a5.8,5.8,0,0,0,2.8-1.37,5.11,5.11,0,0,1-2.82,1.9A.28.28,0,0,0,144.76,78.85Zm-3,7.44.23-.46a6,6,0,0,0,2.61-.72A4.58,4.58,0,0,1,141.76,86.29ZM138,92.61l.24-.36a6.42,6.42,0,0,0,2.26,0A4.32,4.32,0,0,1,138,92.61ZM133.51,98l.3-.29a7,7,0,0,0,2.54.52A4.58,4.58,0,0,1,133.51,98Zm-3.13.65a1.76,1.76,0,0,0-.06-.25,13.24,13.24,0,0,1-.16-4.87,15.54,15.54,0,0,0,.53,4.86Zm-2.63,4,.45-.29a8.22,8.22,0,0,0,2.71,1.14A5.17,5.17,0,0,1,127.75,102.6Zm-3.62-1.27a12.74,12.74,0,0,1,.85-4.94s-.88,3.84-.26,5.61c.29.84,2.29-1.84,1.92-5.27a20.27,20.27,0,0,1,.28-5.4,8.43,8.43,0,0,0-3.12,10.15S124.21,102.3,124.13,101.33ZM144,54.08s1.55,2.7,2.68,2.86c.52.07,0-3.29-1.89-4.47a10.62,10.62,0,0,1-2.61-2.76c-.09.19-.2,7.48,3.94,8,0,0,.57-.06,0-.42A8.17,8.17,0,0,1,144,54.08ZM140.41,18a16.64,16.64,0,0,1-.51,4.26c-.75,2.48.46,5.32.8,4.79.71-1.11.51-4.38.51-4.38a11.14,11.14,0,0,1,0,4.15c-.19.71.24.24.24.24C144.09,23,140.57,18,140.41,18Zm-2.79,2.79c2-4.81-2.16-8.64-2.32-8.64a16.3,16.3,0,0,1,.13,4.37c-.35,2.69,1.23,5.11,1.48,4.49.52-1.32-.14-4.49-.14-4.49a11.24,11.24,0,0,1,.59,4.1C137.27,21.36,137.62,20.77,137.62,20.77Zm-5.29-6.3c1.81-4.75-2.26-8.29-2.41-8.28a17,17,0,0,1,.21,4.24c-.29,2.62,1.29,4.9,1.52,4.29.48-1.31-.24-4.35-.24-4.35a10.76,10.76,0,0,1,.66,4C132,15.06,132.33,14.47,132.33,14.47Zm-5.13-4.15a7.2,7.2,0,0,0-2.59-8,16.06,16.06,0,0,1,.33,4.15c-.21,2.59,1.4,4.74,1.6,4.12.44-1.31-.35-4.26-.35-4.26a10.5,10.5,0,0,1,.76,3.84C126.91,10.92,127.2,10.32,127.2,10.32ZM123.27,7A6.1,6.1,0,0,0,119.85,0a15.16,15.16,0,0,1,.82,3.87c.13,2.53,1.9,4.16,2,3.52.24-1.37-.85-4-.85-4A9.27,9.27,0,0,1,123,6.88C123.06,7.59,123.27,7,123.27,7Z"/><path class="cls-2" d="M46,20.34a5.57,5.57,0,0,1,.87.69c.15.12.64.51.64.69a.19.19,0,0,1-.19.18.16.16,0,0,1-.09,0H47.1a.35.35,0,0,0-.23.09,1.1,1.1,0,0,1-.18.14c-.21.16-.34.27-.34.4s.1.18.33.35.82.57,1,.7.15.09.15.18c0,.26-1,1.4-1.38,1.4A17.12,17.12,0,0,1,44,23.25c-.06-.06-.15-.15-.24-.15a.15.15,0,0,0-.15.15c-.05.13-.05.28-.45.28s-.87,0-1.29,0h-1.7l-1.3,0c-.38,0-.39-.12-.45-.28a.15.15,0,0,0-.14-.09.35.35,0,0,0-.25.15,13.15,13.15,0,0,1-2.6,1.89c-.31,0-1.18-1.05-1.18-1.35s.19-.24.58-.47.69-.43.69-.58-.58-.57-.76-.69-.23-.15-.23-.27.29-.44.59-.71c.15-.13.46-.45.69-.45s.84.59,1,.75a.4.4,0,0,0,.29.12c.18,0,.27-.1.49-.36l.27-.31c0-.05.14-.14.14-.21s-.11-.11-.53-.11H36c-.36,0-.74,0-1.07,0s-.3-.15-.3-.51V19.3c0-.36,0-.52.29-.52s.69,0,1.08,0h2.26l1.16,0c.6,0,.66.14,1,.65a1.38,1.38,0,0,1,.32.61c0,.27-.72,1.13-.92,1.37a.51.51,0,0,0-.1.24c0,.16.15.18.36.18h1.71c.27,0,.49,0,.49-.2a.67.67,0,0,0-.15-.27,12.23,12.23,0,0,1-1.45-2.2c0-.26,1.36-.9,1.62-.9s.24.12.31.24.5.94.69.94.2-.1.39-.24a3.29,3.29,0,0,0,.41-.33c.06-.06.15-.15.22-.15a4.61,4.61,0,0,1,.83.65c.15.12.67.51.67.69a.18.18,0,0,1-.19.18.11.11,0,0,1-.08,0h-.12a.33.33,0,0,0-.24.09,4,4,0,0,1-.33.26c-.28.22-.36.27-.36.39a.22.22,0,0,0,.23.21c.12,0,.19-.09.37-.23a3.42,3.42,0,0,0,.6-.48C45.82,20.43,45.91,20.34,46,20.34Zm-2,9.37c0,.17.18.18.33.18H45c.66,0,1.31,0,2,0,.36,0,.39.17.39.57v.81c0,.44,0,.59-.39.59-.66,0-1.32,0-2,0H37c-.65,0-1.31,0-2,0-.36,0-.39-.14-.39-.59v-.81c0-.42,0-.57.39-.57.66,0,1.31,0,2,0h.55c.21,0,.35,0,.35-.19a1.94,1.94,0,0,0-.24-.44c-.06-.09-.2-.27-.2-.37a.34.34,0,0,1,.2-.26c.09-.06.16-.09.16-.13s-.09-.06-.13-.06h-.08c-.42,0-.64-.18-.64-.63s0-.68,0-1v-.92c0-.37,0-.73,0-1.06,0-.48.25-.62.7-.62s.83,0,1.23,0h4.17c.41,0,.81,0,1.22,0s.72.11.72.62c0,.33,0,.69,0,1.06v.92c0,.37,0,.72,0,1s-.23.63-.65.63h-.07c-.05,0-.15,0-.15.07s.06.08.1.08.48.12.48.33a.19.19,0,0,1-.21.19c-.15.05-.21.06-.3.2S44,29.62,44,29.71Zm-5-3.33a.36.36,0,0,0,.36.36h3.11a.36.36,0,0,0,.36-.36v-.12a.37.37,0,0,0-.36-.36H39.43a.35.35,0,0,0-.36.36Zm2,3.51c.36,0,.6,0,.78-.39a4.73,4.73,0,0,0,.34-.87c0-.21-.21-.24-.36-.24H40.18c-.16,0-.49,0-.49.24a2.39,2.39,0,0,0,.27.62l.1.21a.69.69,0,0,0,.77.43Z"/><path class="cls-2" d="M61.54,25.12a6.61,6.61,0,0,1,1,1,.33.33,0,0,0,.06.06c.12.15.33.37.33.49a.18.18,0,0,1-.18.2l-.11,0-.13,0a.5.5,0,0,0-.23.09l-.34.27c-.29.21-.44.33-.44.51a1.88,1.88,0,0,0,.41.77.88.88,0,0,1,.12.15c.27.36.55.7.84,1.05.07.07.19.19.19.31,0,.3-1.15,1.08-1.45,1.08s-.48-.4-.8-.88-.64-1-.81-1.35c0-.08-.09-.15-.16-.15s-.14.24-.14.31c0,.29,0,.57,0,.86a2,2,0,0,1-.43,1.51,3.85,3.85,0,0,1-2.21.57c-.34,0-.66,0-.66-1.33,0-.08,0-.17,0-.21s-.09-.18-.15-.18a.2.2,0,0,0-.14.06.3.3,0,0,1-.1.07c-.14.08-.14.09-.15.17s-.12.28-.27.28-.18-.09-.3-.31a1.54,1.54,0,0,1-.14-.23L55,30c0-.07-.12-.24-.21-.24s-.1.18-.1.3c0,.47-.15.51-.44.59-1.23.34-2.47.61-3.72.85-.25.05-.25.11-.4.3s-.08.09-.15.09-.24-.22-.41-.76c-.09-.26-.18-.57-.33-1a.55.55,0,0,1-.06-.22c0-.24.23-.23,1-.32.38,0,1,0,1-.51V26.82a.43.43,0,0,0-.43-.42c-.38,0-.74,0-1.1,0s-.31-.12-.31-.53v-.7c0-.42,0-.56.31-.56s.78.05,1.17.05.36-.15.36-.29v-.1a.29.29,0,0,0-.3-.29c-.24,0-.49,0-.75,0s-.31-.15-.31-.4v-.23a.59.59,0,0,0-.24-.57c-.15-.15-.5-.49-.5-.7s.3-.41.41-.51a11.58,11.58,0,0,0,2-3.17c0-.1.06-.18.25-.18s.83.21,1,.26c.88.22,1,.27,1,.45s-.12.15-.21.16-.1.06-.1.12,0,.11.18.24a11.25,11.25,0,0,0,1.29,1.2c.1.09.21.17.21.32s-.48.75-.65.93a.49.49,0,0,0-.12.3,1.1,1.1,0,0,0,0,.16,1.08,1.08,0,0,1,0,.32v.93c0,.24,0,.37-.31.37l-.72,0a.29.29,0,0,0-.3.27v.14c0,.15.13.25.31.25.35,0,.69,0,1,0s.31.12.31.6v.6c0,.45,0,.59-.31.59s-.63,0-.93,0a.38.38,0,0,0-.42.4v1.86a.31.31,0,0,0,.33.32s.4,0,.4-.15-.15-.14-.37-.21-.17-.08-.17-.18a1.77,1.77,0,0,1,.08-.33,11.56,11.56,0,0,0,.28-1.4c0-.1.06-.13.17-.13a6.58,6.58,0,0,1,.91.21c.39.1.6.16.6.33a.18.18,0,0,1-.18.19c-.16,0-.18.11-.25.44-.05.16-.11.39-.21.7a.51.51,0,0,0,0,.17c0,.1.07.28.19.28A13.44,13.44,0,0,0,57,27.33a.19.19,0,0,1,.15-.08c.12,0,.24.17.31.26a.23.23,0,0,0,.17.1c.09,0,.09-.12.09-.37V25.41a.43.43,0,0,0-.41-.44H57c-.54,0-1.08,0-1.62,0-.36,0-.39-.15-.39-.54v-.67c0-.44,0-.6.39-.6l1.62,0h2.18A.25.25,0,0,0,59.4,23V22.9a.25.25,0,0,0-.24-.24H57.63c-.53,0-1.05,0-1.58,0-.3,0-.33-.13-.33-.52v-.65c0-.37,0-.51.32-.51.54,0,1.06,0,1.59,0H58.9c.15,0,.47,0,.47-.22s-.3-.3-.47-.3H57c-.44,0-.87,0-1.29,0s-.5-.14-.5-.6v-.68c0-.37.06-.54.45-.54s.89.05,1.34.05h1.93c.51,0,1,0,1.53,0,1,0,1,.4,1,1.11v2.92a.41.41,0,0,0,.42.42h.55c.36,0,.39.16.39.6v.64c0,.42,0,.57-.4.57-.54,0-1.07,0-1.61,0h-.4c-.17,0-.41,0-.41.24a1.12,1.12,0,0,0,.15.42c.06.14.12.27.3.27s.71-.48.86-.63S61.47,25.12,61.54,25.12ZM50.67,27.66c0,.21.15,1.12.15,1.3s-.21.27-.47.33a4.79,4.79,0,0,1-.81.15c-.16,0-.18-.12-.19-.3-.08-.63-.12-1.26-.23-1.89a1,1,0,0,1,0-.18c0-.15.15-.16.42-.22a6.69,6.69,0,0,1,.74-.12C50.53,26.73,50.55,26.86,50.67,27.66ZM53,22.27c.19,0,.4,0,.4-.18a.54.54,0,0,0-.21-.33c-.13-.13-.34-.37-.48-.52s-.12-.15-.22-.15-.27.19-.36.31-.27.41-.33.5a.26.26,0,0,0-.09.18c0,.19.19.19.33.19Zm3.21,2.87c.21,0,.67.61.81.79s.46.59.46.74a3.82,3.82,0,0,1-1.38.93c-.09,0-.13-.09-.18-.17a6.75,6.75,0,0,0-.9-1.17.28.28,0,0,1-.1-.19C54.87,25.86,55.89,25.14,56.16,25.14Zm1.29,4.12a3.83,3.83,0,0,1-.44.36.26.26,0,0,0-.1.2c0,.16.22.16.34.16.5,0,.5,0,.5-.63,0-.07,0-.18-.12-.18A.23.23,0,0,0,57.45,29.26Z"/><path class="cls-2" d="M72.64,21.43a.4.4,0,0,0-.42.42v6.66a.42.42,0,0,0,.42.42h2.67c.68,0,1.35,0,2,0,.39,0,.42.16.42.66v.87c0,.49,0,.66-.41.66-.69,0-1.36,0-2,0H66.79c-.69,0-1.36,0-2,0-.39,0-.42-.18-.42-.66v-.86c0-.49,0-.67.44-.67.67,0,1.35,0,2,0h2.63a.43.43,0,0,0,.42-.42V21.85a.44.44,0,0,0-.42-.42h-2c-.61,0-1.24.05-1.87.05-.41,0-.45-.17-.45-.65v-.9c0-.51,0-.69.45-.69.63,0,1.26.05,1.87.05h7.23c.62,0,1.25-.05,1.88-.05.4,0,.45.15.45.63v.92c0,.52,0,.69-.45.69-.63,0-1.26-.05-1.88-.05Z"/><path class="cls-2" d="M87.18,24.54a.2.2,0,0,0,.19.19h3.32c.36,0,.7,0,.7.49,0,.26,0,.51,0,.77a.41.41,0,0,0,.4.43h.57c.32,0,.32.15.32.6v.24c0,.25,0,.39-.3.39h-.6c-.14,0-.41.09-.41.49v.08c0,.39,0,.94,0,1.12,0,.35-.23.36-.51.36h-1c-.61,0-.7,0-.81-.22a.31.31,0,0,0-.31-.14H87.69a.42.42,0,0,0-.48.41c0,.15,0,.4,0,.6a1.37,1.37,0,0,1-.49,1.12,4.57,4.57,0,0,1-2.45.5c-.54,0-.81-.05-1-.39a4,4,0,0,1-.21-1.23c0-.21,0-.39.3-.39a2.07,2.07,0,0,1,.35,0,4.12,4.12,0,0,0,.6,0c.4,0,.52-.06.52-.43,0-.18-.13-.26-.3-.26H82.74c-.87,0-1.41,0-1.76,0-.55,0-.55,0-.55-.61v-.26c0-.34,0-.42.39-.42.64,0,1.29,0,1.92,0h2a.18.18,0,0,0,.18-.19v-.09a.18.18,0,0,0-.18-.2h-3l-2.07,0c-.28,0-.31-.12-.31-.41V27c0-.49,0-.58.31-.58.69,0,1.38,0,2.07,0h3a.18.18,0,0,0,.18-.2v0a.18.18,0,0,0-.18-.2H81.93l-1.22,0c-.22,0-.25-.09-.25-.36v-.53c0-.3,0-.42.25-.42.41,0,.81,0,1.22,0H84.7a.18.18,0,0,0,.18-.19v0a.18.18,0,0,0-.18-.2h-.9c-.55,0-1.12,0-1.69,0-.35,0-1,0-1-.48,0-.09,0-.19,0-.27s0-.33,0-.49v-.59c0-.16,0-.31,0-.49s0-.18,0-.27c0-.48.63-.48,1-.48.57,0,1.14,0,1.69,0h.9a.18.18,0,0,0,.18-.2v0a.18.18,0,0,0-.18-.2H82.05c-.66,0-1.31,0-2,0-.3,0-.36-.12-.36-.42V20c0-.37,0-.52.36-.52.66,0,1.31,0,2,0H84.4a.42.42,0,0,0,.47-.42c0-.08-.05-.36-.05-.45s.17-.21.32-.21h.39c.45,0,1.38.11,1.72.17.14,0,.23.07.23.21s-.06.13-.15.22a.28.28,0,0,0-.12.23c0,.09.06.24.3.24h2.43c.67,0,1.33,0,2,0,.3,0,.33.13.33.45v.54c0,.33,0,.46-.34.46-.66,0-1.32,0-2,0H87.37a.2.2,0,0,0-.19.2v0a.2.2,0,0,0,.19.2h.86c.57,0,1.14,0,1.69,0,.35,0,1,0,1,.48a1.18,1.18,0,0,1,0,.27c0,.18,0,.33,0,.49v.59c0,.16,0,.31,0,.49a1.18,1.18,0,0,1,0,.27c0,.48-.63.48-1,.48-.57,0-1.12,0-1.69,0h-.86a.19.19,0,0,0-.19.2Zm-3.68-2a.24.24,0,0,0-.24.24v0a.24.24,0,0,0,.24.24h1.14a.24.24,0,0,0,.24-.24v0a.24.24,0,0,0-.24-.24Zm3.92,0a.24.24,0,0,0-.24.24v0a.24.24,0,0,0,.24.24h1.12a.24.24,0,0,0,.24-.24v0a.24.24,0,0,0-.24-.24Zm-.24,3.69a.2.2,0,0,0,.19.2h1.55a.19.19,0,0,0,.19-.2v0a.18.18,0,0,0-.19-.2H87.37a.2.2,0,0,0-.19.2Zm.19,1.38a.2.2,0,0,0-.19.2v.09a.2.2,0,0,0,.19.19h1.55a.18.18,0,0,0,.19-.19v-.09a.18.18,0,0,0-.19-.2Z"/><path class="cls-2" d="M99.69,24.39l-1.37,0c-.25,0-.3-.12-.31-.6,0-.11-.05-.26-.18-.26a.25.25,0,0,0-.18.08,8.49,8.49,0,0,1-2.22,1.27c-.53,0-1.19-1.15-1.19-1.57,0-.14.11-.2.21-.26A13.43,13.43,0,0,0,100,18.37a.32.32,0,0,1,.27-.16c.23,0,1.52.24,1.94.33s.66.12.66.33a.31.31,0,0,1-.18.24.14.14,0,0,0-.11.12c0,.1.33.45.42.54a12.42,12.42,0,0,0,4.46,3.13c.4.17.49.23.49.39,0,.41-.58,1.74-1,1.74a10.82,10.82,0,0,1-2.52-1.42.36.36,0,0,0-.22-.11c-.14,0-.17.15-.17.27v.05c0,.52-.09.6-.31.6l-1.37,0Zm-3.18,7.38c-.05.09-.11.16-.21.16s-.3-.4-.45-1a6.44,6.44,0,0,1-.24-1.19c0-.21.07-.24.73-.24h.23c.36,0,.72,0,.91-.33a2,2,0,0,0,.14-.25,9.23,9.23,0,0,0,.75-1.5c0-.21-.24-.24-.41-.24h-.49c-.66,0-1.32,0-2,0-.33,0-.36-.19-.36-.64v-.81c0-.47,0-.66.36-.66.66,0,1.32,0,2,0h7c.66,0,1.32,0,2,0,.32,0,.38.18.38.58v.95c0,.43-.08.58-.39.58s-.84,0-1.14,0-.47,0-.47.18a.26.26,0,0,0,.06.16A22.21,22.21,0,0,1,107,31.15c0,.36-1.59.89-1.88.89s-.28-.12-.49-.57a.77.77,0,0,0-.75-.39c-.08,0-6,.46-7.17.52A.26.26,0,0,0,96.51,31.77Zm5.71-9.32c.12,0,.33,0,.33-.19s-.18-.32-.45-.57-.36-.36-.55-.59-.3-.36-.51-.36-.42.26-.75.62l-.6.58a.52.52,0,0,0-.18.32c0,.19.19.19.33.19Zm-2.14,6.68c0,.19.16.24.33.24.34,0,1.68-.06,2.08-.09s.71-.08.71-.29a2.49,2.49,0,0,0-.44-.75c0-.06-.12-.16-.12-.22s.56-.48.84-.62c.06,0,.17-.07.17-.15s-.05-.07-.2-.07h-1.87c-.17,0-.21,0-.24.13s-.11.15-.26.18-.22.08-.33.27A8.57,8.57,0,0,0,100.08,29.13Z"/><path class="cls-2" d="M113.4,29.38c0,.74,0,1.46,0,2.18,0,.39-.15.42-.6.42h-.93c-.54,0-.7,0-.7-.39,0-.74,0-1.47,0-2.21V28.5c0-.12,0-.3-.18-.3a.45.45,0,0,0-.21.1.66.66,0,0,1-.4.17c-.24,0-.48-.27-.63-.45l-.21-.26c-.24-.28-.45-.52-.45-.7s.25-.36.39-.47a18.47,18.47,0,0,0,2.68-2.77,5.5,5.5,0,0,0,.56-.87c0-.12-.26-.12-.36-.12H111c-.45,0-.91,0-1.15,0s-.33-.16-.33-.52v-1c0-.48,0-.63.33-.63s.55,0,.79,0,.6-.09.6-.51v-.61a9.11,9.11,0,0,0,0-.93c0-.05,0-.11,0-.15s.15-.21.3-.21c.32,0,1.4.1,1.76.15s.58,0,.58.28-.16.24-.28.35-.15.3-.15.82v.36a.43.43,0,0,0,.43.45c.18,0,.36,0,.54,0,.47,0,.66.23.93.57a1.42,1.42,0,0,1,.35.63,12.43,12.43,0,0,1-1.59,2.84.33.33,0,0,0-.12.25c0,.12.15.27.4.51l.18.17c.29.27.66.57,1,.81.15.1.42.27.42.43s-.87,1.37-1.28,1.37c-.22,0-.78-.56-.94-.74s-.11-.1-.17-.1-.13.16-.13.25Zm6.43-.58a.46.46,0,0,0,.51.52h.45c.54,0,1.08,0,1.61,0,.34,0,.39.15.39.55v1c0,.44-.05.59-.39.59-.54,0-1.07-.05-1.61-.05h-4.44c-.54,0-1.08.05-1.6.05-.36,0-.41-.15-.41-.68V30c0-.56,0-.75.41-.75s1.06,0,1.6,0h.86a.42.42,0,0,0,.42-.42V25.12c0-.25-.11-.48-.39-.48-.47,0-.93,0-1.38,0s-.41-.16-.41-.64v-.84c0-.47,0-.63.41-.63s.9,0,1.36,0,.41-.22.41-.49V20.22c0-.5,0-1,0-1.37,0,0,0-.1,0-.15s.15-.22.3-.22a2.91,2.91,0,0,1,.4,0l1.56.15c.12,0,.29,0,.29.21s-.06.16-.15.24a.53.53,0,0,0-.12.4c0,.45,0,.92,0,1.37v1.17c0,.42.26.55.47.55.49,0,1,0,1.51,0s.41.16.41.63V24c0,.48,0,.64-.41.64s-1,0-1.51,0a.45.45,0,0,0-.47.5Z"/><path class="cls-3" d="M33.33,79.69H27.38V56.1a20.32,20.32,0,0,1-7.68,4.75V55.17a17,17,0,0,0,5.06-3.05A11.43,11.43,0,0,0,28.5,46.9h4.83Z"/><path class="cls-3" d="M36.49,73.43h5.95v4.48A16.24,16.24,0,0,1,42,82.2,6.54,6.54,0,0,1,40.31,85a8.71,8.71,0,0,1-3.14,2L36,84.39a5,5,0,0,0,2.56-1.71,5.38,5.38,0,0,0,.81-3H36.49Z"/><path class="cls-3" d="M54.21,46.9a8.31,8.31,0,0,1,7,3.39q3,4,3,13.3T61.24,76.91a8.32,8.32,0,0,1-7,3.34,8.71,8.71,0,0,1-7.3-3.67q-2.77-3.66-2.77-13.06,0-9.23,3-13.28A8.27,8.27,0,0,1,54.21,46.9Zm0,5.19a2.87,2.87,0,0,0-1.92.72A4.93,4.93,0,0,0,51,55.41a37.64,37.64,0,0,0-.61,8.18,37.05,37.05,0,0,0,.55,7.89,5.67,5.67,0,0,0,1.39,2.87,2.92,2.92,0,0,0,3.84,0,4.92,4.92,0,0,0,1.31-2.59,37.31,37.31,0,0,0,.61-8.15,37.1,37.1,0,0,0-.55-7.9,5.81,5.81,0,0,0-1.38-2.88A2.87,2.87,0,0,0,54.21,52.09Z"/><path class="cls-3" d="M76.8,46.9a8.33,8.33,0,0,1,7,3.39q3,4,3,13.3T83.82,76.91a8.3,8.3,0,0,1-7,3.34,8.71,8.71,0,0,1-7.3-3.67q-2.77-3.66-2.78-13.06,0-9.23,3-13.28A8.29,8.29,0,0,1,76.8,46.9Zm0,5.19a2.91,2.91,0,0,0-1.93.72,5,5,0,0,0-1.31,2.6A37.64,37.64,0,0,0,73,63.59a37.05,37.05,0,0,0,.55,7.89,5.68,5.68,0,0,0,1.38,2.87,2.91,2.91,0,0,0,1.92.71,2.83,2.83,0,0,0,1.92-.73A4.86,4.86,0,0,0,80,71.74a37.31,37.31,0,0,0,.61-8.15,37.1,37.1,0,0,0-.55-7.9,5.81,5.81,0,0,0-1.39-2.88A2.82,2.82,0,0,0,76.8,52.09Z"/><path class="cls-3" d="M99.39,46.9a8.3,8.3,0,0,1,7,3.39q3,4,3,13.3t-3,13.32a8.31,8.31,0,0,1-7,3.34,8.69,8.69,0,0,1-7.3-3.67q-2.78-3.66-2.78-13.06,0-9.23,3-13.28A8.29,8.29,0,0,1,99.39,46.9Zm0,5.19a2.91,2.91,0,0,0-1.93.72,5,5,0,0,0-1.31,2.6,37.64,37.64,0,0,0-.61,8.18,37.05,37.05,0,0,0,.55,7.89,5.6,5.6,0,0,0,1.38,2.87,2.91,2.91,0,0,0,1.92.71,2.83,2.83,0,0,0,1.92-.73,4.93,4.93,0,0,0,1.32-2.59,38,38,0,0,0,.61-8.15,37.8,37.8,0,0,0-.55-7.9,5.81,5.81,0,0,0-1.39-2.88A2.84,2.84,0,0,0,99.39,52.09Z"/><path class="cls-3" d="M119.26,75.88c0,1.17.07,2.32.07,3.46,0,.62-.24.67-1,.67H116.9c-.86,0-1.12-.05-1.12-.62,0-1.17.07-2.34.07-3.51v-1.4c0-.19,0-.48-.29-.48a.62.62,0,0,0-.33.17,1,1,0,0,1-.64.26c-.38,0-.77-.43-1-.72l-.34-.4c-.38-.45-.71-.83-.71-1.12s.4-.57.62-.74A29.6,29.6,0,0,0,117.42,67a8.33,8.33,0,0,0,.88-1.38c0-.19-.4-.19-.57-.19h-2.26c-.72,0-1.46.07-1.84.07s-.52-.26-.52-.83V63.18c0-.76,0-1,.52-1s.88.07,1.27.07.95-.14.95-.81v-1a13.8,13.8,0,0,0-.07-1.47c0-.08,0-.17,0-.24,0-.29.24-.34.48-.34.5,0,2.22.17,2.79.24s.93.05.93.45-.26.39-.45.55-.24.48-.24,1.31v.58a.68.68,0,0,0,.69.71c.28,0,.57,0,.86,0,.74,0,1,.36,1.47.91a2.21,2.21,0,0,1,.55,1c0,.71-2,3.84-2.52,4.5a.6.6,0,0,0-.19.41c0,.19.23.43.64.81.09.07.19.17.29.26a19.11,19.11,0,0,0,1.54,1.29c.24.17.67.43.67.69,0,.48-1.38,2.17-2,2.17-.36,0-1.24-.88-1.51-1.17-.07-.07-.16-.17-.26-.17s-.21.27-.21.41ZM129.48,75a.74.74,0,0,0,.81.84H131c.86,0,1.71-.07,2.55-.07.55,0,.62.24.62.88v1.57c0,.69-.07.93-.62.93-.86,0-1.69-.07-2.55-.07H124c-.86,0-1.71.07-2.55.07-.57,0-.64-.24-.64-1.07V76.91c0-.88,0-1.19.64-1.19.84,0,1.69.07,2.55.07h1.36a.67.67,0,0,0,.67-.67v-6c0-.4-.17-.76-.62-.76-.74,0-1.48.05-2.19.05s-.65-.26-.65-1V66c0-.74,0-1,.65-1s1.43.07,2.17.07c.5,0,.64-.36.64-.79v-3c0-.79,0-1.67-.07-2.17,0-.07,0-.16,0-.24,0-.28.24-.35.48-.35s.45,0,.64,0l2.48.24c.19,0,.46.07.46.34s-.1.26-.24.38a.87.87,0,0,0-.19.64c0,.72,0,1.45,0,2.17v1.86c0,.67.41.88.74.88.79,0,1.6-.07,2.41-.07.59,0,.64.26.64,1v1.33c0,.77-.05,1-.64,1-.81,0-1.6-.05-2.41-.05a.72.72,0,0,0-.74.79Z"/></g></g></svg>