<svg xmlns="http://www.w3.org/2000/svg" width="152.32" height="111.1" viewBox="0 0 152.32 111.1"><defs><style>.cls-1{fill:#ab8c36;}.cls-2{fill:#545454;}.cls-3{fill:#ed1c24;}</style></defs><g id="レイヤー_2" data-name="レイヤー 2"><g id="レイヤー_1-2" data-name="レイヤー 1"><path class="cls-1" d="M25.12,99.91a1.54,1.54,0,0,0-.94-.63c-.67-.47-1.33-1-2-1.49l.14-.13c3.26-5-.69-10.5-.88-10.54a20,20,0,0,1-.75,5.07,7.85,7.85,0,0,0-.1,4.23c-.36-.33-.7-.67-1.05-1a1.66,1.66,0,0,0-.53-.53c-.56-.59-1.11-1.2-1.64-1.83,0,0,.05,0,.07-.06.85-1.37.69-5,.69-5A13.11,13.11,0,0,1,18,92.72c-.25.84.26.26.26.26,3.17-5-.74-10.28-.92-10.31a19,19,0,0,1-.71,5,7.33,7.33,0,0,0,.1,4.63c-.46-.57-.91-1.15-1.35-1.76.11-.31-.28-.93-.93-1.36-.51-.76-1-1.53-1.47-2.34,1-1.12,1.49-4.39,1.49-4.39a12.33,12.33,0,0,1-1,4.46c-.39.7.19.34.19.34,3.85-3.41,1.27-10,1.11-10.13a17.32,17.32,0,0,1-1.6,4.42,7.36,7.36,0,0,0-.84,4.1,52.56,52.56,0,0,1-2.61-5.56c1.08-.83,2-4.15,2-4.15a11.33,11.33,0,0,1-1.43,4.25c-.45.62.15.38.15.38,4.11-2.63,2.21-9.75,2.06-9.88a15.6,15.6,0,0,1-2,4.08,7.07,7.07,0,0,0-1.22,4.1,59.07,59.07,0,0,1-2-6.29c1.1-.66,2.19-3.65,2.19-3.65a10.19,10.19,0,0,1-1.72,3.85c-.48.52.12.41.12.41,4.14-1.82,2.92-9.05,2.79-9.21a13.47,13.47,0,0,1-2.24,3.6,6.28,6.28,0,0,0-1.49,3.51A66.17,66.17,0,0,1,5.8,64.29h0c1.14-.24,2.62-3.07,2.62-3.07a8.6,8.6,0,0,1-2.09,3.34c-.52.4.06.43.06.43,4.18-.78,3.82-8.14,3.72-8.32a11.2,11.2,0,0,1-2.55,3,5.53,5.53,0,0,0-1.91,3.49,68.62,68.62,0,0,1-.15-11.49c.11-1.58.28-3.13.49-4.66,1.1-.06,2.75-2.16,2.75-2.16a6.62,6.62,0,0,1-2.42,2.58c-.54.23,0,.43,0,.43,4,.5,4.72-6.65,4.65-6.85A8.4,8.4,0,0,1,8.2,43.08a3.81,3.81,0,0,0-1.83,1.76,64.29,64.29,0,0,1,1.49-6.68c1,.46,3.07-1,3.07-1a4.93,4.93,0,0,1-2.79,1.54c-.55,0-.08.41-.08.41,3.71,2.12,5.73-4.58,5.71-4.81a6.39,6.39,0,0,1-3.06.9,3,3,0,0,0-2.38,1.34,62.22,62.22,0,0,1,2.3-6.24c1,.54,2.92-.34,2.92-.34a4.18,4.18,0,0,1-2.81.88c-.53-.12-.12.38-.12.38,3.31,2.86,5.93-3.18,5.92-3.41a5.7,5.7,0,0,1-3,.21,2.43,2.43,0,0,0-2.13.54,57.84,57.84,0,0,1,2.87-5.35c1,.55,2.86-.17,2.86-.17a4,4,0,0,1-2.83.69c-.52-.16-.13.38-.13.38,3.2,3.09,6-2.77,6-3a5.36,5.36,0,0,1-3,0,2.19,2.19,0,0,0-1.62.09c.84-1.24,1.73-2.44,2.65-3.57,2.38,4,6-.39,6-.6a5.7,5.7,0,0,1-2.75-1.16,2.18,2.18,0,0,0-1.26-.52,38.67,38.67,0,0,1,2.92-2.82.84.84,0,0,0,.06.32c2.2,4.23,5.89.06,5.94-.15a5.77,5.77,0,0,1-2.66-1.3,2.21,2.21,0,0,0-1.24-.6,32.41,32.41,0,0,1,3-2,.85.85,0,0,0,0,.35c1.79,4.4,5.59,1,5.66.77a6,6,0,0,1-2.43-1.66,2.47,2.47,0,0,0-1-.73c.68-.34,1.37-.65,2.07-.94C35.43,7.51,37,2.42,37,2.23A5.39,5.39,0,0,1,34.33,3c-1.67-.07-2.91,2.26-2.5,2.48.87.48,2.69-.8,2.69-.8A4.29,4.29,0,0,1,32.12,6c-.47,0-.07.35-.07.35l.17.08a23.75,23.75,0,0,0-2.19,1c-.92-.1-1.7.4-1.54.77l0,0a35.93,35.93,0,0,0-3.91,2.61c-.83.13-1.44.7-1.27,1h0a40,40,0,0,0-3.73,3.55c-.88.18-1.52.81-1.33,1.13a1.43,1.43,0,0,0,.14.2,50.32,50.32,0,0,0-4,5.32,2.28,2.28,0,0,0-.4.62,58.51,58.51,0,0,0-4.86,9.73,6.78,6.78,0,0,0-.22-4,15.3,15.3,0,0,1-.89-4.22c-.16.07-3.35,5.79-.27,9.38,0,0,.49.39.23-.29A11.08,11.08,0,0,1,7.66,29s.08,3.35.91,4.34c.08.1.19,0,.3-.13A64.18,64.18,0,0,0,6.76,40a5.94,5.94,0,0,0-1-3.54,12.89,12.89,0,0,1-1.65-3.66c-.14.13-2.21,6.79,1.46,9,0,0,.54.18.16-.37a9.48,9.48,0,0,1-1.13-3.84s.69,3.15,1.68,3.77a.08.08,0,0,0,.1,0,70,70,0,0,0-1.37,7.86A4.94,4.94,0,0,0,3.9,46.77a11.44,11.44,0,0,1-2-3.38c-.13.16-1.68,7.24,2.26,8.8,0,0,.57.08.13-.4a8.72,8.72,0,0,1-1.48-3.66s.95,3,2,3.47c0,.31-.06.63-.08.94-.11,1.54-.16,3.06-.18,4.57A3.34,3.34,0,0,0,2.8,55.43a7.56,7.56,0,0,1-2.79-2c-.09.22.23,7.58,4.41,6.89a.54.54,0,0,0,.17-.09c.07,1.87.22,3.71.43,5.52A2.64,2.64,0,0,0,3.67,65c-2-.35-2.93-1.81-3-1.61s.79,7.47,4.91,6.26c.29,1.64.64,3.24,1,4.8a2.53,2.53,0,0,0-1.5-.6C3,73.76,2,72.39,1.94,72.6s1.33,7.65,5.58,5.67a1,1,0,0,0,.19-.19c.44,1.35.93,2.66,1.45,3.93A2.29,2.29,0,0,0,8,82c-2.12.44-3.29-.65-3.32-.43s2.18,7.11,6.17,4.23c.52,1,1.06,2,1.63,3a2.51,2.51,0,0,0-.73.27c-2.08,1.11-3.44.41-3.43.64s3,5.89,6.5,2.62c.57.79,1.17,1.54,1.79,2.27a3.25,3.25,0,0,0-.9.47c-2,1.55-3.46,1.12-3.44,1.35s3.81,5.48,7.05,1.08c.79.76,1.61,1.47,2.44,2.14a3.69,3.69,0,0,0-.82.62c-2,2-3.58,1.82-3.53,2s4.63,5.15,7.69-.37c3.45,2.07,12.55,9.22,12.55,9.22l.65-1.44C36.64,107,28.58,102.12,25.12,99.91Zm3.5-90.38a4.76,4.76,0,0,0,2.29,1.35,3.67,3.67,0,0,1-2.47-1c-.09-.09-.14-.13-.18-.13ZM23.5,13.19a4.61,4.61,0,0,0,2.49,1,3.62,3.62,0,0,1-2.65-.6c-.08-.07-.13-.1-.18-.1ZM18.68,18A4.94,4.94,0,0,0,21,18.7a3.62,3.62,0,0,1-2.6-.36ZM4.38,60.85A6.06,6.06,0,0,1,2,58.28S3.4,60.1,4.51,60.36c0,.19,0,.37,0,.55ZM3,68a7,7,0,0,0,2.33,1.64l.09.51A5.7,5.7,0,0,1,3,68Zm4.4,10.87a5.1,5.1,0,0,1-2.83-1.9,5.8,5.8,0,0,0,2.8,1.37l.18.56A.33.33,0,0,0,7.42,78.82Zm.3,6.29a6.1,6.1,0,0,0,2.62.72c.07.16.15.31.23.46A4.61,4.61,0,0,1,7.72,85.11Zm4.08,7.11a6.37,6.37,0,0,0,2.25,0l.25.36A4.32,4.32,0,0,1,11.8,92.22Zm4.18,6a7,7,0,0,0,2.53-.52l.3.29A4.55,4.55,0,0,1,16,98.22Zm5.65.16a15.65,15.65,0,0,0,.54-4.86A13.26,13.26,0,0,1,22,98.39a1.76,1.76,0,0,0-.06.25Zm-.22,5.07a8.22,8.22,0,0,0,2.71-1.14l.45.29A5.17,5.17,0,0,1,21.41,103.45Zm7.11-2A8.42,8.42,0,0,0,25.4,91.33a19.45,19.45,0,0,1,.29,5.4c-.37,3.43,1.63,6.11,1.92,5.27.61-1.77-.27-5.61-.27-5.61a12.74,12.74,0,0,1,.85,4.94C28.11,102.3,28.52,101.48,28.52,101.48ZM6.19,57.25c-.53.36,0,.42,0,.42,4.13-.48,4-7.77,3.93-8a10.62,10.62,0,0,1-2.61,2.76C5.69,53.65,5.15,57,5.68,56.94c1.12-.16,2.67-2.86,2.67-2.86A8.25,8.25,0,0,1,6.19,57.25ZM10.89,27s.43.47.23-.24a11.35,11.35,0,0,1,0-4.15s-.2,3.27.51,4.38c.34.53,1.55-2.31.8-4.79A16.64,16.64,0,0,1,11.91,18C11.75,18,8.23,23,10.89,27ZM15,20.6a11.46,11.46,0,0,1,.59-4.1s-.66,3.17-.14,4.49c.25.62,1.83-1.8,1.48-4.49A16.3,16.3,0,0,1,17,12.13c-.16,0-4.3,3.83-2.32,8.64C14.7,20.77,15.05,21.36,15,20.6Zm5.29-6.28a10.76,10.76,0,0,1,.66-4s-.71,3-.24,4.35c.23.61,1.81-1.67,1.52-4.29a16.66,16.66,0,0,1,.22-4.24c-.15,0-4.23,3.53-2.42,8.28C20,14.47,20.32,15.06,20.25,14.32Zm5.12-4.14a10.5,10.5,0,0,1,.76-3.84s-.78,2.95-.35,4.26c.2.62,1.81-1.53,1.6-4.12a16.06,16.06,0,0,1,.33-4.15,7.2,7.2,0,0,0-2.59,8S25.42,10.92,25.37,10.18Zm3.94-3.3A9.28,9.28,0,0,1,30.5,3.41s-1.1,2.61-.86,4c.11.64,1.89-1,2-3.52A15.16,15.16,0,0,1,32.47,0a6.09,6.09,0,0,0-3.41,7S29.26,7.59,29.31,6.88Z"/><path class="cls-1" d="M114,109.66l.65,1.44s9.1-7.15,12.56-9.22c3,5.52,7.63.64,7.69.37s-1.54,0-3.54-2a3.28,3.28,0,0,0-.82-.62c.84-.67,1.65-1.38,2.44-2.14,3.24,4.4,7-.82,7.05-1.08s-1.43.2-3.44-1.35a3.2,3.2,0,0,0-.89-.47c.61-.73,1.21-1.48,1.79-2.27,3.45,3.27,6.49-2.37,6.5-2.62s-1.36.47-3.44-.64a2.51,2.51,0,0,0-.73-.27c.58-1,1.12-2,1.63-3,4,2.88,6.2-4,6.17-4.23s-1.2.87-3.32.43a2.3,2.3,0,0,0-1.14.06c.52-1.27,1-2.58,1.45-3.93a1,1,0,0,0,.19.19c4.26,2,5.64-5.43,5.58-5.67s-1.07,1.16-3.19,1.23a2.53,2.53,0,0,0-1.5.6c.4-1.56.75-3.16,1-4.8,4.13,1.21,5-6,4.91-6.26a6.93,6.93,0,0,1-3,1.61,2.63,2.63,0,0,0-1.36.73c.21-1.81.36-3.65.43-5.52a.68.68,0,0,0,.17.09c4.18.69,4.5-6.67,4.41-6.89a7.35,7.35,0,0,1-2.78,2,3.35,3.35,0,0,0-1.76,1.68c0-1.51-.06-3-.17-4.57l-.09-.94c1.06-.5,2-3.47,2-3.47A8.87,8.87,0,0,1,148,51.79c-.43.48.13.4.13.4,3.94-1.56,2.39-8.64,2.26-8.8a11.17,11.17,0,0,1-2,3.38,4.92,4.92,0,0,0-1.14,2.44,70,70,0,0,0-1.38-7.86.08.08,0,0,0,.1,0c1-.62,1.69-3.77,1.69-3.77a9.65,9.65,0,0,1-1.14,3.84c-.38.55.16.37.16.37,3.68-2.22,1.6-8.88,1.46-9a12.55,12.55,0,0,1-1.65,3.66,5.93,5.93,0,0,0-1,3.54,66.64,66.64,0,0,0-2.11-6.72c.11.17.21.23.29.13.83-1,.91-4.34.91-4.34a11.27,11.27,0,0,1-.37,4.2c-.27.68.22.29.22.29,3.08-3.59-.1-9.31-.26-9.38a16.08,16.08,0,0,1-.9,4.22,6.86,6.86,0,0,0-.22,4,58.51,58.51,0,0,0-4.86-9.73,2.28,2.28,0,0,0-.4-.62,49,49,0,0,0-4-5.32,1.43,1.43,0,0,0,.14-.2c.19-.32-.45-.95-1.33-1.13A38.81,38.81,0,0,0,129,11.86h0c.17-.32-.44-.89-1.28-1a35.93,35.93,0,0,0-3.91-2.61l0,0c.15-.37-.62-.87-1.54-.77-.73-.37-1.46-.7-2.2-1l.17-.08s.4-.35-.07-.35a4.26,4.26,0,0,1-2.39-1.32s1.81,1.28,2.69.8c.41-.22-.84-2.55-2.51-2.48a5.44,5.44,0,0,1-2.62-.77c0,.19,1.52,5.28,4.35,4.36.7.29,1.4.6,2.08.94a2.49,2.49,0,0,0-1,.73,6.13,6.13,0,0,1-2.42,1.66c.06.19,3.87,3.63,5.65-.77a.85.85,0,0,0,0-.35,32.41,32.41,0,0,1,3,2,2.28,2.28,0,0,0-1.24.6,5.81,5.81,0,0,1-2.65,1.3c0,.21,3.73,4.38,5.94.15a1.11,1.11,0,0,0,.06-.32c1,.87,2,1.82,2.91,2.82a2.21,2.21,0,0,0-1.26.52,5.66,5.66,0,0,1-2.75,1.16c.05.21,3.64,4.62,6,.6.92,1.13,1.81,2.33,2.66,3.57a2.2,2.2,0,0,0-1.62-.09,5.41,5.41,0,0,1-3,0c0,.24,2.81,6.1,6,3,0,0,.39-.54-.13-.38a4,4,0,0,1-2.83-.69s1.88.72,2.86.17a53.42,53.42,0,0,1,2.87,5.35,2.41,2.41,0,0,0-2.13-.54,5.7,5.7,0,0,1-3-.21c0,.23,2.61,6.27,5.92,3.41,0,0,.41-.5-.12-.38a4.18,4.18,0,0,1-2.81-.88s1.94.88,2.92.34a59.86,59.86,0,0,1,2.3,6.24,3,3,0,0,0-2.38-1.34,6.26,6.26,0,0,1-3.05-.9c0,.23,2,6.93,5.7,4.81,0,0,.47-.41-.08-.41a4.93,4.93,0,0,1-2.79-1.54s2,1.43,3.07,1a64.3,64.3,0,0,1,1.5,6.68,3.83,3.83,0,0,0-1.84-1.76A8.68,8.68,0,0,1,141.31,41c-.07.2.64,7.35,4.65,6.85,0,0,.54-.2,0-.43a6.57,6.57,0,0,1-2.43-2.58s1.65,2.1,2.75,2.16c.21,1.53.38,3.08.49,4.66a67.58,67.58,0,0,1-.15,11.49,5.51,5.51,0,0,0-1.9-3.49,11.14,11.14,0,0,1-2.56-3c-.1.18-.46,7.54,3.72,8.32,0,0,.58,0,.07-.43a8.6,8.6,0,0,1-2.09-3.34s1.48,2.83,2.61,3.07h0a63.53,63.53,0,0,1-1.14,6.76,6.21,6.21,0,0,0-1.49-3.51,13.47,13.47,0,0,1-2.24-3.6c-.13.16-1.35,7.39,2.8,9.21,0,0,.59.11.11-.41a10.35,10.35,0,0,1-1.72-3.85s1.09,3,2.19,3.65a59.07,59.07,0,0,1-2,6.29,7.07,7.07,0,0,0-1.22-4.1,15.6,15.6,0,0,1-2-4.08c-.14.13-2.05,7.25,2.06,9.88,0,0,.6.24.15-.38a11.69,11.69,0,0,1-1.43-4.25s.88,3.32,2,4.15A52.56,52.56,0,0,1,140,85.61a7.36,7.36,0,0,0-.84-4.1,17.32,17.32,0,0,1-1.6-4.42c-.15.11-2.74,6.72,1.11,10.13,0,0,.58.36.2-.34a12.14,12.14,0,0,1-1-4.46s.53,3.27,1.49,4.39c-.47.81-1,1.58-1.46,2.34-.66.43-1.05,1-.94,1.36-.43.61-.89,1.19-1.34,1.76a7.47,7.47,0,0,0,.1-4.63,20,20,0,0,1-.72-5c-.18,0-4.09,5.35-.91,10.31,0,0,.5.58.26-.26a12.9,12.9,0,0,1-.14-4.77s-.15,3.67.7,5a.34.34,0,0,0,.06.06c-.53.63-1.07,1.24-1.63,1.83a1.71,1.71,0,0,0-.54.53l-1,1a8,8,0,0,0-.1-4.23,19.82,19.82,0,0,1-.76-5.07c-.18,0-4.14,5.51-.88,10.54l.14.13c-.64.53-1.31,1-2,1.49a1.54,1.54,0,0,0-.94.63C123.75,102.12,115.68,107,114,109.66Zm10.06-99.9s-.09,0-.18.13a3.67,3.67,0,0,1-2.47,1,4.76,4.76,0,0,0,2.29-1.35Zm5.1,3.72s-.09,0-.17.1a3.62,3.62,0,0,1-2.65.6,4.59,4.59,0,0,0,2.48-1Zm4.75,4.86a3.65,3.65,0,0,1-2.61.36,4.92,4.92,0,0,0,2.34-.66ZM147.8,60.91c0-.18,0-.36,0-.55,1.11-.26,2.49-2.08,2.49-2.08a6.06,6.06,0,0,1-2.36,2.57Zm-.91,9.19c0-.17.05-.34.08-.51A7,7,0,0,0,149.31,68,5.76,5.76,0,0,1,146.89,70.1Zm-2.13,8.75c.06-.19.12-.37.17-.56a5.8,5.8,0,0,0,2.8-1.37,5.11,5.11,0,0,1-2.82,1.9A.28.28,0,0,0,144.76,78.85Zm-3,7.44.23-.46a6,6,0,0,0,2.61-.72A4.58,4.58,0,0,1,141.76,86.29ZM138,92.61l.24-.36a6.42,6.42,0,0,0,2.26,0A4.32,4.32,0,0,1,138,92.61ZM133.51,98l.3-.29a7,7,0,0,0,2.54.52A4.58,4.58,0,0,1,133.51,98Zm-3.13.65a1.76,1.76,0,0,0-.06-.25,13.24,13.24,0,0,1-.16-4.87,15.54,15.54,0,0,0,.53,4.86Zm-2.63,4,.45-.29a8.22,8.22,0,0,0,2.71,1.14A5.17,5.17,0,0,1,127.75,102.6Zm-3.62-1.27a12.74,12.74,0,0,1,.85-4.94s-.88,3.84-.26,5.61c.29.84,2.29-1.84,1.92-5.27a20.27,20.27,0,0,1,.28-5.4,8.43,8.43,0,0,0-3.12,10.15S124.21,102.3,124.13,101.33ZM144,54.08s1.55,2.7,2.68,2.86c.52.07,0-3.29-1.89-4.47a10.62,10.62,0,0,1-2.61-2.76c-.09.19-.2,7.48,3.94,8,0,0,.57-.06,0-.42A8.17,8.17,0,0,1,144,54.08ZM140.41,18a16.64,16.64,0,0,1-.51,4.26c-.75,2.48.46,5.32.8,4.79.71-1.11.51-4.38.51-4.38a11.14,11.14,0,0,1,0,4.15c-.19.71.24.24.24.24C144.09,23,140.57,18,140.41,18Zm-2.79,2.79c2-4.81-2.16-8.64-2.32-8.64a16.3,16.3,0,0,1,.13,4.37c-.35,2.69,1.23,5.11,1.48,4.49.52-1.32-.14-4.49-.14-4.49a11.24,11.24,0,0,1,.59,4.1C137.27,21.36,137.62,20.77,137.62,20.77Zm-5.29-6.3c1.81-4.75-2.26-8.29-2.41-8.28a17,17,0,0,1,.21,4.24c-.29,2.62,1.29,4.9,1.52,4.29.48-1.31-.24-4.35-.24-4.35a10.76,10.76,0,0,1,.66,4C132,15.06,132.33,14.47,132.33,14.47Zm-5.13-4.15a7.2,7.2,0,0,0-2.59-8,16.06,16.06,0,0,1,.33,4.15c-.21,2.59,1.4,4.74,1.6,4.12.44-1.31-.35-4.26-.35-4.26a10.5,10.5,0,0,1,.76,3.84C126.91,10.92,127.2,10.32,127.2,10.32ZM123.27,7A6.1,6.1,0,0,0,119.85,0a15.16,15.16,0,0,1,.82,3.87c.13,2.53,1.9,4.16,2,3.52.24-1.37-.85-4-.85-4A9.27,9.27,0,0,1,123,6.88C123.06,7.59,123.27,7,123.27,7Z"/><path class="cls-2" d="M39.64,21.43a.4.4,0,0,0-.42.42v6.66a.42.42,0,0,0,.42.42h2.67c.68,0,1.35,0,2,0,.39,0,.42.16.42.66v.87c0,.49,0,.66-.41.66-.69,0-1.36,0-2,0H33.79c-.69,0-1.36,0-2,0-.39,0-.42-.18-.42-.66v-.86c0-.49,0-.67.44-.67.67,0,1.35,0,2,0h2.63a.43.43,0,0,0,.42-.42V21.85a.44.44,0,0,0-.42-.42h-2c-.61,0-1.24.05-1.87.05-.41,0-.45-.17-.45-.65v-.9c0-.51,0-.69.45-.69.63,0,1.26.05,1.87.05h7.23c.62,0,1.25-.05,1.88-.05.4,0,.45.15.45.63v.92c0,.52,0,.69-.45.69-.63,0-1.26-.05-1.88-.05Z"/><path class="cls-2" d="M54.18,24.54a.2.2,0,0,0,.19.19h3.32c.36,0,.7,0,.7.49,0,.26,0,.51,0,.77a.41.41,0,0,0,.4.43h.57c.32,0,.32.15.32.6v.24c0,.25,0,.39-.3.39h-.6c-.14,0-.41.09-.41.49v.08c0,.39,0,.94,0,1.12,0,.35-.23.36-.51.36h-1c-.61,0-.7,0-.81-.22a.31.31,0,0,0-.31-.14H54.69a.42.42,0,0,0-.48.41c0,.15,0,.4,0,.6a1.37,1.37,0,0,1-.49,1.12,4.57,4.57,0,0,1-2.45.5c-.54,0-.81-.05-1-.39a4,4,0,0,1-.21-1.23c0-.21,0-.39.3-.39a2.07,2.07,0,0,1,.35,0,4.12,4.12,0,0,0,.6,0c.4,0,.52-.06.52-.43,0-.18-.13-.26-.3-.26H49.74c-.87,0-1.41,0-1.76,0-.55,0-.55,0-.55-.61v-.26c0-.34,0-.42.39-.42.64,0,1.29,0,1.92,0h2a.18.18,0,0,0,.18-.19v-.09a.18.18,0,0,0-.18-.2h-3l-2.07,0c-.28,0-.31-.12-.31-.41V27c0-.49,0-.58.31-.58.69,0,1.38,0,2.07,0h3a.18.18,0,0,0,.18-.2v0a.18.18,0,0,0-.18-.2H48.93l-1.22,0c-.22,0-.25-.09-.25-.36v-.53c0-.3,0-.42.25-.42.41,0,.81,0,1.22,0H51.7a.18.18,0,0,0,.18-.19v0a.18.18,0,0,0-.18-.2h-.9c-.55,0-1.12,0-1.69,0-.35,0-1,0-1-.48,0-.09,0-.19,0-.27s0-.33,0-.49v-.59c0-.16,0-.31,0-.49s0-.18,0-.27c0-.48.63-.48,1-.48.57,0,1.14,0,1.69,0h.9a.18.18,0,0,0,.18-.2v0a.18.18,0,0,0-.18-.2H49.05c-.66,0-1.31,0-2,0-.3,0-.36-.12-.36-.42V20c0-.37,0-.52.36-.52.66,0,1.31,0,2,0H51.4a.42.42,0,0,0,.47-.42c0-.08,0-.36,0-.45s.17-.21.32-.21h.39c.45,0,1.38.11,1.72.17.14,0,.23.07.23.21s-.06.13-.15.22a.28.28,0,0,0-.12.23c0,.09.06.24.3.24h2.43c.67,0,1.33,0,2,0,.3,0,.33.13.33.45v.54c0,.33,0,.46-.34.46-.66,0-1.32,0-2,0H54.37a.2.2,0,0,0-.19.2v0a.2.2,0,0,0,.19.2h.86c.57,0,1.14,0,1.69,0,.35,0,1,0,1,.48a1.18,1.18,0,0,1,0,.27c0,.18,0,.33,0,.49v.59c0,.16,0,.31,0,.49a1.18,1.18,0,0,1,0,.27c0,.48-.63.48-1,.48-.57,0-1.12,0-1.69,0h-.86a.19.19,0,0,0-.19.2Zm-3.68-2a.24.24,0,0,0-.24.24v0a.24.24,0,0,0,.24.24h1.14a.24.24,0,0,0,.24-.24v0a.24.24,0,0,0-.24-.24Zm3.92,0a.24.24,0,0,0-.24.24v0a.24.24,0,0,0,.24.24h1.12a.24.24,0,0,0,.24-.24v0a.24.24,0,0,0-.24-.24Zm-.24,3.69a.2.2,0,0,0,.19.2h1.55a.19.19,0,0,0,.19-.2v0a.18.18,0,0,0-.19-.2H54.37a.2.2,0,0,0-.19.2Zm.19,1.38a.2.2,0,0,0-.19.2v.09a.2.2,0,0,0,.19.19h1.55a.18.18,0,0,0,.19-.19v-.09a.18.18,0,0,0-.19-.2Z"/><path class="cls-2" d="M69,26c0,.18.13.19.24.19h3.22c.62,0,1.25,0,1.88,0,.4,0,.42.14.42.63v.62c0,.42,0,.52-.44.52-.63,0-1.24,0-1.86,0H70.71c-.24,0-.33,0-.33.12,0,.27,2,1.5,4.14,2,.22,0,.25.06.25.22,0,.57-.61,1.74-1.09,1.74a10.58,10.58,0,0,1-2.21-.73A9.26,9.26,0,0,1,68.37,29c-.08-.09-.21-.24-.35-.24s-.24.14-.31.24a9.32,9.32,0,0,1-4.79,2.75,2.84,2.84,0,0,1-.57.1c-.37,0-.6-.51-.82-1.09a2.51,2.51,0,0,1-.21-.77c0-.18.06-.21.49-.27a9.3,9.3,0,0,0,3.42-1.3c.14-.08.41-.26.41-.41s-.14-.12-.26-.12H63.69c-.62,0-1.25,0-1.86,0-.41,0-.44-.1-.44-.52v-.74c0-.4,0-.51.42-.51.63,0,1.25,0,1.88,0h2.52c.51,0,.51-.24.52-.76,0-.29,0-.35.24-.35s1.4.09,1.74.12c.51.05.69.11.69.29s-.07.15-.16.21S69,25.83,69,26Zm-5.24-3c0-.21-.1-.22-.28-.22s-.77,0-1.2,0-.36-.12-.36-.59v-.36c0-.43,0-.55.36-.55h1.29c.15,0,.19,0,.19-.18v0a.19.19,0,0,0-.19-.2H63l-1.12,0c-.3,0-.33-.18-.33-.52V20c0-.47,0-.63.37-.63s.72,0,1.08,0h.26c.27,0,.51-.08.51-.39,0-.06,0-.26,0-.32v-.12c0-.15.15-.16.27-.16s1.29.09,1.59.1.48.08.48.18,0,.09-.15.18a.32.32,0,0,0-.14.27c0,.18.14.26.32.26h.22c.38,0,.75,0,1.13,0s.34.15.34.78v.27c0,.34,0,.52-.33.52s-.75,0-1.14,0H66c-.14,0-.21.06-.21.2v0c0,.14.07.18.21.18h1c.31,0,.34.13.34.46v.56c0,.34,0,.48-.34.48s-.72,0-1.08,0c-.17,0-.18.12-.18.19V23c0,.14,0,.21.18.21s1.3-.13,1.48-.16l.06,0c.2,0,.23.51.23.65,0,.82-.06.91-.27.94-1.38.24-3.6.56-5.06.68-.1,0-.13,0-.25.12s-.15.12-.21.12-.29-.54-.32-.68a7.53,7.53,0,0,1-.24-1.08c0-.18.08-.18.72-.22l1.28-.09c.22,0,.4,0,.4-.32Zm8.09-4.15,1.36,0c.78,0,1,.27,1,1a16.27,16.27,0,0,1-.57,4.33c-.4.93-1.32,1.08-2.23,1.08-.23,0-.54,0-.66-.22a2.83,2.83,0,0,1-.24-1.2c0-.24,0-.59.34-.59l.54,0c.3,0,.44-.08.51-.38a13.71,13.71,0,0,0,.24-1.9c0-.33-.09-.35-.43-.35h-.24c-.36,0-.38.09-.42.62A8.93,8.93,0,0,1,69.72,25c-.08.09-.18.21-.3.21-.41,0-1.61-.76-1.61-1.18,0-.12.11-.21.18-.29a5.19,5.19,0,0,0,1.08-2.77.27.27,0,0,0-.28-.3h-.14c-.37,0-.4-.12-.4-.6v-.6c0-.56,0-.68.42-.68s.88,0,1.38,0Z"/><path class="cls-2" d="M80.19,23.91a3.15,3.15,0,0,0-.44.6c0,.06.08.12.18.12a.34.34,0,0,0,.15,0c.21,0,.5,0,.5-.19a.64.64,0,0,0-.11-.3.86.86,0,0,1-.09-.27c0-.35,1.11-.78,1.29-.78h.17c.31,0,.42-.22.55-.48l.08-.15a16.63,16.63,0,0,0,1.36-3.79c0-.21.06-.3.24-.3a13,13,0,0,1,1.38.28c.6.14.75.23.75.36s-.12.17-.22.21-.23.18-.33.53c-.05.15-.09.31-.17.54a1.67,1.67,0,0,0-.09.4c0,.26.26.3.47.3H87.1c.56,0,1,0,1.31,0,1,0,1,.2,1,1.49a40.21,40.21,0,0,1-.57,7.29A2.49,2.49,0,0,1,88,31.48a4.92,4.92,0,0,1-2.43.53c-.43,0-.84,0-1-.51a4.5,4.5,0,0,1-.18-1.31c0-.33,0-.51.41-.51.15,0,.54.05.63.06s.52,0,.67,0c.45,0,.78,0,.92-1.17s.3-3.6.3-4.89c0-.62-.11-.68-.81-.68H84.94c-.52,0-.66.27-.87.68s-.36.69-.57.69a2.5,2.5,0,0,1-.79-.21.53.53,0,0,0-.15-.05.11.11,0,0,0-.11.12s.08.24.18.51a6.56,6.56,0,0,1,.47,1.38c0,.38-1.26.72-1.4.72s-.24-.16-.28-.27a.43.43,0,0,0-.41-.31c-.33,0-.42.24-.42.52v2.37c0,.77,0,1.53,0,2.3,0,.4-.13.45-.63.45h-.91c-.47,0-.65,0-.65-.44,0-.76,0-1.54,0-2.31V28.11c0-.12,0-.15-.08-.15s-.16.21-.18.31a24,24,0,0,1-.46,2.58c-.05.2-.08.48-.32.48s-1.33-.28-1.33-.6a4.2,4.2,0,0,1,.13-.54,15.39,15.39,0,0,0,.5-2.64c0-.21,0-.4.22-.4a7.06,7.06,0,0,1,.8.16,3.76,3.76,0,0,0,.54.12.17.17,0,0,0,.18-.18c0-.4-.12-.54-.59-.54-.12,0-.49.05-.64.06A.28.28,0,0,0,77,27a.25.25,0,0,1-.24.18c-.13,0-.19-.06-.25-.46,0-.15-.24-1.25-.27-1.38a1.43,1.43,0,0,1-.06-.35c0-.15.16-.15.34-.15h.33a1.13,1.13,0,0,0,.63-.12,1.82,1.82,0,0,0,.51-.82c0-.17-.22-.38-.37-.53l-.09-.07a12.3,12.3,0,0,0-1.16-.92c-.07-.06-.21-.12-.21-.22a2.14,2.14,0,0,1,.36-.74l.15-.27c.09-.15.29-.55.5-.55a.28.28,0,0,1,.15.06l.12,0c.13,0,.19-.18.42-.75a13.65,13.65,0,0,0,.46-1.33c0-.17.09-.26.23-.26a10,10,0,0,1,1.14.42l.19.08c.29.1.51.16.51.33s-.12.18-.21.21a.35.35,0,0,0-.3.21c-.27.51-.51,1-.79,1.53a1.4,1.4,0,0,1-.14.22,1,1,0,0,0-.18.41c0,.18.18.39.3.39s.3-.32.41-.51a.47.47,0,0,0,.06-.09c.19-.38.39-.75.57-1.11.1-.2.13-.3.3-.3a11.35,11.35,0,0,1,1.24.55l.23.11c.21.09.55.21.55.42s-.18.18-.33.21a.4.4,0,0,0-.24.16C81.31,22.35,80.76,23.13,80.19,23.91Zm.94,3.22a4,4,0,0,1,.8-.19.32.32,0,0,1,.27.13,14.32,14.32,0,0,1,.55,1.46,8.63,8.63,0,0,1,.29,1c0,.32-1.22.62-1.34.62s-.28-.21-.33-.47a13.74,13.74,0,0,0-.58-2,.65.65,0,0,1-.06-.24C80.73,27.3,80.88,27.22,81.13,27.13Zm4-2.65a9.24,9.24,0,0,1,.57,1.23,13.32,13.32,0,0,1,.63,1.75c0,.42-1.39.81-1.56.81s-.28-.24-.34-.42c-.29-.78-.68-1.77-1-2.5a.89.89,0,0,1-.09-.24c0-.36,1.37-.86,1.53-.86S85.05,24.36,85.12,24.48Z"/><path class="cls-2" d="M94.9,24c-.54,0-1.08,0-1.62,0-.37,0-.39-.19-.39-.51v0a.43.43,0,0,0-.42-.48h-.15c-.43,0-.76,0-.76-.4,0-.21,0-.6,0-.9v-.36c0-.45,0-.95,0-1.1,0-.57.6-.58,1-.58l1.73,0h2c.27,0,.48-.11.48-.41s-.06-.63-.06-.72.16-.21.33-.21c.4,0,1.24.06,1.66.09a.68.68,0,0,0,.2,0c.28,0,.49,0,.49.22s-.07.14-.16.21a.56.56,0,0,0-.14.41c0,.31.29.39.54.39h2l1.72,0c.42,0,1,0,1,.58,0,.11,0,.63,0,1.1v.4c0,.33,0,.69,0,.9,0,.36-.23.41-.68.41h-.28a.43.43,0,0,0-.48.4v.06c0,.36,0,.51-.41.51-.54,0-1.06,0-1.6,0H99.28a.2.2,0,0,0-.19.19v.09a.2.2,0,0,0,.19.2h1.29l1.62,0c.36,0,.39.15.39.57v.58c0,.44,0,.59-.39.59-.54,0-1.08,0-1.62,0h-1.3c-.26,0-.3.16-.3.24s.19.21.3.21h3.25c.59,0,1.17,0,1.76,0,.36,0,.39.15.39.63v.61c0,.39,0,.54-.39.54-.59,0-1.17,0-1.76,0h-1.74c-.19,0-.33,0-.33.15s.66.48.84.57a10.06,10.06,0,0,0,2.85.9c.32,0,.59,0,.59.39a2.14,2.14,0,0,1-.38,1.11c-.28.41-.42.6-.73.6a2.45,2.45,0,0,1-.54-.1,12,12,0,0,1-2.84-1.05,7.7,7.7,0,0,1-1.84-1.44.72.72,0,0,0-.44-.26c-.16,0-.31.15-.42.27a9.1,9.1,0,0,1-4.44,2.28,6,6,0,0,1-.91.15c-.57,0-1-1.26-1-1.59s.32-.36.84-.45a8.22,8.22,0,0,0,3-1c.1-.06.45-.28.45-.39s-.14-.15-.33-.15H93.45l-1.77,0c-.35,0-.38-.13-.38-.58v-.6c0-.47,0-.6.39-.6.59,0,1.17,0,1.76,0h3c.21,0,.29-.12.29-.24s-.11-.21-.24-.21H95.4c-.54,0-1.07,0-1.61,0-.37,0-.4-.17-.4-.62V25c0-.42,0-.57.4-.57.54,0,1.08,0,1.61,0h1.35a.2.2,0,0,0,.19-.2v-.09a.19.19,0,0,0-.19-.19Zm1.74-1.71c.15,0,.29-.06.29-.23,0-.34,0-.46-.35-.46h-2.5c-.17,0-.3,0-.3.24s0,.43.37.43h0l.72,0Zm4.37,0,.9,0c.31,0,.33-.15.33-.42s-.14-.25-.32-.25H99.69c-.12,0-.2,0-.2.09v.07c0,.11-.09.17-.18.21a.14.14,0,0,0-.1.14c0,.09.06.18.25.18Z"/><path class="cls-2" d="M107.05,27a.24.24,0,0,1-.24.16c-.19,0-.24-.18-.37-.85-.06-.26-.12-.54-.23-1a.71.71,0,0,1,0-.15c0-.18.21-.18.34-.18.39,0,.51-.08.68-.29a1.34,1.34,0,0,0,.34-.72c0-.27-.25-.48-.45-.66a9.78,9.78,0,0,0-.9-.79c-.09-.08-.19-.15-.19-.27,0-.39.49-1.65.84-1.65.07,0,.12.09.22.09s.17-.18.24-.39l.05-.14c.18-.51.34-1,.51-1.54,0-.15.07-.27.21-.27s.64.24,1,.37l.26.11c.24.09.48.16.48.33s-.14.15-.17.15a.29.29,0,0,0-.22.16c-.2.51-.6,1.44-.84,1.94a1.53,1.53,0,0,0-.18.49c0,.09.06.21.16.21s.23-.21.3-.37a.3.3,0,0,0,.06-.11c.2-.39.38-.78.56-1.18.06-.17.09-.32.27-.32a7.16,7.16,0,0,1,1,.41l.3.13c.3.12.55.2.55.42a.22.22,0,0,1-.22.21.4.4,0,0,0-.3.23c-.12.19-1,1.68-1,1.75s0,.06.09.06.24-.06.32-.07a2.22,2.22,0,0,1,.55-.14c.15,0,.2.11.24.23s.36,1.17.44,1.44a10.18,10.18,0,0,1,.28,1.57c0,.3-.25.35-.54.45a4.09,4.09,0,0,1-.75.18c-.18,0-.19-.19-.21-.33s-.06-.16-.16-.16-.18.19-.18.3v2.41c0,.78,0,1.56,0,2.34,0,.41-.15.44-.63.44h-.69c-.61,0-.72-.06-.72-.42,0-.78,0-1.58,0-2.36v-1c0-.09,0-.27-.13-.27s-.12.18-.14.35a22.8,22.8,0,0,1-.28,2.64c-.08.43-.12.55-.35.55a5.51,5.51,0,0,1-1-.28c-.12-.05-.26-.14-.26-.27s.14-.81.15-.92c.12-.87.17-1.48.26-2.35,0-.2,0-.42.16-.42s.93.16,1.11.19a.82.82,0,0,0,.21,0c.17,0,.24-.06.24-.22V27c0-.17-.09-.21-.24-.21s-.6.06-.78.07S107.1,26.94,107.05,27Zm2.3-2.24.33,0c.15,0,.36,0,.36-.18a1.77,1.77,0,0,0-.14-.45c0-.07-.06-.21-.15-.21s-.4.5-.48.62a.35.35,0,0,0-.06.16C109.21,24.75,109.29,24.76,109.35,24.76Zm2,2.33c.22,0,.25.06.52,1.53,0,.21.18,1,.18,1.14,0,.34-1,.49-1.26.49s-.19-.1-.22-.3c-.06-.73-.14-1.45-.27-2.17a.91.91,0,0,1,0-.23C110.31,27.24,111.15,27.09,111.39,27.09Zm3.75,2.47c-.09,0-.21.05-.21.15a.85.85,0,0,0,.15.32s0,.06.06.1a2,2,0,0,1,.31.62.16.16,0,0,1-.15.15h-.09a.45.45,0,0,0-.16,0,.61.61,0,0,0-.24.07,13,13,0,0,1-2.69.93c-.48,0-.84-1-.84-1.35,0-.18.11-.18.32-.22s2.07-.44,2.07-.65c0-.06-.14-.07-.18-.07s-.36,0-.56,0c-.45,0-.7-.14-.7-.68,0-.37,0-.75,0-1.14V25.68c0-.39,0-.77,0-1.14s.21-.68.69-.68.79.05,1.18.05h3c.39,0,.78-.05,1.17-.05s.7.12.7.68c0,.37,0,.76,0,1.14v2.11c0,.39,0,.77,0,1.14,0,.54-.24.68-.69.68l-.4,0c-.06,0-.21,0-.21.08s1.81.6,2.1.64.28.08.28.27-.36,1.35-.78,1.35a8.36,8.36,0,0,1-1.54-.45,10.4,10.4,0,0,1-1.56-.69.18.18,0,0,1-.14-.21,2,2,0,0,1,.27-.73.28.28,0,0,0,.06-.15c0-.12-.16-.14-.25-.14Zm2.41-10.27,1.59,0c.33,0,.35.09.35.44V20c0,.38,0,.47-.33.47-.54,0-1.07,0-1.61,0h-.75a.16.16,0,0,0-.16.16v.05a.16.16,0,0,0,.16.16h.38c.54,0,1.06,0,1.59,0,.31,0,.34.08.34.38v.31c0,.42,0,.48-.34.48-.53,0-1,0-1.59,0h-.38a.17.17,0,0,0-.16.17v0a.17.17,0,0,0,.16.17h1c.52,0,1,0,1.56,0,.33,0,.36.07.36.37V23c0,.4,0,.43-.35.43h-7.45c-.29,0-.35,0-.35-.42v-.39c0-.3,0-.37.36-.37.53,0,1,0,1.58,0h.91a.18.18,0,0,0,.17-.17v0a.18.18,0,0,0-.17-.17H114c-.53,0-1,0-1.58,0-.31,0-.34-.06-.34-.4v-.39c0-.3,0-.38.34-.38.53,0,1,0,1.58,0h.4a.17.17,0,0,0,.17-.16v-.05a.17.17,0,0,0-.17-.16h-.76c-.54,0-1.08,0-1.61,0-.24,0-.33,0-.33-.38v-.39c0-.36,0-.45.35-.45l1.59,0h.63c.19,0,.28-.11.28-.3s0-.27,0-.39.1-.23.27-.23,1.35.06,1.63.09.54,0,.54.2a.25.25,0,0,1-.13.21c-.08.06-.2.15-.2.25s.11.17.21.17ZM117,25.21a.2.2,0,0,0-.2-.19h-2.29a.2.2,0,0,0-.2.19v0a.2.2,0,0,0,.2.2h2.29c.11,0,.18-.08.2-.2Zm0,1.43a.21.21,0,0,0-.2-.2h-2.29a.2.2,0,0,0-.2.2v0a.2.2,0,0,0,.2.2h2.29a.2.2,0,0,0,.2-.2Zm0,1.47a.21.21,0,0,0-.2-.2h-2.29a.2.2,0,0,0-.2.2v0a.2.2,0,0,0,.2.2h2.29a.2.2,0,0,0,.2-.2Z"/><path class="cls-3" d="M21.52,53.29V47.48H41.86V52a33.62,33.62,0,0,0-5.12,7.49,44.76,44.76,0,0,0-4,10.37,40.56,40.56,0,0,0-1.35,9.81H25.69a43.71,43.71,0,0,1,2.66-13.81A46.87,46.87,0,0,1,35,53.29Z"/><path class="cls-3" d="M36.26,73.43H42.2v4.48a16.3,16.3,0,0,1-.44,4.29A6.64,6.64,0,0,1,40.08,85a8.79,8.79,0,0,1-3.14,2l-1.17-2.59a5,5,0,0,0,2.56-1.71,5.38,5.38,0,0,0,.81-3H36.26Z"/><path class="cls-3" d="M54.54,46.9a8.31,8.31,0,0,1,7.05,3.39q3,4,3,13.3T61.57,76.91a8.32,8.32,0,0,1-7,3.34,8.71,8.71,0,0,1-7.3-3.67q-2.77-3.66-2.77-13.06,0-9.23,3.05-13.28A8.29,8.29,0,0,1,54.54,46.9Zm0,5.19a2.87,2.87,0,0,0-1.92.72,4.93,4.93,0,0,0-1.31,2.6,37.47,37.47,0,0,0-.62,8.18,37.05,37.05,0,0,0,.55,7.89,5.67,5.67,0,0,0,1.39,2.87,2.92,2.92,0,0,0,3.84,0,4.92,4.92,0,0,0,1.31-2.59,37.31,37.31,0,0,0,.61-8.15,37.1,37.1,0,0,0-.55-7.9,5.73,5.73,0,0,0-1.38-2.88A2.87,2.87,0,0,0,54.54,52.09Z"/><path class="cls-3" d="M77.13,46.9a8.32,8.32,0,0,1,7.05,3.39q3,4,3,13.3t-3,13.32a8.32,8.32,0,0,1-7,3.34,8.71,8.71,0,0,1-7.3-3.67q-2.77-3.66-2.77-13.06,0-9.23,3-13.28A8.3,8.3,0,0,1,77.13,46.9Zm0,5.19a2.91,2.91,0,0,0-1.93.72,5,5,0,0,0-1.31,2.6,37.64,37.64,0,0,0-.61,8.18,37.05,37.05,0,0,0,.55,7.89,5.76,5.76,0,0,0,1.38,2.87,2.91,2.91,0,0,0,1.92.71,2.87,2.87,0,0,0,1.93-.73,4.92,4.92,0,0,0,1.31-2.59A37.31,37.31,0,0,0,81,63.59a37.1,37.1,0,0,0-.55-7.9,5.9,5.9,0,0,0-1.38-2.88A2.87,2.87,0,0,0,77.13,52.09Z"/><path class="cls-3" d="M99.72,46.9a8.33,8.33,0,0,1,7,3.39q3,4,3,13.3t-3.05,13.32a8.3,8.3,0,0,1-7,3.34,8.71,8.71,0,0,1-7.3-3.67q-2.78-3.66-2.78-13.06,0-9.23,3-13.28A8.29,8.29,0,0,1,99.72,46.9Zm0,5.19a2.91,2.91,0,0,0-1.93.72,5,5,0,0,0-1.31,2.6,37.64,37.64,0,0,0-.61,8.18,37.05,37.05,0,0,0,.55,7.89,5.68,5.68,0,0,0,1.38,2.87,2.91,2.91,0,0,0,1.92.71,2.83,2.83,0,0,0,1.92-.73A4.86,4.86,0,0,0,103,71.74a37.31,37.31,0,0,0,.61-8.15,37.1,37.1,0,0,0-.55-7.9,5.81,5.81,0,0,0-1.39-2.88A2.82,2.82,0,0,0,99.72,52.09Z"/><path class="cls-3" d="M118.83,76c0,1.1.07,2.2.07,3.32,0,.59-.26.64-1.07.64h-1.46c-.79,0-1.05,0-1.05-.64,0-1.12.07-2.22.07-3.32V70.47c0-.26,0-.45-.21-.45s-.12,0-.19.1a.54.54,0,0,1-.41.21c-.57,0-1.9-2.29-1.9-2.86,0-.33.38-.74.57-1a23.72,23.72,0,0,0,4-7.48c.1-.31.22-.74.6-.74s2.43.74,2.84.88.73.22.73.55c0,.14-.09.19-.28.29a1.62,1.62,0,0,0-.38.19,1.26,1.26,0,0,0-.24.47,38.08,38.08,0,0,1-1.86,3.86,1,1,0,0,0-.14.43.38.38,0,0,0,.38.36c.21,0,.4.1.4.31s-.09.19-.24.33a1,1,0,0,0-.23.77Zm5.62-9.65c-.74,0-.81.26-1,.88-.57,1.46-.81,2-1.21,2a6,6,0,0,1-1.77-.54c-.45-.22-1-.41-1-.84a2.64,2.64,0,0,1,.31-.71A23,23,0,0,0,122,59.77c0-.21.09-.4.35-.4a14.09,14.09,0,0,1,1.79.38c1,.24,1.62.36,1.62.69a.43.43,0,0,1-.26.36c-.38.21-.41.28-.55,1,0,.15-.07.43-.14.74a.7.7,0,0,0,0,.22c0,.24.17.28.39.28.52,0,.73-.33.73-.81V61a17.43,17.43,0,0,0-.07-2c0-.1,0-.17,0-.27,0-.31.29-.31.52-.31.72,0,2.2.08,2.67.1s.81.07.81.33-.09.22-.23.34a.87.87,0,0,0-.22.59c0,.31,0,.93,0,1.34v1a.71.71,0,0,0,.81.81h.4c1,0,1.93-.07,2.91-.07.6,0,.64.26.64,1V65.4c0,.76,0,1-.64,1-1,0-2-.05-2.91-.05h-.43a.71.71,0,0,0-.78.81v2.07a.67.67,0,0,0,.66.67h1.17c.91,0,1.84-.05,2.74-.05.72,0,.79.27.79,1.1v1.19c0,.91-.07,1.17-.79,1.17-.9,0-1.83-.07-2.74-.07H130a.68.68,0,0,0-.66.67v1.5c0,1.31.07,2.64.07,4,0,.55-.26.62-.95.62h-1.65c-.71,0-1-.07-1-.62,0-1.31.07-2.62.07-4v-1.5a.67.67,0,0,0-.66-.67h-1.69c-.91,0-1.84.07-2.75.07-.71,0-.78-.29-.78-1.12v-1c0-1,0-1.31.78-1.31.91,0,1.84.05,2.75.05h1.69a.66.66,0,0,0,.66-.67V67a.64.64,0,0,0-.66-.67Z"/></g></g></svg>