<?xml version="1.0" encoding="utf-8"?>
<!-- Generator: Adobe Illustrator 24.2.3, SVG Export Plug-In . SVG Version: 6.00 Build 0)  -->
<svg version="1.1" id="_x32_" xmlns="http://www.w3.org/2000/svg" xmlns:xlink="http://www.w3.org/1999/xlink" x="0px" y="0px"
	 viewBox="0 0 512 512" style="enable-background:new 0 0 512 512;" xml:space="preserve">
<style type="text/css">
	.st0{fill:#0587AA;}
</style>
<g>
	<path class="st0" d="M441.5,402.5c-12.5-18.8-31.6-29.1-49.4-35.9c-9-3.4-17.7-5.9-25.5-8c-7.7-2.1-14.4-3.9-18.9-5.6
		c-7.9-2.9-16.2-6.7-22-10.8c-2.9-2-5.1-4.1-6.4-5.9c-1.3-1.8-1.7-3.1-1.7-4.2c0-7.6,0-17,0-29.5c10.1-11.2,24.6-28.6,30.5-56.2
		c2.1-0.9,4.1-2,6.1-3.4c4.9-3.4,9.1-8.3,12.7-15.1c3.6-6.7,6.7-15.4,10.1-27.2c1.7-6,2.5-11.2,2.5-15.8c0-5.3-1.1-10-3.1-13.7
		c-1.2-2.3-2.8-4.2-4.5-5.7c3.4-25.4,9.1-92.4-21.7-111.3c5.9-14.4,5.8-29.7-6.8-42.3c-10.8-3.6-35.9-3.6-55.7-9
		C267.9-2.2,178-7.6,151.1,49.9C124.5,57,119.8,165,137.4,169.2c-0.6,0.8-1.2,1.4-1.7,2.3c-2,3.8-3.1,8.4-3.1,13.7
		c0,4.6,0.8,9.8,2.5,15.8c4.5,15.7,8.6,25.9,13.9,33.3c2.6,3.7,5.6,6.7,8.9,8.9c2,1.4,4,2.4,6.1,3.4c6,27.6,20.4,44.9,30.5,56.2
		c0,12.5,0,21.9,0,29.5c0,0.9-0.4,2.3-1.8,4.2c-2.1,2.9-6.5,6.3-11.7,9.2c-5.2,3-11.2,5.5-16.4,7.4c-6.1,2.2-16.1,4.5-27.2,7.6
		c-16.7,4.8-36.4,11.8-52.4,25.5c-8,6.9-15,15.5-20,26.3c-5,10.7-7.8,23.5-7.8,38.4c0,3.5,0.2,7,0.5,10.7c0.2,2.6,1.2,4.7,2.4,6.4
		c2.2,3.2,5.1,5.7,8.8,8.1c6.4,4.2,15.3,8.4,26.7,12.5C129.6,500.9,186,512,256,512c56.8,0,104.8-7.4,139.1-16.6
		c17.1-4.6,30.8-9.7,40.7-14.8c5-2.6,9-5.1,12.1-7.9c1.6-1.4,3-2.9,4.2-4.6c1.2-1.7,2.1-3.8,2.4-6.4c0.3-3.7,0.5-7.3,0.5-10.7
		C454.9,431,449.8,415,441.5,402.5z M178.2,239.6l-0.8-4.4l-4.2-1.5c-2.7-1-4.7-1.9-6.5-3.2c-2.6-1.9-5-4.4-7.8-9.6
		c-2.8-5.2-5.7-12.9-8.9-24.2c-1.4-4.9-1.9-8.7-1.9-11.6c0-3.3,0.6-5.2,1.3-6.4c0.6-1.1,1.3-1.7,2-2.2c9,9.3,14.3,24.4,14.3,24.4
		l0.6-59.7l26.3-37.5c14.4,5.4,91.6,7.2,115-3.6c4.8-2.2,10.4-5.9,16-10.7c2.2,2.2,3.7,3.5,3.7,3.5l18,113.2l8.2-31.1l2.4-0.1
		c0.3,0,3,0.2,4.7,1.3c0.9,0.6,1.6,1.2,2.3,2.4c0.7,1.2,1.3,3.1,1.3,6.4c0,2.8-0.5,6.7-1.9,11.6c-4.3,15-8.1,23.7-11.6,28.6
		c-1.8,2.4-3.4,4-5.1,5.2c-1.8,1.2-3.8,2.2-6.5,3.2l-4.2,1.5l-0.8,4.4c-4.9,27.7-19.2,43.2-29.7,55l-2,2.2v3c0,6.1,0,11.4,0,16.2
		l-44.7,25.5l-47.5-27.1c0-4.4,0-9.2,0-14.7v-3l-2-2.2C197.4,282.9,183.1,267.3,178.2,239.6z M235,420.8L178.6,364
		c5.5-2.4,11-5.2,16-8.7c3.9-2.7,7.5-5.8,10.3-9.5c2.8-3.7,5-8.3,5-13.5c0-1.5,0-3.2,0-4.9l33.3,19l-8.8,18.7l9,11.9L235,420.8z
		 M256,495.2c-4.4,0-8.1-3.6-8.1-8c0-4.5,3.6-8.1,8.1-8.1c4.5,0,8,3.6,8,8.1C264.1,491.6,260.5,495.2,256,495.2z M256,456
		c-4.4,0-8.1-3.6-8.1-8c0-4.4,3.6-8.1,8.1-8.1c4.5,0,8,3.6,8,8.1C264.1,452.4,260.5,456,256,456z M279.1,418.8l-8.2-41.8l9-11.9
		l-8.6-18.5l30.8-17.6c0,1.1,0,2.3,0,3.3c0,5.1,2,9.7,4.7,13.3c4.1,5.5,9.8,9.6,16,13.2c3.4,1.9,7,3.6,10.6,5.2L279.1,418.8z"/>
</g>
</svg>
