<?xml version="1.0" encoding="utf-8"?>
<!-- Generator: Adobe Illustrator 24.2.3, SVG Export Plug-In . SVG Version: 6.00 Build 0)  -->
<svg version="1.1" id="_x32_" xmlns="http://www.w3.org/2000/svg" xmlns:xlink="http://www.w3.org/1999/xlink" x="0px" y="0px"
	 viewBox="0 0 512 512" style="enable-background:new 0 0 512 512;" xml:space="preserve">
<style type="text/css">
	.st0{fill:#0587AA;}
</style>
<g>
	<path class="st0" d="M442.1,402.2c-12.6-18.8-31.7-29.2-49.6-36c-9-3.4-17.8-5.9-25.5-8c-7.7-2.1-14.5-3.9-19-5.6
		c-7.9-2.9-16.3-6.7-22.1-10.8c-2.9-2-5.2-4.1-6.5-5.9c-1.3-1.8-1.7-3.1-1.7-4.2c0-7.6,0-17.1,0-29.6c10.1-11.3,24.6-28.7,30.6-56.3
		c2.1-0.9,4.1-2,6.1-3.4c4.9-3.4,9.1-8.4,12.7-15.1c3.6-6.8,6.7-15.4,10.1-27.3c1.7-6,2.5-11.2,2.5-15.9c0-5.3-1.1-10-3.1-13.8
		c-2.7-5.1-6.8-8.1-10.5-9.7C382.7,71.4,330.6,3.5,261.4,7C198-7.1,157.5-3.6,152.2,52.8c-5,11.2-5.3,28,1.3,45.8
		c-3.9,13.9-5,26.4-5.1,34.7c0,9.5,0,19.9,0,26.4c-1.7,0.5-3.5,1.3-5.4,2.4c-2.9,1.8-5.7,4.5-7.7,8.3c-2,3.8-3.1,8.4-3.1,13.8
		c0,4.6,0.8,9.9,2.5,15.9c4.5,15.8,8.6,25.9,13.9,33.4c2.6,3.7,5.7,6.7,8.9,9c2,1.4,4.1,2.4,6.1,3.4c6,27.6,20.5,45.1,30.6,56.3
		c0,12.5,0,22,0,29.6c0,0.9-0.4,2.3-1.8,4.2c-2.1,2.9-6.5,6.3-11.8,9.3c-5.2,3-11.2,5.5-16.5,7.4c-6.2,2.2-16.1,4.5-27.2,7.7
		c-16.7,4.8-36.5,11.8-52.6,25.6c-8,6.9-15.1,15.6-20.1,26.3c-5,10.8-7.8,23.6-7.8,38.5c0,3.5,0.2,7.1,0.5,10.8
		c0.2,2.6,1.2,4.7,2.4,6.5c2.2,3.3,5.2,5.7,8.8,8.2c6.4,4.3,15.4,8.4,26.8,12.5C129.2,500.8,185.8,512,256,512
		c57,0,105.2-7.4,139.5-16.7c17.2-4.7,30.9-9.8,40.8-14.9c5-2.6,9-5.1,12.2-7.9c1.6-1.4,3-2.9,4.2-4.6c1.2-1.7,2.1-3.9,2.4-6.5
		c0.3-3.7,0.5-7.3,0.5-10.8C455.6,430.8,450.5,414.7,442.1,402.2z M194.4,354.8c3.9-2.7,7.5-5.8,10.3-9.5c2.8-3.7,5-8.3,5-13.6
		c0-8.2,0-18.5,0-32.6v-3l-2-2.2c-10.6-11.8-24.9-27.4-29.8-55.2l-0.8-4.4l-4.2-1.5c-2.7-1-4.8-2-6.6-3.2c-2.6-1.9-5.1-4.4-7.9-9.6
		c-2.8-5.2-5.7-13-8.9-24.2c-1.4-4.9-1.9-8.8-1.9-11.6c0-3.3,0.6-5.2,1.3-6.5c1-1.8,2.2-2.5,3.7-3.1c1.4-0.5,2.9-0.6,3.2-0.6
		l8.1,0.5v-8.2c0,0,0-17.6,0-32.9c0-3.4,0.3-8,0.9-13.2c17.9,25.6,51.9,49.7,108.8,59.5c-7-12.3-21.1-75.7-21.1-75.7
		s38.1,55.6,95.5,61.4c0,0.6,0,0.9,0,0.9v8.2l8-0.4c0.3,0,3,0.2,4.7,1.3c0.9,0.6,1.6,1.2,2.3,2.4c0.7,1.2,1.3,3.2,1.3,6.5
		c0,2.9-0.5,6.7-1.9,11.6c-4.3,15.1-8.1,23.8-11.6,28.7c-1.8,2.5-3.4,4-5.2,5.2c-1.8,1.2-3.9,2.2-6.5,3.2l-4.2,1.5l-0.8,4.4
		c-5,27.8-19.3,43.4-29.8,55.2l-2,2.2v3c0,14.1,0,24.4,0,32.6c0,5.1,2,9.7,4.7,13.4c4.1,5.5,9.9,9.6,16.1,13.2c3,1.7,6,3.2,9.2,4.6
		l-29.8,29.7c-12.2,6.8-28.1,11.1-45.6,11.1c-17.3,0-32.9-4.2-45.1-10.8l-30.6-30.5C185.6,360.2,190.2,357.7,194.4,354.8z
		 M439.7,459.5l-0.7,0.8c-1.1,1.2-3.4,2.9-6.7,4.7c-11.4,6.6-34,14.7-64.2,20.9c-30.3,6.2-68.5,10.6-112.1,10.6
		c-55.7,0-102.6-7.3-135.5-16.2c-16.4-4.4-29.3-9.3-37.8-13.7c-4.2-2.2-7.3-4.2-9-5.8c-0.7-0.6-1.2-1.1-1.4-1.4
		c-0.2-3.1-0.4-6-0.4-8.8c0-17.4,4.3-30.1,10.8-40.1c9.8-14.9,25.6-24,42.1-30.2c8.2-3.1,16.5-5.5,24.1-7.5
		c7.6-2.1,14.5-3.8,20.3-5.8c0.1-0.1,0.3-0.1,0.5-0.2l80.3,80.1l2.4,2.7l4,4.6l87.2-86.9c7.5,2.7,16.9,4.9,27.2,7.9
		c16,4.6,33.7,11.1,46.9,22.4c6.6,5.7,12.1,12.4,16.1,21c4,8.6,6.4,18.9,6.4,32C440.1,453.5,439.9,456.4,439.7,459.5z"/>
</g>
</svg>
