<?xml version="1.0" encoding="utf-8"?>
<!-- Generator: Adobe Illustrator 24.2.3, SVG Export Plug-In . SVG Version: 6.00 Build 0)  -->
<svg version="1.1" id="_x32_" xmlns="http://www.w3.org/2000/svg" xmlns:xlink="http://www.w3.org/1999/xlink" x="0px" y="0px"
	 viewBox="0 0 512 512" style="enable-background:new 0 0 512 512;" xml:space="preserve">
<style type="text/css">
	.st0{fill:#0587AA;}
	.st1{fill:none;stroke:#0587AA;stroke-width:10;stroke-linecap:round;stroke-miterlimit:10;}
</style>
<g>
	<path class="st0" d="M442.5,401.9c-12.6-18.8-31.7-29.3-49.7-36.1c-9-3.4-17.8-5.9-25.6-8c-7.8-2.1-14.5-3.9-19-5.6
		c-4.7-1.8-9.5-3.8-13.9-6.1v-23.7H318c0-5.9,0-12.7,0-20.9c10.1-11.3,24.7-28.7,30.7-56.5c2.1-0.9,4.1-2,6.1-3.4
		c5-3.4,9.2-8.4,12.7-15.1c3.6-6.8,6.8-15.5,10.2-27.3c1.7-6,2.5-11.2,2.5-15.9c0-5.4-1.1-10-3.1-13.8c-1-1.8-2.2-3.3-3.4-4.7
		c3.7-23.9,14-109.3-22.2-139.5C308.9-9.9,257.2,1.9,257.2,1.9s-51.8-11.8-94.1,23.5c-35.4,29.5-26.4,111.5-22.5,137.7
		c-2.1,1.7-4,3.7-5.5,6.5c-2,3.8-3.1,8.4-3.1,13.8c0,4.7,0.8,9.9,2.5,15.9c4.5,15.8,8.6,26,13.9,33.5c2.7,3.7,5.7,6.7,8.9,9
		c2,1.4,4.1,2.5,6.1,3.4c6,27.7,20.6,45.2,30.7,56.5c0,8.1,0,15,0,20.9H179v23.1c-4.9,2.6-10.2,4.9-15,6.6
		c-6.2,2.2-16.2,4.5-27.3,7.7c-16.8,4.9-36.6,11.8-52.7,25.7c-8.1,6.9-15.1,15.6-20.1,26.4s-7.8,23.6-7.8,38.6
		c0,3.5,0.2,7.1,0.5,10.8c0.2,2.6,1.2,4.7,2.4,6.5c2.2,3.2,5.2,5.7,8.9,8.2c6.5,4.3,15.4,8.4,26.9,12.5
		C128.9,500.8,185.7,512,256,512c57.2,0,105.4-7.4,139.8-16.7c17.2-4.7,31-9.8,40.9-14.9c5-2.6,9-5.1,12.2-7.9
		c1.6-1.4,3-2.9,4.2-4.6c1.2-1.8,2.2-3.9,2.4-6.5c0.3-3.7,0.5-7.3,0.5-10.8C456,430.6,450.9,414.5,442.5,401.9z M241,352.5v-30
		h-31.4c0-6.6,0-14.3,0-23.8v-3l-2-2.2c-10.6-11.8-24.9-27.5-29.9-55.3l-0.8-4.4l-4.2-1.5c-2.7-1-4.8-1.9-6.6-3.2
		c-2.7-1.9-5.1-4.4-7.9-9.7c-2.8-5.2-5.7-13-8.9-24.3c-1.4-4.9-1.9-8.8-1.9-11.6c0-3.3,0.6-5.2,1.3-6.5c1-1.8,2.2-2.5,3.7-3.1
		c1.1-0.4,2.1-0.6,2.8-0.6l8.6,1.8v-9.6c0,0,0-6.2,0-14.5c5.5-12.7,14.7-19.7,10.8-26.7c-0.4-0.6-0.7-9.6-1.1-10.4
		c15.5-29.6,35.2-27.2,78.7-27.2l4-48.7c0.7,0,1.3,0,2,0.1l4,48.6c42.5,0,66.1-0.6,77.1,25.3c-0.6,1.6-1.2,11.2-1.9,12.3
		c-3.9,7,5.2,14,10.8,26.7c0,8.3,0,14.5,0,14.5v8.6l8.2-0.9c0.6,0,2.9,0.3,4.5,1.3c0.9,0.6,1.6,1.2,2.3,2.4c0.7,1.2,1.3,3.2,1.3,6.5
		c0,2.9-0.5,6.7-1.9,11.6c-4.3,15.1-8.1,23.9-11.7,28.7c-1.8,2.5-3.4,4-5.2,5.2c-1.8,1.3-3.8,2.2-6.6,3.2l-4.2,1.5l-0.8,4.5
		c-5,27.8-19.3,43.5-29.9,55.3l-2,2.2v3c0,9.5,0,17.2,0,23.8H271v30h-30V352.5z"/>
	<path class="st0" d="M297.2,214.6c17.4,0,31.5-14.1,31.5-31.5s-14.1-31.5-31.5-31.5c-13.6,0-25.1,8.7-29.5,20.7h-23.4
		c-4.4-12.1-15.9-20.7-29.5-20.7c-17.4,0-31.5,14.1-31.5,31.5s14.1,31.5,31.5,31.5c17.3,0,31.2-13.9,31.5-31.1h19.4
		C266,200.7,279.9,214.6,297.2,214.6z M297.2,162.8c11.2,0,20.2,9.1,20.2,20.2c0,11.2-9.1,20.2-20.2,20.2
		c-11.2,0-20.2-9.1-20.2-20.2C277,171.9,286,162.8,297.2,162.8z M214.8,203.3c-11.2,0-20.2-9.1-20.2-20.2c0-11.2,9.1-20.2,20.2-20.2
		c11.2,0,20.2,9.1,20.2,20.2S226,203.3,214.8,203.3z"/>
</g>
<path class="st1" d="M299.7,271.2c1.6-12.8-3-25.9-12.7-32.2"/>
</svg>
