<svg xmlns="http://www.w3.org/2000/svg" width="94.793" height="150" viewBox="0 0 94.793 150">
  <g id="smartphone" transform="translate(0 0.003)">
    <rect id="長方形_41" data-name="長方形 41" width="80.998" height="140.591" transform="translate(7.382 5.159)" fill="#e2e2e2"/>
    <path id="パス_14" data-name="パス 14" d="M229.064,20.173h-73.54a10.332,10.332,0,0,0-10.674,9.989V160.117a10.332,10.332,0,0,0,10.617,10.046h73.539a10.37,10.37,0,0,0,10.636-10.008V30.162a10.389,10.389,0,0,0-10.579-9.989Zm-43.972,7.154h14.442a2.3,2.3,0,1,1,.419,4.586h0a1.541,1.541,0,0,1-.419,0H185.092a2.3,2.3,0,0,1,0-4.586Zm7.23,137.223a6.964,6.964,0,1,1,6.945-6.983h0a6.926,6.926,0,0,1-6.907,6.983h0Zm39.253-22.014H153.051V38.363h78.506Z" transform="translate(-144.85 -20.17)" fill="#3e3a39"/>
  </g>
</svg>
