<?xml version="1.0" encoding="utf-8"?>
<!-- Generator: Adobe Illustrator 24.2.3, SVG Export Plug-In . SVG Version: 6.00 Build 0)  -->
<svg version="1.1" id="_x32_" xmlns="http://www.w3.org/2000/svg" xmlns:xlink="http://www.w3.org/1999/xlink" x="0px" y="0px"
	 viewBox="0 0 512 512" style="enable-background:new 0 0 512 512;" xml:space="preserve">
<style type="text/css">
	.st0{fill:#AF276B;}
	.st1{fill:none;stroke:#AF276B;stroke-width:10;stroke-linecap:round;stroke-miterlimit:10;}
</style>
<g>
	<path class="st0" d="M427.1,411c-11.6-17.3-29.1-26.9-45.6-33.1c-8.3-3.1-16.4-5.4-23.5-7.4c-4.2-1.1-8-2.2-11.3-3.1
		c8.2-4.3,26.3-15.4,26.3-30.5c-29.8,6-41.3-17.4-43-41.4c4.5-7.9,8.4-17.3,10.8-28.5c1.9-0.9,3.8-1.8,5.6-3.1
		c4.5-3.1,8.4-7.7,11.7-13.9c3.3-6.2,6.2-14.2,9.3-25.1c1.6-5.5,2.3-10.3,2.3-14.6c0-4.9-1-9.2-2.9-12.7c-1.6-2.9-3.7-5.1-5.9-6.7
		c14.3-40.2,3.8-78.3-19.1-105.4C339.5,45.6,317.2,1.4,273.7,0C227-1.5,208.5,34,203.9,55.4c-45.6,18.2-72.2,59.5-66.2,108.8
		c1.6,13.1,4.8,23.4,8.8,31.5c-0.5,0.7-1.1,1.3-1.5,2.1c-1.9,3.5-2.9,7.7-2.9,12.7c0,4.3,0.7,9.1,2.3,14.6
		c4.2,14.5,7.9,23.9,12.8,30.7c2.4,3.4,5.2,6.2,8.2,8.2c1.8,1.3,3.7,2.2,5.6,3.1c5.5,25.4,18.9,41.5,28.2,51.8c0,11.5,0,20.2,0,27.2
		c0,0.9-0.3,2.1-1.7,3.9c-2,2.6-6,5.8-10.8,8.5c-4.8,2.7-10.3,5.1-15.2,6.8c-5.7,2-14.8,4.1-25.1,7c-15.4,4.4-33.6,10.9-48.4,23.6
		c-7.4,6.3-13.9,14.3-18.4,24.2s-7.2,21.7-7.2,35.4c0,3.2,0.1,6.5,0.4,9.9c0.2,2.4,1.1,4.3,2.2,5.9c2,3,4.7,5.2,8.1,7.5
		c5.9,3.9,14.1,7.8,24.7,11.5C139.3,501.7,191.4,512,256,512c52.5,0,96.7-6.8,128.3-15.4c15.8-4.3,28.4-9,37.6-13.7
		c4.6-2.4,8.3-4.7,11.2-7.2c1.5-1.3,2.8-2.6,3.8-4.3c1.1-1.6,2-3.5,2.2-5.9c0.3-3.4,0.4-6.7,0.4-9.9
		C439.5,437.3,434.8,422.5,427.1,411z M184.2,260.7l-0.7-4.1l-3.9-1.4c-2.5-0.9-4.4-1.8-6-2.9c-2.4-1.7-4.6-4.1-7.2-8.9
		c-2.6-4.8-5.3-11.9-8.2-22.3c-1.3-4.5-1.8-8.1-1.8-10.7l0-0.1c10.9,12.1,22.4,14.3,22.4,14.3c97.2-34.5,125.2-92.9,125.2-92.9
		s3.7,84.5,34.5,99.3c6.7-8.5,12.1-17,16.4-25.5c0.4,1.1,0.7,2.6,0.7,4.8c0,2.6-0.5,6.1-1.8,10.7c-3.9,13.8-7.5,21.9-10.7,26.4
		c-1.6,2.3-3.1,3.7-4.7,4.8c-1.7,1.1-3.5,2.1-6,2.9l-3.9,1.4l-0.7,4.1c-4.6,25.5-17.7,39.9-27.4,50.7l-1.8,2v2.7c0,13,0,22.4,0,30
		c0,4.7,1.8,8.9,4.3,12.3c1.8,2.4,4,4.5,6.3,6.4l-49.3,76.3l-52.4-81.1c0.4-0.5,0.9-0.9,1.3-1.4c2.6-3.4,4.6-7.6,4.6-12.5
		c0-7.6,0-17,0-30v-2.7l-1.8-2C201.9,300.6,188.8,286.2,184.2,260.7z M199.4,367.4c0.3-0.2,0.6-0.5,0.9-0.7l59.7,92.4l57.3-88.8
		c0.1,0.1,0.3,0.2,0.4,0.2c5.7,3.3,12,5.9,17.9,8.2c0.5,0.2,1.1,0.4,1.7,0.6l16.6,51.2l-35.3-8.3l-58.7,49.2l-58.7-49.2l-35.3,8.3
		l17.7-54.7C189,373.6,194.5,370.8,199.4,367.4z M424.9,463.7l-0.6,0.7c-1,1.1-3.2,2.7-6.1,4.4c-10.5,6.1-31.2,13.5-59.1,19.2
		c-27.9,5.7-63,9.8-103.1,9.8c-51.2,0-94.4-6.7-124.6-14.9c-15.1-4.1-27-8.6-34.8-12.6c-3.9-2-6.7-3.9-8.3-5.3
		c-0.7-0.6-1.1-1-1.2-1.3c-0.2-2.8-0.3-5.5-0.3-8.1c0-16,3.9-27.7,10-36.8c9-13.7,23.6-22.1,38.7-27.8c7.6-2.9,15.2-5,22.2-6.9
		c5.3-1.4,10.2-2.7,14.5-4l-20.7,63.8l47.4-11.1l61.2,51.3l61.2-51.3l47.4,11.1l-19.9-61.2c4.1,1.1,8.4,2.3,12.9,3.6
		c14.7,4.2,31,10.2,43.1,20.6c6.1,5.2,11.2,11.4,14.8,19.3c3.6,7.9,5.9,17.4,5.9,29.4C425.3,458.2,425.1,460.9,424.9,463.7z"/>
</g>
<path class="st1" d="M296.8,287.3c1.6-12.8-3-25.9-12.7-32.2"/>
</svg>
