<svg id="logo" data-name="logo" xmlns="http://www.w3.org/2000/svg" viewBox="0 0 134.19 22.21"><defs><style>.cls-1{fill:#e60020;}.cls-2{fill:#fff;}</style></defs><title>くらそうね</title><rect class="cls-1" width="22.21" height="22.21"/><path class="cls-2" d="M18.86,18.29V9.06a1,1,0,0,0-.37-.78l-6-4.9a2.14,2.14,0,0,0-2.68,0l-6,4.9a1,1,0,0,0-.37.78v9.23a1,1,0,0,0,1,1H8.41a1,1,0,0,0,1-1V12.55H12.8v5.74a1,1,0,0,0,1,1h4A1,1,0,0,0,18.86,18.29Zm-1.11-.1H13.91V12.44a1,1,0,0,0-1-1H9.31a1,1,0,0,0-1,1v5.75H4.47V9.11l6-4.87h0a1,1,0,0,1,1.28,0l6,4.87Z"/><path class="cls-2" d="M74.51.63V2.76l5.21.13L77.4,8.67a16.35,16.35,0,0,0,2.52,0c0-.13,3-7.93,3-7.93Z"/><rect class="cls-2" x="97.02" y="0.94" width="3.86" height="1.5"/><rect class="cls-2" x="60.26" y="0.94" width="1.5" height="3.86"/><polygon class="cls-2" points="38.1 21.22 39.89 21.22 34.22 11.56 33.94 11.09 34.22 10.61 39.94 0.94 38.14 0.94 32.15 11.09 38.1 21.22"/><path class="cls-2" d="M120.7,7.29l-.12.14V.94h-1.5V9.1Z"/><path class="cls-2" d="M119.08,14v7.19h1.5V12.37Z"/><polygon class="cls-2" points="118.14 5.12 115.22 5.12 115.22 6.62 118.14 6.62 118.14 5.07 118.14 5.12"/><path class="cls-2" d="M131.68,15.12V8c0-2.31-1.13-3.91-3.1-4.39a4.06,4.06,0,0,0-1-.13,5.17,5.17,0,0,0-3.77,1.88c-.66.7-2.54,2.79-4.72,5.21l-3.83,4.26v2.12L116,16c3-3.38,7.66-8.5,8.8-9.71a3.77,3.77,0,0,1,2.73-1.43,2.84,2.84,0,0,1,.69.09c1.33.33,2,1.33,2,3v7.16h-2.3a2.39,2.39,0,0,0-2.38,2.39v1.34a2.38,2.38,0,0,0,2.38,2.38h1.36a2.38,2.38,0,0,0,2.38-2.38V16.57h1.57V15.12h-1.57Zm-3.34,4.43a.29.29,0,0,1-.3.3h-.81a.29.29,0,0,1-.3-.3v-.81a.29.29,0,0,1,.3-.3H128a.29.29,0,0,1,.3.3Zm0-2a.29.29,0,0,1-.3.3h-.81a.29.29,0,0,1-.3-.3v-.81a.29.29,0,0,1,.3-.3H128a.29.29,0,0,1,.3.3Zm2,2a.29.29,0,0,1-.3.3h-.81a.29.29,0,0,1-.3-.3v-.81a.29.29,0,0,1,.3-.3H130a.29.29,0,0,1,.3.3Zm0-2a.29.29,0,0,1-.3.3h-.81a.29.29,0,0,1-.3-.3v-.81a.29.29,0,0,1,.3-.3H130a.29.29,0,0,1,.3.3Z"/><path class="cls-2" d="M121.51,6.4h0l-.07.08Z"/><rect class="cls-2" x="73.59" y="9.19" width="11.09" height="1.5"/><rect class="cls-2" x="53.69" y="0.94" width="1.5" height="7.33"/><path class="cls-2" d="M77.23,15v.43A5.81,5.81,0,0,0,83,21.22h1.65V19.73H83.05a4.33,4.33,0,0,1-4.33-4.28V15A4.25,4.25,0,0,1,80,12a3,3,0,0,1,.38-.34h-2A5.72,5.72,0,0,0,77.23,15Z"/><path class="cls-2" d="M56.82,9.21H53.7V10.7h3.11A4.3,4.3,0,0,1,61.09,15v.44a4.32,4.32,0,0,1-4.31,4.27H53.63v1.49h3.15a5.81,5.81,0,0,0,5.8-5.75V15A5.8,5.8,0,0,0,56.82,9.21Z"/><path class="cls-2" d="M99.92,6.81H95.29V8.3h4.62a4.3,4.3,0,0,1,4.28,4.33v2.83a4.32,4.32,0,0,1-4.31,4.28H98.23v1.49h1.65a5.81,5.81,0,0,0,5.8-5.75V12.64A5.8,5.8,0,0,0,99.92,6.81Z"/><rect class="cls-1" x="126.93" y="16.46" width="1.41" height="1.41" rx="0.3"/><rect class="cls-1" x="126.93" y="18.44" width="1.41" height="1.41" rx="0.3"/><rect class="cls-1" x="128.91" y="18.44" width="1.41" height="1.41" rx="0.3"/><rect class="cls-1" x="128.91" y="16.46" width="1.41" height="1.41" rx="0.3"/><path d="M99.93,5.87H94.36V9.23h5.56a3.38,3.38,0,0,1,3.34,3.39v2.84a3.36,3.36,0,0,1-3.39,3.34H97.29v3.37h2.55a6.75,6.75,0,0,0,6.77-6.69V12.64A6.75,6.75,0,0,0,99.93,5.87Zm5.75,9.61a5.81,5.81,0,0,1-5.8,5.75H98.23V19.74h1.65a4.32,4.32,0,0,0,4.31-4.28V12.63A4.3,4.3,0,0,0,99.91,8.3H95.29V6.81h4.63a5.8,5.8,0,0,1,5.76,5.83Z"/><path d="M101.81,0H96.08V3.37h5.73Zm-.93,2.44H97V.94h3.86Z"/><path d="M62.7,5.73V0H59.32V5.73ZM61.76.94V4.79H60.27V.94Z"/><path d="M56.83,8.27h-.71V0H52.75V11.64h4.05A3.37,3.37,0,0,1,60.15,15v.44a3.37,3.37,0,0,1-3.37,3.34H52.69v3.37h4.09a6.76,6.76,0,0,0,6.74-6.69v-.43A6.75,6.75,0,0,0,56.83,8.27ZM53.69.94h1.49V8.27H53.69Zm8.89,14.54a5.81,5.81,0,0,1-5.8,5.75H53.63V19.74h3.15a4.32,4.32,0,0,0,4.31-4.27V15a4.3,4.3,0,0,0-4.28-4.33H53.7V9.21h3.12A5.8,5.8,0,0,1,62.58,15Z"/><path d="M118.53,9.71l-.39.43h0Z"/><path d="M132.62,8c0-2.73-1.43-4.72-3.81-5.3a5,5,0,0,0-1.27-.16,6,6,0,0,0-4.45,2.18c-.31.32-.86.92-1.58,1.71V4.18h0V6.4h0l-.07.08.07-.08V0h-3.37V4.18h-3.86V7.55h3.86v2.59l.39-.43-.39.43h0l-3.86,4.28v4.51c0,.17.18.22.3.09L119,14.17l-.81.9v7.09h3.37V11.33c1.81-2,3.39-3.74,4-4.38a2.87,2.87,0,0,1,2-1.13,2.23,2.23,0,0,1,.47.06c.38.1,1.28.32,1.28,2.08v6.23h-1.36a3.32,3.32,0,0,0-3.32,3.32v1.34a3.32,3.32,0,0,0,3.32,3.32h1.36a3.32,3.32,0,0,0,3.32-3.32V17.51h1.57V14.19h-1.57Zm-17.4-1.34V5.12h2.92v1.5ZM120.58.94V7.43l.12-.14L119.08,9.1V.94Zm-1.5,20.28V14l1.5-1.66v8.85Zm14.17-6.1v1.45h-1.57v2.28a2.38,2.38,0,0,1-2.38,2.38h-1.36a2.38,2.38,0,0,1-2.38-2.38V17.51a2.39,2.39,0,0,1,2.38-2.39h2.3V8c0-1.66-.67-2.66-2-3a2.84,2.84,0,0,0-.69-.09,3.77,3.77,0,0,0-2.73,1.43c-1.14,1.21-5.75,6.33-8.8,9.71l-.8.89V14.79l3.83-4.26c2.18-2.42,4.06-4.51,4.72-5.21a5.17,5.17,0,0,1,3.77-1.88,4.06,4.06,0,0,1,1,.13c2,.48,3.1,2.08,3.1,4.39v7.16h1.57Z"/><path d="M31.06,11.09l6.5,11.07h4L35,11.09,41.58,0h-4ZM39.94.94l-5.72,9.67-.28.48.28.47,5.67,9.66H38.1l-6-10.13,6-10.15Z"/><polygon points="83.97 0 83.97 0 83.96 0.02 83.97 0"/><polygon points="79.3 2.44 79.3 2.44 79.26 2.53 79.3 2.44"/><polygon points="76.93 8.26 77.95 8.26 80.92 0.94 82.57 0.94 79.59 8.26 80.61 8.26 83.97 0 80.29 0 79.3 2.44 79.3 2.44 79.26 2.53 79.3 2.44 74.94 2.44 74.94 0.94 79.91 0.94 80.29 0 74 0 74 3.38 78.92 3.37 76.93 8.26"/><path d="M72.65,11.63H77.2a6.65,6.65,0,0,0-.91,3.4v.44A6.76,6.76,0,0,0,83,22.16h2.59V18.79H83a3.37,3.37,0,0,1-3.37-3.34V15a3.36,3.36,0,0,1,3.26-3.38h2.7V8.25h-13ZM80,12a4.25,4.25,0,0,0-1.24,3v.43a4.33,4.33,0,0,0,4.33,4.28h1.63v1.49H83a5.81,5.81,0,0,1-5.8-5.76V15a5.72,5.72,0,0,1,1.09-3.4h2A3,3,0,0,0,80,12ZM73.59,9.2H84.68v1.5H73.59Z"/></svg>
